<svg width="48" height="86" viewBox="0 0 48 86" fill="none" xmlns="http://www.w3.org/2000/svg">
<path d="M35.3683 6.95581H12.6315C8.79452 6.95581 5.68408 10.0701 5.68408 13.9117V73.3529C5.68408 77.1945 8.79452 80.3088 12.6315 80.3088H35.3683C39.2052 80.3088 42.3157 77.1945 42.3157 73.3529V13.9117C42.3157 10.0701 39.2052 6.95581 35.3683 6.95581Z" fill="white" stroke="black"/>
<path d="M36.6314 12.0146H11.3683C8.22899 12.0146 5.68408 14.5627 5.68408 17.7058V69.5588C5.68408 72.7019 8.22899 75.2499 11.3683 75.2499H36.6314C39.7708 75.2499 42.3157 72.7019 42.3157 69.5588V17.7058C42.3157 14.5627 39.7708 12.0146 36.6314 12.0146Z" fill="white" stroke="black"/>
<path d="M17.6841 40.4707C16.9868 40.4707 16.4209 41.0373 16.4209 41.7354V46.7942C16.4209 47.4923 16.9868 48.0589 17.6841 48.0589C18.3813 48.0589 18.9472 47.4923 18.9472 46.7942V41.7354C18.9472 41.0367 18.3813 40.4707 17.6841 40.4707Z" fill="black"/>
<path d="M30.3159 40.4707C29.6186 40.4707 29.0527 41.0373 29.0527 41.7354V46.7942C29.0527 47.4923 29.6186 48.0589 30.3159 48.0589C31.0132 48.0589 31.5791 47.4923 31.5791 46.7942V41.7354C31.5791 41.0367 31.0132 40.4707 30.3159 40.4707Z" fill="black"/>
<path d="M18.9473 49.956H20.2104V53.1178C20.2104 53.8159 20.7763 54.3825 21.4736 54.3825C22.1708 54.3825 22.7367 53.8159 22.7367 53.1178V49.956H25.2631V53.1178C25.2631 53.8159 25.8289 54.3825 26.5262 54.3825C27.2235 54.3825 27.7894 53.8159 27.7894 53.1178V49.956H29.0525V40.4707H18.9473V49.956Z" fill="black"/>
<path fill-rule="evenodd" clip-rule="evenodd" d="M26.9828 36.8375L27.6315 35.8352C27.7193 35.6999 27.6675 35.5281 27.5153 35.4497C27.365 35.3714 27.1711 35.4176 27.0839 35.5534L26.4517 36.5304C25.7254 36.1698 24.8904 35.9631 23.9999 35.9631C23.11 35.9631 22.2751 36.1698 21.5481 36.531L20.9153 35.5529C20.8275 35.4182 20.6355 35.3721 20.4833 35.4497C20.3329 35.5275 20.2812 35.6994 20.3677 35.8346L21.017 36.8375C19.7645 37.6579 18.9473 38.9774 18.9473 40.4705H29.0525C29.0525 38.9774 28.2353 37.6579 26.9828 36.8375ZM22.1052 38.7802C21.7559 38.7802 21.4736 38.5284 21.4736 38.2168C21.4736 37.9051 21.7559 37.6533 22.1052 37.6533C22.4544 37.6533 22.7367 37.9051 22.7367 38.2168C22.7367 38.5284 22.4544 38.7802 22.1052 38.7802ZM25.2631 38.2168C25.2631 38.5284 25.5454 38.7802 25.8946 38.7802C26.2439 38.7802 26.5262 38.5284 26.5262 38.2168C26.5262 37.9051 26.2439 37.6533 25.8946 37.6533C25.5454 37.6533 25.2631 37.9051 25.2631 38.2168Z" fill="black"/>
</svg>
