<svg width="84" height="68" viewBox="0 0 84 68" fill="none" xmlns="http://www.w3.org/2000/svg">
<path d="M10 7.5H74C75.933 7.5 77.5 9.067 77.5 11V58C77.5 59.933 75.933 61.5 74 61.5H10C8.067 61.5 6.5 59.933 6.5 58V11C6.5 9.067 8.067 7.5 10 7.5Z" fill="white" stroke="black"/>
<path d="M42 46.9703C45.6583 47.2519 49.1846 45.5172 51.2414 42.4242C53.2981 39.3312 53.5704 35.3536 51.9549 32H42.7306C44.4773 32.0082 46.0663 33.03 46.824 34.6322C47.5818 36.2345 47.3754 38.1364 46.2925 39.5316L42 46.9703Z" fill="black"/>
<path d="M42.5 41C44.9853 41 47 38.9853 47 36.5C47 34.0147 44.9853 32 42.5 32C40.0147 32 38 34.0147 38 36.5C38 38.9853 40.0147 41 42.5 41Z" fill="black"/>
<path d="M52 31.8656C50.3472 28.5006 47.0532 26.2765 43.348 26.024C39.6429 25.7714 36.0838 27.5284 34 30.6388L38.1969 38C37.7547 36.5776 38.0029 35.0274 38.8663 33.819C39.7298 32.6107 41.1069 31.8864 42.5803 31.8656H52Z" fill="black"/>
<path d="M33.7709 31C31.7052 34.0352 31.427 37.9214 33.0398 41.2121C34.6526 44.5028 37.9148 46.7054 41.6125 47L46 39.6437C44.9199 40.9332 43.2144 41.5437 41.5458 41.2379C39.8773 40.9321 38.5087 39.7583 37.9717 38.1724L33.7709 31Z" fill="black"/>
<path d="M42 46.9703C45.6583 47.2519 49.1846 45.5172 51.2414 42.4242C53.2981 39.3312 53.5704 35.3536 51.9549 32H42.7306C44.4773 32.0082 46.0663 33.03 46.824 34.6322C47.5818 36.2345 47.3754 38.1364 46.2925 39.5316L42 46.9703Z" stroke="white"/>
<path d="M42.5 41C44.9853 41 47 38.9853 47 36.5C47 34.0147 44.9853 32 42.5 32C40.0147 32 38 34.0147 38 36.5C38 38.9853 40.0147 41 42.5 41Z" stroke="white"/>
<path d="M52 31.8656C50.3472 28.5006 47.0532 26.2765 43.348 26.024C39.6429 25.7714 36.0838 27.5284 34 30.6388L38.1969 38C37.7547 36.5776 38.0029 35.0274 38.8663 33.819C39.7298 32.6107 41.1069 31.8864 42.5803 31.8656H52Z" stroke="white"/>
<path d="M33.7709 31C31.7052 34.0352 31.427 37.9214 33.0398 41.2121C34.6526 44.5028 37.9148 46.7054 41.6125 47L46 39.6437C44.9199 40.9332 43.2144 41.5437 41.5458 41.2379C39.8773 40.9321 38.5087 39.7583 37.9717 38.1724L33.7709 31Z" stroke="white"/>
<path d="M10 7.5H74C75.933 7.5 77.5 9.067 77.5 11V15.5H6.5V11C6.5 9.067 8.067 7.5 10 7.5Z" fill="white" stroke="black"/>
<path fill-rule="evenodd" clip-rule="evenodd" d="M11.5 13C12.3284 13 13 12.3284 13 11.5C13 10.6716 12.3284 10 11.5 10C10.6716 10 10 10.6716 10 11.5C10 12.3284 10.6716 13 11.5 13Z" fill="black"/>
<path fill-rule="evenodd" clip-rule="evenodd" d="M15.5 13C16.3284 13 17 12.3284 17 11.5C17 10.6716 16.3284 10 15.5 10C14.6716 10 14 10.6716 14 11.5C14 12.3284 14.6716 13 15.5 13Z" fill="black"/>
<path fill-rule="evenodd" clip-rule="evenodd" d="M19.5 13C20.3284 13 21 12.3284 21 11.5C21 10.6716 20.3284 10 19.5 10C18.6716 10 18 10.6716 18 11.5C18 12.3284 18.6716 13 19.5 13Z" fill="black"/>
</svg>
