<svg width="45" height="45" viewBox="0 0 45 45" fill="none" xmlns="http://www.w3.org/2000/svg">
<path d="M35.7927 4.62549C35.7927 4.62549 35.187 7.87436 28.5791 14.1151C28.5791 14.1151 22.1365 19.9888 19.2547 24.3573C18.6123 25.3302 18.1534 26.4315 17.9698 27.6062C17.6945 29.3867 17.9698 31.7728 20.7965 33.0577C22.2833 33.7185 23.9536 33.8286 25.5138 33.4065C27.1107 32.9659 29.3868 31.9564 31.9932 29.6803C31.9932 29.6803 39.4271 23.6598 39.5556 14.7392C39.5556 14.6107 39.5556 14.5006 39.5556 14.3721C39.6106 13.436 39.6106 8.22311 35.7927 4.62549Z" fill="white"/>
<path d="M30.415 1.68868C30.415 1.68868 23.4768 -2.11085 14.2624 1.68868C14.2624 1.68868 6.11272 4.5888 1.72583 14.1519C1.68912 14.2253 1.65241 14.3171 1.59734 14.3905C1.15682 15.2348 -1.79837 21.5123 1.65241 31.1121C1.65241 31.1121 4.90128 39.9776 13.9504 43.2265C13.9504 43.2265 22.3938 46.6773 31.6265 43.2265C31.6265 43.2265 40.3085 39.6473 44.4568 30.7266C44.5485 30.5431 44.4935 30.3044 44.3466 30.176C44.2548 30.1025 44.1264 30.0475 43.9245 30.1576C43.8143 30.2127 43.7225 30.3044 43.6491 30.4146C42.8966 31.4792 37.2799 39.1517 28.1573 40.7302C28.1573 40.7302 19.2918 41.9967 14.3909 35.6825C12.0231 32.6172 11.3072 28.5424 12.4269 24.8346C12.8858 23.2928 13.6751 21.5674 14.9783 19.7869C14.9783 19.7869 17.548 15.8773 22.2653 11.8942C22.2653 11.9125 30.36 4.55209 30.415 1.68868Z" fill="white"/>
<mask id="mask0_767_956" style="mask-type:alpha" maskUnits="userSpaceOnUse" x="0" y="0" width="45" height="45">
<path d="M35.7927 4.62549C35.7927 4.62549 35.187 7.87436 28.5791 14.1151C28.5791 14.1151 22.1365 19.9888 19.2547 24.3573C18.6123 25.3302 18.1534 26.4315 17.9698 27.6062C17.6945 29.3867 17.9698 31.7728 20.7965 33.0577C22.2833 33.7185 23.9536 33.8286 25.5138 33.4065C27.1107 32.9659 29.3868 31.9564 31.9932 29.6803C31.9932 29.6803 39.4271 23.6598 39.5556 14.7392C39.5556 14.6107 39.5556 14.5006 39.5556 14.3721C39.6106 13.436 39.6106 8.22311 35.7927 4.62549Z" fill="#EF3401"/>
<path d="M30.415 1.68868C30.415 1.68868 23.4768 -2.11085 14.2624 1.68868C14.2624 1.68868 6.11272 4.5888 1.72583 14.1519C1.68912 14.2253 1.65241 14.3171 1.59734 14.3905C1.15682 15.2348 -1.79837 21.5123 1.65241 31.1121C1.65241 31.1121 4.90128 39.9776 13.9504 43.2265C13.9504 43.2265 22.3938 46.6773 31.6265 43.2265C31.6265 43.2265 40.3085 39.6473 44.4568 30.7266C44.5485 30.5431 44.4935 30.3044 44.3466 30.176C44.2548 30.1025 44.1264 30.0475 43.9245 30.1576C43.8143 30.2127 43.7225 30.3044 43.6491 30.4146C42.8966 31.4792 37.2799 39.1517 28.1573 40.7302C28.1573 40.7302 19.2918 41.9967 14.3909 35.6825C12.0231 32.6172 11.3072 28.5424 12.4269 24.8346C12.8858 23.2928 13.6751 21.5674 14.9783 19.7869C14.9783 19.7869 17.548 15.8773 22.2653 11.8942C22.2653 11.9125 30.36 4.55209 30.415 1.68868Z" fill="#EF3401"/>
</mask>
<g mask="url(#mask0_767_956)">
<path d="M18.9971 2.90054C19.2911 2.90054 19.5294 2.66222 19.5294 2.36824C19.5294 2.07426 19.2911 1.83594 18.9971 1.83594C18.7032 1.83594 18.4648 2.07426 18.4648 2.36824C18.4648 2.66222 18.7032 2.90054 18.9971 2.90054Z" fill="#EF3401" fill-opacity="0.4"/>
<path d="M20.2086 2.90054C20.5026 2.90054 20.7409 2.66222 20.7409 2.36824C20.7409 2.07426 20.5026 1.83594 20.2086 1.83594C19.9146 1.83594 19.6763 2.07426 19.6763 2.36824C19.6763 2.66222 19.9146 2.90054 20.2086 2.90054Z" fill="#EF3401" fill-opacity="0.4"/>
<path d="M10.5723 4.05679C10.8663 4.05679 11.1046 3.81847 11.1046 3.52449C11.1046 3.23051 10.8663 2.99219 10.5723 2.99219C10.2784 2.99219 10.04 3.23051 10.04 3.52449C10.04 3.81847 10.2784 4.05679 10.5723 4.05679Z" fill="#EF3401" fill-opacity="0.4"/>
<path d="M11.7838 4.05679C12.0777 4.05679 12.3161 3.81847 12.3161 3.52449C12.3161 3.23051 12.0777 2.99219 11.7838 2.99219C11.4898 2.99219 11.2515 3.23051 11.2515 3.52449C11.2515 3.81847 11.4898 4.05679 11.7838 4.05679Z" fill="#EF3401" fill-opacity="0.4"/>
<path d="M12.9771 4.05679C13.2711 4.05679 13.5094 3.81847 13.5094 3.52449C13.5094 3.23051 13.2711 2.99219 12.9771 2.99219C12.6831 2.99219 12.4448 3.23051 12.4448 3.52449C12.4448 3.81847 12.6831 4.05679 12.9771 4.05679Z" fill="#EF3401" fill-opacity="0.4"/>
<path d="M17.8043 4.05679C18.0983 4.05679 18.3366 3.81847 18.3366 3.52449C18.3366 3.23051 18.0983 2.99219 17.8043 2.99219C17.5103 2.99219 17.272 3.23051 17.272 3.52449C17.272 3.81847 17.5103 4.05679 17.8043 4.05679Z" fill="#EF3401" fill-opacity="0.4"/>
<path d="M18.9971 4.05679C19.2911 4.05679 19.5294 3.81847 19.5294 3.52449C19.5294 3.23051 19.2911 2.99219 18.9971 2.99219C18.7032 2.99219 18.4648 3.23051 18.4648 3.52449C18.4648 3.81847 18.7032 4.05679 18.9971 4.05679Z" fill="#EF3401" fill-opacity="0.4"/>
<path d="M20.2086 4.05679C20.5026 4.05679 20.7409 3.81847 20.7409 3.52449C20.7409 3.23051 20.5026 2.99219 20.2086 2.99219C19.9146 2.99219 19.6763 3.23051 19.6763 3.52449C19.6763 3.81847 19.9146 4.05679 20.2086 4.05679Z" fill="#EF3401" fill-opacity="0.4"/>
<path d="M21.401 4.05679C21.6949 4.05679 21.9333 3.81847 21.9333 3.52449C21.9333 3.23051 21.6949 2.99219 21.401 2.99219C21.107 2.99219 20.8687 3.23051 20.8687 3.52449C20.8687 3.81847 21.107 4.05679 21.401 4.05679Z" fill="#EF3401" fill-opacity="0.4"/>
<path d="M9.37898 5.21353C9.67296 5.21353 9.91128 4.97521 9.91128 4.68123C9.91128 4.38724 9.67296 4.14893 9.37898 4.14893C9.085 4.14893 8.84668 4.38724 8.84668 4.68123C8.84668 4.97521 9.085 5.21353 9.37898 5.21353Z" fill="#EF3401" fill-opacity="0.4"/>
<path d="M10.5723 5.21353C10.8663 5.21353 11.1046 4.97521 11.1046 4.68123C11.1046 4.38724 10.8663 4.14893 10.5723 4.14893C10.2784 4.14893 10.04 4.38724 10.04 4.68123C10.04 4.97521 10.2784 5.21353 10.5723 5.21353Z" fill="#EF3401" fill-opacity="0.4"/>
<path d="M11.7838 5.21353C12.0777 5.21353 12.3161 4.97521 12.3161 4.68123C12.3161 4.38724 12.0777 4.14893 11.7838 4.14893C11.4898 4.14893 11.2515 4.38724 11.2515 4.68123C11.2515 4.97521 11.4898 5.21353 11.7838 5.21353Z" fill="#EF3401" fill-opacity="0.4"/>
<path d="M12.9771 5.21353C13.2711 5.21353 13.5094 4.97521 13.5094 4.68123C13.5094 4.38724 13.2711 4.14893 12.9771 4.14893C12.6831 4.14893 12.4448 4.38724 12.4448 4.68123C12.4448 4.97521 12.6831 5.21353 12.9771 5.21353Z" fill="#EF3401" fill-opacity="0.4"/>
<path d="M17.8043 5.21353C18.0983 5.21353 18.3366 4.97521 18.3366 4.68123C18.3366 4.38724 18.0983 4.14893 17.8043 4.14893C17.5103 4.14893 17.272 4.38724 17.272 4.68123C17.272 4.97521 17.5103 5.21353 17.8043 5.21353Z" fill="#EF3401" fill-opacity="0.4"/>
<path d="M18.9971 5.21353C19.2911 5.21353 19.5294 4.97521 19.5294 4.68123C19.5294 4.38724 19.2911 4.14893 18.9971 4.14893C18.7032 4.14893 18.4648 4.38724 18.4648 4.68123C18.4648 4.97521 18.7032 5.21353 18.9971 5.21353Z" fill="#EF3401" fill-opacity="0.4"/>
<path d="M20.2086 5.21353C20.5026 5.21353 20.7409 4.97521 20.7409 4.68123C20.7409 4.38724 20.5026 4.14893 20.2086 4.14893C19.9146 4.14893 19.6763 4.38724 19.6763 4.68123C19.6763 4.97521 19.9146 5.21353 20.2086 5.21353Z" fill="#EF3401" fill-opacity="0.4"/>
<path d="M8.16756 6.36929C8.46154 6.36929 8.69986 6.13097 8.69986 5.83699C8.69986 5.54301 8.46154 5.30469 8.16756 5.30469C7.87357 5.30469 7.63525 5.54301 7.63525 5.83699C7.63525 6.13097 7.87357 6.36929 8.16756 6.36929Z" fill="#EF3401" fill-opacity="0.4"/>
<path d="M9.37898 6.36929C9.67296 6.36929 9.91128 6.13097 9.91128 5.83699C9.91128 5.54301 9.67296 5.30469 9.37898 5.30469C9.085 5.30469 8.84668 5.54301 8.84668 5.83699C8.84668 6.13097 9.085 6.36929 9.37898 6.36929Z" fill="#EF3401" fill-opacity="0.4"/>
<path d="M10.5723 6.36929C10.8663 6.36929 11.1046 6.13097 11.1046 5.83699C11.1046 5.54301 10.8663 5.30469 10.5723 5.30469C10.2784 5.30469 10.04 5.54301 10.04 5.83699C10.04 6.13097 10.2784 6.36929 10.5723 6.36929Z" fill="#EF3401" fill-opacity="0.4"/>
<path d="M11.7838 6.36929C12.0777 6.36929 12.3161 6.13097 12.3161 5.83699C12.3161 5.54301 12.0777 5.30469 11.7838 5.30469C11.4898 5.30469 11.2515 5.54301 11.2515 5.83699C11.2515 6.13097 11.4898 6.36929 11.7838 6.36929Z" fill="#EF3401" fill-opacity="0.4"/>
<path d="M12.9771 6.36929C13.2711 6.36929 13.5094 6.13097 13.5094 5.83699C13.5094 5.54301 13.2711 5.30469 12.9771 5.30469C12.6831 5.30469 12.4448 5.54301 12.4448 5.83699C12.4448 6.13097 12.6831 6.36929 12.9771 6.36929Z" fill="#EF3401" fill-opacity="0.4"/>
<path d="M14.1876 6.36929C14.4816 6.36929 14.7199 6.13097 14.7199 5.83699C14.7199 5.54301 14.4816 5.30469 14.1876 5.30469C13.8936 5.30469 13.6553 5.54301 13.6553 5.83699C13.6553 6.13097 13.8936 6.36929 14.1876 6.36929Z" fill="#EF3401" fill-opacity="0.4"/>
<path d="M15.3809 6.36929C15.6749 6.36929 15.9132 6.13097 15.9132 5.83699C15.9132 5.54301 15.6749 5.30469 15.3809 5.30469C15.087 5.30469 14.8486 5.54301 14.8486 5.83699C14.8486 6.13097 15.087 6.36929 15.3809 6.36929Z" fill="#EF3401" fill-opacity="0.4"/>
<path d="M16.5919 6.36929C16.8859 6.36929 17.1242 6.13097 17.1242 5.83699C17.1242 5.54301 16.8859 5.30469 16.5919 5.30469C16.2979 5.30469 16.0596 5.54301 16.0596 5.83699C16.0596 6.13097 16.2979 6.36929 16.5919 6.36929Z" fill="#EF3401" fill-opacity="0.4"/>
<path d="M17.8043 6.36929C18.0983 6.36929 18.3366 6.13097 18.3366 5.83699C18.3366 5.54301 18.0983 5.30469 17.8043 5.30469C17.5103 5.30469 17.272 5.54301 17.272 5.83699C17.272 6.13097 17.5103 6.36929 17.8043 6.36929Z" fill="#EF3401" fill-opacity="0.4"/>
<path d="M18.9971 6.36929C19.2911 6.36929 19.5294 6.13097 19.5294 5.83699C19.5294 5.54301 19.2911 5.30469 18.9971 5.30469C18.7032 5.30469 18.4648 5.54301 18.4648 5.83699C18.4648 6.13097 18.7032 6.36929 18.9971 6.36929Z" fill="#EF3401" fill-opacity="0.4"/>
<path d="M20.2086 6.36929C20.5026 6.36929 20.7409 6.13097 20.7409 5.83699C20.7409 5.54301 20.5026 5.30469 20.2086 5.30469C19.9146 5.30469 19.6763 5.54301 19.6763 5.83699C19.6763 6.13097 19.9146 6.36929 20.2086 6.36929Z" fill="#EF3401" fill-opacity="0.4"/>
<path d="M21.401 6.36929C21.6949 6.36929 21.9333 6.13097 21.9333 5.83699C21.9333 5.54301 21.6949 5.30469 21.401 5.30469C21.107 5.30469 20.8687 5.54301 20.8687 5.83699C20.8687 6.13097 21.107 6.36929 21.401 6.36929Z" fill="#EF3401" fill-opacity="0.4"/>
<path d="M22.6134 6.36929C22.9073 6.36929 23.1457 6.13097 23.1457 5.83699C23.1457 5.54301 22.9073 5.30469 22.6134 5.30469C22.3194 5.30469 22.0811 5.54301 22.0811 5.83699C22.0811 6.13097 22.3194 6.36929 22.6134 6.36929Z" fill="#EF3401" fill-opacity="0.4"/>
<path d="M8.16756 7.52603C8.46154 7.52603 8.69986 7.28771 8.69986 6.99373C8.69986 6.69974 8.46154 6.46143 8.16756 6.46143C7.87357 6.46143 7.63525 6.69974 7.63525 6.99373C7.63525 7.28771 7.87357 7.52603 8.16756 7.52603Z" fill="#EF3401" fill-opacity="0.4"/>
<path d="M9.37898 7.52603C9.67296 7.52603 9.91128 7.28771 9.91128 6.99373C9.91128 6.69974 9.67296 6.46143 9.37898 6.46143C9.085 6.46143 8.84668 6.69974 8.84668 6.99373C8.84668 7.28771 9.085 7.52603 9.37898 7.52603Z" fill="#EF3401" fill-opacity="0.4"/>
<path d="M10.5723 7.52603C10.8663 7.52603 11.1046 7.28771 11.1046 6.99373C11.1046 6.69974 10.8663 6.46143 10.5723 6.46143C10.2784 6.46143 10.04 6.69974 10.04 6.99373C10.04 7.28771 10.2784 7.52603 10.5723 7.52603Z" fill="#EF3401" fill-opacity="0.4"/>
<path d="M11.7838 7.52603C12.0777 7.52603 12.3161 7.28771 12.3161 6.99373C12.3161 6.69974 12.0777 6.46143 11.7838 6.46143C11.4898 6.46143 11.2515 6.69974 11.2515 6.99373C11.2515 7.28771 11.4898 7.52603 11.7838 7.52603Z" fill="#EF3401" fill-opacity="0.4"/>
<path d="M14.1876 7.52603C14.4816 7.52603 14.7199 7.28771 14.7199 6.99373C14.7199 6.69974 14.4816 6.46143 14.1876 6.46143C13.8936 6.46143 13.6553 6.69974 13.6553 6.99373C13.6553 7.28771 13.8936 7.52603 14.1876 7.52603Z" fill="#EF3401" fill-opacity="0.4"/>
<path d="M15.3809 7.52603C15.6749 7.52603 15.9132 7.28771 15.9132 6.99373C15.9132 6.69974 15.6749 6.46143 15.3809 6.46143C15.087 6.46143 14.8486 6.69974 14.8486 6.99373C14.8486 7.28771 15.087 7.52603 15.3809 7.52603Z" fill="#EF3401" fill-opacity="0.4"/>
<path d="M16.5919 7.52603C16.8859 7.52603 17.1242 7.28771 17.1242 6.99373C17.1242 6.69974 16.8859 6.46143 16.5919 6.46143C16.2979 6.46143 16.0596 6.69974 16.0596 6.99373C16.0596 7.28771 16.2979 7.52603 16.5919 7.52603Z" fill="#EF3401" fill-opacity="0.4"/>
<path d="M17.8043 7.52603C18.0983 7.52603 18.3366 7.28771 18.3366 6.99373C18.3366 6.69974 18.0983 6.46143 17.8043 6.46143C17.5103 6.46143 17.272 6.69974 17.272 6.99373C17.272 7.28771 17.5103 7.52603 17.8043 7.52603Z" fill="#EF3401" fill-opacity="0.4"/>
<path d="M18.9971 7.52603C19.2911 7.52603 19.5294 7.28771 19.5294 6.99373C19.5294 6.69974 19.2911 6.46143 18.9971 6.46143C18.7032 6.46143 18.4648 6.69974 18.4648 6.99373C18.4648 7.28771 18.7032 7.52603 18.9971 7.52603Z" fill="#EF3401" fill-opacity="0.4"/>
<path d="M20.2086 7.52603C20.5026 7.52603 20.7409 7.28771 20.7409 6.99373C20.7409 6.69974 20.5026 6.46143 20.2086 6.46143C19.9146 6.46143 19.6763 6.69974 19.6763 6.99373C19.6763 7.28771 19.9146 7.52603 20.2086 7.52603Z" fill="#EF3401" fill-opacity="0.4"/>
<path d="M21.401 7.52603C21.6949 7.52603 21.9333 7.28771 21.9333 6.99373C21.9333 6.69974 21.6949 6.46143 21.401 6.46143C21.107 6.46143 20.8687 6.69974 20.8687 6.99373C20.8687 7.28771 21.107 7.52603 21.401 7.52603Z" fill="#EF3401" fill-opacity="0.4"/>
<path d="M22.6134 7.52603C22.9073 7.52603 23.1457 7.28771 23.1457 6.99373C23.1457 6.69974 22.9073 6.46143 22.6134 6.46143C22.3194 6.46143 22.0811 6.69974 22.0811 6.99373C22.0811 7.28771 22.3194 7.52603 22.6134 7.52603Z" fill="#EF3401" fill-opacity="0.4"/>
<path d="M8.16756 8.68277C8.46154 8.68277 8.69986 8.44445 8.69986 8.15047C8.69986 7.85648 8.46154 7.61816 8.16756 7.61816C7.87357 7.61816 7.63525 7.85648 7.63525 8.15047C7.63525 8.44445 7.87357 8.68277 8.16756 8.68277Z" fill="#EF3401" fill-opacity="0.4"/>
<path d="M9.37898 8.68277C9.67296 8.68277 9.91128 8.44445 9.91128 8.15047C9.91128 7.85648 9.67296 7.61816 9.37898 7.61816C9.085 7.61816 8.84668 7.85648 8.84668 8.15047C8.84668 8.44445 9.085 8.68277 9.37898 8.68277Z" fill="#EF3401" fill-opacity="0.4"/>
<path d="M10.5723 8.68277C10.8663 8.68277 11.1046 8.44445 11.1046 8.15047C11.1046 7.85648 10.8663 7.61816 10.5723 7.61816C10.2784 7.61816 10.04 7.85648 10.04 8.15047C10.04 8.44445 10.2784 8.68277 10.5723 8.68277Z" fill="#EF3401" fill-opacity="0.4"/>
<path d="M14.1876 8.68277C14.4816 8.68277 14.7199 8.44445 14.7199 8.15047C14.7199 7.85648 14.4816 7.61816 14.1876 7.61816C13.8936 7.61816 13.6553 7.85648 13.6553 8.15047C13.6553 8.44445 13.8936 8.68277 14.1876 8.68277Z" fill="#EF3401" fill-opacity="0.4"/>
<path d="M15.3809 8.68277C15.6749 8.68277 15.9132 8.44445 15.9132 8.15047C15.9132 7.85648 15.6749 7.61816 15.3809 7.61816C15.087 7.61816 14.8486 7.85648 14.8486 8.15047C14.8486 8.44445 15.087 8.68277 15.3809 8.68277Z" fill="#EF3401" fill-opacity="0.4"/>
<path d="M16.5919 8.68277C16.8859 8.68277 17.1242 8.44445 17.1242 8.15047C17.1242 7.85648 16.8859 7.61816 16.5919 7.61816C16.2979 7.61816 16.0596 7.85648 16.0596 8.15047C16.0596 8.44445 16.2979 8.68277 16.5919 8.68277Z" fill="#EF3401" fill-opacity="0.4"/>
<path d="M17.8043 8.68277C18.0983 8.68277 18.3366 8.44445 18.3366 8.15047C18.3366 7.85648 18.0983 7.61816 17.8043 7.61816C17.5103 7.61816 17.272 7.85648 17.272 8.15047C17.272 8.44445 17.5103 8.68277 17.8043 8.68277Z" fill="#EF3401" fill-opacity="0.4"/>
<path d="M18.9971 8.68277C19.2911 8.68277 19.5294 8.44445 19.5294 8.15047C19.5294 7.85648 19.2911 7.61816 18.9971 7.61816C18.7032 7.61816 18.4648 7.85648 18.4648 8.15047C18.4648 8.44445 18.7032 8.68277 18.9971 8.68277Z" fill="#EF3401" fill-opacity="0.4"/>
<path d="M20.2086 8.68277C20.5026 8.68277 20.7409 8.44445 20.7409 8.15047C20.7409 7.85648 20.5026 7.61816 20.2086 7.61816C19.9146 7.61816 19.6763 7.85648 19.6763 8.15047C19.6763 8.44445 19.9146 8.68277 20.2086 8.68277Z" fill="#EF3401" fill-opacity="0.4"/>
<path d="M21.401 8.68277C21.6949 8.68277 21.9333 8.44445 21.9333 8.15047C21.9333 7.85648 21.6949 7.61816 21.401 7.61816C21.107 7.61816 20.8687 7.85648 20.8687 8.15047C20.8687 8.44445 21.107 8.68277 21.401 8.68277Z" fill="#EF3401" fill-opacity="0.4"/>
<path d="M4.5699 9.83902C4.86388 9.83902 5.1022 9.6007 5.1022 9.30672C5.1022 9.01273 4.86388 8.77441 4.5699 8.77441C4.27592 8.77441 4.0376 9.01273 4.0376 9.30672C4.0376 9.6007 4.27592 9.83902 4.5699 9.83902Z" fill="#EF3401" fill-opacity="0.4"/>
<path d="M5.76326 9.83902C6.05724 9.83902 6.29556 9.6007 6.29556 9.30672C6.29556 9.01273 6.05724 8.77441 5.76326 8.77441C5.46928 8.77441 5.23096 9.01273 5.23096 9.30672C5.23096 9.6007 5.46928 9.83902 5.76326 9.83902Z" fill="#EF3401" fill-opacity="0.4"/>
<path d="M8.16756 9.83902C8.46154 9.83902 8.69986 9.6007 8.69986 9.30672C8.69986 9.01273 8.46154 8.77441 8.16756 8.77441C7.87357 8.77441 7.63525 9.01273 7.63525 9.30672C7.63525 9.6007 7.87357 9.83902 8.16756 9.83902Z" fill="#EF3401" fill-opacity="0.4"/>
<path d="M9.37898 9.83902C9.67296 9.83902 9.91128 9.6007 9.91128 9.30672C9.91128 9.01273 9.67296 8.77441 9.37898 8.77441C9.085 8.77441 8.84668 9.01273 8.84668 9.30672C8.84668 9.6007 9.085 9.83902 9.37898 9.83902Z" fill="#EF3401" fill-opacity="0.4"/>
<path d="M10.5723 9.83902C10.8663 9.83902 11.1046 9.6007 11.1046 9.30672C11.1046 9.01273 10.8663 8.77441 10.5723 8.77441C10.2784 8.77441 10.04 9.01273 10.04 9.30672C10.04 9.6007 10.2784 9.83902 10.5723 9.83902Z" fill="#EF3401" fill-opacity="0.4"/>
<path d="M12.9771 9.83902C13.2711 9.83902 13.5094 9.6007 13.5094 9.30672C13.5094 9.01273 13.2711 8.77441 12.9771 8.77441C12.6831 8.77441 12.4448 9.01273 12.4448 9.30672C12.4448 9.6007 12.6831 9.83902 12.9771 9.83902Z" fill="#EF3401" fill-opacity="0.4"/>
<path d="M14.1876 9.83902C14.4816 9.83902 14.7199 9.6007 14.7199 9.30672C14.7199 9.01273 14.4816 8.77441 14.1876 8.77441C13.8936 8.77441 13.6553 9.01273 13.6553 9.30672C13.6553 9.6007 13.8936 9.83902 14.1876 9.83902Z" fill="#EF3401" fill-opacity="0.4"/>
<path d="M15.3809 9.83902C15.6749 9.83902 15.9132 9.6007 15.9132 9.30672C15.9132 9.01273 15.6749 8.77441 15.3809 8.77441C15.087 8.77441 14.8486 9.01273 14.8486 9.30672C14.8486 9.6007 15.087 9.83902 15.3809 9.83902Z" fill="#EF3401" fill-opacity="0.4"/>
<path d="M16.5919 9.83902C16.8859 9.83902 17.1242 9.6007 17.1242 9.30672C17.1242 9.01273 16.8859 8.77441 16.5919 8.77441C16.2979 8.77441 16.0596 9.01273 16.0596 9.30672C16.0596 9.6007 16.2979 9.83902 16.5919 9.83902Z" fill="#EF3401" fill-opacity="0.4"/>
<path d="M17.8043 9.83902C18.0983 9.83902 18.3366 9.6007 18.3366 9.30672C18.3366 9.01273 18.0983 8.77441 17.8043 8.77441C17.5103 8.77441 17.272 9.01273 17.272 9.30672C17.272 9.6007 17.5103 9.83902 17.8043 9.83902Z" fill="#EF3401" fill-opacity="0.4"/>
<path d="M18.9971 9.83902C19.2911 9.83902 19.5294 9.6007 19.5294 9.30672C19.5294 9.01273 19.2911 8.77441 18.9971 8.77441C18.7032 8.77441 18.4648 9.01273 18.4648 9.30672C18.4648 9.6007 18.7032 9.83902 18.9971 9.83902Z" fill="#EF3401" fill-opacity="0.4"/>
<path d="M20.2086 9.83902C20.5026 9.83902 20.7409 9.6007 20.7409 9.30672C20.7409 9.01273 20.5026 8.77441 20.2086 8.77441C19.9146 8.77441 19.6763 9.01273 19.6763 9.30672C19.6763 9.6007 19.9146 9.83902 20.2086 9.83902Z" fill="#EF3401" fill-opacity="0.4"/>
<path d="M21.401 9.83902C21.6949 9.83902 21.9333 9.6007 21.9333 9.30672C21.9333 9.01273 21.6949 8.77441 21.401 8.77441C21.107 8.77441 20.8687 9.01273 20.8687 9.30672C20.8687 9.6007 21.107 9.83902 21.401 9.83902Z" fill="#EF3401" fill-opacity="0.4"/>
<path d="M3.35847 10.9953C3.65245 10.9953 3.89077 10.7569 3.89077 10.463C3.89077 10.169 3.65245 9.93066 3.35847 9.93066C3.06449 9.93066 2.82617 10.169 2.82617 10.463C2.82617 10.7569 3.06449 10.9953 3.35847 10.9953Z" fill="#EF3401" fill-opacity="0.4"/>
<path d="M9.37898 10.9953C9.67296 10.9953 9.91128 10.7569 9.91128 10.463C9.91128 10.169 9.67296 9.93066 9.37898 9.93066C9.085 9.93066 8.84668 10.169 8.84668 10.463C8.84668 10.7569 9.085 10.9953 9.37898 10.9953Z" fill="#EF3401" fill-opacity="0.4"/>
<path d="M10.5723 10.9953C10.8663 10.9953 11.1046 10.7569 11.1046 10.463C11.1046 10.169 10.8663 9.93066 10.5723 9.93066C10.2784 9.93066 10.04 10.169 10.04 10.463C10.04 10.7569 10.2784 10.9953 10.5723 10.9953Z" fill="#EF3401" fill-opacity="0.4"/>
<path d="M12.9771 10.9953C13.2711 10.9953 13.5094 10.7569 13.5094 10.463C13.5094 10.169 13.2711 9.93066 12.9771 9.93066C12.6831 9.93066 12.4448 10.169 12.4448 10.463C12.4448 10.7569 12.6831 10.9953 12.9771 10.9953Z" fill="#EF3401" fill-opacity="0.4"/>
<path d="M14.1876 10.9953C14.4816 10.9953 14.7199 10.7569 14.7199 10.463C14.7199 10.169 14.4816 9.93066 14.1876 9.93066C13.8936 9.93066 13.6553 10.169 13.6553 10.463C13.6553 10.7569 13.8936 10.9953 14.1876 10.9953Z" fill="#EF3401" fill-opacity="0.4"/>
<path d="M15.3809 10.9953C15.6749 10.9953 15.9132 10.7569 15.9132 10.463C15.9132 10.169 15.6749 9.93066 15.3809 9.93066C15.087 9.93066 14.8486 10.169 14.8486 10.463C14.8486 10.7569 15.087 10.9953 15.3809 10.9953Z" fill="#EF3401" fill-opacity="0.4"/>
<path d="M16.5919 10.9953C16.8859 10.9953 17.1242 10.7569 17.1242 10.463C17.1242 10.169 16.8859 9.93066 16.5919 9.93066C16.2979 9.93066 16.0596 10.169 16.0596 10.463C16.0596 10.7569 16.2979 10.9953 16.5919 10.9953Z" fill="#EF3401" fill-opacity="0.4"/>
<path d="M17.8043 10.9953C18.0983 10.9953 18.3366 10.7569 18.3366 10.463C18.3366 10.169 18.0983 9.93066 17.8043 9.93066C17.5103 9.93066 17.272 10.169 17.272 10.463C17.272 10.7569 17.5103 10.9953 17.8043 10.9953Z" fill="#EF3401" fill-opacity="0.4"/>
<path d="M18.9971 10.9953C19.2911 10.9953 19.5294 10.7569 19.5294 10.463C19.5294 10.169 19.2911 9.93066 18.9971 9.93066C18.7032 9.93066 18.4648 10.169 18.4648 10.463C18.4648 10.7569 18.7032 10.9953 18.9971 10.9953Z" fill="#EF3401" fill-opacity="0.4"/>
<path d="M20.2086 10.9953C20.5026 10.9953 20.7409 10.7569 20.7409 10.463C20.7409 10.169 20.5026 9.93066 20.2086 9.93066C19.9146 9.93066 19.6763 10.169 19.6763 10.463C19.6763 10.7569 19.9146 10.9953 20.2086 10.9953Z" fill="#EF3401" fill-opacity="0.4"/>
<path d="M21.401 10.9953C21.6949 10.9953 21.9333 10.7569 21.9333 10.463C21.9333 10.169 21.6949 9.93066 21.401 9.93066C21.107 9.93066 20.8687 10.169 20.8687 10.463C20.8687 10.7569 21.107 10.9953 21.401 10.9953Z" fill="#EF3401" fill-opacity="0.4"/>
<path d="M2.1656 12.1515C2.45958 12.1515 2.6979 11.9132 2.6979 11.6192C2.6979 11.3252 2.45958 11.0869 2.1656 11.0869C1.87162 11.0869 1.6333 11.3252 1.6333 11.6192C1.6333 11.9132 1.87162 12.1515 2.1656 12.1515Z" fill="#EF3401" fill-opacity="0.4"/>
<path d="M3.35847 12.1515C3.65245 12.1515 3.89077 11.9132 3.89077 11.6192C3.89077 11.3252 3.65245 11.0869 3.35847 11.0869C3.06449 11.0869 2.82617 11.3252 2.82617 11.6192C2.82617 11.9132 3.06449 12.1515 3.35847 12.1515Z" fill="#EF3401" fill-opacity="0.4"/>
<path d="M4.5699 12.1515C4.86388 12.1515 5.1022 11.9132 5.1022 11.6192C5.1022 11.3252 4.86388 11.0869 4.5699 11.0869C4.27592 11.0869 4.0376 11.3252 4.0376 11.6192C4.0376 11.9132 4.27592 12.1515 4.5699 12.1515Z" fill="#EF3401" fill-opacity="0.4"/>
<path d="M6.9742 12.1515C7.26818 12.1515 7.5065 11.9132 7.5065 11.6192C7.5065 11.3252 7.26818 11.0869 6.9742 11.0869C6.68021 11.0869 6.44189 11.3252 6.44189 11.6192C6.44189 11.9132 6.68021 12.1515 6.9742 12.1515Z" fill="#EF3401" fill-opacity="0.4"/>
<path d="M9.37898 12.1515C9.67296 12.1515 9.91128 11.9132 9.91128 11.6192C9.91128 11.3252 9.67296 11.0869 9.37898 11.0869C9.085 11.0869 8.84668 11.3252 8.84668 11.6192C8.84668 11.9132 9.085 12.1515 9.37898 12.1515Z" fill="#EF3401" fill-opacity="0.4"/>
<path d="M14.1876 12.1515C14.4816 12.1515 14.7199 11.9132 14.7199 11.6192C14.7199 11.3252 14.4816 11.0869 14.1876 11.0869C13.8936 11.0869 13.6553 11.3252 13.6553 11.6192C13.6553 11.9132 13.8936 12.1515 14.1876 12.1515Z" fill="#EF3401" fill-opacity="0.4"/>
<path d="M15.3809 12.1515C15.6749 12.1515 15.9132 11.9132 15.9132 11.6192C15.9132 11.3252 15.6749 11.0869 15.3809 11.0869C15.087 11.0869 14.8486 11.3252 14.8486 11.6192C14.8486 11.9132 15.087 12.1515 15.3809 12.1515Z" fill="#EF3401" fill-opacity="0.4"/>
<path d="M16.5919 12.1515C16.8859 12.1515 17.1242 11.9132 17.1242 11.6192C17.1242 11.3252 16.8859 11.0869 16.5919 11.0869C16.2979 11.0869 16.0596 11.3252 16.0596 11.6192C16.0596 11.9132 16.2979 12.1515 16.5919 12.1515Z" fill="#EF3401" fill-opacity="0.4"/>
<path d="M17.8043 12.1515C18.0983 12.1515 18.3366 11.9132 18.3366 11.6192C18.3366 11.3252 18.0983 11.0869 17.8043 11.0869C17.5103 11.0869 17.272 11.3252 17.272 11.6192C17.272 11.9132 17.5103 12.1515 17.8043 12.1515Z" fill="#EF3401" fill-opacity="0.4"/>
<path d="M18.9971 12.1515C19.2911 12.1515 19.5294 11.9132 19.5294 11.6192C19.5294 11.3252 19.2911 11.0869 18.9971 11.0869C18.7032 11.0869 18.4648 11.3252 18.4648 11.6192C18.4648 11.9132 18.7032 12.1515 18.9971 12.1515Z" fill="#EF3401" fill-opacity="0.4"/>
<path d="M20.2086 12.1515C20.5026 12.1515 20.7409 11.9132 20.7409 11.6192C20.7409 11.3252 20.5026 11.0869 20.2086 11.0869C19.9146 11.0869 19.6763 11.3252 19.6763 11.6192C19.6763 11.9132 19.9146 12.1515 20.2086 12.1515Z" fill="#EF3401" fill-opacity="0.4"/>
<path d="M21.401 12.1515C21.6949 12.1515 21.9333 11.9132 21.9333 11.6192C21.9333 11.3252 21.6949 11.0869 21.401 11.0869C21.107 11.0869 20.8687 11.3252 20.8687 11.6192C20.8687 11.9132 21.107 12.1515 21.401 12.1515Z" fill="#EF3401" fill-opacity="0.4"/>
<path d="M2.1656 13.3078C2.45958 13.3078 2.6979 13.0694 2.6979 12.7755C2.6979 12.4815 2.45958 12.2432 2.1656 12.2432C1.87162 12.2432 1.6333 12.4815 1.6333 12.7755C1.6333 13.0694 1.87162 13.3078 2.1656 13.3078Z" fill="#EF3401" fill-opacity="0.4"/>
<path d="M3.35847 13.3078C3.65245 13.3078 3.89077 13.0694 3.89077 12.7755C3.89077 12.4815 3.65245 12.2432 3.35847 12.2432C3.06449 12.2432 2.82617 12.4815 2.82617 12.7755C2.82617 13.0694 3.06449 13.3078 3.35847 13.3078Z" fill="#EF3401" fill-opacity="0.4"/>
<path d="M6.9742 13.3078C7.26818 13.3078 7.5065 13.0694 7.5065 12.7755C7.5065 12.4815 7.26818 12.2432 6.9742 12.2432C6.68021 12.2432 6.44189 12.4815 6.44189 12.7755C6.44189 13.0694 6.68021 13.3078 6.9742 13.3078Z" fill="#EF3401" fill-opacity="0.4"/>
<path d="M15.3809 13.3078C15.6749 13.3078 15.9132 13.0694 15.9132 12.7755C15.9132 12.4815 15.6749 12.2432 15.3809 12.2432C15.087 12.2432 14.8486 12.4815 14.8486 12.7755C14.8486 13.0694 15.087 13.3078 15.3809 13.3078Z" fill="#EF3401" fill-opacity="0.4"/>
<path d="M16.5919 13.3078C16.8859 13.3078 17.1242 13.0694 17.1242 12.7755C17.1242 12.4815 16.8859 12.2432 16.5919 12.2432C16.2979 12.2432 16.0596 12.4815 16.0596 12.7755C16.0596 13.0694 16.2979 13.3078 16.5919 13.3078Z" fill="#EF3401" fill-opacity="0.4"/>
<path d="M17.8043 13.3078C18.0983 13.3078 18.3366 13.0694 18.3366 12.7755C18.3366 12.4815 18.0983 12.2432 17.8043 12.2432C17.5103 12.2432 17.272 12.4815 17.272 12.7755C17.272 13.0694 17.5103 13.3078 17.8043 13.3078Z" fill="#EF3401" fill-opacity="0.4"/>
<path d="M18.9971 13.3078C19.2911 13.3078 19.5294 13.0694 19.5294 12.7755C19.5294 12.4815 19.2911 12.2432 18.9971 12.2432C18.7032 12.2432 18.4648 12.4815 18.4648 12.7755C18.4648 13.0694 18.7032 13.3078 18.9971 13.3078Z" fill="#EF3401" fill-opacity="0.4"/>
<path d="M20.2086 13.3078C20.5026 13.3078 20.7409 13.0694 20.7409 12.7755C20.7409 12.4815 20.5026 12.2432 20.2086 12.2432C19.9146 12.2432 19.6763 12.4815 19.6763 12.7755C19.6763 13.0694 19.9146 13.3078 20.2086 13.3078Z" fill="#EF3401" fill-opacity="0.4"/>
<path d="M21.401 13.3078C21.6949 13.3078 21.9333 13.0694 21.9333 12.7755C21.9333 12.4815 21.6949 12.2432 21.401 12.2432C21.107 12.2432 20.8687 12.4815 20.8687 12.7755C20.8687 13.0694 21.107 13.3078 21.401 13.3078Z" fill="#EF3401" fill-opacity="0.4"/>
<path d="M2.1656 14.4645C2.45958 14.4645 2.6979 14.2262 2.6979 13.9322C2.6979 13.6382 2.45958 13.3999 2.1656 13.3999C1.87162 13.3999 1.6333 13.6382 1.6333 13.9322C1.6333 14.2262 1.87162 14.4645 2.1656 14.4645Z" fill="#EF3401" fill-opacity="0.4"/>
<path d="M4.5699 14.4645C4.86388 14.4645 5.1022 14.2262 5.1022 13.9322C5.1022 13.6382 4.86388 13.3999 4.5699 13.3999C4.27592 13.3999 4.0376 13.6382 4.0376 13.9322C4.0376 14.2262 4.27592 14.4645 4.5699 14.4645Z" fill="#EF3401" fill-opacity="0.4"/>
<path d="M5.76326 14.4645C6.05724 14.4645 6.29556 14.2262 6.29556 13.9322C6.29556 13.6382 6.05724 13.3999 5.76326 13.3999C5.46928 13.3999 5.23096 13.6382 5.23096 13.9322C5.23096 14.2262 5.46928 14.4645 5.76326 14.4645Z" fill="#EF3401" fill-opacity="0.4"/>
<path d="M6.9742 14.4645C7.26818 14.4645 7.5065 14.2262 7.5065 13.9322C7.5065 13.6382 7.26818 13.3999 6.9742 13.3999C6.68021 13.3999 6.44189 13.6382 6.44189 13.9322C6.44189 14.2262 6.68021 14.4645 6.9742 14.4645Z" fill="#EF3401" fill-opacity="0.4"/>
<path d="M9.37898 14.4645C9.67296 14.4645 9.91128 14.2262 9.91128 13.9322C9.91128 13.6382 9.67296 13.3999 9.37898 13.3999C9.085 13.3999 8.84668 13.6382 8.84668 13.9322C8.84668 14.2262 9.085 14.4645 9.37898 14.4645Z" fill="#EF3401" fill-opacity="0.4"/>
<path d="M10.5723 14.4645C10.8663 14.4645 11.1046 14.2262 11.1046 13.9322C11.1046 13.6382 10.8663 13.3999 10.5723 13.3999C10.2784 13.3999 10.04 13.6382 10.04 13.9322C10.04 14.2262 10.2784 14.4645 10.5723 14.4645Z" fill="#EF3401" fill-opacity="0.4"/>
<path d="M15.3809 14.4645C15.6749 14.4645 15.9132 14.2262 15.9132 13.9322C15.9132 13.6382 15.6749 13.3999 15.3809 13.3999C15.087 13.3999 14.8486 13.6382 14.8486 13.9322C14.8486 14.2262 15.087 14.4645 15.3809 14.4645Z" fill="#EF3401" fill-opacity="0.4"/>
<path d="M16.5919 14.4645C16.8859 14.4645 17.1242 14.2262 17.1242 13.9322C17.1242 13.6382 16.8859 13.3999 16.5919 13.3999C16.2979 13.3999 16.0596 13.6382 16.0596 13.9322C16.0596 14.2262 16.2979 14.4645 16.5919 14.4645Z" fill="#EF3401" fill-opacity="0.4"/>
<path d="M17.8043 14.4645C18.0983 14.4645 18.3366 14.2262 18.3366 13.9322C18.3366 13.6382 18.0983 13.3999 17.8043 13.3999C17.5103 13.3999 17.272 13.6382 17.272 13.9322C17.272 14.2262 17.5103 14.4645 17.8043 14.4645Z" fill="#EF3401" fill-opacity="0.4"/>
<path d="M18.9971 14.4645C19.2911 14.4645 19.5294 14.2262 19.5294 13.9322C19.5294 13.6382 19.2911 13.3999 18.9971 13.3999C18.7032 13.3999 18.4648 13.6382 18.4648 13.9322C18.4648 14.2262 18.7032 14.4645 18.9971 14.4645Z" fill="#EF3401" fill-opacity="0.4"/>
<path d="M20.2086 14.4645C20.5026 14.4645 20.7409 14.2262 20.7409 13.9322C20.7409 13.6382 20.5026 13.3999 20.2086 13.3999C19.9146 13.3999 19.6763 13.6382 19.6763 13.9322C19.6763 14.2262 19.9146 14.4645 20.2086 14.4645Z" fill="#EF3401" fill-opacity="0.4"/>
<path d="M3.35847 15.6393C3.65245 15.6393 3.89077 15.401 3.89077 15.107C3.89077 14.813 3.65245 14.5747 3.35847 14.5747C3.06449 14.5747 2.82617 14.813 2.82617 15.107C2.82617 15.401 3.06449 15.6393 3.35847 15.6393Z" fill="#EF3401" fill-opacity="0.4"/>
<path d="M4.5699 15.6393C4.86388 15.6393 5.1022 15.401 5.1022 15.107C5.1022 14.813 4.86388 14.5747 4.5699 14.5747C4.27592 14.5747 4.0376 14.813 4.0376 15.107C4.0376 15.401 4.27592 15.6393 4.5699 15.6393Z" fill="#EF3401" fill-opacity="0.4"/>
<path d="M9.37898 15.6393C9.67296 15.6393 9.91128 15.401 9.91128 15.107C9.91128 14.813 9.67296 14.5747 9.37898 14.5747C9.085 14.5747 8.84668 14.813 8.84668 15.107C8.84668 15.401 9.085 15.6393 9.37898 15.6393Z" fill="#EF3401" fill-opacity="0.4"/>
<path d="M10.5723 15.6393C10.8663 15.6393 11.1046 15.401 11.1046 15.107C11.1046 14.813 10.8663 14.5747 10.5723 14.5747C10.2784 14.5747 10.04 14.813 10.04 15.107C10.04 15.401 10.2784 15.6393 10.5723 15.6393Z" fill="#EF3401" fill-opacity="0.4"/>
<path d="M11.7838 15.6393C12.0777 15.6393 12.3161 15.401 12.3161 15.107C12.3161 14.813 12.0777 14.5747 11.7838 14.5747C11.4898 14.5747 11.2515 14.813 11.2515 15.107C11.2515 15.401 11.4898 15.6393 11.7838 15.6393Z" fill="#EF3401" fill-opacity="0.4"/>
<path d="M16.5919 15.6393C16.8859 15.6393 17.1242 15.401 17.1242 15.107C17.1242 14.813 16.8859 14.5747 16.5919 14.5747C16.2979 14.5747 16.0596 14.813 16.0596 15.107C16.0596 15.401 16.2979 15.6393 16.5919 15.6393Z" fill="#EF3401" fill-opacity="0.4"/>
<path d="M17.8043 15.6393C18.0983 15.6393 18.3366 15.401 18.3366 15.107C18.3366 14.813 18.0983 14.5747 17.8043 14.5747C17.5103 14.5747 17.272 14.813 17.272 15.107C17.272 15.401 17.5103 15.6393 17.8043 15.6393Z" fill="#EF3401" fill-opacity="0.4"/>
<path d="M18.9971 15.6393C19.2911 15.6393 19.5294 15.401 19.5294 15.107C19.5294 14.813 19.2911 14.5747 18.9971 14.5747C18.7032 14.5747 18.4648 14.813 18.4648 15.107C18.4648 15.401 18.7032 15.6393 18.9971 15.6393Z" fill="#EF3401" fill-opacity="0.4"/>
<path d="M20.2086 15.6393C20.5026 15.6393 20.7409 15.401 20.7409 15.107C20.7409 14.813 20.5026 14.5747 20.2086 14.5747C19.9146 14.5747 19.6763 14.813 19.6763 15.107C19.6763 15.401 19.9146 15.6393 20.2086 15.6393Z" fill="#EF3401" fill-opacity="0.4"/>
<path d="M-0.256762 16.7956C0.0372198 16.7956 0.275539 16.5572 0.275539 16.2633C0.275539 15.9693 0.0372198 15.731 -0.256762 15.731C-0.550744 15.731 -0.789062 15.9693 -0.789062 16.2633C-0.789062 16.5572 -0.550744 16.7956 -0.256762 16.7956Z" fill="#EF3401" fill-opacity="0.4"/>
<path d="M0.9532 16.7956C1.24718 16.7956 1.4855 16.5572 1.4855 16.2633C1.4855 15.9693 1.24718 15.731 0.9532 15.731C0.659218 15.731 0.420898 15.9693 0.420898 16.2633C0.420898 16.5572 0.659218 16.7956 0.9532 16.7956Z" fill="#EF3401" fill-opacity="0.4"/>
<path d="M2.1656 16.7956C2.45958 16.7956 2.6979 16.5572 2.6979 16.2633C2.6979 15.9693 2.45958 15.731 2.1656 15.731C1.87162 15.731 1.6333 15.9693 1.6333 16.2633C1.6333 16.5572 1.87162 16.7956 2.1656 16.7956Z" fill="#EF3401" fill-opacity="0.4"/>
<path d="M8.16756 16.7956C8.46154 16.7956 8.69986 16.5572 8.69986 16.2633C8.69986 15.9693 8.46154 15.731 8.16756 15.731C7.87357 15.731 7.63525 15.9693 7.63525 16.2633C7.63525 16.5572 7.87357 16.7956 8.16756 16.7956Z" fill="#EF3401" fill-opacity="0.4"/>
<path d="M11.7838 16.7956C12.0777 16.7956 12.3161 16.5572 12.3161 16.2633C12.3161 15.9693 12.0777 15.731 11.7838 15.731C11.4898 15.731 11.2515 15.9693 11.2515 16.2633C11.2515 16.5572 11.4898 16.7956 11.7838 16.7956Z" fill="#EF3401" fill-opacity="0.4"/>
<path d="M12.9771 16.7956C13.2711 16.7956 13.5094 16.5572 13.5094 16.2633C13.5094 15.9693 13.2711 15.731 12.9771 15.731C12.6831 15.731 12.4448 15.9693 12.4448 16.2633C12.4448 16.5572 12.6831 16.7956 12.9771 16.7956Z" fill="#EF3401" fill-opacity="0.4"/>
<path d="M16.5919 16.7956C16.8859 16.7956 17.1242 16.5572 17.1242 16.2633C17.1242 15.9693 16.8859 15.731 16.5919 15.731C16.2979 15.731 16.0596 15.9693 16.0596 16.2633C16.0596 16.5572 16.2979 16.7956 16.5919 16.7956Z" fill="#EF3401" fill-opacity="0.4"/>
<path d="M17.8043 16.7956C18.0983 16.7956 18.3366 16.5572 18.3366 16.2633C18.3366 15.9693 18.0983 15.731 17.8043 15.731C17.5103 15.731 17.272 15.9693 17.272 16.2633C17.272 16.5572 17.5103 16.7956 17.8043 16.7956Z" fill="#EF3401" fill-opacity="0.4"/>
<path d="M18.9971 16.7956C19.2911 16.7956 19.5294 16.5572 19.5294 16.2633C19.5294 15.9693 19.2911 15.731 18.9971 15.731C18.7032 15.731 18.4648 15.9693 18.4648 16.2633C18.4648 16.5572 18.7032 16.7956 18.9971 16.7956Z" fill="#EF3401" fill-opacity="0.4"/>
<path d="M20.2086 16.7956C20.5026 16.7956 20.7409 16.5572 20.7409 16.2633C20.7409 15.9693 20.5026 15.731 20.2086 15.731C19.9146 15.731 19.6763 15.9693 19.6763 16.2633C19.6763 16.5572 19.9146 16.7956 20.2086 16.7956Z" fill="#EF3401" fill-opacity="0.4"/>
<path d="M21.401 16.7956C21.6949 16.7956 21.9333 16.5572 21.9333 16.2633C21.9333 15.9693 21.6949 15.731 21.401 15.731C21.107 15.731 20.8687 15.9693 20.8687 16.2633C20.8687 16.5572 21.107 16.7956 21.401 16.7956Z" fill="#EF3401" fill-opacity="0.4"/>
<path d="M-0.256762 17.9518C0.0372198 17.9518 0.275539 17.7135 0.275539 17.4195C0.275539 17.1255 0.0372198 16.8872 -0.256762 16.8872C-0.550744 16.8872 -0.789062 17.1255 -0.789062 17.4195C-0.789062 17.7135 -0.550744 17.9518 -0.256762 17.9518Z" fill="#EF3401" fill-opacity="0.4"/>
<path d="M0.9532 17.9518C1.24718 17.9518 1.4855 17.7135 1.4855 17.4195C1.4855 17.1255 1.24718 16.8872 0.9532 16.8872C0.659218 16.8872 0.420898 17.1255 0.420898 17.4195C0.420898 17.7135 0.659218 17.9518 0.9532 17.9518Z" fill="#EF3401" fill-opacity="0.4"/>
<path d="M2.1656 17.9518C2.45958 17.9518 2.6979 17.7135 2.6979 17.4195C2.6979 17.1255 2.45958 16.8872 2.1656 16.8872C1.87162 16.8872 1.6333 17.1255 1.6333 17.4195C1.6333 17.7135 1.87162 17.9518 2.1656 17.9518Z" fill="#EF3401" fill-opacity="0.4"/>
<path d="M3.35847 17.9518C3.65245 17.9518 3.89077 17.7135 3.89077 17.4195C3.89077 17.1255 3.65245 16.8872 3.35847 16.8872C3.06449 16.8872 2.82617 17.1255 2.82617 17.4195C2.82617 17.7135 3.06449 17.9518 3.35847 17.9518Z" fill="#EF3401" fill-opacity="0.4"/>
<path d="M4.5699 17.9518C4.86388 17.9518 5.1022 17.7135 5.1022 17.4195C5.1022 17.1255 4.86388 16.8872 4.5699 16.8872C4.27592 16.8872 4.0376 17.1255 4.0376 17.4195C4.0376 17.7135 4.27592 17.9518 4.5699 17.9518Z" fill="#EF3401" fill-opacity="0.4"/>
<path d="M5.76326 17.9518C6.05724 17.9518 6.29556 17.7135 6.29556 17.4195C6.29556 17.1255 6.05724 16.8872 5.76326 16.8872C5.46928 16.8872 5.23096 17.1255 5.23096 17.4195C5.23096 17.7135 5.46928 17.9518 5.76326 17.9518Z" fill="#EF3401" fill-opacity="0.4"/>
<path d="M6.9742 17.9518C7.26818 17.9518 7.5065 17.7135 7.5065 17.4195C7.5065 17.1255 7.26818 16.8872 6.9742 16.8872C6.68021 16.8872 6.44189 17.1255 6.44189 17.4195C6.44189 17.7135 6.68021 17.9518 6.9742 17.9518Z" fill="#EF3401" fill-opacity="0.4"/>
<path d="M8.16756 17.9518C8.46154 17.9518 8.69986 17.7135 8.69986 17.4195C8.69986 17.1255 8.46154 16.8872 8.16756 16.8872C7.87357 16.8872 7.63525 17.1255 7.63525 17.4195C7.63525 17.7135 7.87357 17.9518 8.16756 17.9518Z" fill="#EF3401" fill-opacity="0.4"/>
<path d="M9.37898 17.9518C9.67296 17.9518 9.91128 17.7135 9.91128 17.4195C9.91128 17.1255 9.67296 16.8872 9.37898 16.8872C9.085 16.8872 8.84668 17.1255 8.84668 17.4195C8.84668 17.7135 9.085 17.9518 9.37898 17.9518Z" fill="#EF3401" fill-opacity="0.4"/>
<path d="M11.7838 17.9518C12.0777 17.9518 12.3161 17.7135 12.3161 17.4195C12.3161 17.1255 12.0777 16.8872 11.7838 16.8872C11.4898 16.8872 11.2515 17.1255 11.2515 17.4195C11.2515 17.7135 11.4898 17.9518 11.7838 17.9518Z" fill="#EF3401" fill-opacity="0.4"/>
<path d="M12.9771 17.9518C13.2711 17.9518 13.5094 17.7135 13.5094 17.4195C13.5094 17.1255 13.2711 16.8872 12.9771 16.8872C12.6831 16.8872 12.4448 17.1255 12.4448 17.4195C12.4448 17.7135 12.6831 17.9518 12.9771 17.9518Z" fill="#EF3401" fill-opacity="0.4"/>
<path d="M16.5919 17.9518C16.8859 17.9518 17.1242 17.7135 17.1242 17.4195C17.1242 17.1255 16.8859 16.8872 16.5919 16.8872C16.2979 16.8872 16.0596 17.1255 16.0596 17.4195C16.0596 17.7135 16.2979 17.9518 16.5919 17.9518Z" fill="#EF3401" fill-opacity="0.4"/>
<path d="M17.8043 17.9518C18.0983 17.9518 18.3366 17.7135 18.3366 17.4195C18.3366 17.1255 18.0983 16.8872 17.8043 16.8872C17.5103 16.8872 17.272 17.1255 17.272 17.4195C17.272 17.7135 17.5103 17.9518 17.8043 17.9518Z" fill="#EF3401" fill-opacity="0.4"/>
<path d="M18.9971 17.9518C19.2911 17.9518 19.5294 17.7135 19.5294 17.4195C19.5294 17.1255 19.2911 16.8872 18.9971 16.8872C18.7032 16.8872 18.4648 17.1255 18.4648 17.4195C18.4648 17.7135 18.7032 17.9518 18.9971 17.9518Z" fill="#EF3401" fill-opacity="0.4"/>
<path d="M21.401 17.9518C21.6949 17.9518 21.9333 17.7135 21.9333 17.4195C21.9333 17.1255 21.6949 16.8872 21.401 16.8872C21.107 16.8872 20.8687 17.1255 20.8687 17.4195C20.8687 17.7135 21.107 17.9518 21.401 17.9518Z" fill="#EF3401" fill-opacity="0.4"/>
<path d="M-0.256762 19.1081C0.0372198 19.1081 0.275539 18.8697 0.275539 18.5758C0.275539 18.2818 0.0372198 18.0435 -0.256762 18.0435C-0.550744 18.0435 -0.789062 18.2818 -0.789062 18.5758C-0.789062 18.8697 -0.550744 19.1081 -0.256762 19.1081Z" fill="#EF3401" fill-opacity="0.4"/>
<path d="M0.9532 19.1081C1.24718 19.1081 1.4855 18.8697 1.4855 18.5758C1.4855 18.2818 1.24718 18.0435 0.9532 18.0435C0.659218 18.0435 0.420898 18.2818 0.420898 18.5758C0.420898 18.8697 0.659218 19.1081 0.9532 19.1081Z" fill="#EF3401" fill-opacity="0.4"/>
<path d="M2.1656 19.1081C2.45958 19.1081 2.6979 18.8697 2.6979 18.5758C2.6979 18.2818 2.45958 18.0435 2.1656 18.0435C1.87162 18.0435 1.6333 18.2818 1.6333 18.5758C1.6333 18.8697 1.87162 19.1081 2.1656 19.1081Z" fill="#EF3401" fill-opacity="0.4"/>
<path d="M3.35847 19.1081C3.65245 19.1081 3.89077 18.8697 3.89077 18.5758C3.89077 18.2818 3.65245 18.0435 3.35847 18.0435C3.06449 18.0435 2.82617 18.2818 2.82617 18.5758C2.82617 18.8697 3.06449 19.1081 3.35847 19.1081Z" fill="#EF3401" fill-opacity="0.4"/>
<path d="M4.5699 19.1081C4.86388 19.1081 5.1022 18.8697 5.1022 18.5758C5.1022 18.2818 4.86388 18.0435 4.5699 18.0435C4.27592 18.0435 4.0376 18.2818 4.0376 18.5758C4.0376 18.8697 4.27592 19.1081 4.5699 19.1081Z" fill="#EF3401" fill-opacity="0.4"/>
<path d="M5.76326 19.1081C6.05724 19.1081 6.29556 18.8697 6.29556 18.5758C6.29556 18.2818 6.05724 18.0435 5.76326 18.0435C5.46928 18.0435 5.23096 18.2818 5.23096 18.5758C5.23096 18.8697 5.46928 19.1081 5.76326 19.1081Z" fill="#EF3401" fill-opacity="0.4"/>
<path d="M6.9742 19.1081C7.26818 19.1081 7.5065 18.8697 7.5065 18.5758C7.5065 18.2818 7.26818 18.0435 6.9742 18.0435C6.68021 18.0435 6.44189 18.2818 6.44189 18.5758C6.44189 18.8697 6.68021 19.1081 6.9742 19.1081Z" fill="#EF3401" fill-opacity="0.4"/>
<path d="M8.16756 19.1081C8.46154 19.1081 8.69986 18.8697 8.69986 18.5758C8.69986 18.2818 8.46154 18.0435 8.16756 18.0435C7.87357 18.0435 7.63525 18.2818 7.63525 18.5758C7.63525 18.8697 7.87357 19.1081 8.16756 19.1081Z" fill="#EF3401" fill-opacity="0.4"/>
<path d="M9.37898 19.1081C9.67296 19.1081 9.91128 18.8697 9.91128 18.5758C9.91128 18.2818 9.67296 18.0435 9.37898 18.0435C9.085 18.0435 8.84668 18.2818 8.84668 18.5758C8.84668 18.8697 9.085 19.1081 9.37898 19.1081Z" fill="#EF3401" fill-opacity="0.4"/>
<path d="M11.7838 19.1081C12.0777 19.1081 12.3161 18.8697 12.3161 18.5758C12.3161 18.2818 12.0777 18.0435 11.7838 18.0435C11.4898 18.0435 11.2515 18.2818 11.2515 18.5758C11.2515 18.8697 11.4898 19.1081 11.7838 19.1081Z" fill="#EF3401" fill-opacity="0.4"/>
<path d="M12.9771 19.1081C13.2711 19.1081 13.5094 18.8697 13.5094 18.5758C13.5094 18.2818 13.2711 18.0435 12.9771 18.0435C12.6831 18.0435 12.4448 18.2818 12.4448 18.5758C12.4448 18.8697 12.6831 19.1081 12.9771 19.1081Z" fill="#EF3401" fill-opacity="0.4"/>
<path d="M16.5919 19.1081C16.8859 19.1081 17.1242 18.8697 17.1242 18.5758C17.1242 18.2818 16.8859 18.0435 16.5919 18.0435C16.2979 18.0435 16.0596 18.2818 16.0596 18.5758C16.0596 18.8697 16.2979 19.1081 16.5919 19.1081Z" fill="#EF3401" fill-opacity="0.4"/>
<path d="M17.8043 19.1081C18.0983 19.1081 18.3366 18.8697 18.3366 18.5758C18.3366 18.2818 18.0983 18.0435 17.8043 18.0435C17.5103 18.0435 17.272 18.2818 17.272 18.5758C17.272 18.8697 17.5103 19.1081 17.8043 19.1081Z" fill="#EF3401" fill-opacity="0.4"/>
<path d="M22.6134 19.1081C22.9073 19.1081 23.1457 18.8697 23.1457 18.5758C23.1457 18.2818 22.9073 18.0435 22.6134 18.0435C22.3194 18.0435 22.0811 18.2818 22.0811 18.5758C22.0811 18.8697 22.3194 19.1081 22.6134 19.1081Z" fill="#EF3401" fill-opacity="0.4"/>
<path d="M-0.256762 20.2648C0.0372198 20.2648 0.275539 20.0265 0.275539 19.7325C0.275539 19.4385 0.0372198 19.2002 -0.256762 19.2002C-0.550744 19.2002 -0.789062 19.4385 -0.789062 19.7325C-0.789062 20.0265 -0.550744 20.2648 -0.256762 20.2648Z" fill="#EF3401" fill-opacity="0.4"/>
<path d="M0.9532 20.2648C1.24718 20.2648 1.4855 20.0265 1.4855 19.7325C1.4855 19.4385 1.24718 19.2002 0.9532 19.2002C0.659218 19.2002 0.420898 19.4385 0.420898 19.7325C0.420898 20.0265 0.659218 20.2648 0.9532 20.2648Z" fill="#EF3401" fill-opacity="0.4"/>
<path d="M2.1656 20.2648C2.45958 20.2648 2.6979 20.0265 2.6979 19.7325C2.6979 19.4385 2.45958 19.2002 2.1656 19.2002C1.87162 19.2002 1.6333 19.4385 1.6333 19.7325C1.6333 20.0265 1.87162 20.2648 2.1656 20.2648Z" fill="#EF3401" fill-opacity="0.4"/>
<path d="M3.35847 20.2648C3.65245 20.2648 3.89077 20.0265 3.89077 19.7325C3.89077 19.4385 3.65245 19.2002 3.35847 19.2002C3.06449 19.2002 2.82617 19.4385 2.82617 19.7325C2.82617 20.0265 3.06449 20.2648 3.35847 20.2648Z" fill="#EF3401" fill-opacity="0.4"/>
<path d="M4.5699 20.2648C4.86388 20.2648 5.1022 20.0265 5.1022 19.7325C5.1022 19.4385 4.86388 19.2002 4.5699 19.2002C4.27592 19.2002 4.0376 19.4385 4.0376 19.7325C4.0376 20.0265 4.27592 20.2648 4.5699 20.2648Z" fill="#EF3401" fill-opacity="0.4"/>
<path d="M5.76326 20.2648C6.05724 20.2648 6.29556 20.0265 6.29556 19.7325C6.29556 19.4385 6.05724 19.2002 5.76326 19.2002C5.46928 19.2002 5.23096 19.4385 5.23096 19.7325C5.23096 20.0265 5.46928 20.2648 5.76326 20.2648Z" fill="#EF3401" fill-opacity="0.4"/>
<path d="M6.9742 20.2648C7.26818 20.2648 7.5065 20.0265 7.5065 19.7325C7.5065 19.4385 7.26818 19.2002 6.9742 19.2002C6.68021 19.2002 6.44189 19.4385 6.44189 19.7325C6.44189 20.0265 6.68021 20.2648 6.9742 20.2648Z" fill="#EF3401" fill-opacity="0.4"/>
<path d="M11.7838 20.2648C12.0777 20.2648 12.3161 20.0265 12.3161 19.7325C12.3161 19.4385 12.0777 19.2002 11.7838 19.2002C11.4898 19.2002 11.2515 19.4385 11.2515 19.7325C11.2515 20.0265 11.4898 20.2648 11.7838 20.2648Z" fill="#EF3401" fill-opacity="0.4"/>
<path d="M17.8043 20.2648C18.0983 20.2648 18.3366 20.0265 18.3366 19.7325C18.3366 19.4385 18.0983 19.2002 17.8043 19.2002C17.5103 19.2002 17.272 19.4385 17.272 19.7325C17.272 20.0265 17.5103 20.2648 17.8043 20.2648Z" fill="#EF3401" fill-opacity="0.4"/>
<path d="M-0.256762 21.421C0.0372198 21.421 0.275539 21.1827 0.275539 20.8887C0.275539 20.5948 0.0372198 20.3564 -0.256762 20.3564C-0.550744 20.3564 -0.789062 20.5948 -0.789062 20.8887C-0.789062 21.1827 -0.550744 21.421 -0.256762 21.421Z" fill="#EF3401" fill-opacity="0.4"/>
<path d="M0.9532 21.421C1.24718 21.421 1.4855 21.1827 1.4855 20.8887C1.4855 20.5948 1.24718 20.3564 0.9532 20.3564C0.659218 20.3564 0.420898 20.5948 0.420898 20.8887C0.420898 21.1827 0.659218 21.421 0.9532 21.421Z" fill="#EF3401" fill-opacity="0.4"/>
<path d="M2.1656 21.421C2.45958 21.421 2.6979 21.1827 2.6979 20.8887C2.6979 20.5948 2.45958 20.3564 2.1656 20.3564C1.87162 20.3564 1.6333 20.5948 1.6333 20.8887C1.6333 21.1827 1.87162 21.421 2.1656 21.421Z" fill="#EF3401" fill-opacity="0.4"/>
<path d="M3.35847 21.421C3.65245 21.421 3.89077 21.1827 3.89077 20.8887C3.89077 20.5948 3.65245 20.3564 3.35847 20.3564C3.06449 20.3564 2.82617 20.5948 2.82617 20.8887C2.82617 21.1827 3.06449 21.421 3.35847 21.421Z" fill="#EF3401" fill-opacity="0.4"/>
<path d="M4.5699 21.421C4.86388 21.421 5.1022 21.1827 5.1022 20.8887C5.1022 20.5948 4.86388 20.3564 4.5699 20.3564C4.27592 20.3564 4.0376 20.5948 4.0376 20.8887C4.0376 21.1827 4.27592 21.421 4.5699 21.421Z" fill="#EF3401" fill-opacity="0.4"/>
<path d="M5.76326 21.421C6.05724 21.421 6.29556 21.1827 6.29556 20.8887C6.29556 20.5948 6.05724 20.3564 5.76326 20.3564C5.46928 20.3564 5.23096 20.5948 5.23096 20.8887C5.23096 21.1827 5.46928 21.421 5.76326 21.421Z" fill="#EF3401" fill-opacity="0.4"/>
<path d="M6.9742 21.421C7.26818 21.421 7.5065 21.1827 7.5065 20.8887C7.5065 20.5948 7.26818 20.3564 6.9742 20.3564C6.68021 20.3564 6.44189 20.5948 6.44189 20.8887C6.44189 21.1827 6.68021 21.421 6.9742 21.421Z" fill="#EF3401" fill-opacity="0.4"/>
<path d="M11.7838 21.421C12.0777 21.421 12.3161 21.1827 12.3161 20.8887C12.3161 20.5948 12.0777 20.3564 11.7838 20.3564C11.4898 20.3564 11.2515 20.5948 11.2515 20.8887C11.2515 21.1827 11.4898 21.421 11.7838 21.421Z" fill="#EF3401" fill-opacity="0.4"/>
<path d="M12.9771 21.421C13.2711 21.421 13.5094 21.1827 13.5094 20.8887C13.5094 20.5948 13.2711 20.3564 12.9771 20.3564C12.6831 20.3564 12.4448 20.5948 12.4448 20.8887C12.4448 21.1827 12.6831 21.421 12.9771 21.421Z" fill="#EF3401" fill-opacity="0.4"/>
<path d="M0.9532 22.5773C1.24718 22.5773 1.4855 22.339 1.4855 22.045C1.4855 21.751 1.24718 21.5127 0.9532 21.5127C0.659218 21.5127 0.420898 21.751 0.420898 22.045C0.420898 22.339 0.659218 22.5773 0.9532 22.5773Z" fill="#EF3401" fill-opacity="0.4"/>
<path d="M2.1656 22.5773C2.45958 22.5773 2.6979 22.339 2.6979 22.045C2.6979 21.751 2.45958 21.5127 2.1656 21.5127C1.87162 21.5127 1.6333 21.751 1.6333 22.045C1.6333 22.339 1.87162 22.5773 2.1656 22.5773Z" fill="#EF3401" fill-opacity="0.4"/>
<path d="M3.35847 22.5773C3.65245 22.5773 3.89077 22.339 3.89077 22.045C3.89077 21.751 3.65245 21.5127 3.35847 21.5127C3.06449 21.5127 2.82617 21.751 2.82617 22.045C2.82617 22.339 3.06449 22.5773 3.35847 22.5773Z" fill="#EF3401" fill-opacity="0.4"/>
<path d="M4.5699 22.5773C4.86388 22.5773 5.1022 22.339 5.1022 22.045C5.1022 21.751 4.86388 21.5127 4.5699 21.5127C4.27592 21.5127 4.0376 21.751 4.0376 22.045C4.0376 22.339 4.27592 22.5773 4.5699 22.5773Z" fill="#EF3401" fill-opacity="0.4"/>
<path d="M5.76326 22.5773C6.05724 22.5773 6.29556 22.339 6.29556 22.045C6.29556 21.751 6.05724 21.5127 5.76326 21.5127C5.46928 21.5127 5.23096 21.751 5.23096 22.045C5.23096 22.339 5.46928 22.5773 5.76326 22.5773Z" fill="#EF3401" fill-opacity="0.4"/>
<path d="M6.9742 22.5773C7.26818 22.5773 7.5065 22.339 7.5065 22.045C7.5065 21.751 7.26818 21.5127 6.9742 21.5127C6.68021 21.5127 6.44189 21.751 6.44189 22.045C6.44189 22.339 6.68021 22.5773 6.9742 22.5773Z" fill="#EF3401" fill-opacity="0.4"/>
<path d="M8.16756 22.5773C8.46154 22.5773 8.69986 22.339 8.69986 22.045C8.69986 21.751 8.46154 21.5127 8.16756 21.5127C7.87357 21.5127 7.63525 21.751 7.63525 22.045C7.63525 22.339 7.87357 22.5773 8.16756 22.5773Z" fill="#EF3401" fill-opacity="0.4"/>
<path d="M11.7838 22.5773C12.0777 22.5773 12.3161 22.339 12.3161 22.045C12.3161 21.751 12.0777 21.5127 11.7838 21.5127C11.4898 21.5127 11.2515 21.751 11.2515 22.045C11.2515 22.339 11.4898 22.5773 11.7838 22.5773Z" fill="#EF3401" fill-opacity="0.4"/>
<path d="M12.9771 22.5773C13.2711 22.5773 13.5094 22.339 13.5094 22.045C13.5094 21.751 13.2711 21.5127 12.9771 21.5127C12.6831 21.5127 12.4448 21.751 12.4448 22.045C12.4448 22.339 12.6831 22.5773 12.9771 22.5773Z" fill="#EF3401" fill-opacity="0.4"/>
<path d="M14.1876 22.5773C14.4816 22.5773 14.7199 22.339 14.7199 22.045C14.7199 21.751 14.4816 21.5127 14.1876 21.5127C13.8936 21.5127 13.6553 21.751 13.6553 22.045C13.6553 22.339 13.8936 22.5773 14.1876 22.5773Z" fill="#EF3401" fill-opacity="0.4"/>
<path d="M2.1656 23.7335C2.45958 23.7335 2.6979 23.4952 2.6979 23.2012C2.6979 22.9073 2.45958 22.6689 2.1656 22.6689C1.87162 22.6689 1.6333 22.9073 1.6333 23.2012C1.6333 23.4952 1.87162 23.7335 2.1656 23.7335Z" fill="#EF3401" fill-opacity="0.4"/>
<path d="M3.35847 23.7335C3.65245 23.7335 3.89077 23.4952 3.89077 23.2012C3.89077 22.9073 3.65245 22.6689 3.35847 22.6689C3.06449 22.6689 2.82617 22.9073 2.82617 23.2012C2.82617 23.4952 3.06449 23.7335 3.35847 23.7335Z" fill="#EF3401" fill-opacity="0.4"/>
<path d="M4.5699 23.7335C4.86388 23.7335 5.1022 23.4952 5.1022 23.2012C5.1022 22.9073 4.86388 22.6689 4.5699 22.6689C4.27592 22.6689 4.0376 22.9073 4.0376 23.2012C4.0376 23.4952 4.27592 23.7335 4.5699 23.7335Z" fill="#EF3401" fill-opacity="0.4"/>
<path d="M5.76326 23.7335C6.05724 23.7335 6.29556 23.4952 6.29556 23.2012C6.29556 22.9073 6.05724 22.6689 5.76326 22.6689C5.46928 22.6689 5.23096 22.9073 5.23096 23.2012C5.23096 23.4952 5.46928 23.7335 5.76326 23.7335Z" fill="#EF3401" fill-opacity="0.4"/>
<path d="M6.9742 23.7335C7.26818 23.7335 7.5065 23.4952 7.5065 23.2012C7.5065 22.9073 7.26818 22.6689 6.9742 22.6689C6.68021 22.6689 6.44189 22.9073 6.44189 23.2012C6.44189 23.4952 6.68021 23.7335 6.9742 23.7335Z" fill="#EF3401" fill-opacity="0.4"/>
<path d="M8.16756 23.7335C8.46154 23.7335 8.69986 23.4952 8.69986 23.2012C8.69986 22.9073 8.46154 22.6689 8.16756 22.6689C7.87357 22.6689 7.63525 22.9073 7.63525 23.2012C7.63525 23.4952 7.87357 23.7335 8.16756 23.7335Z" fill="#EF3401" fill-opacity="0.4"/>
<path d="M9.37898 23.7335C9.67296 23.7335 9.91128 23.4952 9.91128 23.2012C9.91128 22.9073 9.67296 22.6689 9.37898 22.6689C9.085 22.6689 8.84668 22.9073 8.84668 23.2012C8.84668 23.4952 9.085 23.7335 9.37898 23.7335Z" fill="#EF3401" fill-opacity="0.4"/>
<path d="M10.5723 23.7335C10.8663 23.7335 11.1046 23.4952 11.1046 23.2012C11.1046 22.9073 10.8663 22.6689 10.5723 22.6689C10.2784 22.6689 10.04 22.9073 10.04 23.2012C10.04 23.4952 10.2784 23.7335 10.5723 23.7335Z" fill="#EF3401" fill-opacity="0.4"/>
<path d="M11.7838 23.7335C12.0777 23.7335 12.3161 23.4952 12.3161 23.2012C12.3161 22.9073 12.0777 22.6689 11.7838 22.6689C11.4898 22.6689 11.2515 22.9073 11.2515 23.2012C11.2515 23.4952 11.4898 23.7335 11.7838 23.7335Z" fill="#EF3401" fill-opacity="0.4"/>
<path d="M12.9771 23.7335C13.2711 23.7335 13.5094 23.4952 13.5094 23.2012C13.5094 22.9073 13.2711 22.6689 12.9771 22.6689C12.6831 22.6689 12.4448 22.9073 12.4448 23.2012C12.4448 23.4952 12.6831 23.7335 12.9771 23.7335Z" fill="#EF3401" fill-opacity="0.4"/>
<path d="M14.1876 23.7335C14.4816 23.7335 14.7199 23.4952 14.7199 23.2012C14.7199 22.9073 14.4816 22.6689 14.1876 22.6689C13.8936 22.6689 13.6553 22.9073 13.6553 23.2012C13.6553 23.4952 13.8936 23.7335 14.1876 23.7335Z" fill="#EF3401" fill-opacity="0.4"/>
<path d="M2.1656 24.8898C2.45958 24.8898 2.6979 24.6515 2.6979 24.3575C2.6979 24.0635 2.45958 23.8252 2.1656 23.8252C1.87162 23.8252 1.6333 24.0635 1.6333 24.3575C1.6333 24.6515 1.87162 24.8898 2.1656 24.8898Z" fill="#EF3401" fill-opacity="0.4"/>
<path d="M3.35847 24.8898C3.65245 24.8898 3.89077 24.6515 3.89077 24.3575C3.89077 24.0635 3.65245 23.8252 3.35847 23.8252C3.06449 23.8252 2.82617 24.0635 2.82617 24.3575C2.82617 24.6515 3.06449 24.8898 3.35847 24.8898Z" fill="#EF3401" fill-opacity="0.4"/>
<path d="M4.5699 24.8898C4.86388 24.8898 5.1022 24.6515 5.1022 24.3575C5.1022 24.0635 4.86388 23.8252 4.5699 23.8252C4.27592 23.8252 4.0376 24.0635 4.0376 24.3575C4.0376 24.6515 4.27592 24.8898 4.5699 24.8898Z" fill="#EF3401" fill-opacity="0.4"/>
<path d="M5.76326 24.8898C6.05724 24.8898 6.29556 24.6515 6.29556 24.3575C6.29556 24.0635 6.05724 23.8252 5.76326 23.8252C5.46928 23.8252 5.23096 24.0635 5.23096 24.3575C5.23096 24.6515 5.46928 24.8898 5.76326 24.8898Z" fill="#EF3401" fill-opacity="0.4"/>
<path d="M6.9742 24.8898C7.26818 24.8898 7.5065 24.6515 7.5065 24.3575C7.5065 24.0635 7.26818 23.8252 6.9742 23.8252C6.68021 23.8252 6.44189 24.0635 6.44189 24.3575C6.44189 24.6515 6.68021 24.8898 6.9742 24.8898Z" fill="#EF3401" fill-opacity="0.4"/>
<path d="M8.16756 24.8898C8.46154 24.8898 8.69986 24.6515 8.69986 24.3575C8.69986 24.0635 8.46154 23.8252 8.16756 23.8252C7.87357 23.8252 7.63525 24.0635 7.63525 24.3575C7.63525 24.6515 7.87357 24.8898 8.16756 24.8898Z" fill="#EF3401" fill-opacity="0.4"/>
<path d="M9.37898 24.8898C9.67296 24.8898 9.91128 24.6515 9.91128 24.3575C9.91128 24.0635 9.67296 23.8252 9.37898 23.8252C9.085 23.8252 8.84668 24.0635 8.84668 24.3575C8.84668 24.6515 9.085 24.8898 9.37898 24.8898Z" fill="#EF3401" fill-opacity="0.4"/>
<path d="M10.5723 24.8898C10.8663 24.8898 11.1046 24.6515 11.1046 24.3575C11.1046 24.0635 10.8663 23.8252 10.5723 23.8252C10.2784 23.8252 10.04 24.0635 10.04 24.3575C10.04 24.6515 10.2784 24.8898 10.5723 24.8898Z" fill="#EF3401" fill-opacity="0.4"/>
<path d="M11.7838 24.8898C12.0777 24.8898 12.3161 24.6515 12.3161 24.3575C12.3161 24.0635 12.0777 23.8252 11.7838 23.8252C11.4898 23.8252 11.2515 24.0635 11.2515 24.3575C11.2515 24.6515 11.4898 24.8898 11.7838 24.8898Z" fill="#EF3401" fill-opacity="0.4"/>
<path d="M12.9771 24.8898C13.2711 24.8898 13.5094 24.6515 13.5094 24.3575C13.5094 24.0635 13.2711 23.8252 12.9771 23.8252C12.6831 23.8252 12.4448 24.0635 12.4448 24.3575C12.4448 24.6515 12.6831 24.8898 12.9771 24.8898Z" fill="#EF3401" fill-opacity="0.4"/>
<path d="M15.3809 24.8898C15.6749 24.8898 15.9132 24.6515 15.9132 24.3575C15.9132 24.0635 15.6749 23.8252 15.3809 23.8252C15.087 23.8252 14.8486 24.0635 14.8486 24.3575C14.8486 24.6515 15.087 24.8898 15.3809 24.8898Z" fill="#EF3401" fill-opacity="0.4"/>
<path d="M2.1656 26.0465C2.45958 26.0465 2.6979 25.8082 2.6979 25.5142C2.6979 25.2203 2.45958 24.9819 2.1656 24.9819C1.87162 24.9819 1.6333 25.2203 1.6333 25.5142C1.6333 25.8082 1.87162 26.0465 2.1656 26.0465Z" fill="#EF3401" fill-opacity="0.4"/>
<path d="M3.35847 26.0465C3.65245 26.0465 3.89077 25.8082 3.89077 25.5142C3.89077 25.2203 3.65245 24.9819 3.35847 24.9819C3.06449 24.9819 2.82617 25.2203 2.82617 25.5142C2.82617 25.8082 3.06449 26.0465 3.35847 26.0465Z" fill="#EF3401" fill-opacity="0.4"/>
<path d="M4.5699 26.0465C4.86388 26.0465 5.1022 25.8082 5.1022 25.5142C5.1022 25.2203 4.86388 24.9819 4.5699 24.9819C4.27592 24.9819 4.0376 25.2203 4.0376 25.5142C4.0376 25.8082 4.27592 26.0465 4.5699 26.0465Z" fill="#EF3401" fill-opacity="0.4"/>
<path d="M5.76326 26.0465C6.05724 26.0465 6.29556 25.8082 6.29556 25.5142C6.29556 25.2203 6.05724 24.9819 5.76326 24.9819C5.46928 24.9819 5.23096 25.2203 5.23096 25.5142C5.23096 25.8082 5.46928 26.0465 5.76326 26.0465Z" fill="#EF3401" fill-opacity="0.4"/>
<path d="M6.9742 26.0465C7.26818 26.0465 7.5065 25.8082 7.5065 25.5142C7.5065 25.2203 7.26818 24.9819 6.9742 24.9819C6.68021 24.9819 6.44189 25.2203 6.44189 25.5142C6.44189 25.8082 6.68021 26.0465 6.9742 26.0465Z" fill="#EF3401" fill-opacity="0.4"/>
<path d="M8.16756 26.0465C8.46154 26.0465 8.69986 25.8082 8.69986 25.5142C8.69986 25.2203 8.46154 24.9819 8.16756 24.9819C7.87357 24.9819 7.63525 25.2203 7.63525 25.5142C7.63525 25.8082 7.87357 26.0465 8.16756 26.0465Z" fill="#EF3401" fill-opacity="0.4"/>
<path d="M9.37898 26.0465C9.67296 26.0465 9.91128 25.8082 9.91128 25.5142C9.91128 25.2203 9.67296 24.9819 9.37898 24.9819C9.085 24.9819 8.84668 25.2203 8.84668 25.5142C8.84668 25.8082 9.085 26.0465 9.37898 26.0465Z" fill="#EF3401" fill-opacity="0.4"/>
<path d="M10.5723 26.0465C10.8663 26.0465 11.1046 25.8082 11.1046 25.5142C11.1046 25.2203 10.8663 24.9819 10.5723 24.9819C10.2784 24.9819 10.04 25.2203 10.04 25.5142C10.04 25.8082 10.2784 26.0465 10.5723 26.0465Z" fill="#EF3401" fill-opacity="0.4"/>
<path d="M11.7838 26.0465C12.0777 26.0465 12.3161 25.8082 12.3161 25.5142C12.3161 25.2203 12.0777 24.9819 11.7838 24.9819C11.4898 24.9819 11.2515 25.2203 11.2515 25.5142C11.2515 25.8082 11.4898 26.0465 11.7838 26.0465Z" fill="#EF3401" fill-opacity="0.4"/>
<path d="M12.9771 26.0465C13.2711 26.0465 13.5094 25.8082 13.5094 25.5142C13.5094 25.2203 13.2711 24.9819 12.9771 24.9819C12.6831 24.9819 12.4448 25.2203 12.4448 25.5142C12.4448 25.8082 12.6831 26.0465 12.9771 26.0465Z" fill="#EF3401" fill-opacity="0.4"/>
<path d="M2.1656 27.2028C2.45958 27.2028 2.6979 26.9645 2.6979 26.6705C2.6979 26.3765 2.45958 26.1382 2.1656 26.1382C1.87162 26.1382 1.6333 26.3765 1.6333 26.6705C1.6333 26.9645 1.87162 27.2028 2.1656 27.2028Z" fill="#EF3401" fill-opacity="0.4"/>
<path d="M3.35847 27.2028C3.65245 27.2028 3.89077 26.9645 3.89077 26.6705C3.89077 26.3765 3.65245 26.1382 3.35847 26.1382C3.06449 26.1382 2.82617 26.3765 2.82617 26.6705C2.82617 26.9645 3.06449 27.2028 3.35847 27.2028Z" fill="#EF3401" fill-opacity="0.4"/>
<path d="M4.5699 27.2028C4.86388 27.2028 5.1022 26.9645 5.1022 26.6705C5.1022 26.3765 4.86388 26.1382 4.5699 26.1382C4.27592 26.1382 4.0376 26.3765 4.0376 26.6705C4.0376 26.9645 4.27592 27.2028 4.5699 27.2028Z" fill="#EF3401" fill-opacity="0.4"/>
<path d="M5.76326 27.2028C6.05724 27.2028 6.29556 26.9645 6.29556 26.6705C6.29556 26.3765 6.05724 26.1382 5.76326 26.1382C5.46928 26.1382 5.23096 26.3765 5.23096 26.6705C5.23096 26.9645 5.46928 27.2028 5.76326 27.2028Z" fill="#EF3401" fill-opacity="0.4"/>
<path d="M6.9742 27.2028C7.26818 27.2028 7.5065 26.9645 7.5065 26.6705C7.5065 26.3765 7.26818 26.1382 6.9742 26.1382C6.68021 26.1382 6.44189 26.3765 6.44189 26.6705C6.44189 26.9645 6.68021 27.2028 6.9742 27.2028Z" fill="#EF3401" fill-opacity="0.4"/>
<path d="M8.16756 27.2028C8.46154 27.2028 8.69986 26.9645 8.69986 26.6705C8.69986 26.3765 8.46154 26.1382 8.16756 26.1382C7.87357 26.1382 7.63525 26.3765 7.63525 26.6705C7.63525 26.9645 7.87357 27.2028 8.16756 27.2028Z" fill="#EF3401" fill-opacity="0.4"/>
<path d="M9.37898 27.2028C9.67296 27.2028 9.91128 26.9645 9.91128 26.6705C9.91128 26.3765 9.67296 26.1382 9.37898 26.1382C9.085 26.1382 8.84668 26.3765 8.84668 26.6705C8.84668 26.9645 9.085 27.2028 9.37898 27.2028Z" fill="#EF3401" fill-opacity="0.4"/>
<path d="M10.5723 27.2028C10.8663 27.2028 11.1046 26.9645 11.1046 26.6705C11.1046 26.3765 10.8663 26.1382 10.5723 26.1382C10.2784 26.1382 10.04 26.3765 10.04 26.6705C10.04 26.9645 10.2784 27.2028 10.5723 27.2028Z" fill="#EF3401" fill-opacity="0.4"/>
<path d="M11.7838 27.2028C12.0777 27.2028 12.3161 26.9645 12.3161 26.6705C12.3161 26.3765 12.0777 26.1382 11.7838 26.1382C11.4898 26.1382 11.2515 26.3765 11.2515 26.6705C11.2515 26.9645 11.4898 27.2028 11.7838 27.2028Z" fill="#EF3401" fill-opacity="0.4"/>
<path d="M2.1656 28.3595C2.45958 28.3595 2.6979 28.1212 2.6979 27.8272C2.6979 27.5332 2.45958 27.2949 2.1656 27.2949C1.87162 27.2949 1.6333 27.5332 1.6333 27.8272C1.6333 28.1212 1.87162 28.3595 2.1656 28.3595Z" fill="#EF3401" fill-opacity="0.4"/>
<path d="M3.35847 28.3595C3.65245 28.3595 3.89077 28.1212 3.89077 27.8272C3.89077 27.5332 3.65245 27.2949 3.35847 27.2949C3.06449 27.2949 2.82617 27.5332 2.82617 27.8272C2.82617 28.1212 3.06449 28.3595 3.35847 28.3595Z" fill="#EF3401" fill-opacity="0.4"/>
<path d="M4.5699 28.3595C4.86388 28.3595 5.1022 28.1212 5.1022 27.8272C5.1022 27.5332 4.86388 27.2949 4.5699 27.2949C4.27592 27.2949 4.0376 27.5332 4.0376 27.8272C4.0376 28.1212 4.27592 28.3595 4.5699 28.3595Z" fill="#EF3401" fill-opacity="0.4"/>
<path d="M5.76326 28.3595C6.05724 28.3595 6.29556 28.1212 6.29556 27.8272C6.29556 27.5332 6.05724 27.2949 5.76326 27.2949C5.46928 27.2949 5.23096 27.5332 5.23096 27.8272C5.23096 28.1212 5.46928 28.3595 5.76326 28.3595Z" fill="#EF3401" fill-opacity="0.4"/>
<path d="M6.9742 28.3595C7.26818 28.3595 7.5065 28.1212 7.5065 27.8272C7.5065 27.5332 7.26818 27.2949 6.9742 27.2949C6.68021 27.2949 6.44189 27.5332 6.44189 27.8272C6.44189 28.1212 6.68021 28.3595 6.9742 28.3595Z" fill="#EF3401" fill-opacity="0.4"/>
<path d="M8.16756 28.3595C8.46154 28.3595 8.69986 28.1212 8.69986 27.8272C8.69986 27.5332 8.46154 27.2949 8.16756 27.2949C7.87357 27.2949 7.63525 27.5332 7.63525 27.8272C7.63525 28.1212 7.87357 28.3595 8.16756 28.3595Z" fill="#EF3401" fill-opacity="0.4"/>
<path d="M9.37898 28.3595C9.67296 28.3595 9.91128 28.1212 9.91128 27.8272C9.91128 27.5332 9.67296 27.2949 9.37898 27.2949C9.085 27.2949 8.84668 27.5332 8.84668 27.8272C8.84668 28.1212 9.085 28.3595 9.37898 28.3595Z" fill="#EF3401" fill-opacity="0.4"/>
<path d="M10.5723 28.3595C10.8663 28.3595 11.1046 28.1212 11.1046 27.8272C11.1046 27.5332 10.8663 27.2949 10.5723 27.2949C10.2784 27.2949 10.04 27.5332 10.04 27.8272C10.04 28.1212 10.2784 28.3595 10.5723 28.3595Z" fill="#EF3401" fill-opacity="0.4"/>
<path d="M3.35847 29.5158C3.65245 29.5158 3.89077 29.2775 3.89077 28.9835C3.89077 28.6895 3.65245 28.4512 3.35847 28.4512C3.06449 28.4512 2.82617 28.6895 2.82617 28.9835C2.82617 29.2775 3.06449 29.5158 3.35847 29.5158Z" fill="#EF3401" fill-opacity="0.4"/>
<path d="M4.5699 29.5158C4.86388 29.5158 5.1022 29.2775 5.1022 28.9835C5.1022 28.6895 4.86388 28.4512 4.5699 28.4512C4.27592 28.4512 4.0376 28.6895 4.0376 28.9835C4.0376 29.2775 4.27592 29.5158 4.5699 29.5158Z" fill="#EF3401" fill-opacity="0.4"/>
<path d="M5.76326 29.5158C6.05724 29.5158 6.29556 29.2775 6.29556 28.9835C6.29556 28.6895 6.05724 28.4512 5.76326 28.4512C5.46928 28.4512 5.23096 28.6895 5.23096 28.9835C5.23096 29.2775 5.46928 29.5158 5.76326 29.5158Z" fill="#EF3401" fill-opacity="0.4"/>
<path d="M6.9742 29.5158C7.26818 29.5158 7.5065 29.2775 7.5065 28.9835C7.5065 28.6895 7.26818 28.4512 6.9742 28.4512C6.68021 28.4512 6.44189 28.6895 6.44189 28.9835C6.44189 29.2775 6.68021 29.5158 6.9742 29.5158Z" fill="#EF3401" fill-opacity="0.4"/>
<path d="M8.16756 29.5158C8.46154 29.5158 8.69986 29.2775 8.69986 28.9835C8.69986 28.6895 8.46154 28.4512 8.16756 28.4512C7.87357 28.4512 7.63525 28.6895 7.63525 28.9835C7.63525 29.2775 7.87357 29.5158 8.16756 29.5158Z" fill="#EF3401" fill-opacity="0.4"/>
<path d="M9.37898 29.5158C9.67296 29.5158 9.91128 29.2775 9.91128 28.9835C9.91128 28.6895 9.67296 28.4512 9.37898 28.4512C9.085 28.4512 8.84668 28.6895 8.84668 28.9835C8.84668 29.2775 9.085 29.5158 9.37898 29.5158Z" fill="#EF3401" fill-opacity="0.4"/>
<path d="M10.5723 29.5158C10.8663 29.5158 11.1046 29.2775 11.1046 28.9835C11.1046 28.6895 10.8663 28.4512 10.5723 28.4512C10.2784 28.4512 10.04 28.6895 10.04 28.9835C10.04 29.2775 10.2784 29.5158 10.5723 29.5158Z" fill="#EF3401" fill-opacity="0.4"/>
<path d="M4.5699 30.672C4.86388 30.672 5.1022 30.4337 5.1022 30.1397C5.1022 29.8457 4.86388 29.6074 4.5699 29.6074C4.27592 29.6074 4.0376 29.8457 4.0376 30.1397C4.0376 30.4337 4.27592 30.672 4.5699 30.672Z" fill="#EF3401" fill-opacity="0.4"/>
<path d="M5.76326 30.672C6.05724 30.672 6.29556 30.4337 6.29556 30.1397C6.29556 29.8457 6.05724 29.6074 5.76326 29.6074C5.46928 29.6074 5.23096 29.8457 5.23096 30.1397C5.23096 30.4337 5.46928 30.672 5.76326 30.672Z" fill="#EF3401" fill-opacity="0.4"/>
<path d="M6.9742 30.672C7.26818 30.672 7.5065 30.4337 7.5065 30.1397C7.5065 29.8457 7.26818 29.6074 6.9742 29.6074C6.68021 29.6074 6.44189 29.8457 6.44189 30.1397C6.44189 30.4337 6.68021 30.672 6.9742 30.672Z" fill="#EF3401" fill-opacity="0.4"/>
<path d="M10.5723 30.672C10.8663 30.672 11.1046 30.4337 11.1046 30.1397C11.1046 29.8457 10.8663 29.6074 10.5723 29.6074C10.2784 29.6074 10.04 29.8457 10.04 30.1397C10.04 30.4337 10.2784 30.672 10.5723 30.672Z" fill="#EF3401" fill-opacity="0.4"/>
<path d="M5.76326 31.8283C6.05724 31.8283 6.29556 31.59 6.29556 31.296C6.29556 31.002 6.05724 30.7637 5.76326 30.7637C5.46928 30.7637 5.23096 31.002 5.23096 31.296C5.23096 31.59 5.46928 31.8283 5.76326 31.8283Z" fill="#EF3401" fill-opacity="0.4"/>
<path d="M6.9742 31.8283C7.26818 31.8283 7.5065 31.59 7.5065 31.296C7.5065 31.002 7.26818 30.7637 6.9742 30.7637C6.68021 30.7637 6.44189 31.002 6.44189 31.296C6.44189 31.59 6.68021 31.8283 6.9742 31.8283Z" fill="#EF3401" fill-opacity="0.4"/>
<path d="M11.7838 31.8283C12.0777 31.8283 12.3161 31.59 12.3161 31.296C12.3161 31.002 12.0777 30.7637 11.7838 30.7637C11.4898 30.7637 11.2515 31.002 11.2515 31.296C11.2515 31.59 11.4898 31.8283 11.7838 31.8283Z" fill="#EF3401" fill-opacity="0.4"/>
<path d="M12.9771 31.8283C13.2711 31.8283 13.5094 31.59 13.5094 31.296C13.5094 31.002 13.2711 30.7637 12.9771 30.7637C12.6831 30.7637 12.4448 31.002 12.4448 31.296C12.4448 31.59 12.6831 31.8283 12.9771 31.8283Z" fill="#EF3401" fill-opacity="0.4"/>
<path d="M8.16756 32.985C8.46154 32.985 8.69986 32.7467 8.69986 32.4527C8.69986 32.1587 8.46154 31.9204 8.16756 31.9204C7.87357 31.9204 7.63525 32.1587 7.63525 32.4527C7.63525 32.7467 7.87357 32.985 8.16756 32.985Z" fill="#EF3401" fill-opacity="0.4"/>
<path d="M9.37898 34.1593C9.67296 34.1593 9.91128 33.921 9.91128 33.627C9.91128 33.333 9.67296 33.0947 9.37898 33.0947C9.085 33.0947 8.84668 33.333 8.84668 33.627C8.84668 33.921 9.085 34.1593 9.37898 34.1593Z" fill="#EF3401" fill-opacity="0.4"/>
<path d="M10.5723 34.1593C10.8663 34.1593 11.1046 33.921 11.1046 33.627C11.1046 33.333 10.8663 33.0947 10.5723 33.0947C10.2784 33.0947 10.04 33.333 10.04 33.627C10.04 33.921 10.2784 34.1593 10.5723 34.1593Z" fill="#EF3401" fill-opacity="0.4"/>
<path d="M11.7838 34.1593C12.0777 34.1593 12.3161 33.921 12.3161 33.627C12.3161 33.333 12.0777 33.0947 11.7838 33.0947C11.4898 33.0947 11.2515 33.333 11.2515 33.627C11.2515 33.921 11.4898 34.1593 11.7838 34.1593Z" fill="#EF3401" fill-opacity="0.4"/>
<path d="M12.9771 34.1593C13.2711 34.1593 13.5094 33.921 13.5094 33.627C13.5094 33.333 13.2711 33.0947 12.9771 33.0947C12.6831 33.0947 12.4448 33.333 12.4448 33.627C12.4448 33.921 12.6831 34.1593 12.9771 34.1593Z" fill="#EF3401" fill-opacity="0.4"/>
<path d="M14.1876 34.1593C14.4816 34.1593 14.7199 33.921 14.7199 33.627C14.7199 33.333 14.4816 33.0947 14.1876 33.0947C13.8936 33.0947 13.6553 33.333 13.6553 33.627C13.6553 33.921 13.8936 34.1593 14.1876 34.1593Z" fill="#EF3401" fill-opacity="0.4"/>
<path d="M10.5723 35.3161C10.8663 35.3161 11.1046 35.0777 11.1046 34.7838C11.1046 34.4898 10.8663 34.2515 10.5723 34.2515C10.2784 34.2515 10.04 34.4898 10.04 34.7838C10.04 35.0777 10.2784 35.3161 10.5723 35.3161Z" fill="#EF3401" fill-opacity="0.4"/>
<path d="M11.7838 35.3161C12.0777 35.3161 12.3161 35.0777 12.3161 34.7838C12.3161 34.4898 12.0777 34.2515 11.7838 34.2515C11.4898 34.2515 11.2515 34.4898 11.2515 34.7838C11.2515 35.0777 11.4898 35.3161 11.7838 35.3161Z" fill="#EF3401" fill-opacity="0.4"/>
<path d="M12.9771 35.3161C13.2711 35.3161 13.5094 35.0777 13.5094 34.7838C13.5094 34.4898 13.2711 34.2515 12.9771 34.2515C12.6831 34.2515 12.4448 34.4898 12.4448 34.7838C12.4448 35.0777 12.6831 35.3161 12.9771 35.3161Z" fill="#EF3401" fill-opacity="0.4"/>
<path d="M14.1876 35.3161C14.4816 35.3161 14.7199 35.0777 14.7199 34.7838C14.7199 34.4898 14.4816 34.2515 14.1876 34.2515C13.8936 34.2515 13.6553 34.4898 13.6553 34.7838C13.6553 35.0777 13.8936 35.3161 14.1876 35.3161Z" fill="#EF3401" fill-opacity="0.4"/>
<path d="M15.3809 35.3161C15.6749 35.3161 15.9132 35.0777 15.9132 34.7838C15.9132 34.4898 15.6749 34.2515 15.3809 34.2515C15.087 34.2515 14.8486 34.4898 14.8486 34.7838C14.8486 35.0777 15.087 35.3161 15.3809 35.3161Z" fill="#EF3401" fill-opacity="0.4"/>
<path d="M10.5723 36.4723C10.8663 36.4723 11.1046 36.234 11.1046 35.94C11.1046 35.646 10.8663 35.4077 10.5723 35.4077C10.2784 35.4077 10.04 35.646 10.04 35.94C10.04 36.234 10.2784 36.4723 10.5723 36.4723Z" fill="#EF3401" fill-opacity="0.4"/>
<path d="M11.7838 36.4723C12.0777 36.4723 12.3161 36.234 12.3161 35.94C12.3161 35.646 12.0777 35.4077 11.7838 35.4077C11.4898 35.4077 11.2515 35.646 11.2515 35.94C11.2515 36.234 11.4898 36.4723 11.7838 36.4723Z" fill="#EF3401" fill-opacity="0.4"/>
<path d="M12.9771 36.4723C13.2711 36.4723 13.5094 36.234 13.5094 35.94C13.5094 35.646 13.2711 35.4077 12.9771 35.4077C12.6831 35.4077 12.4448 35.646 12.4448 35.94C12.4448 36.234 12.6831 36.4723 12.9771 36.4723Z" fill="#EF3401" fill-opacity="0.4"/>
<path d="M14.1876 36.4723C14.4816 36.4723 14.7199 36.234 14.7199 35.94C14.7199 35.646 14.4816 35.4077 14.1876 35.4077C13.8936 35.4077 13.6553 35.646 13.6553 35.94C13.6553 36.234 13.8936 36.4723 14.1876 36.4723Z" fill="#EF3401" fill-opacity="0.4"/>
<path d="M15.3809 36.4723C15.6749 36.4723 15.9132 36.234 15.9132 35.94C15.9132 35.646 15.6749 35.4077 15.3809 35.4077C15.087 35.4077 14.8486 35.646 14.8486 35.94C14.8486 36.234 15.087 36.4723 15.3809 36.4723Z" fill="#EF3401" fill-opacity="0.4"/>
<path d="M16.5919 36.4723C16.8859 36.4723 17.1242 36.234 17.1242 35.94C17.1242 35.646 16.8859 35.4077 16.5919 35.4077C16.2979 35.4077 16.0596 35.646 16.0596 35.94C16.0596 36.234 16.2979 36.4723 16.5919 36.4723Z" fill="#EF3401" fill-opacity="0.4"/>
<path d="M17.8043 36.4723C18.0983 36.4723 18.3366 36.234 18.3366 35.94C18.3366 35.646 18.0983 35.4077 17.8043 35.4077C17.5103 35.4077 17.272 35.646 17.272 35.94C17.272 36.234 17.5103 36.4723 17.8043 36.4723Z" fill="#EF3401" fill-opacity="0.4"/>
<path d="M10.5723 37.6291C10.8663 37.6291 11.1046 37.3907 11.1046 37.0968C11.1046 36.8028 10.8663 36.5645 10.5723 36.5645C10.2784 36.5645 10.04 36.8028 10.04 37.0968C10.04 37.3907 10.2784 37.6291 10.5723 37.6291Z" fill="#EF3401" fill-opacity="0.4"/>
<path d="M11.7838 37.6291C12.0777 37.6291 12.3161 37.3907 12.3161 37.0968C12.3161 36.8028 12.0777 36.5645 11.7838 36.5645C11.4898 36.5645 11.2515 36.8028 11.2515 37.0968C11.2515 37.3907 11.4898 37.6291 11.7838 37.6291Z" fill="#EF3401" fill-opacity="0.4"/>
<path d="M12.9771 37.6291C13.2711 37.6291 13.5094 37.3907 13.5094 37.0968C13.5094 36.8028 13.2711 36.5645 12.9771 36.5645C12.6831 36.5645 12.4448 36.8028 12.4448 37.0968C12.4448 37.3907 12.6831 37.6291 12.9771 37.6291Z" fill="#EF3401" fill-opacity="0.4"/>
<path d="M14.1876 37.6291C14.4816 37.6291 14.7199 37.3907 14.7199 37.0968C14.7199 36.8028 14.4816 36.5645 14.1876 36.5645C13.8936 36.5645 13.6553 36.8028 13.6553 37.0968C13.6553 37.3907 13.8936 37.6291 14.1876 37.6291Z" fill="#EF3401" fill-opacity="0.4"/>
<path d="M15.3809 37.6291C15.6749 37.6291 15.9132 37.3907 15.9132 37.0968C15.9132 36.8028 15.6749 36.5645 15.3809 36.5645C15.087 36.5645 14.8486 36.8028 14.8486 37.0968C14.8486 37.3907 15.087 37.6291 15.3809 37.6291Z" fill="#EF3401" fill-opacity="0.4"/>
<path d="M16.5919 37.6291C16.8859 37.6291 17.1242 37.3907 17.1242 37.0968C17.1242 36.8028 16.8859 36.5645 16.5919 36.5645C16.2979 36.5645 16.0596 36.8028 16.0596 37.0968C16.0596 37.3907 16.2979 37.6291 16.5919 37.6291Z" fill="#EF3401" fill-opacity="0.4"/>
<path d="M17.8043 37.6291C18.0983 37.6291 18.3366 37.3907 18.3366 37.0968C18.3366 36.8028 18.0983 36.5645 17.8043 36.5645C17.5103 36.5645 17.272 36.8028 17.272 37.0968C17.272 37.3907 17.5103 37.6291 17.8043 37.6291Z" fill="#EF3401" fill-opacity="0.4"/>
<path d="M18.9971 37.6291C19.2911 37.6291 19.5294 37.3907 19.5294 37.0968C19.5294 36.8028 19.2911 36.5645 18.9971 36.5645C18.7032 36.5645 18.4648 36.8028 18.4648 37.0968C18.4648 37.3907 18.7032 37.6291 18.9971 37.6291Z" fill="#EF3401" fill-opacity="0.4"/>
<path d="M11.7838 38.7853C12.0777 38.7853 12.3161 38.547 12.3161 38.253C12.3161 37.959 12.0777 37.7207 11.7838 37.7207C11.4898 37.7207 11.2515 37.959 11.2515 38.253C11.2515 38.547 11.4898 38.7853 11.7838 38.7853Z" fill="#EF3401" fill-opacity="0.4"/>
<path d="M12.9771 38.7853C13.2711 38.7853 13.5094 38.547 13.5094 38.253C13.5094 37.959 13.2711 37.7207 12.9771 37.7207C12.6831 37.7207 12.4448 37.959 12.4448 38.253C12.4448 38.547 12.6831 38.7853 12.9771 38.7853Z" fill="#EF3401" fill-opacity="0.4"/>
<path d="M14.1876 38.7853C14.4816 38.7853 14.7199 38.547 14.7199 38.253C14.7199 37.959 14.4816 37.7207 14.1876 37.7207C13.8936 37.7207 13.6553 37.959 13.6553 38.253C13.6553 38.547 13.8936 38.7853 14.1876 38.7853Z" fill="#EF3401" fill-opacity="0.4"/>
<path d="M15.3809 38.7853C15.6749 38.7853 15.9132 38.547 15.9132 38.253C15.9132 37.959 15.6749 37.7207 15.3809 37.7207C15.087 37.7207 14.8486 37.959 14.8486 38.253C14.8486 38.547 15.087 38.7853 15.3809 38.7853Z" fill="#EF3401" fill-opacity="0.4"/>
<path d="M16.5919 38.7853C16.8859 38.7853 17.1242 38.547 17.1242 38.253C17.1242 37.959 16.8859 37.7207 16.5919 37.7207C16.2979 37.7207 16.0596 37.959 16.0596 38.253C16.0596 38.547 16.2979 38.7853 16.5919 38.7853Z" fill="#EF3401" fill-opacity="0.4"/>
<path d="M17.8043 38.7853C18.0983 38.7853 18.3366 38.547 18.3366 38.253C18.3366 37.959 18.0983 37.7207 17.8043 37.7207C17.5103 37.7207 17.272 37.959 17.272 38.253C17.272 38.547 17.5103 38.7853 17.8043 38.7853Z" fill="#EF3401" fill-opacity="0.4"/>
<path d="M12.9771 39.9411C13.2711 39.9411 13.5094 39.7027 13.5094 39.4088C13.5094 39.1148 13.2711 38.8765 12.9771 38.8765C12.6831 38.8765 12.4448 39.1148 12.4448 39.4088C12.4448 39.7027 12.6831 39.9411 12.9771 39.9411Z" fill="#EF3401" fill-opacity="0.4"/>
<path d="M14.1876 39.9411C14.4816 39.9411 14.7199 39.7027 14.7199 39.4088C14.7199 39.1148 14.4816 38.8765 14.1876 38.8765C13.8936 38.8765 13.6553 39.1148 13.6553 39.4088C13.6553 39.7027 13.8936 39.9411 14.1876 39.9411Z" fill="#EF3401" fill-opacity="0.4"/>
<path d="M15.3809 39.9411C15.6749 39.9411 15.9132 39.7027 15.9132 39.4088C15.9132 39.1148 15.6749 38.8765 15.3809 38.8765C15.087 38.8765 14.8486 39.1148 14.8486 39.4088C14.8486 39.7027 15.087 39.9411 15.3809 39.9411Z" fill="#EF3401" fill-opacity="0.4"/>
<path d="M16.5919 39.9411C16.8859 39.9411 17.1242 39.7027 17.1242 39.4088C17.1242 39.1148 16.8859 38.8765 16.5919 38.8765C16.2979 38.8765 16.0596 39.1148 16.0596 39.4088C16.0596 39.7027 16.2979 39.9411 16.5919 39.9411Z" fill="#EF3401" fill-opacity="0.4"/>
<path d="M17.8043 39.9411C18.0983 39.9411 18.3366 39.7027 18.3366 39.4088C18.3366 39.1148 18.0983 38.8765 17.8043 38.8765C17.5103 38.8765 17.272 39.1148 17.272 39.4088C17.272 39.7027 17.5103 39.9411 17.8043 39.9411Z" fill="#EF3401" fill-opacity="0.4"/>
<path d="M12.9771 41.0978C13.2711 41.0978 13.5094 40.8595 13.5094 40.5655C13.5094 40.2715 13.2711 40.0332 12.9771 40.0332C12.6831 40.0332 12.4448 40.2715 12.4448 40.5655C12.4448 40.8595 12.6831 41.0978 12.9771 41.0978Z" fill="#EF3401" fill-opacity="0.4"/>
<path d="M14.1876 41.0978C14.4816 41.0978 14.7199 40.8595 14.7199 40.5655C14.7199 40.2715 14.4816 40.0332 14.1876 40.0332C13.8936 40.0332 13.6553 40.2715 13.6553 40.5655C13.6553 40.8595 13.8936 41.0978 14.1876 41.0978Z" fill="#EF3401" fill-opacity="0.4"/>
<path d="M15.3809 41.0978C15.6749 41.0978 15.9132 40.8595 15.9132 40.5655C15.9132 40.2715 15.6749 40.0332 15.3809 40.0332C15.087 40.0332 14.8486 40.2715 14.8486 40.5655C14.8486 40.8595 15.087 41.0978 15.3809 41.0978Z" fill="#EF3401" fill-opacity="0.4"/>
<path d="M16.5919 41.0978C16.8859 41.0978 17.1242 40.8595 17.1242 40.5655C17.1242 40.2715 16.8859 40.0332 16.5919 40.0332C16.2979 40.0332 16.0596 40.2715 16.0596 40.5655C16.0596 40.8595 16.2979 41.0978 16.5919 41.0978Z" fill="#EF3401" fill-opacity="0.4"/>
<path d="M12.9771 42.2545C13.2711 42.2545 13.5094 42.0162 13.5094 41.7222C13.5094 41.4283 13.2711 41.1899 12.9771 41.1899C12.6831 41.1899 12.4448 41.4283 12.4448 41.7222C12.4448 42.0162 12.6831 42.2545 12.9771 42.2545Z" fill="#EF3401" fill-opacity="0.4"/>
<path d="M14.1876 42.2545C14.4816 42.2545 14.7199 42.0162 14.7199 41.7222C14.7199 41.4283 14.4816 41.1899 14.1876 41.1899C13.8936 41.1899 13.6553 41.4283 13.6553 41.7222C13.6553 42.0162 13.8936 42.2545 14.1876 42.2545Z" fill="#EF3401" fill-opacity="0.4"/>
<path d="M15.3809 42.2545C15.6749 42.2545 15.9132 42.0162 15.9132 41.7222C15.9132 41.4283 15.6749 41.1899 15.3809 41.1899C15.087 41.1899 14.8486 41.4283 14.8486 41.7222C14.8486 42.0162 15.087 42.2545 15.3809 42.2545Z" fill="#EF3401" fill-opacity="0.4"/>
<path d="M12.9771 43.4108C13.2711 43.4108 13.5094 43.1725 13.5094 42.8785C13.5094 42.5845 13.2711 42.3462 12.9771 42.3462C12.6831 42.3462 12.4448 42.5845 12.4448 42.8785C12.4448 43.1725 12.6831 43.4108 12.9771 43.4108Z" fill="#EF3401" fill-opacity="0.4"/>
<path d="M14.1876 43.4108C14.4816 43.4108 14.7199 43.1725 14.7199 42.8785C14.7199 42.5845 14.4816 42.3462 14.1876 42.3462C13.8936 42.3462 13.6553 42.5845 13.6553 42.8785C13.6553 43.1725 13.8936 43.4108 14.1876 43.4108Z" fill="#EF3401" fill-opacity="0.4"/>
<path d="M11.7838 44.567C12.0777 44.567 12.3161 44.3287 12.3161 44.0347C12.3161 43.7408 12.0777 43.5024 11.7838 43.5024C11.4898 43.5024 11.2515 43.7408 11.2515 44.0347C11.2515 44.3287 11.4898 44.567 11.7838 44.567Z" fill="#EF3401" fill-opacity="0.4"/>
<path d="M12.9771 44.567C13.2711 44.567 13.5094 44.3287 13.5094 44.0347C13.5094 43.7408 13.2711 43.5024 12.9771 43.5024C12.6831 43.5024 12.4448 43.7408 12.4448 44.0347C12.4448 44.3287 12.6831 44.567 12.9771 44.567Z" fill="#EF3401" fill-opacity="0.4"/>
<path d="M14.1876 44.567C14.4816 44.567 14.7199 44.3287 14.7199 44.0347C14.7199 43.7408 14.4816 43.5024 14.1876 43.5024C13.8936 43.5024 13.6553 43.7408 13.6553 44.0347C13.6553 44.3287 13.8936 44.567 14.1876 44.567Z" fill="#EF3401" fill-opacity="0.4"/>
<path d="M11.7838 45.7233C12.0777 45.7233 12.3161 45.485 12.3161 45.191C12.3161 44.897 12.0777 44.6587 11.7838 44.6587C11.4898 44.6587 11.2515 44.897 11.2515 45.191C11.2515 45.485 11.4898 45.7233 11.7838 45.7233Z" fill="#EF3401" fill-opacity="0.4"/>
</g>
</svg>
