<svg width="212" height="54" viewBox="0 0 212 54" fill="none" xmlns="http://www.w3.org/2000/svg">
<path d="M66 40.4V40L66.9044 39.64C67.35 39.4533 67.6515 39.2133 67.8088 38.92C67.9923 38.6 68.084 38.1733 68.084 37.64V16.76C68.084 16.2267 68.0054 15.8133 67.8481 15.52C67.717 15.2 67.4025 14.9467 66.9044 14.76L66 14.4V14H84.8351L85.071 20.16H84.6778L82.987 16.4C82.751 15.92 82.502 15.5333 82.2399 15.24C81.9777 14.9467 81.5845 14.8 81.0602 14.8H73.9823V26.36H78.1897C78.714 26.36 79.1072 26.2267 79.3694 25.96C79.6577 25.6667 79.9068 25.28 80.1165 24.8L80.9029 23.2H81.2961V30.4H80.9029L80.1165 28.72C79.8806 28.24 79.6315 27.8667 79.3694 27.6C79.1072 27.3067 78.714 27.16 78.1897 27.16H73.9823V39.6H81.9253C82.4496 39.6 82.8559 39.4667 83.1443 39.2C83.4326 38.9067 83.6685 38.5067 83.852 38L85.4642 34.24H85.8575L85.6215 40.4H66Z" fill="#EF3401"/>
<path d="M93.7842 41C92.2637 41 90.9792 40.56 89.9307 39.68C88.9083 38.8 88.3971 37.5333 88.3971 35.88C88.3971 34.6267 89.0263 33.48 90.2845 32.44C91.5428 31.3733 93.522 30.5733 96.2221 30.04C96.6416 29.96 97.1134 29.88 97.6377 29.8C98.162 29.6933 98.7125 29.5867 99.2892 29.48V26.32C99.2892 24.5067 99.0664 23.24 98.6207 22.52C98.2013 21.7733 97.5329 21.4 96.6153 21.4C95.9862 21.4 95.4881 21.6133 95.1211 22.04C94.7541 22.44 94.5182 23.1467 94.4133 24.16L94.3347 24.6C94.2823 25.7467 94.007 26.5867 93.5089 27.12C93.0109 27.6533 92.3948 27.92 91.6608 27.92C90.9792 27.92 90.4156 27.7067 89.97 27.28C89.5243 26.8533 89.3015 26.28 89.3015 25.56C89.3015 24.4667 89.6685 23.5467 90.4025 22.8C91.1627 22.0533 92.1589 21.4933 93.391 21.12C94.623 20.7467 95.96 20.56 97.4018 20.56C99.7349 20.56 101.531 21.1467 102.789 22.32C104.073 23.4667 104.716 25.3467 104.716 27.96V36.8C104.716 38 105.266 38.6 106.367 38.6H107.232L107.586 38.92C107.088 39.56 106.538 40.0533 105.935 40.4C105.358 40.7467 104.532 40.92 103.457 40.92C102.304 40.92 101.386 40.6533 100.705 40.12C100.049 39.56 99.6169 38.8267 99.4072 37.92C98.6208 38.7733 97.8081 39.5067 96.9692 40.12C96.1566 40.7067 95.0949 41 93.7842 41ZM96.1828 38.56C96.7071 38.56 97.1921 38.44 97.6377 38.2C98.1096 37.9333 98.6601 37.5333 99.2892 37V30.28C99.0271 30.3333 98.7649 30.3867 98.5028 30.44C98.2406 30.4933 97.9392 30.5467 97.5984 30.6C96.3925 30.92 95.4226 31.4667 94.6886 32.24C93.9808 32.9867 93.6269 34 93.6269 35.28C93.6269 36.3733 93.8759 37.2 94.374 37.76C94.8721 38.2933 95.475 38.56 96.1828 38.56Z" fill="#EF3401"/>
<path d="M115.509 41C114.224 41 113.071 40.84 112.048 40.52C111.026 40.2267 110.082 39.8533 109.217 39.4L109.256 34.64H109.65L110.987 37.04C111.563 38.1067 112.192 38.9067 112.874 39.44C113.582 39.9467 114.473 40.2 115.548 40.2C116.806 40.2 117.815 39.92 118.576 39.36C119.362 38.7733 119.755 38 119.755 37.04C119.755 36.16 119.48 35.44 118.93 34.88C118.379 34.32 117.357 33.8133 115.862 33.36L114.211 32.84C112.612 32.36 111.354 31.6133 110.436 30.6C109.519 29.5867 109.06 28.3467 109.06 26.88C109.06 25.12 109.741 23.6267 111.104 22.4C112.468 21.1733 114.421 20.56 116.963 20.56C117.986 20.56 118.943 20.68 119.834 20.92C120.751 21.1333 121.63 21.4667 122.468 21.92L122.233 26.24H121.839L120.463 23.76C119.965 22.88 119.467 22.2667 118.969 21.92C118.497 21.5467 117.776 21.36 116.806 21.36C115.915 21.36 115.076 21.6133 114.29 22.12C113.503 22.6267 113.11 23.3467 113.11 24.28C113.11 25.1867 113.438 25.9067 114.093 26.44C114.775 26.9733 115.771 27.4667 117.081 27.92L118.851 28.44C120.738 29.0267 122.088 29.84 122.901 30.88C123.714 31.8933 124.12 33.12 124.12 34.56C124.12 36.5067 123.36 38.0667 121.839 39.24C120.345 40.4133 118.235 41 115.509 41Z" fill="#EF3401"/>
<path d="M133.614 41C131.936 41 130.626 40.5733 129.682 39.72C128.764 38.8667 128.306 37.5067 128.306 35.64V21.96H125.592V21.56L126.536 21.4C127.349 21.2133 128.043 20.9467 128.62 20.6C129.223 20.2533 129.813 19.7867 130.39 19.2L133.614 15.56H134.007L133.889 21.16H138.293V21.96H133.85V36.36C133.85 37.2933 134.047 38 134.44 38.48C134.859 38.96 135.384 39.2 136.013 39.2C136.563 39.2 137.048 39.0667 137.468 38.8C137.887 38.5067 138.306 38.12 138.726 37.64L139.119 38.04C138.595 38.9467 137.874 39.6667 136.956 40.2C136.039 40.7333 134.925 41 133.614 41Z" fill="#EF3401"/>
<path d="M150.568 40.52L142.153 16.68C141.969 16.1467 141.72 15.7333 141.406 15.44C141.117 15.12 140.711 14.88 140.187 14.72L139.243 14.4V14H150.568V14.4L149.349 14.76C148.746 14.92 148.405 15.2 148.326 15.6C148.274 16 148.339 16.4933 148.523 17.08L154.342 34.64L160.201 17.04C160.411 16.4267 160.503 15.92 160.477 15.52C160.477 15.12 160.175 14.84 159.572 14.68L158.55 14.4V14H164.055V14.4L162.993 14.72C162.495 14.8533 162.141 15.0933 161.931 15.44C161.722 15.76 161.525 16.1867 161.342 16.72L153.477 40.52H150.568Z" fill="#EF3401"/>
<path d="M166.29 40.4V40L167.076 39.72C167.6 39.56 167.941 39.32 168.099 39C168.282 38.68 168.374 38.2533 168.374 37.72V16.76C168.374 16.2267 168.282 15.8 168.099 15.48C167.915 15.16 167.561 14.9067 167.037 14.72L166.29 14.4V14H175.845C179.751 14 182.569 14.7333 184.299 16.2C186.055 17.64 186.934 19.5467 186.934 21.92C186.934 23.44 186.567 24.84 185.833 26.12C185.125 27.3733 183.945 28.3733 182.294 29.12C180.642 29.8667 178.414 30.24 175.609 30.24H174.272V37.6C174.272 38.64 174.783 39.32 175.806 39.64L176.985 40V40.4H166.29ZM174.272 29.44H175.766C177.051 29.44 178.099 29.2267 178.912 28.8C179.725 28.3733 180.328 27.6267 180.721 26.56C181.114 25.4933 181.311 24.0133 181.311 22.12C181.311 20.2 181.088 18.7067 180.642 17.64C180.223 16.5733 179.594 15.84 178.755 15.44C177.916 15.0133 176.867 14.8 175.609 14.8H174.272V29.44Z" fill="#EF3401"/>
<path d="M189.115 40.4V40L190.412 39.6C190.884 39.4667 191.225 39.2133 191.435 38.84C191.644 38.44 191.749 37.9733 191.749 37.44V18.2C191.461 17.56 191.225 17.08 191.042 16.76C190.884 16.44 190.701 16.1733 190.491 15.96C190.281 15.72 189.993 15.4267 189.626 15.08L188.957 14.4V14H195.917L208.972 32.12V17.04C208.972 16.5067 208.88 16.0267 208.697 15.6C208.54 15.1733 208.199 14.8933 207.675 14.76L206.377 14.4V14H212V14.4L210.938 14.76C210.466 14.92 210.178 15.2 210.073 15.6C209.968 16 209.916 16.4667 209.916 17V40.52H207.714L192.693 19.52V37.44C192.693 37.9733 192.772 38.4267 192.929 38.8C193.086 39.1733 193.414 39.44 193.912 39.6L195.092 40V40.4H189.115Z" fill="#EF3401"/>
<path d="M43.6062 5.54895C43.6062 5.54895 42.8833 9.42638 34.997 16.8746C34.997 16.8746 27.3079 23.8846 23.8686 29.0983C23.1019 30.2594 22.5542 31.5737 22.3351 32.9757C22.0065 35.1007 22.3351 37.9485 25.7087 39.4819C27.4831 40.2706 29.4766 40.402 31.3387 39.8982C33.2445 39.3724 35.9609 38.1676 39.0716 35.4512C39.0716 35.4512 47.9437 28.2659 48.0971 17.6194C48.0971 17.466 48.0971 17.3346 48.0971 17.1812C48.1628 16.064 48.1628 9.8426 43.6062 5.54895Z" fill="#EF3401"/>
<path d="M37.1881 2.04395C37.1881 2.04395 28.9075 -2.49067 17.9105 2.04395C17.9105 2.04395 8.18403 5.50516 2.9484 16.9184C2.90459 17.006 2.86077 17.1155 2.79505 17.2032C2.2693 18.2109 -1.25763 25.7029 2.86077 37.1599C2.86077 37.1599 6.7382 47.7407 17.5381 51.6181C17.5381 51.6181 27.615 55.7365 38.6339 51.6181C38.6339 51.6181 48.9956 47.3464 53.9465 36.6999C54.056 36.4808 53.9903 36.196 53.815 36.0427C53.7055 35.955 53.5522 35.8893 53.3112 36.0208C53.1798 36.0865 53.0702 36.196 52.9826 36.3275C52.0844 37.598 45.3811 46.7549 34.4936 48.6388C34.4936 48.6388 23.9128 50.1504 18.0638 42.6146C15.2379 38.9562 14.3835 34.093 15.7198 29.6679C16.2675 27.8278 17.2095 25.7686 18.7648 23.6437C18.7648 23.6437 21.8317 18.9776 27.4616 14.2239C27.4616 14.2458 37.1224 5.46135 37.1881 2.04395Z" fill="#EF3401"/>
<mask id="mask0_799_131" style="mask-type:alpha" maskUnits="userSpaceOnUse" x="0" y="0" width="54" height="54">
<path d="M43.6062 5.54895C43.6062 5.54895 42.8833 9.42638 34.997 16.8746C34.997 16.8746 27.3079 23.8846 23.8686 29.0983C23.1019 30.2594 22.5542 31.5737 22.3351 32.9757C22.0065 35.1007 22.3351 37.9485 25.7087 39.4819C27.4831 40.2706 29.4766 40.402 31.3387 39.8982C33.2445 39.3724 35.9609 38.1676 39.0716 35.4512C39.0716 35.4512 47.9437 28.2659 48.0971 17.6194C48.0971 17.466 48.0971 17.3346 48.0971 17.1812C48.1628 16.064 48.1628 9.8426 43.6062 5.54895Z" fill="#EF3401"/>
<path d="M37.1881 2.04395C37.1881 2.04395 28.9075 -2.49067 17.9105 2.04395C17.9105 2.04395 8.18403 5.50516 2.9484 16.9184C2.90459 17.006 2.86077 17.1155 2.79505 17.2032C2.2693 18.2109 -1.25763 25.7029 2.86077 37.1599C2.86077 37.1599 6.7382 47.7407 17.5381 51.6181C17.5381 51.6181 27.615 55.7365 38.6339 51.6181C38.6339 51.6181 48.9956 47.3464 53.9465 36.6999C54.056 36.4808 53.9903 36.196 53.815 36.0427C53.7055 35.955 53.5522 35.8893 53.3112 36.0208C53.1798 36.0865 53.0702 36.196 52.9826 36.3275C52.0844 37.598 45.3811 46.7549 34.4936 48.6388C34.4936 48.6388 23.9128 50.1504 18.0638 42.6146C15.2379 38.9562 14.3835 34.093 15.7198 29.6679C16.2675 27.8278 17.2095 25.7686 18.7648 23.6437C18.7648 23.6437 21.8317 18.9776 27.4616 14.2239C27.4616 14.2458 37.1224 5.46135 37.1881 2.04395Z" fill="#EF3401"/>
</mask>
<g mask="url(#mask0_799_131)">
<path d="M23.5611 3.48969C23.9119 3.48969 24.1963 3.20526 24.1963 2.8544C24.1963 2.50354 23.9119 2.21912 23.5611 2.21912C23.2102 2.21912 22.9258 2.50354 22.9258 2.8544C22.9258 3.20526 23.2102 3.48969 23.5611 3.48969Z" fill="white" fill-opacity="0.3"/>
<path d="M25.0064 3.48969C25.3572 3.48969 25.6417 3.20526 25.6417 2.8544C25.6417 2.50354 25.3572 2.21912 25.0064 2.21912C24.6555 2.21912 24.3711 2.50354 24.3711 2.8544C24.3711 3.20526 24.6555 3.48969 25.0064 3.48969Z" fill="white" fill-opacity="0.3"/>
<path d="M13.5059 4.86981C13.8567 4.86981 14.1412 4.58539 14.1412 4.23453C14.1412 3.88367 13.8567 3.59924 13.5059 3.59924C13.155 3.59924 12.8706 3.88367 12.8706 4.23453C12.8706 4.58539 13.155 4.86981 13.5059 4.86981Z" fill="white" fill-opacity="0.3"/>
<path d="M14.9517 4.86981C15.3025 4.86981 15.587 4.58539 15.587 4.23453C15.587 3.88367 15.3025 3.59924 14.9517 3.59924C14.6008 3.59924 14.3164 3.88367 14.3164 4.23453C14.3164 4.58539 14.6008 4.86981 14.9517 4.86981Z" fill="white" fill-opacity="0.3"/>
<path d="M16.376 4.86981C16.7269 4.86981 17.0113 4.58539 17.0113 4.23453C17.0113 3.88367 16.7269 3.59924 16.376 3.59924C16.0251 3.59924 15.7407 3.88367 15.7407 4.23453C15.7407 4.58539 16.0251 4.86981 16.376 4.86981Z" fill="white" fill-opacity="0.3"/>
<path d="M22.1372 4.86981C22.4881 4.86981 22.7725 4.58539 22.7725 4.23453C22.7725 3.88367 22.4881 3.59924 22.1372 3.59924C21.7864 3.59924 21.502 3.88367 21.502 4.23453C21.502 4.58539 21.7864 4.86981 22.1372 4.86981Z" fill="white" fill-opacity="0.3"/>
<path d="M23.5611 4.86981C23.9119 4.86981 24.1963 4.58539 24.1963 4.23453C24.1963 3.88367 23.9119 3.59924 23.5611 3.59924C23.2102 3.59924 22.9258 3.88367 22.9258 4.23453C22.9258 4.58539 23.2102 4.86981 23.5611 4.86981Z" fill="white" fill-opacity="0.3"/>
<path d="M25.0064 4.86981C25.3572 4.86981 25.6417 4.58539 25.6417 4.23453C25.6417 3.88367 25.3572 3.59924 25.0064 3.59924C24.6555 3.59924 24.3711 3.88367 24.3711 4.23453C24.3711 4.58539 24.6555 4.86981 25.0064 4.86981Z" fill="white" fill-opacity="0.3"/>
<path d="M26.4297 4.86981C26.7806 4.86981 27.065 4.58539 27.065 4.23453C27.065 3.88367 26.7806 3.59924 26.4297 3.59924C26.0789 3.59924 25.7944 3.88367 25.7944 4.23453C25.7944 4.58539 26.0789 4.86981 26.4297 4.86981Z" fill="white" fill-opacity="0.3"/>
<path d="M12.0816 6.2497C12.4324 6.2497 12.7169 5.96527 12.7169 5.61441C12.7169 5.26355 12.4324 4.97913 12.0816 4.97913C11.7307 4.97913 11.4463 5.26355 11.4463 5.61441C11.4463 5.96527 11.7307 6.2497 12.0816 6.2497Z" fill="white" fill-opacity="0.3"/>
<path d="M13.5059 6.2497C13.8567 6.2497 14.1412 5.96527 14.1412 5.61441C14.1412 5.26355 13.8567 4.97913 13.5059 4.97913C13.155 4.97913 12.8706 5.26355 12.8706 5.61441C12.8706 5.96527 13.155 6.2497 13.5059 6.2497Z" fill="white" fill-opacity="0.3"/>
<path d="M14.9517 6.2497C15.3025 6.2497 15.587 5.96527 15.587 5.61441C15.587 5.26355 15.3025 4.97913 14.9517 4.97913C14.6008 4.97913 14.3164 5.26355 14.3164 5.61441C14.3164 5.96527 14.6008 6.2497 14.9517 6.2497Z" fill="white" fill-opacity="0.3"/>
<path d="M16.376 6.2497C16.7269 6.2497 17.0113 5.96527 17.0113 5.61441C17.0113 5.26355 16.7269 4.97913 16.376 4.97913C16.0251 4.97913 15.7407 5.26355 15.7407 5.61441C15.7407 5.96527 16.0251 6.2497 16.376 6.2497Z" fill="white" fill-opacity="0.3"/>
<path d="M22.1372 6.2497C22.4881 6.2497 22.7725 5.96527 22.7725 5.61441C22.7725 5.26355 22.4881 4.97913 22.1372 4.97913C21.7864 4.97913 21.502 5.26355 21.502 5.61441C21.502 5.96527 21.7864 6.2497 22.1372 6.2497Z" fill="white" fill-opacity="0.3"/>
<path d="M23.5611 6.2497C23.9119 6.2497 24.1963 5.96527 24.1963 5.61441C24.1963 5.26355 23.9119 4.97913 23.5611 4.97913C23.2102 4.97913 22.9258 5.26355 22.9258 5.61441C22.9258 5.96527 23.2102 6.2497 23.5611 6.2497Z" fill="white" fill-opacity="0.3"/>
<path d="M25.0064 6.2497C25.3572 6.2497 25.6417 5.96527 25.6417 5.61441C25.6417 5.26355 25.3572 4.97913 25.0064 4.97913C24.6555 4.97913 24.3711 5.26355 24.3711 5.61441C24.3711 5.96527 24.6555 6.2497 25.0064 6.2497Z" fill="white" fill-opacity="0.3"/>
<path d="M10.6358 7.62995C10.9866 7.62995 11.2711 7.34552 11.2711 6.99466C11.2711 6.6438 10.9866 6.35938 10.6358 6.35938C10.2849 6.35938 10.0005 6.6438 10.0005 6.99466C10.0005 7.34552 10.2849 7.62995 10.6358 7.62995Z" fill="white" fill-opacity="0.3"/>
<path d="M12.0816 7.62995C12.4324 7.62995 12.7169 7.34552 12.7169 6.99466C12.7169 6.6438 12.4324 6.35938 12.0816 6.35938C11.7307 6.35938 11.4463 6.6438 11.4463 6.99466C11.4463 7.34552 11.7307 7.62995 12.0816 7.62995Z" fill="white" fill-opacity="0.3"/>
<path d="M13.5059 7.62995C13.8567 7.62995 14.1412 7.34552 14.1412 6.99466C14.1412 6.6438 13.8567 6.35938 13.5059 6.35938C13.155 6.35938 12.8706 6.6438 12.8706 6.99466C12.8706 7.34552 13.155 7.62995 13.5059 7.62995Z" fill="white" fill-opacity="0.3"/>
<path d="M14.9517 7.62995C15.3025 7.62995 15.587 7.34552 15.587 6.99466C15.587 6.6438 15.3025 6.35938 14.9517 6.35938C14.6008 6.35938 14.3164 6.6438 14.3164 6.99466C14.3164 7.34552 14.6008 7.62995 14.9517 7.62995Z" fill="white" fill-opacity="0.3"/>
<path d="M16.376 7.62995C16.7269 7.62995 17.0113 7.34552 17.0113 6.99466C17.0113 6.6438 16.7269 6.35938 16.376 6.35938C16.0251 6.35938 15.7407 6.6438 15.7407 6.99466C15.7407 7.34552 16.0251 7.62995 16.376 7.62995Z" fill="white" fill-opacity="0.3"/>
<path d="M17.8208 7.62995C18.1717 7.62995 18.4561 7.34552 18.4561 6.99466C18.4561 6.6438 18.1717 6.35938 17.8208 6.35938C17.47 6.35938 17.1855 6.6438 17.1855 6.99466C17.1855 7.34552 17.47 7.62995 17.8208 7.62995Z" fill="white" fill-opacity="0.3"/>
<path d="M19.2451 7.62995C19.596 7.62995 19.8804 7.34552 19.8804 6.99466C19.8804 6.6438 19.596 6.35938 19.2451 6.35938C18.8943 6.35938 18.6099 6.6438 18.6099 6.99466C18.6099 7.34552 18.8943 7.62995 19.2451 7.62995Z" fill="white" fill-opacity="0.3"/>
<path d="M20.69 7.62995C21.0408 7.62995 21.3253 7.34552 21.3253 6.99466C21.3253 6.6438 21.0408 6.35938 20.69 6.35938C20.3391 6.35938 20.0547 6.6438 20.0547 6.99466C20.0547 7.34552 20.3391 7.62995 20.69 7.62995Z" fill="white" fill-opacity="0.3"/>
<path d="M22.1372 7.62995C22.4881 7.62995 22.7725 7.34552 22.7725 6.99466C22.7725 6.6438 22.4881 6.35938 22.1372 6.35938C21.7864 6.35938 21.502 6.6438 21.502 6.99466C21.502 7.34552 21.7864 7.62995 22.1372 7.62995Z" fill="white" fill-opacity="0.3"/>
<path d="M23.5611 7.62995C23.9119 7.62995 24.1963 7.34552 24.1963 6.99466C24.1963 6.6438 23.9119 6.35938 23.5611 6.35938C23.2102 6.35938 22.9258 6.6438 22.9258 6.99466C22.9258 7.34552 23.2102 7.62995 23.5611 7.62995Z" fill="white" fill-opacity="0.3"/>
<path d="M25.0064 7.62995C25.3572 7.62995 25.6417 7.34552 25.6417 6.99466C25.6417 6.6438 25.3572 6.35938 25.0064 6.35938C24.6555 6.35938 24.3711 6.6438 24.3711 6.99466C24.3711 7.34552 24.6555 7.62995 25.0064 7.62995Z" fill="white" fill-opacity="0.3"/>
<path d="M26.4297 7.62995C26.7806 7.62995 27.065 7.34552 27.065 6.99466C27.065 6.6438 26.7806 6.35938 26.4297 6.35938C26.0789 6.35938 25.7944 6.6438 25.7944 6.99466C25.7944 7.34552 26.0789 7.62995 26.4297 7.62995Z" fill="white" fill-opacity="0.3"/>
<path d="M27.8765 7.62995C28.2274 7.62995 28.5118 7.34552 28.5118 6.99466C28.5118 6.6438 28.2274 6.35938 27.8765 6.35938C27.5256 6.35938 27.2412 6.6438 27.2412 6.99466C27.2412 7.34552 27.5256 7.62995 27.8765 7.62995Z" fill="white" fill-opacity="0.3"/>
<path d="M10.6358 9.01019C10.9866 9.01019 11.2711 8.72577 11.2711 8.37491C11.2711 8.02405 10.9866 7.73962 10.6358 7.73962C10.2849 7.73962 10.0005 8.02405 10.0005 8.37491C10.0005 8.72577 10.2849 9.01019 10.6358 9.01019Z" fill="white" fill-opacity="0.3"/>
<path d="M12.0816 9.01019C12.4324 9.01019 12.7169 8.72577 12.7169 8.37491C12.7169 8.02405 12.4324 7.73962 12.0816 7.73962C11.7307 7.73962 11.4463 8.02405 11.4463 8.37491C11.4463 8.72577 11.7307 9.01019 12.0816 9.01019Z" fill="white" fill-opacity="0.3"/>
<path d="M13.5059 9.01019C13.8567 9.01019 14.1412 8.72577 14.1412 8.37491C14.1412 8.02405 13.8567 7.73962 13.5059 7.73962C13.155 7.73962 12.8706 8.02405 12.8706 8.37491C12.8706 8.72577 13.155 9.01019 13.5059 9.01019Z" fill="white" fill-opacity="0.3"/>
<path d="M14.9517 9.01019C15.3025 9.01019 15.587 8.72577 15.587 8.37491C15.587 8.02405 15.3025 7.73962 14.9517 7.73962C14.6008 7.73962 14.3164 8.02405 14.3164 8.37491C14.3164 8.72577 14.6008 9.01019 14.9517 9.01019Z" fill="white" fill-opacity="0.3"/>
<path d="M17.8208 9.01019C18.1717 9.01019 18.4561 8.72577 18.4561 8.37491C18.4561 8.02405 18.1717 7.73962 17.8208 7.73962C17.47 7.73962 17.1855 8.02405 17.1855 8.37491C17.1855 8.72577 17.47 9.01019 17.8208 9.01019Z" fill="white" fill-opacity="0.3"/>
<path d="M19.2451 9.01019C19.596 9.01019 19.8804 8.72577 19.8804 8.37491C19.8804 8.02405 19.596 7.73962 19.2451 7.73962C18.8943 7.73962 18.6099 8.02405 18.6099 8.37491C18.6099 8.72577 18.8943 9.01019 19.2451 9.01019Z" fill="white" fill-opacity="0.3"/>
<path d="M20.69 9.01019C21.0408 9.01019 21.3253 8.72577 21.3253 8.37491C21.3253 8.02405 21.0408 7.73962 20.69 7.73962C20.3391 7.73962 20.0547 8.02405 20.0547 8.37491C20.0547 8.72577 20.3391 9.01019 20.69 9.01019Z" fill="white" fill-opacity="0.3"/>
<path d="M22.1372 9.01019C22.4881 9.01019 22.7725 8.72577 22.7725 8.37491C22.7725 8.02405 22.4881 7.73962 22.1372 7.73962C21.7864 7.73962 21.502 8.02405 21.502 8.37491C21.502 8.72577 21.7864 9.01019 22.1372 9.01019Z" fill="white" fill-opacity="0.3"/>
<path d="M23.5611 9.01019C23.9119 9.01019 24.1963 8.72577 24.1963 8.37491C24.1963 8.02405 23.9119 7.73962 23.5611 7.73962C23.2102 7.73962 22.9258 8.02405 22.9258 8.37491C22.9258 8.72577 23.2102 9.01019 23.5611 9.01019Z" fill="white" fill-opacity="0.3"/>
<path d="M25.0064 9.01019C25.3572 9.01019 25.6417 8.72577 25.6417 8.37491C25.6417 8.02405 25.3572 7.73962 25.0064 7.73962C24.6555 7.73962 24.3711 8.02405 24.3711 8.37491C24.3711 8.72577 24.6555 9.01019 25.0064 9.01019Z" fill="white" fill-opacity="0.3"/>
<path d="M26.4297 9.01019C26.7806 9.01019 27.065 8.72577 27.065 8.37491C27.065 8.02405 26.7806 7.73962 26.4297 7.73962C26.0789 7.73962 25.7944 8.02405 25.7944 8.37491C25.7944 8.72577 26.0789 9.01019 26.4297 9.01019Z" fill="white" fill-opacity="0.3"/>
<path d="M27.8765 9.01019C28.2274 9.01019 28.5118 8.72577 28.5118 8.37491C28.5118 8.02405 28.2274 7.73962 27.8765 7.73962C27.5256 7.73962 27.2412 8.02405 27.2412 8.37491C27.2412 8.72577 27.5256 9.01019 27.8765 9.01019Z" fill="white" fill-opacity="0.3"/>
<path d="M10.6358 10.3903C10.9866 10.3903 11.2711 10.1059 11.2711 9.75504C11.2711 9.40418 10.9866 9.11975 10.6358 9.11975C10.2849 9.11975 10.0005 9.40418 10.0005 9.75504C10.0005 10.1059 10.2849 10.3903 10.6358 10.3903Z" fill="white" fill-opacity="0.3"/>
<path d="M12.0816 10.3903C12.4324 10.3903 12.7169 10.1059 12.7169 9.75504C12.7169 9.40418 12.4324 9.11975 12.0816 9.11975C11.7307 9.11975 11.4463 9.40418 11.4463 9.75504C11.4463 10.1059 11.7307 10.3903 12.0816 10.3903Z" fill="white" fill-opacity="0.3"/>
<path d="M13.5059 10.3903C13.8567 10.3903 14.1412 10.1059 14.1412 9.75504C14.1412 9.40418 13.8567 9.11975 13.5059 9.11975C13.155 9.11975 12.8706 9.40418 12.8706 9.75504C12.8706 10.1059 13.155 10.3903 13.5059 10.3903Z" fill="white" fill-opacity="0.3"/>
<path d="M17.8208 10.3903C18.1717 10.3903 18.4561 10.1059 18.4561 9.75504C18.4561 9.40418 18.1717 9.11975 17.8208 9.11975C17.47 9.11975 17.1855 9.40418 17.1855 9.75504C17.1855 10.1059 17.47 10.3903 17.8208 10.3903Z" fill="white" fill-opacity="0.3"/>
<path d="M19.2451 10.3903C19.596 10.3903 19.8804 10.1059 19.8804 9.75504C19.8804 9.40418 19.596 9.11975 19.2451 9.11975C18.8943 9.11975 18.6099 9.40418 18.6099 9.75504C18.6099 10.1059 18.8943 10.3903 19.2451 10.3903Z" fill="white" fill-opacity="0.3"/>
<path d="M20.69 10.3903C21.0408 10.3903 21.3253 10.1059 21.3253 9.75504C21.3253 9.40418 21.0408 9.11975 20.69 9.11975C20.3391 9.11975 20.0547 9.40418 20.0547 9.75504C20.0547 10.1059 20.3391 10.3903 20.69 10.3903Z" fill="white" fill-opacity="0.3"/>
<path d="M22.1372 10.3903C22.4881 10.3903 22.7725 10.1059 22.7725 9.75504C22.7725 9.40418 22.4881 9.11975 22.1372 9.11975C21.7864 9.11975 21.502 9.40418 21.502 9.75504C21.502 10.1059 21.7864 10.3903 22.1372 10.3903Z" fill="white" fill-opacity="0.3"/>
<path d="M23.5611 10.3903C23.9119 10.3903 24.1963 10.1059 24.1963 9.75504C24.1963 9.40418 23.9119 9.11975 23.5611 9.11975C23.2102 9.11975 22.9258 9.40418 22.9258 9.75504C22.9258 10.1059 23.2102 10.3903 23.5611 10.3903Z" fill="white" fill-opacity="0.3"/>
<path d="M25.0064 10.3903C25.3572 10.3903 25.6417 10.1059 25.6417 9.75504C25.6417 9.40418 25.3572 9.11975 25.0064 9.11975C24.6555 9.11975 24.3711 9.40418 24.3711 9.75504C24.3711 10.1059 24.6555 10.3903 25.0064 10.3903Z" fill="white" fill-opacity="0.3"/>
<path d="M26.4297 10.3903C26.7806 10.3903 27.065 10.1059 27.065 9.75504C27.065 9.40418 26.7806 9.11975 26.4297 9.11975C26.0789 9.11975 25.7944 9.40418 25.7944 9.75504C25.7944 10.1059 26.0789 10.3903 26.4297 10.3903Z" fill="white" fill-opacity="0.3"/>
<path d="M6.34232 11.7703C6.69318 11.7703 6.9776 11.4858 6.9776 11.135C6.9776 10.7841 6.69318 10.4997 6.34232 10.4997C5.99146 10.4997 5.70703 10.7841 5.70703 11.135C5.70703 11.4858 5.99146 11.7703 6.34232 11.7703Z" fill="white" fill-opacity="0.3"/>
<path d="M7.76663 11.7703C8.11749 11.7703 8.40192 11.4858 8.40192 11.135C8.40192 10.7841 8.11749 10.4997 7.76663 10.4997C7.41577 10.4997 7.13135 10.7841 7.13135 11.135C7.13135 11.4858 7.41577 11.7703 7.76663 11.7703Z" fill="white" fill-opacity="0.3"/>
<path d="M10.6358 11.7703C10.9866 11.7703 11.2711 11.4858 11.2711 11.135C11.2711 10.7841 10.9866 10.4997 10.6358 10.4997C10.2849 10.4997 10.0005 10.7841 10.0005 11.135C10.0005 11.4858 10.2849 11.7703 10.6358 11.7703Z" fill="white" fill-opacity="0.3"/>
<path d="M12.0816 11.7703C12.4324 11.7703 12.7169 11.4858 12.7169 11.135C12.7169 10.7841 12.4324 10.4997 12.0816 10.4997C11.7307 10.4997 11.4463 10.7841 11.4463 11.135C11.4463 11.4858 11.7307 11.7703 12.0816 11.7703Z" fill="white" fill-opacity="0.3"/>
<path d="M13.5059 11.7703C13.8567 11.7703 14.1412 11.4858 14.1412 11.135C14.1412 10.7841 13.8567 10.4997 13.5059 10.4997C13.155 10.4997 12.8706 10.7841 12.8706 11.135C12.8706 11.4858 13.155 11.7703 13.5059 11.7703Z" fill="white" fill-opacity="0.3"/>
<path d="M16.376 11.7703C16.7269 11.7703 17.0113 11.4858 17.0113 11.135C17.0113 10.7841 16.7269 10.4997 16.376 10.4997C16.0251 10.4997 15.7407 10.7841 15.7407 11.135C15.7407 11.4858 16.0251 11.7703 16.376 11.7703Z" fill="white" fill-opacity="0.3"/>
<path d="M17.8208 11.7703C18.1717 11.7703 18.4561 11.4858 18.4561 11.135C18.4561 10.7841 18.1717 10.4997 17.8208 10.4997C17.47 10.4997 17.1855 10.7841 17.1855 11.135C17.1855 11.4858 17.47 11.7703 17.8208 11.7703Z" fill="white" fill-opacity="0.3"/>
<path d="M19.2451 11.7703C19.596 11.7703 19.8804 11.4858 19.8804 11.135C19.8804 10.7841 19.596 10.4997 19.2451 10.4997C18.8943 10.4997 18.6099 10.7841 18.6099 11.135C18.6099 11.4858 18.8943 11.7703 19.2451 11.7703Z" fill="white" fill-opacity="0.3"/>
<path d="M20.69 11.7703C21.0408 11.7703 21.3253 11.4858 21.3253 11.135C21.3253 10.7841 21.0408 10.4997 20.69 10.4997C20.3391 10.4997 20.0547 10.7841 20.0547 11.135C20.0547 11.4858 20.3391 11.7703 20.69 11.7703Z" fill="white" fill-opacity="0.3"/>
<path d="M22.1372 11.7703C22.4881 11.7703 22.7725 11.4858 22.7725 11.135C22.7725 10.7841 22.4881 10.4997 22.1372 10.4997C21.7864 10.4997 21.502 10.7841 21.502 11.135C21.502 11.4858 21.7864 11.7703 22.1372 11.7703Z" fill="white" fill-opacity="0.3"/>
<path d="M23.5611 11.7703C23.9119 11.7703 24.1963 11.4858 24.1963 11.135C24.1963 10.7841 23.9119 10.4997 23.5611 10.4997C23.2102 10.4997 22.9258 10.7841 22.9258 11.135C22.9258 11.4858 23.2102 11.7703 23.5611 11.7703Z" fill="white" fill-opacity="0.3"/>
<path d="M25.0064 11.7703C25.3572 11.7703 25.6417 11.4858 25.6417 11.135C25.6417 10.7841 25.3572 10.4997 25.0064 10.4997C24.6555 10.4997 24.3711 10.7841 24.3711 11.135C24.3711 11.4858 24.6555 11.7703 25.0064 11.7703Z" fill="white" fill-opacity="0.3"/>
<path d="M26.4297 11.7703C26.7806 11.7703 27.065 11.4858 27.065 11.135C27.065 10.7841 26.7806 10.4997 26.4297 10.4997C26.0789 10.4997 25.7944 10.7841 25.7944 11.135C25.7944 11.4858 26.0789 11.7703 26.4297 11.7703Z" fill="white" fill-opacity="0.3"/>
<path d="M4.89652 13.1504C5.24737 13.1504 5.5318 12.866 5.5318 12.5151C5.5318 12.1642 5.24737 11.8798 4.89652 11.8798C4.54566 11.8798 4.26123 12.1642 4.26123 12.5151C4.26123 12.866 4.54566 13.1504 4.89652 13.1504Z" fill="white" fill-opacity="0.3"/>
<path d="M12.0816 13.1504C12.4324 13.1504 12.7169 12.866 12.7169 12.5151C12.7169 12.1642 12.4324 11.8798 12.0816 11.8798C11.7307 11.8798 11.4463 12.1642 11.4463 12.5151C11.4463 12.866 11.7307 13.1504 12.0816 13.1504Z" fill="white" fill-opacity="0.3"/>
<path d="M13.5059 13.1504C13.8567 13.1504 14.1412 12.866 14.1412 12.5151C14.1412 12.1642 13.8567 11.8798 13.5059 11.8798C13.155 11.8798 12.8706 12.1642 12.8706 12.5151C12.8706 12.866 13.155 13.1504 13.5059 13.1504Z" fill="white" fill-opacity="0.3"/>
<path d="M16.376 13.1504C16.7269 13.1504 17.0113 12.866 17.0113 12.5151C17.0113 12.1642 16.7269 11.8798 16.376 11.8798C16.0251 11.8798 15.7407 12.1642 15.7407 12.5151C15.7407 12.866 16.0251 13.1504 16.376 13.1504Z" fill="white" fill-opacity="0.3"/>
<path d="M17.8208 13.1504C18.1717 13.1504 18.4561 12.866 18.4561 12.5151C18.4561 12.1642 18.1717 11.8798 17.8208 11.8798C17.47 11.8798 17.1855 12.1642 17.1855 12.5151C17.1855 12.866 17.47 13.1504 17.8208 13.1504Z" fill="white" fill-opacity="0.3"/>
<path d="M19.2451 13.1504C19.596 13.1504 19.8804 12.866 19.8804 12.5151C19.8804 12.1642 19.596 11.8798 19.2451 11.8798C18.8943 11.8798 18.6099 12.1642 18.6099 12.5151C18.6099 12.866 18.8943 13.1504 19.2451 13.1504Z" fill="white" fill-opacity="0.3"/>
<path d="M20.69 13.1504C21.0408 13.1504 21.3253 12.866 21.3253 12.5151C21.3253 12.1642 21.0408 11.8798 20.69 11.8798C20.3391 11.8798 20.0547 12.1642 20.0547 12.5151C20.0547 12.866 20.3391 13.1504 20.69 13.1504Z" fill="white" fill-opacity="0.3"/>
<path d="M22.1372 13.1504C22.4881 13.1504 22.7725 12.866 22.7725 12.5151C22.7725 12.1642 22.4881 11.8798 22.1372 11.8798C21.7864 11.8798 21.502 12.1642 21.502 12.5151C21.502 12.866 21.7864 13.1504 22.1372 13.1504Z" fill="white" fill-opacity="0.3"/>
<path d="M23.5611 13.1504C23.9119 13.1504 24.1963 12.866 24.1963 12.5151C24.1963 12.1642 23.9119 11.8798 23.5611 11.8798C23.2102 11.8798 22.9258 12.1642 22.9258 12.5151C22.9258 12.866 23.2102 13.1504 23.5611 13.1504Z" fill="white" fill-opacity="0.3"/>
<path d="M25.0064 13.1504C25.3572 13.1504 25.6417 12.866 25.6417 12.5151C25.6417 12.1642 25.3572 11.8798 25.0064 11.8798C24.6555 11.8798 24.3711 12.1642 24.3711 12.5151C24.3711 12.866 24.6555 13.1504 25.0064 13.1504Z" fill="white" fill-opacity="0.3"/>
<path d="M26.4297 13.1504C26.7806 13.1504 27.065 12.866 27.065 12.5151C27.065 12.1642 26.7806 11.8798 26.4297 11.8798C26.0789 11.8798 25.7944 12.1642 25.7944 12.5151C25.7944 12.866 26.0789 13.1504 26.4297 13.1504Z" fill="white" fill-opacity="0.3"/>
<path d="M3.47269 14.5305C3.82355 14.5305 4.10797 14.2461 4.10797 13.8952C4.10797 13.5444 3.82355 13.2599 3.47269 13.2599C3.12183 13.2599 2.8374 13.5444 2.8374 13.8952C2.8374 14.2461 3.12183 14.5305 3.47269 14.5305Z" fill="white" fill-opacity="0.3"/>
<path d="M4.89652 14.5305C5.24737 14.5305 5.5318 14.2461 5.5318 13.8952C5.5318 13.5444 5.24737 13.2599 4.89652 13.2599C4.54566 13.2599 4.26123 13.5444 4.26123 13.8952C4.26123 14.2461 4.54566 14.5305 4.89652 14.5305Z" fill="white" fill-opacity="0.3"/>
<path d="M6.34232 14.5305C6.69318 14.5305 6.9776 14.2461 6.9776 13.8952C6.9776 13.5444 6.69318 13.2599 6.34232 13.2599C5.99146 13.2599 5.70703 13.5444 5.70703 13.8952C5.70703 14.2461 5.99146 14.5305 6.34232 14.5305Z" fill="white" fill-opacity="0.3"/>
<path d="M9.21195 14.5305C9.5628 14.5305 9.84723 14.2461 9.84723 13.8952C9.84723 13.5444 9.5628 13.2599 9.21195 13.2599C8.86109 13.2599 8.57666 13.5444 8.57666 13.8952C8.57666 14.2461 8.86109 14.5305 9.21195 14.5305Z" fill="white" fill-opacity="0.3"/>
<path d="M12.0816 14.5305C12.4324 14.5305 12.7169 14.2461 12.7169 13.8952C12.7169 13.5444 12.4324 13.2599 12.0816 13.2599C11.7307 13.2599 11.4463 13.5444 11.4463 13.8952C11.4463 14.2461 11.7307 14.5305 12.0816 14.5305Z" fill="white" fill-opacity="0.3"/>
<path d="M17.8208 14.5305C18.1717 14.5305 18.4561 14.2461 18.4561 13.8952C18.4561 13.5444 18.1717 13.2599 17.8208 13.2599C17.47 13.2599 17.1855 13.5444 17.1855 13.8952C17.1855 14.2461 17.47 14.5305 17.8208 14.5305Z" fill="white" fill-opacity="0.3"/>
<path d="M19.2451 14.5305C19.596 14.5305 19.8804 14.2461 19.8804 13.8952C19.8804 13.5444 19.596 13.2599 19.2451 13.2599C18.8943 13.2599 18.6099 13.5444 18.6099 13.8952C18.6099 14.2461 18.8943 14.5305 19.2451 14.5305Z" fill="white" fill-opacity="0.3"/>
<path d="M20.69 14.5305C21.0408 14.5305 21.3253 14.2461 21.3253 13.8952C21.3253 13.5444 21.0408 13.2599 20.69 13.2599C20.3391 13.2599 20.0547 13.5444 20.0547 13.8952C20.0547 14.2461 20.3391 14.5305 20.69 14.5305Z" fill="white" fill-opacity="0.3"/>
<path d="M22.1372 14.5305C22.4881 14.5305 22.7725 14.2461 22.7725 13.8952C22.7725 13.5444 22.4881 13.2599 22.1372 13.2599C21.7864 13.2599 21.502 13.5444 21.502 13.8952C21.502 14.2461 21.7864 14.5305 22.1372 14.5305Z" fill="white" fill-opacity="0.3"/>
<path d="M23.5611 14.5305C23.9119 14.5305 24.1963 14.2461 24.1963 13.8952C24.1963 13.5444 23.9119 13.2599 23.5611 13.2599C23.2102 13.2599 22.9258 13.5444 22.9258 13.8952C22.9258 14.2461 23.2102 14.5305 23.5611 14.5305Z" fill="white" fill-opacity="0.3"/>
<path d="M25.0064 14.5305C25.3572 14.5305 25.6417 14.2461 25.6417 13.8952C25.6417 13.5444 25.3572 13.2599 25.0064 13.2599C24.6555 13.2599 24.3711 13.5444 24.3711 13.8952C24.3711 14.2461 24.6555 14.5305 25.0064 14.5305Z" fill="white" fill-opacity="0.3"/>
<path d="M26.4297 14.5305C26.7806 14.5305 27.065 14.2461 27.065 13.8952C27.065 13.5444 26.7806 13.2599 26.4297 13.2599C26.0789 13.2599 25.7944 13.5444 25.7944 13.8952C25.7944 14.2461 26.0789 14.5305 26.4297 14.5305Z" fill="white" fill-opacity="0.3"/>
<path d="M3.47269 15.9106C3.82355 15.9106 4.10797 15.6262 4.10797 15.2754C4.10797 14.9245 3.82355 14.6401 3.47269 14.6401C3.12183 14.6401 2.8374 14.9245 2.8374 15.2754C2.8374 15.6262 3.12183 15.9106 3.47269 15.9106Z" fill="white" fill-opacity="0.3"/>
<path d="M4.89652 15.9106C5.24737 15.9106 5.5318 15.6262 5.5318 15.2754C5.5318 14.9245 5.24737 14.6401 4.89652 14.6401C4.54566 14.6401 4.26123 14.9245 4.26123 15.2754C4.26123 15.6262 4.54566 15.9106 4.89652 15.9106Z" fill="white" fill-opacity="0.3"/>
<path d="M9.21195 15.9106C9.5628 15.9106 9.84723 15.6262 9.84723 15.2754C9.84723 14.9245 9.5628 14.6401 9.21195 14.6401C8.86109 14.6401 8.57666 14.9245 8.57666 15.2754C8.57666 15.6262 8.86109 15.9106 9.21195 15.9106Z" fill="white" fill-opacity="0.3"/>
<path d="M19.2451 15.9106C19.596 15.9106 19.8804 15.6262 19.8804 15.2754C19.8804 14.9245 19.596 14.6401 19.2451 14.6401C18.8943 14.6401 18.6099 14.9245 18.6099 15.2754C18.6099 15.6262 18.8943 15.9106 19.2451 15.9106Z" fill="white" fill-opacity="0.3"/>
<path d="M20.69 15.9106C21.0408 15.9106 21.3253 15.6262 21.3253 15.2754C21.3253 14.9245 21.0408 14.6401 20.69 14.6401C20.3391 14.6401 20.0547 14.9245 20.0547 15.2754C20.0547 15.6262 20.3391 15.9106 20.69 15.9106Z" fill="white" fill-opacity="0.3"/>
<path d="M22.1372 15.9106C22.4881 15.9106 22.7725 15.6262 22.7725 15.2754C22.7725 14.9245 22.4881 14.6401 22.1372 14.6401C21.7864 14.6401 21.502 14.9245 21.502 15.2754C21.502 15.6262 21.7864 15.9106 22.1372 15.9106Z" fill="white" fill-opacity="0.3"/>
<path d="M23.5611 15.9106C23.9119 15.9106 24.1963 15.6262 24.1963 15.2754C24.1963 14.9245 23.9119 14.6401 23.5611 14.6401C23.2102 14.6401 22.9258 14.9245 22.9258 15.2754C22.9258 15.6262 23.2102 15.9106 23.5611 15.9106Z" fill="white" fill-opacity="0.3"/>
<path d="M25.0064 15.9106C25.3572 15.9106 25.6417 15.6262 25.6417 15.2754C25.6417 14.9245 25.3572 14.6401 25.0064 14.6401C24.6555 14.6401 24.3711 14.9245 24.3711 15.2754C24.3711 15.6262 24.6555 15.9106 25.0064 15.9106Z" fill="white" fill-opacity="0.3"/>
<path d="M26.4297 15.9106C26.7806 15.9106 27.065 15.6262 27.065 15.2754C27.065 14.9245 26.7806 14.6401 26.4297 14.6401C26.0789 14.6401 25.7944 14.9245 25.7944 15.2754C25.7944 15.6262 26.0789 15.9106 26.4297 15.9106Z" fill="white" fill-opacity="0.3"/>
<path d="M3.47269 17.2907C3.82355 17.2907 4.10797 17.0063 4.10797 16.6554C4.10797 16.3046 3.82355 16.0201 3.47269 16.0201C3.12183 16.0201 2.8374 16.3046 2.8374 16.6554C2.8374 17.0063 3.12183 17.2907 3.47269 17.2907Z" fill="white" fill-opacity="0.3"/>
<path d="M6.34232 17.2907C6.69318 17.2907 6.9776 17.0063 6.9776 16.6554C6.9776 16.3046 6.69318 16.0201 6.34232 16.0201C5.99146 16.0201 5.70703 16.3046 5.70703 16.6554C5.70703 17.0063 5.99146 17.2907 6.34232 17.2907Z" fill="white" fill-opacity="0.3"/>
<path d="M7.76663 17.2907C8.11749 17.2907 8.40192 17.0063 8.40192 16.6554C8.40192 16.3046 8.11749 16.0201 7.76663 16.0201C7.41577 16.0201 7.13135 16.3046 7.13135 16.6554C7.13135 17.0063 7.41577 17.2907 7.76663 17.2907Z" fill="white" fill-opacity="0.3"/>
<path d="M9.21195 17.2907C9.5628 17.2907 9.84723 17.0063 9.84723 16.6554C9.84723 16.3046 9.5628 16.0201 9.21195 16.0201C8.86109 16.0201 8.57666 16.3046 8.57666 16.6554C8.57666 17.0063 8.86109 17.2907 9.21195 17.2907Z" fill="white" fill-opacity="0.3"/>
<path d="M12.0816 17.2907C12.4324 17.2907 12.7169 17.0063 12.7169 16.6554C12.7169 16.3046 12.4324 16.0201 12.0816 16.0201C11.7307 16.0201 11.4463 16.3046 11.4463 16.6554C11.4463 17.0063 11.7307 17.2907 12.0816 17.2907Z" fill="white" fill-opacity="0.3"/>
<path d="M13.5059 17.2907C13.8567 17.2907 14.1412 17.0063 14.1412 16.6554C14.1412 16.3046 13.8567 16.0201 13.5059 16.0201C13.155 16.0201 12.8706 16.3046 12.8706 16.6554C12.8706 17.0063 13.155 17.2907 13.5059 17.2907Z" fill="white" fill-opacity="0.3"/>
<path d="M19.2451 17.2907C19.596 17.2907 19.8804 17.0063 19.8804 16.6554C19.8804 16.3046 19.596 16.0201 19.2451 16.0201C18.8943 16.0201 18.6099 16.3046 18.6099 16.6554C18.6099 17.0063 18.8943 17.2907 19.2451 17.2907Z" fill="white" fill-opacity="0.3"/>
<path d="M20.69 17.2907C21.0408 17.2907 21.3253 17.0063 21.3253 16.6554C21.3253 16.3046 21.0408 16.0201 20.69 16.0201C20.3391 16.0201 20.0547 16.3046 20.0547 16.6554C20.0547 17.0063 20.3391 17.2907 20.69 17.2907Z" fill="white" fill-opacity="0.3"/>
<path d="M22.1372 17.2907C22.4881 17.2907 22.7725 17.0063 22.7725 16.6554C22.7725 16.3046 22.4881 16.0201 22.1372 16.0201C21.7864 16.0201 21.502 16.3046 21.502 16.6554C21.502 17.0063 21.7864 17.2907 22.1372 17.2907Z" fill="white" fill-opacity="0.3"/>
<path d="M23.5611 17.2907C23.9119 17.2907 24.1963 17.0063 24.1963 16.6554C24.1963 16.3046 23.9119 16.0201 23.5611 16.0201C23.2102 16.0201 22.9258 16.3046 22.9258 16.6554C22.9258 17.0063 23.2102 17.2907 23.5611 17.2907Z" fill="white" fill-opacity="0.3"/>
<path d="M25.0064 17.2907C25.3572 17.2907 25.6417 17.0063 25.6417 16.6554C25.6417 16.3046 25.3572 16.0201 25.0064 16.0201C24.6555 16.0201 24.3711 16.3046 24.3711 16.6554C24.3711 17.0063 24.6555 17.2907 25.0064 17.2907Z" fill="white" fill-opacity="0.3"/>
<path d="M4.89652 18.6927C5.24737 18.6927 5.5318 18.4083 5.5318 18.0574C5.5318 17.7065 5.24737 17.4221 4.89652 17.4221C4.54566 17.4221 4.26123 17.7065 4.26123 18.0574C4.26123 18.4083 4.54566 18.6927 4.89652 18.6927Z" fill="white" fill-opacity="0.3"/>
<path d="M6.34232 18.6927C6.69318 18.6927 6.9776 18.4083 6.9776 18.0574C6.9776 17.7065 6.69318 17.4221 6.34232 17.4221C5.99146 17.4221 5.70703 17.7065 5.70703 18.0574C5.70703 18.4083 5.99146 18.6927 6.34232 18.6927Z" fill="white" fill-opacity="0.3"/>
<path d="M12.0816 18.6927C12.4324 18.6927 12.7169 18.4083 12.7169 18.0574C12.7169 17.7065 12.4324 17.4221 12.0816 17.4221C11.7307 17.4221 11.4463 17.7065 11.4463 18.0574C11.4463 18.4083 11.7307 18.6927 12.0816 18.6927Z" fill="white" fill-opacity="0.3"/>
<path d="M13.5059 18.6927C13.8567 18.6927 14.1412 18.4083 14.1412 18.0574C14.1412 17.7065 13.8567 17.4221 13.5059 17.4221C13.155 17.4221 12.8706 17.7065 12.8706 18.0574C12.8706 18.4083 13.155 18.6927 13.5059 18.6927Z" fill="white" fill-opacity="0.3"/>
<path d="M14.9517 18.6927C15.3025 18.6927 15.587 18.4083 15.587 18.0574C15.587 17.7065 15.3025 17.4221 14.9517 17.4221C14.6008 17.4221 14.3164 17.7065 14.3164 18.0574C14.3164 18.4083 14.6008 18.6927 14.9517 18.6927Z" fill="white" fill-opacity="0.3"/>
<path d="M20.69 18.6927C21.0408 18.6927 21.3253 18.4083 21.3253 18.0574C21.3253 17.7065 21.0408 17.4221 20.69 17.4221C20.3391 17.4221 20.0547 17.7065 20.0547 18.0574C20.0547 18.4083 20.3391 18.6927 20.69 18.6927Z" fill="white" fill-opacity="0.3"/>
<path d="M22.1372 18.6927C22.4881 18.6927 22.7725 18.4083 22.7725 18.0574C22.7725 17.7065 22.4881 17.4221 22.1372 17.4221C21.7864 17.4221 21.502 17.7065 21.502 18.0574C21.502 18.4083 21.7864 18.6927 22.1372 18.6927Z" fill="white" fill-opacity="0.3"/>
<path d="M23.5611 18.6927C23.9119 18.6927 24.1963 18.4083 24.1963 18.0574C24.1963 17.7065 23.9119 17.4221 23.5611 17.4221C23.2102 17.4221 22.9258 17.7065 22.9258 18.0574C22.9258 18.4083 23.2102 18.6927 23.5611 18.6927Z" fill="white" fill-opacity="0.3"/>
<path d="M25.0064 18.6927C25.3572 18.6927 25.6417 18.4083 25.6417 18.0574C25.6417 17.7065 25.3572 17.4221 25.0064 17.4221C24.6555 17.4221 24.3711 17.7065 24.3711 18.0574C24.3711 18.4083 24.6555 18.6927 25.0064 18.6927Z" fill="white" fill-opacity="0.3"/>
<path d="M0.581574 20.0728C0.932432 20.0728 1.21686 19.7884 1.21686 19.4375C1.21686 19.0867 0.932432 18.8022 0.581574 18.8022C0.230715 18.8022 -0.0537109 19.0867 -0.0537109 19.4375C-0.0537109 19.7884 0.230715 20.0728 0.581574 20.0728Z" fill="white" fill-opacity="0.3"/>
<path d="M2.02591 20.0728C2.37677 20.0728 2.6612 19.7884 2.6612 19.4375C2.6612 19.0867 2.37677 18.8022 2.02591 18.8022C1.67505 18.8022 1.39062 19.0867 1.39062 19.4375C1.39062 19.7884 1.67505 20.0728 2.02591 20.0728Z" fill="white" fill-opacity="0.3"/>
<path d="M3.47269 20.0728C3.82355 20.0728 4.10797 19.7884 4.10797 19.4375C4.10797 19.0867 3.82355 18.8022 3.47269 18.8022C3.12183 18.8022 2.8374 19.0867 2.8374 19.4375C2.8374 19.7884 3.12183 20.0728 3.47269 20.0728Z" fill="white" fill-opacity="0.3"/>
<path d="M10.6358 20.0728C10.9866 20.0728 11.2711 19.7884 11.2711 19.4375C11.2711 19.0867 10.9866 18.8022 10.6358 18.8022C10.2849 18.8022 10.0005 19.0867 10.0005 19.4375C10.0005 19.7884 10.2849 20.0728 10.6358 20.0728Z" fill="white" fill-opacity="0.3"/>
<path d="M14.9517 20.0728C15.3025 20.0728 15.587 19.7884 15.587 19.4375C15.587 19.0867 15.3025 18.8022 14.9517 18.8022C14.6008 18.8022 14.3164 19.0867 14.3164 19.4375C14.3164 19.7884 14.6008 20.0728 14.9517 20.0728Z" fill="white" fill-opacity="0.3"/>
<path d="M16.376 20.0728C16.7269 20.0728 17.0113 19.7884 17.0113 19.4375C17.0113 19.0867 16.7269 18.8022 16.376 18.8022C16.0251 18.8022 15.7407 19.0867 15.7407 19.4375C15.7407 19.7884 16.0251 20.0728 16.376 20.0728Z" fill="white" fill-opacity="0.3"/>
<path d="M20.69 20.0728C21.0408 20.0728 21.3253 19.7884 21.3253 19.4375C21.3253 19.0867 21.0408 18.8022 20.69 18.8022C20.3391 18.8022 20.0547 19.0867 20.0547 19.4375C20.0547 19.7884 20.3391 20.0728 20.69 20.0728Z" fill="white" fill-opacity="0.3"/>
<path d="M22.1372 20.0728C22.4881 20.0728 22.7725 19.7884 22.7725 19.4375C22.7725 19.0867 22.4881 18.8022 22.1372 18.8022C21.7864 18.8022 21.502 19.0867 21.502 19.4375C21.502 19.7884 21.7864 20.0728 22.1372 20.0728Z" fill="white" fill-opacity="0.3"/>
<path d="M23.5611 20.0728C23.9119 20.0728 24.1963 19.7884 24.1963 19.4375C24.1963 19.0867 23.9119 18.8022 23.5611 18.8022C23.2102 18.8022 22.9258 19.0867 22.9258 19.4375C22.9258 19.7884 23.2102 20.0728 23.5611 20.0728Z" fill="white" fill-opacity="0.3"/>
<path d="M25.0064 20.0728C25.3572 20.0728 25.6417 19.7884 25.6417 19.4375C25.6417 19.0867 25.3572 18.8022 25.0064 18.8022C24.6555 18.8022 24.3711 19.0867 24.3711 19.4375C24.3711 19.7884 24.6555 20.0728 25.0064 20.0728Z" fill="white" fill-opacity="0.3"/>
<path d="M26.4297 20.0728C26.7806 20.0728 27.065 19.7884 27.065 19.4375C27.065 19.0867 26.7806 18.8022 26.4297 18.8022C26.0789 18.8022 25.7944 19.0867 25.7944 19.4375C25.7944 19.7884 26.0789 20.0728 26.4297 20.0728Z" fill="white" fill-opacity="0.3"/>
<path d="M0.581574 21.4531C0.932432 21.4531 1.21686 21.1687 1.21686 20.8178C1.21686 20.467 0.932432 20.1826 0.581574 20.1826C0.230715 20.1826 -0.0537109 20.467 -0.0537109 20.8178C-0.0537109 21.1687 0.230715 21.4531 0.581574 21.4531Z" fill="white" fill-opacity="0.3"/>
<path d="M2.02591 21.4531C2.37677 21.4531 2.6612 21.1687 2.6612 20.8178C2.6612 20.467 2.37677 20.1826 2.02591 20.1826C1.67505 20.1826 1.39062 20.467 1.39062 20.8178C1.39062 21.1687 1.67505 21.4531 2.02591 21.4531Z" fill="white" fill-opacity="0.3"/>
<path d="M3.47269 21.4531C3.82355 21.4531 4.10797 21.1687 4.10797 20.8178C4.10797 20.467 3.82355 20.1826 3.47269 20.1826C3.12183 20.1826 2.8374 20.467 2.8374 20.8178C2.8374 21.1687 3.12183 21.4531 3.47269 21.4531Z" fill="white" fill-opacity="0.3"/>
<path d="M4.89652 21.4531C5.24737 21.4531 5.5318 21.1687 5.5318 20.8178C5.5318 20.467 5.24737 20.1826 4.89652 20.1826C4.54566 20.1826 4.26123 20.467 4.26123 20.8178C4.26123 21.1687 4.54566 21.4531 4.89652 21.4531Z" fill="white" fill-opacity="0.3"/>
<path d="M6.34232 21.4531C6.69318 21.4531 6.9776 21.1687 6.9776 20.8178C6.9776 20.467 6.69318 20.1826 6.34232 20.1826C5.99146 20.1826 5.70703 20.467 5.70703 20.8178C5.70703 21.1687 5.99146 21.4531 6.34232 21.4531Z" fill="white" fill-opacity="0.3"/>
<path d="M7.76663 21.4531C8.11749 21.4531 8.40192 21.1687 8.40192 20.8178C8.40192 20.467 8.11749 20.1826 7.76663 20.1826C7.41577 20.1826 7.13135 20.467 7.13135 20.8178C7.13135 21.1687 7.41577 21.4531 7.76663 21.4531Z" fill="white" fill-opacity="0.3"/>
<path d="M9.21195 21.4531C9.5628 21.4531 9.84723 21.1687 9.84723 20.8178C9.84723 20.467 9.5628 20.1826 9.21195 20.1826C8.86109 20.1826 8.57666 20.467 8.57666 20.8178C8.57666 21.1687 8.86109 21.4531 9.21195 21.4531Z" fill="white" fill-opacity="0.3"/>
<path d="M10.6358 21.4531C10.9866 21.4531 11.2711 21.1687 11.2711 20.8178C11.2711 20.467 10.9866 20.1826 10.6358 20.1826C10.2849 20.1826 10.0005 20.467 10.0005 20.8178C10.0005 21.1687 10.2849 21.4531 10.6358 21.4531Z" fill="white" fill-opacity="0.3"/>
<path d="M12.0816 21.4531C12.4324 21.4531 12.7169 21.1687 12.7169 20.8178C12.7169 20.467 12.4324 20.1826 12.0816 20.1826C11.7307 20.1826 11.4463 20.467 11.4463 20.8178C11.4463 21.1687 11.7307 21.4531 12.0816 21.4531Z" fill="white" fill-opacity="0.3"/>
<path d="M14.9517 21.4531C15.3025 21.4531 15.587 21.1687 15.587 20.8178C15.587 20.467 15.3025 20.1826 14.9517 20.1826C14.6008 20.1826 14.3164 20.467 14.3164 20.8178C14.3164 21.1687 14.6008 21.4531 14.9517 21.4531Z" fill="white" fill-opacity="0.3"/>
<path d="M16.376 21.4531C16.7269 21.4531 17.0113 21.1687 17.0113 20.8178C17.0113 20.467 16.7269 20.1826 16.376 20.1826C16.0251 20.1826 15.7407 20.467 15.7407 20.8178C15.7407 21.1687 16.0251 21.4531 16.376 21.4531Z" fill="white" fill-opacity="0.3"/>
<path d="M20.69 21.4531C21.0408 21.4531 21.3253 21.1687 21.3253 20.8178C21.3253 20.467 21.0408 20.1826 20.69 20.1826C20.3391 20.1826 20.0547 20.467 20.0547 20.8178C20.0547 21.1687 20.3391 21.4531 20.69 21.4531Z" fill="white" fill-opacity="0.3"/>
<path d="M22.1372 21.4531C22.4881 21.4531 22.7725 21.1687 22.7725 20.8178C22.7725 20.467 22.4881 20.1826 22.1372 20.1826C21.7864 20.1826 21.502 20.467 21.502 20.8178C21.502 21.1687 21.7864 21.4531 22.1372 21.4531Z" fill="white" fill-opacity="0.3"/>
<path d="M23.5611 21.4531C23.9119 21.4531 24.1963 21.1687 24.1963 20.8178C24.1963 20.467 23.9119 20.1826 23.5611 20.1826C23.2102 20.1826 22.9258 20.467 22.9258 20.8178C22.9258 21.1687 23.2102 21.4531 23.5611 21.4531Z" fill="white" fill-opacity="0.3"/>
<path d="M26.4297 21.4531C26.7806 21.4531 27.065 21.1687 27.065 20.8178C27.065 20.467 26.7806 20.1826 26.4297 20.1826C26.0789 20.1826 25.7944 20.467 25.7944 20.8178C25.7944 21.1687 26.0789 21.4531 26.4297 21.4531Z" fill="white" fill-opacity="0.3"/>
<path d="M0.581574 22.8329C0.932432 22.8329 1.21686 22.5485 1.21686 22.1977C1.21686 21.8468 0.932432 21.5624 0.581574 21.5624C0.230715 21.5624 -0.0537109 21.8468 -0.0537109 22.1977C-0.0537109 22.5485 0.230715 22.8329 0.581574 22.8329Z" fill="white" fill-opacity="0.3"/>
<path d="M2.02591 22.8329C2.37677 22.8329 2.6612 22.5485 2.6612 22.1977C2.6612 21.8468 2.37677 21.5624 2.02591 21.5624C1.67505 21.5624 1.39062 21.8468 1.39062 22.1977C1.39062 22.5485 1.67505 22.8329 2.02591 22.8329Z" fill="white" fill-opacity="0.3"/>
<path d="M3.47269 22.8329C3.82355 22.8329 4.10797 22.5485 4.10797 22.1977C4.10797 21.8468 3.82355 21.5624 3.47269 21.5624C3.12183 21.5624 2.8374 21.8468 2.8374 22.1977C2.8374 22.5485 3.12183 22.8329 3.47269 22.8329Z" fill="white" fill-opacity="0.3"/>
<path d="M4.89652 22.8329C5.24737 22.8329 5.5318 22.5485 5.5318 22.1977C5.5318 21.8468 5.24737 21.5624 4.89652 21.5624C4.54566 21.5624 4.26123 21.8468 4.26123 22.1977C4.26123 22.5485 4.54566 22.8329 4.89652 22.8329Z" fill="white" fill-opacity="0.3"/>
<path d="M6.34232 22.8329C6.69318 22.8329 6.9776 22.5485 6.9776 22.1977C6.9776 21.8468 6.69318 21.5624 6.34232 21.5624C5.99146 21.5624 5.70703 21.8468 5.70703 22.1977C5.70703 22.5485 5.99146 22.8329 6.34232 22.8329Z" fill="white" fill-opacity="0.3"/>
<path d="M7.76663 22.8329C8.11749 22.8329 8.40192 22.5485 8.40192 22.1977C8.40192 21.8468 8.11749 21.5624 7.76663 21.5624C7.41577 21.5624 7.13135 21.8468 7.13135 22.1977C7.13135 22.5485 7.41577 22.8329 7.76663 22.8329Z" fill="white" fill-opacity="0.3"/>
<path d="M9.21195 22.8329C9.5628 22.8329 9.84723 22.5485 9.84723 22.1977C9.84723 21.8468 9.5628 21.5624 9.21195 21.5624C8.86109 21.5624 8.57666 21.8468 8.57666 22.1977C8.57666 22.5485 8.86109 22.8329 9.21195 22.8329Z" fill="white" fill-opacity="0.3"/>
<path d="M10.6358 22.8329C10.9866 22.8329 11.2711 22.5485 11.2711 22.1977C11.2711 21.8468 10.9866 21.5624 10.6358 21.5624C10.2849 21.5624 10.0005 21.8468 10.0005 22.1977C10.0005 22.5485 10.2849 22.8329 10.6358 22.8329Z" fill="white" fill-opacity="0.3"/>
<path d="M12.0816 22.8329C12.4324 22.8329 12.7169 22.5485 12.7169 22.1977C12.7169 21.8468 12.4324 21.5624 12.0816 21.5624C11.7307 21.5624 11.4463 21.8468 11.4463 22.1977C11.4463 22.5485 11.7307 22.8329 12.0816 22.8329Z" fill="white" fill-opacity="0.3"/>
<path d="M14.9517 22.8329C15.3025 22.8329 15.587 22.5485 15.587 22.1977C15.587 21.8468 15.3025 21.5624 14.9517 21.5624C14.6008 21.5624 14.3164 21.8468 14.3164 22.1977C14.3164 22.5485 14.6008 22.8329 14.9517 22.8329Z" fill="white" fill-opacity="0.3"/>
<path d="M16.376 22.8329C16.7269 22.8329 17.0113 22.5485 17.0113 22.1977C17.0113 21.8468 16.7269 21.5624 16.376 21.5624C16.0251 21.5624 15.7407 21.8468 15.7407 22.1977C15.7407 22.5485 16.0251 22.8329 16.376 22.8329Z" fill="white" fill-opacity="0.3"/>
<path d="M20.69 22.8329C21.0408 22.8329 21.3253 22.5485 21.3253 22.1977C21.3253 21.8468 21.0408 21.5624 20.69 21.5624C20.3391 21.5624 20.0547 21.8468 20.0547 22.1977C20.0547 22.5485 20.3391 22.8329 20.69 22.8329Z" fill="white" fill-opacity="0.3"/>
<path d="M22.1372 22.8329C22.4881 22.8329 22.7725 22.5485 22.7725 22.1977C22.7725 21.8468 22.4881 21.5624 22.1372 21.5624C21.7864 21.5624 21.502 21.8468 21.502 22.1977C21.502 22.5485 21.7864 22.8329 22.1372 22.8329Z" fill="white" fill-opacity="0.3"/>
<path d="M27.8765 22.8329C28.2274 22.8329 28.5118 22.5485 28.5118 22.1977C28.5118 21.8468 28.2274 21.5624 27.8765 21.5624C27.5256 21.5624 27.2412 21.8468 27.2412 22.1977C27.2412 22.5485 27.5256 22.8329 27.8765 22.8329Z" fill="white" fill-opacity="0.3"/>
<path d="M0.581574 24.2133C0.932432 24.2133 1.21686 23.9289 1.21686 23.578C1.21686 23.2272 0.932432 22.9427 0.581574 22.9427C0.230715 22.9427 -0.0537109 23.2272 -0.0537109 23.578C-0.0537109 23.9289 0.230715 24.2133 0.581574 24.2133Z" fill="white" fill-opacity="0.3"/>
<path d="M2.02591 24.2133C2.37677 24.2133 2.6612 23.9289 2.6612 23.578C2.6612 23.2272 2.37677 22.9427 2.02591 22.9427C1.67505 22.9427 1.39062 23.2272 1.39062 23.578C1.39062 23.9289 1.67505 24.2133 2.02591 24.2133Z" fill="white" fill-opacity="0.3"/>
<path d="M3.47269 24.2133C3.82355 24.2133 4.10797 23.9289 4.10797 23.578C4.10797 23.2272 3.82355 22.9427 3.47269 22.9427C3.12183 22.9427 2.8374 23.2272 2.8374 23.578C2.8374 23.9289 3.12183 24.2133 3.47269 24.2133Z" fill="white" fill-opacity="0.3"/>
<path d="M4.89652 24.2133C5.24737 24.2133 5.5318 23.9289 5.5318 23.578C5.5318 23.2272 5.24737 22.9427 4.89652 22.9427C4.54566 22.9427 4.26123 23.2272 4.26123 23.578C4.26123 23.9289 4.54566 24.2133 4.89652 24.2133Z" fill="white" fill-opacity="0.3"/>
<path d="M6.34232 24.2133C6.69318 24.2133 6.9776 23.9289 6.9776 23.578C6.9776 23.2272 6.69318 22.9427 6.34232 22.9427C5.99146 22.9427 5.70703 23.2272 5.70703 23.578C5.70703 23.9289 5.99146 24.2133 6.34232 24.2133Z" fill="white" fill-opacity="0.3"/>
<path d="M7.76663 24.2133C8.11749 24.2133 8.40192 23.9289 8.40192 23.578C8.40192 23.2272 8.11749 22.9427 7.76663 22.9427C7.41577 22.9427 7.13135 23.2272 7.13135 23.578C7.13135 23.9289 7.41577 24.2133 7.76663 24.2133Z" fill="white" fill-opacity="0.3"/>
<path d="M9.21195 24.2133C9.5628 24.2133 9.84723 23.9289 9.84723 23.578C9.84723 23.2272 9.5628 22.9427 9.21195 22.9427C8.86109 22.9427 8.57666 23.2272 8.57666 23.578C8.57666 23.9289 8.86109 24.2133 9.21195 24.2133Z" fill="white" fill-opacity="0.3"/>
<path d="M14.9517 24.2133C15.3025 24.2133 15.587 23.9289 15.587 23.578C15.587 23.2272 15.3025 22.9427 14.9517 22.9427C14.6008 22.9427 14.3164 23.2272 14.3164 23.578C14.3164 23.9289 14.6008 24.2133 14.9517 24.2133Z" fill="white" fill-opacity="0.3"/>
<path d="M22.1372 24.2133C22.4881 24.2133 22.7725 23.9289 22.7725 23.578C22.7725 23.2272 22.4881 22.9427 22.1372 22.9427C21.7864 22.9427 21.502 23.2272 21.502 23.578C21.502 23.9289 21.7864 24.2133 22.1372 24.2133Z" fill="white" fill-opacity="0.3"/>
<path d="M0.581574 25.5934C0.932432 25.5934 1.21686 25.309 1.21686 24.9581C1.21686 24.6072 0.932432 24.3228 0.581574 24.3228C0.230715 24.3228 -0.0537109 24.6072 -0.0537109 24.9581C-0.0537109 25.309 0.230715 25.5934 0.581574 25.5934Z" fill="white" fill-opacity="0.3"/>
<path d="M2.02591 25.5934C2.37677 25.5934 2.6612 25.309 2.6612 24.9581C2.6612 24.6072 2.37677 24.3228 2.02591 24.3228C1.67505 24.3228 1.39062 24.6072 1.39062 24.9581C1.39062 25.309 1.67505 25.5934 2.02591 25.5934Z" fill="white" fill-opacity="0.3"/>
<path d="M3.47269 25.5934C3.82355 25.5934 4.10797 25.309 4.10797 24.9581C4.10797 24.6072 3.82355 24.3228 3.47269 24.3228C3.12183 24.3228 2.8374 24.6072 2.8374 24.9581C2.8374 25.309 3.12183 25.5934 3.47269 25.5934Z" fill="white" fill-opacity="0.3"/>
<path d="M4.89652 25.5934C5.24737 25.5934 5.5318 25.309 5.5318 24.9581C5.5318 24.6072 5.24737 24.3228 4.89652 24.3228C4.54566 24.3228 4.26123 24.6072 4.26123 24.9581C4.26123 25.309 4.54566 25.5934 4.89652 25.5934Z" fill="white" fill-opacity="0.3"/>
<path d="M6.34232 25.5934C6.69318 25.5934 6.9776 25.309 6.9776 24.9581C6.9776 24.6072 6.69318 24.3228 6.34232 24.3228C5.99146 24.3228 5.70703 24.6072 5.70703 24.9581C5.70703 25.309 5.99146 25.5934 6.34232 25.5934Z" fill="white" fill-opacity="0.3"/>
<path d="M7.76663 25.5934C8.11749 25.5934 8.40192 25.309 8.40192 24.9581C8.40192 24.6072 8.11749 24.3228 7.76663 24.3228C7.41577 24.3228 7.13135 24.6072 7.13135 24.9581C7.13135 25.309 7.41577 25.5934 7.76663 25.5934Z" fill="white" fill-opacity="0.3"/>
<path d="M9.21195 25.5934C9.5628 25.5934 9.84723 25.309 9.84723 24.9581C9.84723 24.6072 9.5628 24.3228 9.21195 24.3228C8.86109 24.3228 8.57666 24.6072 8.57666 24.9581C8.57666 25.309 8.86109 25.5934 9.21195 25.5934Z" fill="white" fill-opacity="0.3"/>
<path d="M14.9517 25.5934C15.3025 25.5934 15.587 25.309 15.587 24.9581C15.587 24.6072 15.3025 24.3228 14.9517 24.3228C14.6008 24.3228 14.3164 24.6072 14.3164 24.9581C14.3164 25.309 14.6008 25.5934 14.9517 25.5934Z" fill="white" fill-opacity="0.3"/>
<path d="M16.376 25.5934C16.7269 25.5934 17.0113 25.309 17.0113 24.9581C17.0113 24.6072 16.7269 24.3228 16.376 24.3228C16.0251 24.3228 15.7407 24.6072 15.7407 24.9581C15.7407 25.309 16.0251 25.5934 16.376 25.5934Z" fill="white" fill-opacity="0.3"/>
<path d="M2.02591 26.9733C2.37677 26.9733 2.6612 26.6889 2.6612 26.338C2.6612 25.9872 2.37677 25.7028 2.02591 25.7028C1.67505 25.7028 1.39062 25.9872 1.39062 26.338C1.39062 26.6889 1.67505 26.9733 2.02591 26.9733Z" fill="white" fill-opacity="0.3"/>
<path d="M3.47269 26.9733C3.82355 26.9733 4.10797 26.6889 4.10797 26.338C4.10797 25.9872 3.82355 25.7028 3.47269 25.7028C3.12183 25.7028 2.8374 25.9872 2.8374 26.338C2.8374 26.6889 3.12183 26.9733 3.47269 26.9733Z" fill="white" fill-opacity="0.3"/>
<path d="M4.89652 26.9733C5.24737 26.9733 5.5318 26.6889 5.5318 26.338C5.5318 25.9872 5.24737 25.7028 4.89652 25.7028C4.54566 25.7028 4.26123 25.9872 4.26123 26.338C4.26123 26.6889 4.54566 26.9733 4.89652 26.9733Z" fill="white" fill-opacity="0.3"/>
<path d="M6.34232 26.9733C6.69318 26.9733 6.9776 26.6889 6.9776 26.338C6.9776 25.9872 6.69318 25.7028 6.34232 25.7028C5.99146 25.7028 5.70703 25.9872 5.70703 26.338C5.70703 26.6889 5.99146 26.9733 6.34232 26.9733Z" fill="white" fill-opacity="0.3"/>
<path d="M7.76663 26.9733C8.11749 26.9733 8.40192 26.6889 8.40192 26.338C8.40192 25.9872 8.11749 25.7028 7.76663 25.7028C7.41577 25.7028 7.13135 25.9872 7.13135 26.338C7.13135 26.6889 7.41577 26.9733 7.76663 26.9733Z" fill="white" fill-opacity="0.3"/>
<path d="M9.21195 26.9733C9.5628 26.9733 9.84723 26.6889 9.84723 26.338C9.84723 25.9872 9.5628 25.7028 9.21195 25.7028C8.86109 25.7028 8.57666 25.9872 8.57666 26.338C8.57666 26.6889 8.86109 26.9733 9.21195 26.9733Z" fill="white" fill-opacity="0.3"/>
<path d="M10.6358 26.9733C10.9866 26.9733 11.2711 26.6889 11.2711 26.338C11.2711 25.9872 10.9866 25.7028 10.6358 25.7028C10.2849 25.7028 10.0005 25.9872 10.0005 26.338C10.0005 26.6889 10.2849 26.9733 10.6358 26.9733Z" fill="white" fill-opacity="0.3"/>
<path d="M14.9517 26.9733C15.3025 26.9733 15.587 26.6889 15.587 26.338C15.587 25.9872 15.3025 25.7028 14.9517 25.7028C14.6008 25.7028 14.3164 25.9872 14.3164 26.338C14.3164 26.6889 14.6008 26.9733 14.9517 26.9733Z" fill="white" fill-opacity="0.3"/>
<path d="M16.376 26.9733C16.7269 26.9733 17.0113 26.6889 17.0113 26.338C17.0113 25.9872 16.7269 25.7028 16.376 25.7028C16.0251 25.7028 15.7407 25.9872 15.7407 26.338C15.7407 26.6889 16.0251 26.9733 16.376 26.9733Z" fill="white" fill-opacity="0.3"/>
<path d="M17.8208 26.9733C18.1717 26.9733 18.4561 26.6889 18.4561 26.338C18.4561 25.9872 18.1717 25.7028 17.8208 25.7028C17.47 25.7028 17.1855 25.9872 17.1855 26.338C17.1855 26.6889 17.47 26.9733 17.8208 26.9733Z" fill="white" fill-opacity="0.3"/>
<path d="M3.47269 28.3534C3.82355 28.3534 4.10797 28.069 4.10797 27.7181C4.10797 27.3673 3.82355 27.0828 3.47269 27.0828C3.12183 27.0828 2.8374 27.3673 2.8374 27.7181C2.8374 28.069 3.12183 28.3534 3.47269 28.3534Z" fill="white" fill-opacity="0.3"/>
<path d="M4.89652 28.3534C5.24737 28.3534 5.5318 28.069 5.5318 27.7181C5.5318 27.3673 5.24737 27.0828 4.89652 27.0828C4.54566 27.0828 4.26123 27.3673 4.26123 27.7181C4.26123 28.069 4.54566 28.3534 4.89652 28.3534Z" fill="white" fill-opacity="0.3"/>
<path d="M6.34232 28.3534C6.69318 28.3534 6.9776 28.069 6.9776 27.7181C6.9776 27.3673 6.69318 27.0828 6.34232 27.0828C5.99146 27.0828 5.70703 27.3673 5.70703 27.7181C5.70703 28.069 5.99146 28.3534 6.34232 28.3534Z" fill="white" fill-opacity="0.3"/>
<path d="M7.76663 28.3534C8.11749 28.3534 8.40192 28.069 8.40192 27.7181C8.40192 27.3673 8.11749 27.0828 7.76663 27.0828C7.41577 27.0828 7.13135 27.3673 7.13135 27.7181C7.13135 28.069 7.41577 28.3534 7.76663 28.3534Z" fill="white" fill-opacity="0.3"/>
<path d="M9.21195 28.3534C9.5628 28.3534 9.84723 28.069 9.84723 27.7181C9.84723 27.3673 9.5628 27.0828 9.21195 27.0828C8.86109 27.0828 8.57666 27.3673 8.57666 27.7181C8.57666 28.069 8.86109 28.3534 9.21195 28.3534Z" fill="white" fill-opacity="0.3"/>
<path d="M10.6358 28.3534C10.9866 28.3534 11.2711 28.069 11.2711 27.7181C11.2711 27.3673 10.9866 27.0828 10.6358 27.0828C10.2849 27.0828 10.0005 27.3673 10.0005 27.7181C10.0005 28.069 10.2849 28.3534 10.6358 28.3534Z" fill="white" fill-opacity="0.3"/>
<path d="M12.0816 28.3534C12.4324 28.3534 12.7169 28.069 12.7169 27.7181C12.7169 27.3673 12.4324 27.0828 12.0816 27.0828C11.7307 27.0828 11.4463 27.3673 11.4463 27.7181C11.4463 28.069 11.7307 28.3534 12.0816 28.3534Z" fill="white" fill-opacity="0.3"/>
<path d="M13.5059 28.3534C13.8567 28.3534 14.1412 28.069 14.1412 27.7181C14.1412 27.3673 13.8567 27.0828 13.5059 27.0828C13.155 27.0828 12.8706 27.3673 12.8706 27.7181C12.8706 28.069 13.155 28.3534 13.5059 28.3534Z" fill="white" fill-opacity="0.3"/>
<path d="M14.9517 28.3534C15.3025 28.3534 15.587 28.069 15.587 27.7181C15.587 27.3673 15.3025 27.0828 14.9517 27.0828C14.6008 27.0828 14.3164 27.3673 14.3164 27.7181C14.3164 28.069 14.6008 28.3534 14.9517 28.3534Z" fill="white" fill-opacity="0.3"/>
<path d="M16.376 28.3534C16.7269 28.3534 17.0113 28.069 17.0113 27.7181C17.0113 27.3673 16.7269 27.0828 16.376 27.0828C16.0251 27.0828 15.7407 27.3673 15.7407 27.7181C15.7407 28.069 16.0251 28.3534 16.376 28.3534Z" fill="white" fill-opacity="0.3"/>
<path d="M17.8208 28.3534C18.1717 28.3534 18.4561 28.069 18.4561 27.7181C18.4561 27.3673 18.1717 27.0828 17.8208 27.0828C17.47 27.0828 17.1855 27.3673 17.1855 27.7181C17.1855 28.069 17.47 28.3534 17.8208 28.3534Z" fill="white" fill-opacity="0.3"/>
<path d="M3.47269 29.7335C3.82355 29.7335 4.10797 29.449 4.10797 29.0982C4.10797 28.7473 3.82355 28.4629 3.47269 28.4629C3.12183 28.4629 2.8374 28.7473 2.8374 29.0982C2.8374 29.449 3.12183 29.7335 3.47269 29.7335Z" fill="white" fill-opacity="0.3"/>
<path d="M4.89652 29.7335C5.24737 29.7335 5.5318 29.449 5.5318 29.0982C5.5318 28.7473 5.24737 28.4629 4.89652 28.4629C4.54566 28.4629 4.26123 28.7473 4.26123 29.0982C4.26123 29.449 4.54566 29.7335 4.89652 29.7335Z" fill="white" fill-opacity="0.3"/>
<path d="M6.34232 29.7335C6.69318 29.7335 6.9776 29.449 6.9776 29.0982C6.9776 28.7473 6.69318 28.4629 6.34232 28.4629C5.99146 28.4629 5.70703 28.7473 5.70703 29.0982C5.70703 29.449 5.99146 29.7335 6.34232 29.7335Z" fill="white" fill-opacity="0.3"/>
<path d="M7.76663 29.7335C8.11749 29.7335 8.40192 29.449 8.40192 29.0982C8.40192 28.7473 8.11749 28.4629 7.76663 28.4629C7.41577 28.4629 7.13135 28.7473 7.13135 29.0982C7.13135 29.449 7.41577 29.7335 7.76663 29.7335Z" fill="white" fill-opacity="0.3"/>
<path d="M9.21195 29.7335C9.5628 29.7335 9.84723 29.449 9.84723 29.0982C9.84723 28.7473 9.5628 28.4629 9.21195 28.4629C8.86109 28.4629 8.57666 28.7473 8.57666 29.0982C8.57666 29.449 8.86109 29.7335 9.21195 29.7335Z" fill="white" fill-opacity="0.3"/>
<path d="M10.6358 29.7335C10.9866 29.7335 11.2711 29.449 11.2711 29.0982C11.2711 28.7473 10.9866 28.4629 10.6358 28.4629C10.2849 28.4629 10.0005 28.7473 10.0005 29.0982C10.0005 29.449 10.2849 29.7335 10.6358 29.7335Z" fill="white" fill-opacity="0.3"/>
<path d="M12.0816 29.7335C12.4324 29.7335 12.7169 29.449 12.7169 29.0982C12.7169 28.7473 12.4324 28.4629 12.0816 28.4629C11.7307 28.4629 11.4463 28.7473 11.4463 29.0982C11.4463 29.449 11.7307 29.7335 12.0816 29.7335Z" fill="white" fill-opacity="0.3"/>
<path d="M13.5059 29.7335C13.8567 29.7335 14.1412 29.449 14.1412 29.0982C14.1412 28.7473 13.8567 28.4629 13.5059 28.4629C13.155 28.4629 12.8706 28.7473 12.8706 29.0982C12.8706 29.449 13.155 29.7335 13.5059 29.7335Z" fill="white" fill-opacity="0.3"/>
<path d="M14.9517 29.7335C15.3025 29.7335 15.587 29.449 15.587 29.0982C15.587 28.7473 15.3025 28.4629 14.9517 28.4629C14.6008 28.4629 14.3164 28.7473 14.3164 29.0982C14.3164 29.449 14.6008 29.7335 14.9517 29.7335Z" fill="white" fill-opacity="0.3"/>
<path d="M16.376 29.7335C16.7269 29.7335 17.0113 29.449 17.0113 29.0982C17.0113 28.7473 16.7269 28.4629 16.376 28.4629C16.0251 28.4629 15.7407 28.7473 15.7407 29.0982C15.7407 29.449 16.0251 29.7335 16.376 29.7335Z" fill="white" fill-opacity="0.3"/>
<path d="M19.2451 29.7335C19.596 29.7335 19.8804 29.449 19.8804 29.0982C19.8804 28.7473 19.596 28.4629 19.2451 28.4629C18.8943 28.4629 18.6099 28.7473 18.6099 29.0982C18.6099 29.449 18.8943 29.7335 19.2451 29.7335Z" fill="white" fill-opacity="0.3"/>
<path d="M3.47269 31.1139C3.82355 31.1139 4.10797 30.8295 4.10797 30.4786C4.10797 30.1277 3.82355 29.8433 3.47269 29.8433C3.12183 29.8433 2.8374 30.1277 2.8374 30.4786C2.8374 30.8295 3.12183 31.1139 3.47269 31.1139Z" fill="white" fill-opacity="0.3"/>
<path d="M4.89652 31.1139C5.24737 31.1139 5.5318 30.8295 5.5318 30.4786C5.5318 30.1277 5.24737 29.8433 4.89652 29.8433C4.54566 29.8433 4.26123 30.1277 4.26123 30.4786C4.26123 30.8295 4.54566 31.1139 4.89652 31.1139Z" fill="white" fill-opacity="0.3"/>
<path d="M6.34232 31.1139C6.69318 31.1139 6.9776 30.8295 6.9776 30.4786C6.9776 30.1277 6.69318 29.8433 6.34232 29.8433C5.99146 29.8433 5.70703 30.1277 5.70703 30.4786C5.70703 30.8295 5.99146 31.1139 6.34232 31.1139Z" fill="white" fill-opacity="0.3"/>
<path d="M7.76663 31.1139C8.11749 31.1139 8.40192 30.8295 8.40192 30.4786C8.40192 30.1277 8.11749 29.8433 7.76663 29.8433C7.41577 29.8433 7.13135 30.1277 7.13135 30.4786C7.13135 30.8295 7.41577 31.1139 7.76663 31.1139Z" fill="white" fill-opacity="0.3"/>
<path d="M9.21195 31.1139C9.5628 31.1139 9.84723 30.8295 9.84723 30.4786C9.84723 30.1277 9.5628 29.8433 9.21195 29.8433C8.86109 29.8433 8.57666 30.1277 8.57666 30.4786C8.57666 30.8295 8.86109 31.1139 9.21195 31.1139Z" fill="white" fill-opacity="0.3"/>
<path d="M10.6358 31.1139C10.9866 31.1139 11.2711 30.8295 11.2711 30.4786C11.2711 30.1277 10.9866 29.8433 10.6358 29.8433C10.2849 29.8433 10.0005 30.1277 10.0005 30.4786C10.0005 30.8295 10.2849 31.1139 10.6358 31.1139Z" fill="white" fill-opacity="0.3"/>
<path d="M12.0816 31.1139C12.4324 31.1139 12.7169 30.8295 12.7169 30.4786C12.7169 30.1277 12.4324 29.8433 12.0816 29.8433C11.7307 29.8433 11.4463 30.1277 11.4463 30.4786C11.4463 30.8295 11.7307 31.1139 12.0816 31.1139Z" fill="white" fill-opacity="0.3"/>
<path d="M13.5059 31.1139C13.8567 31.1139 14.1412 30.8295 14.1412 30.4786C14.1412 30.1277 13.8567 29.8433 13.5059 29.8433C13.155 29.8433 12.8706 30.1277 12.8706 30.4786C12.8706 30.8295 13.155 31.1139 13.5059 31.1139Z" fill="white" fill-opacity="0.3"/>
<path d="M14.9517 31.1139C15.3025 31.1139 15.587 30.8295 15.587 30.4786C15.587 30.1277 15.3025 29.8433 14.9517 29.8433C14.6008 29.8433 14.3164 30.1277 14.3164 30.4786C14.3164 30.8295 14.6008 31.1139 14.9517 31.1139Z" fill="white" fill-opacity="0.3"/>
<path d="M16.376 31.1139C16.7269 31.1139 17.0113 30.8295 17.0113 30.4786C17.0113 30.1277 16.7269 29.8433 16.376 29.8433C16.0251 29.8433 15.7407 30.1277 15.7407 30.4786C15.7407 30.8295 16.0251 31.1139 16.376 31.1139Z" fill="white" fill-opacity="0.3"/>
<path d="M3.47269 32.4935C3.82355 32.4935 4.10797 32.2091 4.10797 31.8582C4.10797 31.5074 3.82355 31.223 3.47269 31.223C3.12183 31.223 2.8374 31.5074 2.8374 31.8582C2.8374 32.2091 3.12183 32.4935 3.47269 32.4935Z" fill="white" fill-opacity="0.3"/>
<path d="M4.89652 32.4935C5.24737 32.4935 5.5318 32.2091 5.5318 31.8582C5.5318 31.5074 5.24737 31.223 4.89652 31.223C4.54566 31.223 4.26123 31.5074 4.26123 31.8582C4.26123 32.2091 4.54566 32.4935 4.89652 32.4935Z" fill="white" fill-opacity="0.3"/>
<path d="M6.34232 32.4935C6.69318 32.4935 6.9776 32.2091 6.9776 31.8582C6.9776 31.5074 6.69318 31.223 6.34232 31.223C5.99146 31.223 5.70703 31.5074 5.70703 31.8582C5.70703 32.2091 5.99146 32.4935 6.34232 32.4935Z" fill="white" fill-opacity="0.3"/>
<path d="M7.76663 32.4935C8.11749 32.4935 8.40192 32.2091 8.40192 31.8582C8.40192 31.5074 8.11749 31.223 7.76663 31.223C7.41577 31.223 7.13135 31.5074 7.13135 31.8582C7.13135 32.2091 7.41577 32.4935 7.76663 32.4935Z" fill="white" fill-opacity="0.3"/>
<path d="M9.21195 32.4935C9.5628 32.4935 9.84723 32.2091 9.84723 31.8582C9.84723 31.5074 9.5628 31.223 9.21195 31.223C8.86109 31.223 8.57666 31.5074 8.57666 31.8582C8.57666 32.2091 8.86109 32.4935 9.21195 32.4935Z" fill="white" fill-opacity="0.3"/>
<path d="M10.6358 32.4935C10.9866 32.4935 11.2711 32.2091 11.2711 31.8582C11.2711 31.5074 10.9866 31.223 10.6358 31.223C10.2849 31.223 10.0005 31.5074 10.0005 31.8582C10.0005 32.2091 10.2849 32.4935 10.6358 32.4935Z" fill="white" fill-opacity="0.3"/>
<path d="M12.0816 32.4935C12.4324 32.4935 12.7169 32.2091 12.7169 31.8582C12.7169 31.5074 12.4324 31.223 12.0816 31.223C11.7307 31.223 11.4463 31.5074 11.4463 31.8582C11.4463 32.2091 11.7307 32.4935 12.0816 32.4935Z" fill="white" fill-opacity="0.3"/>
<path d="M13.5059 32.4935C13.8567 32.4935 14.1412 32.2091 14.1412 31.8582C14.1412 31.5074 13.8567 31.223 13.5059 31.223C13.155 31.223 12.8706 31.5074 12.8706 31.8582C12.8706 32.2091 13.155 32.4935 13.5059 32.4935Z" fill="white" fill-opacity="0.3"/>
<path d="M14.9517 32.4935C15.3025 32.4935 15.587 32.2091 15.587 31.8582C15.587 31.5074 15.3025 31.223 14.9517 31.223C14.6008 31.223 14.3164 31.5074 14.3164 31.8582C14.3164 32.2091 14.6008 32.4935 14.9517 32.4935Z" fill="white" fill-opacity="0.3"/>
<path d="M3.47269 33.8738C3.82355 33.8738 4.10797 33.5894 4.10797 33.2386C4.10797 32.8877 3.82355 32.6033 3.47269 32.6033C3.12183 32.6033 2.8374 32.8877 2.8374 33.2386C2.8374 33.5894 3.12183 33.8738 3.47269 33.8738Z" fill="white" fill-opacity="0.3"/>
<path d="M4.89652 33.8738C5.24737 33.8738 5.5318 33.5894 5.5318 33.2386C5.5318 32.8877 5.24737 32.6033 4.89652 32.6033C4.54566 32.6033 4.26123 32.8877 4.26123 33.2386C4.26123 33.5894 4.54566 33.8738 4.89652 33.8738Z" fill="white" fill-opacity="0.3"/>
<path d="M6.34232 33.8738C6.69318 33.8738 6.9776 33.5894 6.9776 33.2386C6.9776 32.8877 6.69318 32.6033 6.34232 32.6033C5.99146 32.6033 5.70703 32.8877 5.70703 33.2386C5.70703 33.5894 5.99146 33.8738 6.34232 33.8738Z" fill="white" fill-opacity="0.3"/>
<path d="M7.76663 33.8738C8.11749 33.8738 8.40192 33.5894 8.40192 33.2386C8.40192 32.8877 8.11749 32.6033 7.76663 32.6033C7.41577 32.6033 7.13135 32.8877 7.13135 33.2386C7.13135 33.5894 7.41577 33.8738 7.76663 33.8738Z" fill="white" fill-opacity="0.3"/>
<path d="M9.21195 33.8738C9.5628 33.8738 9.84723 33.5894 9.84723 33.2386C9.84723 32.8877 9.5628 32.6033 9.21195 32.6033C8.86109 32.6033 8.57666 32.8877 8.57666 33.2386C8.57666 33.5894 8.86109 33.8738 9.21195 33.8738Z" fill="white" fill-opacity="0.3"/>
<path d="M10.6358 33.8738C10.9866 33.8738 11.2711 33.5894 11.2711 33.2386C11.2711 32.8877 10.9866 32.6033 10.6358 32.6033C10.2849 32.6033 10.0005 32.8877 10.0005 33.2386C10.0005 33.5894 10.2849 33.8738 10.6358 33.8738Z" fill="white" fill-opacity="0.3"/>
<path d="M12.0816 33.8738C12.4324 33.8738 12.7169 33.5894 12.7169 33.2386C12.7169 32.8877 12.4324 32.6033 12.0816 32.6033C11.7307 32.6033 11.4463 32.8877 11.4463 33.2386C11.4463 33.5894 11.7307 33.8738 12.0816 33.8738Z" fill="white" fill-opacity="0.3"/>
<path d="M13.5059 33.8738C13.8567 33.8738 14.1412 33.5894 14.1412 33.2386C14.1412 32.8877 13.8567 32.6033 13.5059 32.6033C13.155 32.6033 12.8706 32.8877 12.8706 33.2386C12.8706 33.5894 13.155 33.8738 13.5059 33.8738Z" fill="white" fill-opacity="0.3"/>
<path d="M4.89652 35.2541C5.24737 35.2541 5.5318 34.9697 5.5318 34.6188C5.5318 34.2679 5.24737 33.9835 4.89652 33.9835C4.54566 33.9835 4.26123 34.2679 4.26123 34.6188C4.26123 34.9697 4.54566 35.2541 4.89652 35.2541Z" fill="white" fill-opacity="0.3"/>
<path d="M6.34232 35.2541C6.69318 35.2541 6.9776 34.9697 6.9776 34.6188C6.9776 34.2679 6.69318 33.9835 6.34232 33.9835C5.99146 33.9835 5.70703 34.2679 5.70703 34.6188C5.70703 34.9697 5.99146 35.2541 6.34232 35.2541Z" fill="white" fill-opacity="0.3"/>
<path d="M7.76663 35.2541C8.11749 35.2541 8.40192 34.9697 8.40192 34.6188C8.40192 34.2679 8.11749 33.9835 7.76663 33.9835C7.41577 33.9835 7.13135 34.2679 7.13135 34.6188C7.13135 34.9697 7.41577 35.2541 7.76663 35.2541Z" fill="white" fill-opacity="0.3"/>
<path d="M9.21195 35.2541C9.5628 35.2541 9.84723 34.9697 9.84723 34.6188C9.84723 34.2679 9.5628 33.9835 9.21195 33.9835C8.86109 33.9835 8.57666 34.2679 8.57666 34.6188C8.57666 34.9697 8.86109 35.2541 9.21195 35.2541Z" fill="white" fill-opacity="0.3"/>
<path d="M10.6358 35.2541C10.9866 35.2541 11.2711 34.9697 11.2711 34.6188C11.2711 34.2679 10.9866 33.9835 10.6358 33.9835C10.2849 33.9835 10.0005 34.2679 10.0005 34.6188C10.0005 34.9697 10.2849 35.2541 10.6358 35.2541Z" fill="white" fill-opacity="0.3"/>
<path d="M12.0816 35.2541C12.4324 35.2541 12.7169 34.9697 12.7169 34.6188C12.7169 34.2679 12.4324 33.9835 12.0816 33.9835C11.7307 33.9835 11.4463 34.2679 11.4463 34.6188C11.4463 34.9697 11.7307 35.2541 12.0816 35.2541Z" fill="white" fill-opacity="0.3"/>
<path d="M13.5059 35.2541C13.8567 35.2541 14.1412 34.9697 14.1412 34.6188C14.1412 34.2679 13.8567 33.9835 13.5059 33.9835C13.155 33.9835 12.8706 34.2679 12.8706 34.6188C12.8706 34.9697 13.155 35.2541 13.5059 35.2541Z" fill="white" fill-opacity="0.3"/>
<path d="M6.34232 36.634C6.69318 36.634 6.9776 36.3496 6.9776 35.9987C6.9776 35.6479 6.69318 35.3635 6.34232 35.3635C5.99146 35.3635 5.70703 35.6479 5.70703 35.9987C5.70703 36.3496 5.99146 36.634 6.34232 36.634Z" fill="white" fill-opacity="0.3"/>
<path d="M7.76663 36.634C8.11749 36.634 8.40192 36.3496 8.40192 35.9987C8.40192 35.6479 8.11749 35.3635 7.76663 35.3635C7.41577 35.3635 7.13135 35.6479 7.13135 35.9987C7.13135 36.3496 7.41577 36.634 7.76663 36.634Z" fill="white" fill-opacity="0.3"/>
<path d="M9.21195 36.634C9.5628 36.634 9.84723 36.3496 9.84723 35.9987C9.84723 35.6479 9.5628 35.3635 9.21195 35.3635C8.86109 35.3635 8.57666 35.6479 8.57666 35.9987C8.57666 36.3496 8.86109 36.634 9.21195 36.634Z" fill="white" fill-opacity="0.3"/>
<path d="M13.5059 36.634C13.8567 36.634 14.1412 36.3496 14.1412 35.9987C14.1412 35.6479 13.8567 35.3635 13.5059 35.3635C13.155 35.3635 12.8706 35.6479 12.8706 35.9987C12.8706 36.3496 13.155 36.634 13.5059 36.634Z" fill="white" fill-opacity="0.3"/>
<path d="M7.76663 38.014C8.11749 38.014 8.40192 37.7296 8.40192 37.3787C8.40192 37.0278 8.11749 36.7434 7.76663 36.7434C7.41577 36.7434 7.13135 37.0278 7.13135 37.3787C7.13135 37.7296 7.41577 38.014 7.76663 38.014Z" fill="white" fill-opacity="0.3"/>
<path d="M9.21195 38.014C9.5628 38.014 9.84723 37.7296 9.84723 37.3787C9.84723 37.0278 9.5628 36.7434 9.21195 36.7434C8.86109 36.7434 8.57666 37.0278 8.57666 37.3787C8.57666 37.7296 8.86109 38.014 9.21195 38.014Z" fill="white" fill-opacity="0.3"/>
<path d="M14.9517 38.014C15.3025 38.014 15.587 37.7296 15.587 37.3787C15.587 37.0278 15.3025 36.7434 14.9517 36.7434C14.6008 36.7434 14.3164 37.0278 14.3164 37.3787C14.3164 37.7296 14.6008 38.014 14.9517 38.014Z" fill="white" fill-opacity="0.3"/>
<path d="M16.376 38.014C16.7269 38.014 17.0113 37.7296 17.0113 37.3787C17.0113 37.0278 16.7269 36.7434 16.376 36.7434C16.0251 36.7434 15.7407 37.0278 15.7407 37.3787C15.7407 37.7296 16.0251 38.014 16.376 38.014Z" fill="white" fill-opacity="0.3"/>
<path d="M10.6358 39.3942C10.9866 39.3942 11.2711 39.1098 11.2711 38.7589C11.2711 38.4081 10.9866 38.1237 10.6358 38.1237C10.2849 38.1237 10.0005 38.4081 10.0005 38.7589C10.0005 39.1098 10.2849 39.3942 10.6358 39.3942Z" fill="white" fill-opacity="0.3"/>
<path d="M12.0816 40.7963C12.4324 40.7963 12.7169 40.5119 12.7169 40.161C12.7169 39.8102 12.4324 39.5258 12.0816 39.5258C11.7307 39.5258 11.4463 39.8102 11.4463 40.161C11.4463 40.5119 11.7307 40.7963 12.0816 40.7963Z" fill="white" fill-opacity="0.3"/>
<path d="M13.5059 40.7963C13.8567 40.7963 14.1412 40.5119 14.1412 40.161C14.1412 39.8102 13.8567 39.5258 13.5059 39.5258C13.155 39.5258 12.8706 39.8102 12.8706 40.161C12.8706 40.5119 13.155 40.7963 13.5059 40.7963Z" fill="white" fill-opacity="0.3"/>
<path d="M14.9517 40.7963C15.3025 40.7963 15.587 40.5119 15.587 40.161C15.587 39.8102 15.3025 39.5258 14.9517 39.5258C14.6008 39.5258 14.3164 39.8102 14.3164 40.161C14.3164 40.5119 14.6008 40.7963 14.9517 40.7963Z" fill="white" fill-opacity="0.3"/>
<path d="M16.376 40.7963C16.7269 40.7963 17.0113 40.5119 17.0113 40.161C17.0113 39.8102 16.7269 39.5258 16.376 39.5258C16.0251 39.5258 15.7407 39.8102 15.7407 40.161C15.7407 40.5119 16.0251 40.7963 16.376 40.7963Z" fill="white" fill-opacity="0.3"/>
<path d="M17.8208 40.7963C18.1717 40.7963 18.4561 40.5119 18.4561 40.161C18.4561 39.8102 18.1717 39.5258 17.8208 39.5258C17.47 39.5258 17.1855 39.8102 17.1855 40.161C17.1855 40.5119 17.47 40.7963 17.8208 40.7963Z" fill="white" fill-opacity="0.3"/>
<path d="M13.5059 42.1766C13.8567 42.1766 14.1412 41.8921 14.1412 41.5413C14.1412 41.1904 13.8567 40.906 13.5059 40.906C13.155 40.906 12.8706 41.1904 12.8706 41.5413C12.8706 41.8921 13.155 42.1766 13.5059 42.1766Z" fill="white" fill-opacity="0.3"/>
<path d="M14.9517 42.1766C15.3025 42.1766 15.587 41.8921 15.587 41.5413C15.587 41.1904 15.3025 40.906 14.9517 40.906C14.6008 40.906 14.3164 41.1904 14.3164 41.5413C14.3164 41.8921 14.6008 42.1766 14.9517 42.1766Z" fill="white" fill-opacity="0.3"/>
<path d="M16.376 42.1766C16.7269 42.1766 17.0113 41.8921 17.0113 41.5413C17.0113 41.1904 16.7269 40.906 16.376 40.906C16.0251 40.906 15.7407 41.1904 15.7407 41.5413C15.7407 41.8921 16.0251 42.1766 16.376 42.1766Z" fill="white" fill-opacity="0.3"/>
<path d="M17.8208 42.1766C18.1717 42.1766 18.4561 41.8921 18.4561 41.5413C18.4561 41.1904 18.1717 40.906 17.8208 40.906C17.47 40.906 17.1855 41.1904 17.1855 41.5413C17.1855 41.8921 17.47 42.1766 17.8208 42.1766Z" fill="white" fill-opacity="0.3"/>
<path d="M19.2451 42.1766C19.596 42.1766 19.8804 41.8921 19.8804 41.5413C19.8804 41.1904 19.596 40.906 19.2451 40.906C18.8943 40.906 18.6099 41.1904 18.6099 41.5413C18.6099 41.8921 18.8943 42.1766 19.2451 42.1766Z" fill="white" fill-opacity="0.3"/>
<path d="M13.5059 43.5565C13.8567 43.5565 14.1412 43.2721 14.1412 42.9212C14.1412 42.5704 13.8567 42.2859 13.5059 42.2859C13.155 42.2859 12.8706 42.5704 12.8706 42.9212C12.8706 43.2721 13.155 43.5565 13.5059 43.5565Z" fill="white" fill-opacity="0.3"/>
<path d="M14.9517 43.5565C15.3025 43.5565 15.587 43.2721 15.587 42.9212C15.587 42.5704 15.3025 42.2859 14.9517 42.2859C14.6008 42.2859 14.3164 42.5704 14.3164 42.9212C14.3164 43.2721 14.6008 43.5565 14.9517 43.5565Z" fill="white" fill-opacity="0.3"/>
<path d="M16.376 43.5565C16.7269 43.5565 17.0113 43.2721 17.0113 42.9212C17.0113 42.5704 16.7269 42.2859 16.376 42.2859C16.0251 42.2859 15.7407 42.5704 15.7407 42.9212C15.7407 43.2721 16.0251 43.5565 16.376 43.5565Z" fill="white" fill-opacity="0.3"/>
<path d="M17.8208 43.5565C18.1717 43.5565 18.4561 43.2721 18.4561 42.9212C18.4561 42.5704 18.1717 42.2859 17.8208 42.2859C17.47 42.2859 17.1855 42.5704 17.1855 42.9212C17.1855 43.2721 17.47 43.5565 17.8208 43.5565Z" fill="white" fill-opacity="0.3"/>
<path d="M19.2451 43.5565C19.596 43.5565 19.8804 43.2721 19.8804 42.9212C19.8804 42.5704 19.596 42.2859 19.2451 42.2859C18.8943 42.2859 18.6099 42.5704 18.6099 42.9212C18.6099 43.2721 18.8943 43.5565 19.2451 43.5565Z" fill="white" fill-opacity="0.3"/>
<path d="M20.69 43.5565C21.0408 43.5565 21.3253 43.2721 21.3253 42.9212C21.3253 42.5704 21.0408 42.2859 20.69 42.2859C20.3391 42.2859 20.0547 42.5704 20.0547 42.9212C20.0547 43.2721 20.3391 43.5565 20.69 43.5565Z" fill="white" fill-opacity="0.3"/>
<path d="M22.1372 43.5565C22.4881 43.5565 22.7725 43.2721 22.7725 42.9212C22.7725 42.5704 22.4881 42.2859 22.1372 42.2859C21.7864 42.2859 21.502 42.5704 21.502 42.9212C21.502 43.2721 21.7864 43.5565 22.1372 43.5565Z" fill="white" fill-opacity="0.3"/>
<path d="M13.5059 44.9368C13.8567 44.9368 14.1412 44.6523 14.1412 44.3015C14.1412 43.9506 13.8567 43.6662 13.5059 43.6662C13.155 43.6662 12.8706 43.9506 12.8706 44.3015C12.8706 44.6523 13.155 44.9368 13.5059 44.9368Z" fill="white" fill-opacity="0.3"/>
<path d="M14.9517 44.9368C15.3025 44.9368 15.587 44.6523 15.587 44.3015C15.587 43.9506 15.3025 43.6662 14.9517 43.6662C14.6008 43.6662 14.3164 43.9506 14.3164 44.3015C14.3164 44.6523 14.6008 44.9368 14.9517 44.9368Z" fill="white" fill-opacity="0.3"/>
<path d="M16.376 44.9368C16.7269 44.9368 17.0113 44.6523 17.0113 44.3015C17.0113 43.9506 16.7269 43.6662 16.376 43.6662C16.0251 43.6662 15.7407 43.9506 15.7407 44.3015C15.7407 44.6523 16.0251 44.9368 16.376 44.9368Z" fill="white" fill-opacity="0.3"/>
<path d="M17.8208 44.9368C18.1717 44.9368 18.4561 44.6523 18.4561 44.3015C18.4561 43.9506 18.1717 43.6662 17.8208 43.6662C17.47 43.6662 17.1855 43.9506 17.1855 44.3015C17.1855 44.6523 17.47 44.9368 17.8208 44.9368Z" fill="white" fill-opacity="0.3"/>
<path d="M19.2451 44.9368C19.596 44.9368 19.8804 44.6523 19.8804 44.3015C19.8804 43.9506 19.596 43.6662 19.2451 43.6662C18.8943 43.6662 18.6099 43.9506 18.6099 44.3015C18.6099 44.6523 18.8943 44.9368 19.2451 44.9368Z" fill="white" fill-opacity="0.3"/>
<path d="M20.69 44.9368C21.0408 44.9368 21.3253 44.6523 21.3253 44.3015C21.3253 43.9506 21.0408 43.6662 20.69 43.6662C20.3391 43.6662 20.0547 43.9506 20.0547 44.3015C20.0547 44.6523 20.3391 44.9368 20.69 44.9368Z" fill="white" fill-opacity="0.3"/>
<path d="M22.1372 44.9368C22.4881 44.9368 22.7725 44.6523 22.7725 44.3015C22.7725 43.9506 22.4881 43.6662 22.1372 43.6662C21.7864 43.6662 21.502 43.9506 21.502 44.3015C21.502 44.6523 21.7864 44.9368 22.1372 44.9368Z" fill="white" fill-opacity="0.3"/>
<path d="M23.5611 44.9368C23.9119 44.9368 24.1963 44.6523 24.1963 44.3015C24.1963 43.9506 23.9119 43.6662 23.5611 43.6662C23.2102 43.6662 22.9258 43.9506 22.9258 44.3015C22.9258 44.6523 23.2102 44.9368 23.5611 44.9368Z" fill="white" fill-opacity="0.3"/>
<path d="M14.9517 46.3167C15.3025 46.3167 15.587 46.0323 15.587 45.6814C15.587 45.3306 15.3025 45.0461 14.9517 45.0461C14.6008 45.0461 14.3164 45.3306 14.3164 45.6814C14.3164 46.0323 14.6008 46.3167 14.9517 46.3167Z" fill="white" fill-opacity="0.3"/>
<path d="M16.376 46.3167C16.7269 46.3167 17.0113 46.0323 17.0113 45.6814C17.0113 45.3306 16.7269 45.0461 16.376 45.0461C16.0251 45.0461 15.7407 45.3306 15.7407 45.6814C15.7407 46.0323 16.0251 46.3167 16.376 46.3167Z" fill="white" fill-opacity="0.3"/>
<path d="M17.8208 46.3167C18.1717 46.3167 18.4561 46.0323 18.4561 45.6814C18.4561 45.3306 18.1717 45.0461 17.8208 45.0461C17.47 45.0461 17.1855 45.3306 17.1855 45.6814C17.1855 46.0323 17.47 46.3167 17.8208 46.3167Z" fill="white" fill-opacity="0.3"/>
<path d="M19.2451 46.3167C19.596 46.3167 19.8804 46.0323 19.8804 45.6814C19.8804 45.3306 19.596 45.0461 19.2451 45.0461C18.8943 45.0461 18.6099 45.3306 18.6099 45.6814C18.6099 46.0323 18.8943 46.3167 19.2451 46.3167Z" fill="white" fill-opacity="0.3"/>
<path d="M20.69 46.3167C21.0408 46.3167 21.3253 46.0323 21.3253 45.6814C21.3253 45.3306 21.0408 45.0461 20.69 45.0461C20.3391 45.0461 20.0547 45.3306 20.0547 45.6814C20.0547 46.0323 20.3391 46.3167 20.69 46.3167Z" fill="white" fill-opacity="0.3"/>
<path d="M22.1372 46.3167C22.4881 46.3167 22.7725 46.0323 22.7725 45.6814C22.7725 45.3306 22.4881 45.0461 22.1372 45.0461C21.7864 45.0461 21.502 45.3306 21.502 45.6814C21.502 46.0323 21.7864 46.3167 22.1372 46.3167Z" fill="white" fill-opacity="0.3"/>
<path d="M16.376 47.6966C16.7269 47.6966 17.0113 47.4122 17.0113 47.0613C17.0113 46.7105 16.7269 46.426 16.376 46.426C16.0251 46.426 15.7407 46.7105 15.7407 47.0613C15.7407 47.4122 16.0251 47.6966 16.376 47.6966Z" fill="white" fill-opacity="0.3"/>
<path d="M17.8208 47.6966C18.1717 47.6966 18.4561 47.4122 18.4561 47.0613C18.4561 46.7105 18.1717 46.426 17.8208 46.426C17.47 46.426 17.1855 46.7105 17.1855 47.0613C17.1855 47.4122 17.47 47.6966 17.8208 47.6966Z" fill="white" fill-opacity="0.3"/>
<path d="M19.2451 47.6966C19.596 47.6966 19.8804 47.4122 19.8804 47.0613C19.8804 46.7105 19.596 46.426 19.2451 46.426C18.8943 46.426 18.6099 46.7105 18.6099 47.0613C18.6099 47.4122 18.8943 47.6966 19.2451 47.6966Z" fill="white" fill-opacity="0.3"/>
<path d="M20.69 47.6966C21.0408 47.6966 21.3253 47.4122 21.3253 47.0613C21.3253 46.7105 21.0408 46.426 20.69 46.426C20.3391 46.426 20.0547 46.7105 20.0547 47.0613C20.0547 47.4122 20.3391 47.6966 20.69 47.6966Z" fill="white" fill-opacity="0.3"/>
<path d="M22.1372 47.6966C22.4881 47.6966 22.7725 47.4122 22.7725 47.0613C22.7725 46.7105 22.4881 46.426 22.1372 46.426C21.7864 46.426 21.502 46.7105 21.502 47.0613C21.502 47.4122 21.7864 47.6966 22.1372 47.6966Z" fill="white" fill-opacity="0.3"/>
<path d="M16.376 49.0771C16.7269 49.0771 17.0113 48.7927 17.0113 48.4418C17.0113 48.0909 16.7269 47.8065 16.376 47.8065C16.0251 47.8065 15.7407 48.0909 15.7407 48.4418C15.7407 48.7927 16.0251 49.0771 16.376 49.0771Z" fill="white" fill-opacity="0.3"/>
<path d="M17.8208 49.0771C18.1717 49.0771 18.4561 48.7927 18.4561 48.4418C18.4561 48.0909 18.1717 47.8065 17.8208 47.8065C17.47 47.8065 17.1855 48.0909 17.1855 48.4418C17.1855 48.7927 17.47 49.0771 17.8208 49.0771Z" fill="white" fill-opacity="0.3"/>
<path d="M19.2451 49.0771C19.596 49.0771 19.8804 48.7927 19.8804 48.4418C19.8804 48.0909 19.596 47.8065 19.2451 47.8065C18.8943 47.8065 18.6099 48.0909 18.6099 48.4418C18.6099 48.7927 18.8943 49.0771 19.2451 49.0771Z" fill="white" fill-opacity="0.3"/>
<path d="M20.69 49.0771C21.0408 49.0771 21.3253 48.7927 21.3253 48.4418C21.3253 48.0909 21.0408 47.8065 20.69 47.8065C20.3391 47.8065 20.0547 48.0909 20.0547 48.4418C20.0547 48.7927 20.3391 49.0771 20.69 49.0771Z" fill="white" fill-opacity="0.3"/>
<path d="M16.376 50.4572C16.7269 50.4572 17.0113 50.1728 17.0113 49.8219C17.0113 49.4711 16.7269 49.1866 16.376 49.1866C16.0251 49.1866 15.7407 49.4711 15.7407 49.8219C15.7407 50.1728 16.0251 50.4572 16.376 50.4572Z" fill="white" fill-opacity="0.3"/>
<path d="M17.8208 50.4572C18.1717 50.4572 18.4561 50.1728 18.4561 49.8219C18.4561 49.4711 18.1717 49.1866 17.8208 49.1866C17.47 49.1866 17.1855 49.4711 17.1855 49.8219C17.1855 50.1728 17.47 50.4572 17.8208 50.4572Z" fill="white" fill-opacity="0.3"/>
<path d="M19.2451 50.4572C19.596 50.4572 19.8804 50.1728 19.8804 49.8219C19.8804 49.4711 19.596 49.1866 19.2451 49.1866C18.8943 49.1866 18.6099 49.4711 18.6099 49.8219C18.6099 50.1728 18.8943 50.4572 19.2451 50.4572Z" fill="white" fill-opacity="0.3"/>
<path d="M16.376 51.8371C16.7269 51.8371 17.0113 51.5527 17.0113 51.2018C17.0113 50.851 16.7269 50.5665 16.376 50.5665C16.0251 50.5665 15.7407 50.851 15.7407 51.2018C15.7407 51.5527 16.0251 51.8371 16.376 51.8371Z" fill="white" fill-opacity="0.3"/>
<path d="M17.8208 51.8371C18.1717 51.8371 18.4561 51.5527 18.4561 51.2018C18.4561 50.851 18.1717 50.5665 17.8208 50.5665C17.47 50.5665 17.1855 50.851 17.1855 51.2018C17.1855 51.5527 17.47 51.8371 17.8208 51.8371Z" fill="white" fill-opacity="0.3"/>
<path d="M14.9517 53.2172C15.3025 53.2172 15.587 52.9327 15.587 52.5819C15.587 52.231 15.3025 51.9466 14.9517 51.9466C14.6008 51.9466 14.3164 52.231 14.3164 52.5819C14.3164 52.9327 14.6008 53.2172 14.9517 53.2172Z" fill="white" fill-opacity="0.3"/>
<path d="M16.376 53.2172C16.7269 53.2172 17.0113 52.9327 17.0113 52.5819C17.0113 52.231 16.7269 51.9466 16.376 51.9466C16.0251 51.9466 15.7407 52.231 15.7407 52.5819C15.7407 52.9327 16.0251 53.2172 16.376 53.2172Z" fill="white" fill-opacity="0.3"/>
<path d="M17.8208 53.2172C18.1717 53.2172 18.4561 52.9327 18.4561 52.5819C18.4561 52.231 18.1717 51.9466 17.8208 51.9466C17.47 51.9466 17.1855 52.231 17.1855 52.5819C17.1855 52.9327 17.47 53.2172 17.8208 53.2172Z" fill="white" fill-opacity="0.3"/>
<path d="M14.9517 54.5973C15.3025 54.5973 15.587 54.3129 15.587 53.962C15.587 53.6111 15.3025 53.3267 14.9517 53.3267C14.6008 53.3267 14.3164 53.6111 14.3164 53.962C14.3164 54.3129 14.6008 54.5973 14.9517 54.5973Z" fill="white" fill-opacity="0.3"/>
</g>
</svg>
