<svg width="123" height="24" viewBox="0 0 123 24" fill="none" xmlns="http://www.w3.org/2000/svg">
<path d="M0.888672 23.1598V22.819L1.6444 22.5124C2.01679 22.3534 2.2687 22.1489 2.40013 21.899C2.55347 21.6265 2.63014 21.263 2.63014 20.8087V3.02201C2.63014 2.56769 2.56442 2.21559 2.43299 1.96571C2.32346 1.69312 2.0606 1.47732 1.6444 1.3183L0.888672 1.01164V0.670898H16.6276L16.8247 5.9183H16.4962L15.0833 2.71534C14.8861 2.30645 14.678 1.97707 14.459 1.72719C14.2399 1.47732 13.9113 1.35238 13.4732 1.35238H7.55882V11.1998H11.0746C11.5127 11.1998 11.8413 11.0862 12.0603 10.859C12.3013 10.6092 12.5094 10.2798 12.6846 9.8709L13.3418 8.50794H13.6704V14.6413H13.3418L12.6846 13.2102C12.4875 12.8013 12.2794 12.4832 12.0603 12.2561C11.8413 12.0062 11.5127 11.8813 11.0746 11.8813H7.55882V22.4783H14.1961C14.6342 22.4783 14.9737 22.3647 15.2147 22.1376C15.4557 21.8877 15.6528 21.5469 15.8061 21.1153L17.1533 17.9124H17.4819L17.2847 23.1598H0.888672Z" fill="white"/>
<path d="M24.1056 23.6709C22.8351 23.6709 21.7617 23.2961 20.8855 22.5465C20.0312 21.7968 19.6041 20.7178 19.6041 19.3094C19.6041 18.2418 20.1298 17.265 21.1812 16.379C22.2327 15.4704 23.8865 14.7889 26.1428 14.3346C26.4933 14.2665 26.8876 14.1983 27.3257 14.1302C27.7638 14.0393 28.2238 13.9484 28.7057 13.8576V11.1657C28.7057 9.62102 28.5195 8.54201 28.1471 7.92868C27.7966 7.29263 27.238 6.9746 26.4714 6.9746C25.9456 6.9746 25.5294 7.15633 25.2228 7.51979C24.9161 7.86053 24.7189 8.4625 24.6313 9.32571L24.5656 9.70053C24.5218 10.6773 24.2918 11.3929 23.8756 11.8472C23.4594 12.3015 22.9446 12.5287 22.3313 12.5287C21.7617 12.5287 21.2908 12.3469 20.9184 11.9835C20.546 11.62 20.3598 11.1316 20.3598 10.5183C20.3598 9.58695 20.6665 8.80324 21.2798 8.16719C21.9151 7.53114 22.7475 7.05411 23.777 6.73608C24.8066 6.41806 25.9237 6.25905 27.1285 6.25905C29.0781 6.25905 30.5786 6.7588 31.63 7.75831C32.7034 8.7351 33.2401 10.3366 33.2401 12.5627V20.0931C33.2401 21.1153 33.7001 21.6265 34.6201 21.6265H35.343L35.6387 21.899C35.2225 22.4442 34.7625 22.8645 34.2587 23.1598C33.7768 23.4551 33.0867 23.6028 32.1886 23.6028C31.2248 23.6028 30.4581 23.3756 29.8886 22.9213C29.3409 22.4442 28.9795 21.8195 28.8043 21.0472C28.1471 21.7741 27.468 22.3988 26.7671 22.9213C26.088 23.421 25.2008 23.6709 24.1056 23.6709ZM26.1099 21.5924C26.548 21.5924 26.9533 21.4902 27.3257 21.2857C27.72 21.0586 28.18 20.7178 28.7057 20.2635V14.539C28.4866 14.5845 28.2676 14.6299 28.0485 14.6753C27.8295 14.7208 27.5776 14.7662 27.2928 14.8116C26.2852 15.0842 25.4747 15.5499 24.8613 16.2087C24.2699 16.8447 23.9742 17.7079 23.9742 18.7983C23.9742 19.7297 24.1823 20.4339 24.5985 20.9109C25.0147 21.3652 25.5185 21.5924 26.1099 21.5924Z" fill="white"/>
<path d="M42.2588 23.6709C41.1854 23.6709 40.2216 23.5346 39.3673 23.262C38.513 23.0121 37.7244 22.6941 37.0015 22.3079L37.0344 18.2531H37.363L38.4801 20.2976C38.9621 21.2062 39.4878 21.8877 40.0573 22.342C40.6488 22.7736 41.3935 22.9894 42.2917 22.9894C43.3431 22.9894 44.1865 22.7509 44.8217 22.2739C45.4789 21.7741 45.8074 21.1153 45.8074 20.2976C45.8074 19.5479 45.5774 18.9346 45.1174 18.4576C44.6574 17.9805 43.8031 17.5489 42.5545 17.1627L41.1745 16.7198C39.8383 16.3109 38.7868 15.6748 38.0201 14.8116C37.2535 13.9484 36.8701 12.8921 36.8701 11.6427C36.8701 10.1435 37.4397 8.87139 38.5787 7.82645C39.7178 6.78152 41.3497 6.25905 43.4745 6.25905C44.3288 6.25905 45.1284 6.36127 45.8732 6.56571C46.6399 6.74744 47.3737 7.03139 48.0746 7.41756L47.8775 11.0976H47.5489L46.3989 8.98497C45.9827 8.23534 45.5665 7.71287 45.1503 7.41756C44.756 7.09954 44.1536 6.94053 43.3431 6.94053C42.5983 6.94053 41.8974 7.15633 41.2402 7.58793C40.583 8.01954 40.2545 8.63287 40.2545 9.42793C40.2545 10.2003 40.5283 10.8136 41.0759 11.2679C41.6455 11.7223 42.4779 12.1425 43.5731 12.5287L45.0517 12.9716C46.6289 13.4714 47.757 14.1642 48.4361 15.0502C49.1151 15.9134 49.4547 16.9583 49.4547 18.185C49.4547 19.8432 48.8194 21.1721 47.5489 22.1716C46.3003 23.1711 44.5369 23.6709 42.2588 23.6709Z" fill="white"/>
<path d="M57.3881 23.6709C55.9861 23.6709 54.8909 23.3074 54.1023 22.5805C53.3356 21.8536 52.9523 20.6951 52.9523 19.105V7.45164H50.6851V7.1109L51.4737 6.9746C52.1527 6.81559 52.7332 6.58843 53.2151 6.29312C53.7189 5.99781 54.2118 5.60028 54.6937 5.10053L57.3881 1.99979H57.7166L57.6181 6.77016H61.2981V7.45164H57.5852V19.7183C57.5852 20.5134 57.7495 21.1153 58.0781 21.5242C58.4286 21.9331 58.8667 22.1376 59.3924 22.1376C59.8524 22.1376 60.2577 22.024 60.6081 21.7968C60.9586 21.5469 61.3091 21.2176 61.6596 20.8087L61.9882 21.1494C61.5501 21.9218 60.9477 22.5351 60.181 22.9894C59.4143 23.4437 58.4833 23.6709 57.3881 23.6709Z" fill="white"/>
<path d="M71.5547 23.262L64.5231 2.95386C64.3698 2.49954 64.1617 2.14744 63.8988 1.89757C63.6578 1.62497 63.3183 1.42053 62.8802 1.28423L62.0916 1.01164V0.670898H71.5547V1.01164L70.5361 1.3183C70.0323 1.4546 69.7475 1.69312 69.6818 2.03386C69.638 2.3746 69.6927 2.79485 69.8461 3.2946L74.709 18.2531L79.6049 3.26053C79.7801 2.73806 79.8568 2.30645 79.8349 1.96571C79.8349 1.62497 79.5829 1.38645 79.0791 1.25016L78.2248 1.01164V0.670898H82.8249V1.01164L81.9378 1.28423C81.5216 1.39781 81.2258 1.60226 81.0506 1.89757C80.8754 2.17016 80.7111 2.53361 80.5577 2.98794L73.9862 23.262H71.5547Z" fill="white"/>
<path d="M84.6924 23.1598V22.819L85.3496 22.5805C85.7877 22.4442 86.0725 22.2398 86.2039 21.9672C86.3572 21.6946 86.4339 21.3311 86.4339 20.8768V3.02201C86.4339 2.56769 86.3572 2.20423 86.2039 1.93164C86.0506 1.65905 85.7548 1.44324 85.3167 1.28423L84.6924 1.01164V0.670898H92.6769C95.9408 0.670898 98.2956 1.29559 99.7413 2.54497C101.209 3.77164 101.943 5.39584 101.943 7.41756C101.943 8.71238 101.636 9.90497 101.023 10.9953C100.431 12.063 99.4456 12.9148 98.0656 13.5509C96.6855 14.1869 94.8236 14.505 92.4797 14.505H91.3626V20.7746C91.3626 21.6605 91.7897 22.2398 92.644 22.5124L93.6298 22.819V23.1598H84.6924ZM91.3626 13.8235H92.6112C93.6845 13.8235 94.5607 13.6418 95.2398 13.2783C95.9189 12.9148 96.4227 12.2788 96.7513 11.3702C97.0798 10.4615 97.2441 9.20077 97.2441 7.58793C97.2441 5.95238 97.0579 4.68028 96.6855 3.77164C96.3351 2.863 95.8093 2.23831 95.1084 1.89757C94.4074 1.53411 93.5312 1.35238 92.4797 1.35238H91.3626V13.8235Z" fill="white"/>
<path d="M103.765 23.1598V22.819L104.85 22.4783C105.244 22.3647 105.529 22.1489 105.704 21.8309C105.879 21.4902 105.967 21.0926 105.967 20.6383V4.24868C105.726 3.70349 105.529 3.2946 105.375 3.02201C105.244 2.74942 105.091 2.52226 104.915 2.34053C104.74 2.13608 104.499 1.88621 104.193 1.5909L103.634 1.01164V0.670898H109.45L120.359 16.1065V3.26053C120.359 2.80621 120.282 2.39732 120.129 2.03386C119.997 1.6704 119.712 1.43189 119.274 1.3183L118.19 1.01164V0.670898H122.889V1.01164L122.002 1.3183C121.607 1.4546 121.366 1.69312 121.279 2.03386C121.191 2.3746 121.147 2.77213 121.147 3.22645V23.262H119.307L106.755 5.37312V20.6383C106.755 21.0926 106.821 21.4788 106.953 21.7968C107.084 22.1148 107.358 22.342 107.774 22.4783L108.76 22.819V23.1598H103.765Z" fill="white"/>
</svg>
