<svg width="84" height="68" viewBox="0 0 84 68" fill="none" xmlns="http://www.w3.org/2000/svg">
<path d="M10 7.5H74C75.933 7.5 77.5 9.067 77.5 11V58C77.5 59.933 75.933 61.5 74 61.5H10C8.067 61.5 6.5 59.933 6.5 58V11C6.5 9.067 8.067 7.5 10 7.5Z" fill="white" stroke="black"/>
<path d="M40.8858 40.3699C40.1958 39.5999 39.7258 38.6799 39.5758 37.6499C39.2758 38.1099 39.0258 38.6099 38.8458 39.1499C37.9258 41.8999 39.5258 45.3299 42.2458 46.3299C44.5858 47.1099 47.2158 45.7199 48.9458 44.1999C49.2058 43.8499 51.2558 42.0399 50.2358 41.8399C47.2158 43.3899 43.2158 42.9499 40.8858 40.3699ZM41.4858 34.5599C42.5258 34.5499 41.5258 34.1299 41.0958 33.8099C40.0558 33.2399 38.8358 32.9599 37.6558 32.9599C33.8058 32.9999 31.0208 35.4099 32.3258 39.3999C33.2658 43.2799 36.6358 46.3999 40.6158 46.8999C38.5658 45.6099 37.3258 43.1899 37.3258 40.7799C37.4058 38.2499 38.9658 35.2799 41.4858 34.5599ZM32.8058 33.2399C35.8458 30.9999 40.6858 31.1799 43.3058 33.9999C44.3258 35.1099 45.0258 36.9999 44.0958 38.3699C42.3558 40.2499 47.1758 40.4999 48.2058 40.2199C51.9458 39.4999 52.9358 35.1499 51.1558 32.1499C49.4558 28.7499 45.6858 26.9699 41.9858 26.9999C37.9258 26.9299 34.2758 29.4999 32.8058 33.2399Z" fill="black"/>
<path d="M10 7.5H74C75.933 7.5 77.5 9.067 77.5 11V15.5H6.5V11C6.5 9.067 8.067 7.5 10 7.5Z" fill="white" stroke="black"/>
<path fill-rule="evenodd" clip-rule="evenodd" d="M11.5 13C12.3284 13 13 12.3284 13 11.5C13 10.6716 12.3284 10 11.5 10C10.6716 10 10 10.6716 10 11.5C10 12.3284 10.6716 13 11.5 13Z" fill="black"/>
<path fill-rule="evenodd" clip-rule="evenodd" d="M15.5 13C16.3284 13 17 12.3284 17 11.5C17 10.6716 16.3284 10 15.5 10C14.6716 10 14 10.6716 14 11.5C14 12.3284 14.6716 13 15.5 13Z" fill="black"/>
<path fill-rule="evenodd" clip-rule="evenodd" d="M19.5 13C20.3284 13 21 12.3284 21 11.5C21 10.6716 20.3284 10 19.5 10C18.6716 10 18 10.6716 18 11.5C18 12.3284 18.6716 13 19.5 13Z" fill="black"/>
</svg>
