<svg width="412" height="333" viewBox="0 0 412 333" fill="none" xmlns="http://www.w3.org/2000/svg">
<path d="M287.613 4.89966C288.809 4.89966 289.779 3.93001 289.779 2.73389C289.779 1.53776 288.809 0.568115 287.613 0.568115C286.417 0.568115 285.447 1.53776 285.447 2.73389C285.447 3.93001 286.417 4.89966 287.613 4.89966Z" fill="#AAE0FF"/>
<path d="M111.392 8.07614C109.551 8.07614 108.071 6.5962 108.071 4.7553C108.071 2.91439 109.551 1.43445 111.392 1.43445C113.233 1.43445 114.712 2.91439 114.712 4.7553C114.712 6.5962 113.233 8.07614 111.392 8.07614ZM111.392 2.33685C110.056 2.33685 108.973 3.41974 108.973 4.7553C108.973 6.09086 110.056 7.17374 111.392 7.17374C112.727 7.17374 113.81 6.09086 113.81 4.7553C113.81 3.41974 112.727 2.33685 111.392 2.33685Z" fill="#2E76E6"/>
<path d="M231.591 152.244L231.266 152.605L233.613 152.641L233.324 150.295L232.891 150.8C230.978 149.501 228.379 149.79 226.79 151.522C225.996 152.389 225.635 153.471 225.635 154.554H227.548C227.584 153.941 227.801 153.327 228.234 152.822C229.1 151.847 230.508 151.667 231.591 152.244Z" fill="#2984CC"/>
<path d="M233.577 157.587C234.371 156.72 234.732 155.637 234.732 154.554H232.819C232.783 155.168 232.566 155.782 232.133 156.287C231.267 157.262 229.859 157.478 228.776 156.865L229.101 156.504L226.755 156.468L227.044 158.814L227.477 158.308C229.39 159.608 231.989 159.355 233.577 157.587Z" fill="#2984CC"/>
<path d="M409.763 332.292H3.17543C1.91206 332.292 0.901367 331.281 0.901367 330.018C0.901367 328.754 1.91206 327.744 3.17543 327.744H409.727C410.99 327.744 412.001 328.754 412.001 330.018C412.001 331.281 411.026 332.292 409.763 332.292Z" fill="#2E5B99"/>
<path d="M41.3287 326.878C41.3287 326.878 -11.0107 296.954 9.3836 258.223C29.7779 219.455 95.7978 207.724 69.195 167.802C46.0934 133.149 29.7779 101.168 53.5653 73.3019C90.4195 30.167 202.426 82.1455 278.589 52.9076C354.752 23.6697 440.336 103.695 356.376 167.224C255.704 243.387 351.106 325.903 351.106 325.903L41.3287 326.878Z" fill="#E6F6FF"/>
<path d="M211.92 220.466H190.984V230.212H211.92V220.466Z" fill="#0B254D"/>
<path d="M204.772 136.362H198.961V223.354H204.772V136.362Z" fill="#0B254D"/>
<path d="M199.322 209.637L204.159 212.2V220.394H199.322C199.322 220.394 199.467 209.782 199.322 209.637Z" fill="#2370E6"/>
<path d="M161.312 227.252H143.12V327.924H161.312V227.252Z" fill="#518CE6"/>
<path d="M146.224 227.252H91.0693V327.924H146.224V227.252Z" fill="#66A1FF"/>
<path d="M142.036 248.621H94.9668V231.114H142.036V248.621ZM95.5804 247.971H141.386V231.728H95.5804V247.971Z" fill="#1B57B3"/>
<path d="M133.337 248.26H105.543L106.987 246.094H131.893L133.337 248.26Z" fill="#1B57B3"/>
<path d="M142.036 270.098H94.9668V252.592H142.036V270.098ZM95.5804 269.485H141.386V253.241H95.5804V269.485Z" fill="#1B57B3"/>
<path d="M133.337 269.773H105.543L106.987 267.608H131.893L133.337 269.773Z" fill="#1B57B3"/>
<path d="M142.036 291.575H94.9668V274.069H142.036V291.575ZM95.5804 290.962H141.386V274.718H95.5804V290.962Z" fill="#1B57B3"/>
<path d="M133.337 291.25H105.543L106.987 289.085H131.893L133.337 291.25Z" fill="#1B57B3"/>
<path d="M142.036 313.089H94.9668V295.582H142.036V313.089ZM95.5804 312.439H141.386V296.196H95.5804V312.439Z" fill="#1B57B3"/>
<path d="M133.337 312.728H105.543L106.987 310.562H131.893L133.337 312.728Z" fill="#1B57B3"/>
<path d="M295.085 223.462H276.892V327.888H295.085V223.462Z" fill="#518CE6"/>
<path d="M279.996 227.252H224.841V327.924H279.996V227.252Z" fill="#80B1FF"/>
<path d="M275.809 248.621H228.74V231.115H275.809V248.621ZM229.389 247.971H275.196V231.728H229.389V247.971Z" fill="#1B57B3"/>
<path d="M267.11 248.26H239.316L240.76 246.094H265.666L267.11 248.26Z" fill="#1B57B3"/>
<path d="M275.809 270.098H228.74V252.592H275.809V270.098ZM229.389 269.485H275.196V253.241H229.389V269.485Z" fill="#1B57B3"/>
<path d="M267.11 269.773H239.316L240.76 267.608H265.666L267.11 269.773Z" fill="#1B57B3"/>
<path d="M275.809 291.576H228.74V274.069H275.809V291.576ZM229.389 290.962H275.196V274.719H229.389V290.962Z" fill="#1B57B3"/>
<path d="M267.11 291.251H239.316L240.76 289.085H265.666L267.11 291.251Z" fill="#1B57B3"/>
<path d="M275.809 313.089H228.74V295.582H275.809V313.089ZM229.389 312.439H275.196V296.196H229.389V312.439Z" fill="#1B57B3"/>
<path d="M267.11 312.728H239.316L240.76 310.562H265.666L267.11 312.728Z" fill="#1B57B3"/>
<path d="M279.997 223.498H90.9971V227.577H279.997V223.498Z" fill="#80B1FF"/>
<path d="M157.378 222.74H143.662L131.931 175.707H145.647L157.378 222.74Z" fill="#0B254D"/>
<path d="M156.44 222.74H142.687L130.956 175.707H144.709L156.44 222.74Z" fill="#2475F2"/>
<path d="M153.985 209.023H139.258L138.645 206.569H153.372L153.985 209.023Z" fill="#0B254D"/>
<path d="M181.707 158.561H103.414V206.533H181.707V158.561Z" fill="#0B254D"/>
<path d="M178.963 160.763H106.157V204.331H178.963V160.763Z" fill="#AAE0FF"/>
<path d="M134.204 163.795H110.525V165.636H134.204V163.795Z" fill="#33B6FF"/>
<path d="M128.646 166.972H110.525V168.812H128.646V166.972Z" fill="#33B6FF"/>
<path d="M132.183 170.148H110.525V171.989H132.183V170.148Z" fill="#33B6FF"/>
<path d="M128.032 173.324H110.525V175.165H128.032V173.324Z" fill="#33B6FF"/>
<path d="M135.974 176.465H116.193V178.306H135.974V176.465Z" fill="#33B6FF"/>
<path d="M134.205 180.291H116.193V182.132H134.205V180.291Z" fill="#33B6FF"/>
<path d="M128.646 183.467H110.525V185.308H128.646V183.467Z" fill="#33B6FF"/>
<path d="M132.183 186.644H110.525V188.485H132.183V186.644Z" fill="#33B6FF"/>
<path d="M128.032 189.82H110.525V191.661H128.032V189.82Z" fill="#33B6FF"/>
<path d="M135.973 192.961H110.525V194.802H135.973V192.961Z" fill="#33B6FF"/>
<path d="M139.944 196.607H118.286V198.447H139.944V196.607Z" fill="#33B6FF"/>
<path d="M135.973 200.252H110.525V202.093H135.973V200.252Z" fill="#33B6FF"/>
<path d="M169.795 163.795H146.116V165.636H169.795V163.795Z" fill="#33B6FF"/>
<path d="M164.236 166.971H146.116V168.812H164.236V166.971Z" fill="#33B6FF"/>
<path d="M167.774 170.148H146.116V171.989H167.774V170.148Z" fill="#33B6FF"/>
<path d="M163.623 173.324H146.116V175.165H163.623V173.324Z" fill="#33B6FF"/>
<path d="M171.528 176.465H151.747V178.306H171.528V176.465Z" fill="#33B6FF"/>
<path d="M169.759 180.291H151.747V182.132H169.759V180.291Z" fill="#33B6FF"/>
<path d="M164.236 183.467H146.116V185.308H164.236V183.467Z" fill="#33B6FF"/>
<path d="M167.774 186.644H146.116V188.485H167.774V186.644Z" fill="#33B6FF"/>
<path d="M163.623 189.82H146.116V191.661H163.623V189.82Z" fill="#33B6FF"/>
<path d="M171.564 192.961H146.116V194.802H171.564V192.961Z" fill="#33B6FF"/>
<path d="M175.535 196.607H153.877V198.447H175.535V196.607Z" fill="#33B6FF"/>
<path d="M171.564 200.252H146.116V202.093H171.564V200.252Z" fill="#33B6FF"/>
<path d="M182.789 158.561H181.707V206.569H182.789V158.561Z" fill="#15458C"/>
<path d="M164.922 221.549H127.238V223.354H164.922V221.549Z" fill="#2475F2"/>
<path d="M248.339 222.74H234.587L222.892 175.707H236.608L248.339 222.74Z" fill="#0B254D"/>
<path d="M247.401 222.74H233.648L221.917 175.707H235.67L247.401 222.74Z" fill="#113773"/>
<path d="M244.91 209.024H230.219L229.605 206.569H244.297L244.91 209.024Z" fill="#051226"/>
<path d="M272.632 158.561H194.34V206.533H272.632V158.561Z" fill="#0B254D"/>
<path d="M269.889 160.763H197.083V204.331H269.889V160.763Z" fill="#AAE0FF"/>
<path d="M238.738 195.56H208.742V174.119H223.252L229.172 169.679H260.179V192.347H242.997L238.738 195.56ZM209.428 194.874H238.521L242.744 191.661H259.457V170.365H229.389L223.469 174.804H209.428V194.874Z" fill="#33B6FF"/>
<path d="M222.278 171.05L219.39 173.469H208.886L211.774 171.05H222.278Z" fill="#33B6FF"/>
<path d="M225.851 171.05L222.675 173.469H220.437L223.253 171.05H225.851Z" fill="#33B6FF"/>
<path d="M243.647 193.286L241.048 195.235H260.071V193.322L243.647 193.286Z" fill="#33B6FF"/>
<path d="M258.518 190.47H258.374V171.556H230.002V171.411H258.518V190.47Z" fill="#33B6FF"/>
<path d="M213.867 177.006H211.557V179.136H213.867V177.006Z" fill="#33B6FF"/>
<path d="M215.889 177.006H214.915V179.136H215.889V177.006Z" fill="#33B6FF"/>
<path d="M217.188 177.006H216.213V179.136H217.188V177.006Z" fill="#33B6FF"/>
<path d="M218.488 177.006H217.513V179.136H218.488V177.006Z" fill="#33B6FF"/>
<path d="M219.787 177.006H218.812V179.136H219.787V177.006Z" fill="#33B6FF"/>
<path d="M221.086 177.006H220.112V179.136H221.086V177.006Z" fill="#33B6FF"/>
<path d="M222.35 177.006H221.375V179.136H222.35V177.006Z" fill="#33B6FF"/>
<path d="M223.649 177.006H222.675V179.136H223.649V177.006Z" fill="#33B6FF"/>
<path d="M224.949 177.006H223.975V179.136H224.949V177.006Z" fill="#33B6FF"/>
<path d="M226.249 177.006H225.274V179.136H226.249V177.006Z" fill="#33B6FF"/>
<path opacity="0.3" d="M227.512 177.006H226.537V179.136H227.512V177.006Z" fill="#33B6FF"/>
<path d="M228.812 177.006H227.837V179.136H228.812V177.006Z" fill="#33B6FF"/>
<path d="M230.11 177.006H229.136V179.136H230.11V177.006Z" fill="#33B6FF"/>
<path d="M231.41 177.006H230.436V179.136H231.41V177.006Z" fill="#33B6FF"/>
<path d="M232.673 177.006H231.698V179.136H232.673V177.006Z" fill="#33B6FF"/>
<path d="M233.973 177.006H232.999V179.136H233.973V177.006Z" fill="#33B6FF"/>
<path d="M235.272 177.006H234.297V179.136H235.272V177.006Z" fill="#33B6FF"/>
<path d="M236.572 177.006H235.598V179.136H236.572V177.006Z" fill="#33B6FF"/>
<path d="M237.835 177.006H236.861V179.136H237.835V177.006Z" fill="#33B6FF"/>
<path opacity="0.3" d="M239.135 177.006H238.161V179.136H239.135V177.006Z" fill="#33B6FF"/>
<path d="M240.434 177.006H239.459V179.136H240.434V177.006Z" fill="#33B6FF"/>
<path d="M241.734 177.006H240.759V179.136H241.734V177.006Z" fill="#33B6FF"/>
<path d="M242.997 177.006H242.022V179.136H242.997V177.006Z" fill="#33B6FF"/>
<path d="M244.297 177.006H243.322V179.136H244.297V177.006Z" fill="#33B6FF"/>
<path d="M245.596 177.006H244.621V179.136H245.596V177.006Z" fill="#33B6FF"/>
<path d="M246.895 177.006H245.921V179.136H246.895V177.006Z" fill="#33B6FF"/>
<path d="M248.195 177.006H247.22V179.136H248.195V177.006Z" fill="#33B6FF"/>
<path d="M249.458 177.006H248.483V179.136H249.458V177.006Z" fill="#33B6FF"/>
<path d="M213.867 180.255H211.557V182.385H213.867V180.255Z" fill="#33B6FF"/>
<path d="M215.889 180.255H214.915V182.385H215.889V180.255Z" fill="#33B6FF"/>
<path d="M217.188 180.255H216.213V182.385H217.188V180.255Z" fill="#33B6FF"/>
<path d="M218.488 180.255H217.513V182.385H218.488V180.255Z" fill="#33B6FF"/>
<path opacity="0.3" d="M219.787 180.255H218.812V182.385H219.787V180.255Z" fill="#33B6FF"/>
<path d="M221.086 180.255H220.112V182.385H221.086V180.255Z" fill="#33B6FF"/>
<path d="M222.35 180.255H221.375V182.385H222.35V180.255Z" fill="#33B6FF"/>
<path d="M223.649 180.255H222.675V182.385H223.649V180.255Z" fill="#33B6FF"/>
<path d="M224.949 180.255H223.975V182.385H224.949V180.255Z" fill="#33B6FF"/>
<path d="M226.249 180.255H225.274V182.385H226.249V180.255Z" fill="#33B6FF"/>
<path d="M227.512 180.255H226.537V182.385H227.512V180.255Z" fill="#33B6FF"/>
<path d="M228.812 180.255H227.837V182.385H228.812V180.255Z" fill="#33B6FF"/>
<path d="M230.11 180.255H229.136V182.385H230.11V180.255Z" fill="#33B6FF"/>
<path d="M231.41 180.255H230.436V182.385H231.41V180.255Z" fill="#33B6FF"/>
<path d="M232.673 180.255H231.698V182.385H232.673V180.255Z" fill="#33B6FF"/>
<path d="M233.973 180.255H232.999V182.385H233.973V180.255Z" fill="#33B6FF"/>
<path d="M235.272 180.255H234.297V182.385H235.272V180.255Z" fill="#33B6FF"/>
<path d="M236.572 180.255H235.598V182.385H236.572V180.255Z" fill="#33B6FF"/>
<path d="M237.835 180.255H236.861V182.385H237.835V180.255Z" fill="#33B6FF"/>
<path d="M239.135 180.255H238.161V182.385H239.135V180.255Z" fill="#33B6FF"/>
<path d="M240.434 180.255H239.459V182.385H240.434V180.255Z" fill="#33B6FF"/>
<path opacity="0.3" d="M241.734 180.255H240.759V182.385H241.734V180.255Z" fill="#33B6FF"/>
<path d="M242.997 180.255H242.022V182.385H242.997V180.255Z" fill="#33B6FF"/>
<path d="M244.297 180.255H243.322V182.385H244.297V180.255Z" fill="#33B6FF"/>
<path d="M245.596 180.255H244.621V182.385H245.596V180.255Z" fill="#33B6FF"/>
<path d="M246.895 180.255H245.921V182.385H246.895V180.255Z" fill="#33B6FF"/>
<path d="M248.195 180.255H247.22V182.385H248.195V180.255Z" fill="#33B6FF"/>
<path d="M249.458 180.255H248.483V182.385H249.458V180.255Z" fill="#33B6FF"/>
<path opacity="0.3" d="M250.794 180.255H249.819V182.385H250.794V180.255Z" fill="#33B6FF"/>
<path d="M252.093 180.255H251.118V182.385H252.093V180.255Z" fill="#33B6FF"/>
<path d="M253.393 180.255H252.418V182.385H253.393V180.255Z" fill="#33B6FF"/>
<path d="M254.656 180.255H253.682V182.385H254.656V180.255Z" fill="#33B6FF"/>
<path d="M255.956 180.255H254.981V182.385H255.956V180.255Z" fill="#33B6FF"/>
<path d="M213.867 185.633H211.557V187.763H213.867V185.633Z" fill="#33B6FF"/>
<path d="M215.889 185.633H214.915V187.763H215.889V185.633Z" fill="#33B6FF"/>
<path d="M217.188 185.633H216.213V187.763H217.188V185.633Z" fill="#33B6FF"/>
<path opacity="0.3" d="M218.488 185.633H217.513V187.763H218.488V185.633Z" fill="#33B6FF"/>
<path d="M219.787 185.633H218.812V187.763H219.787V185.633Z" fill="#33B6FF"/>
<path d="M221.086 185.633H220.112V187.763H221.086V185.633Z" fill="#33B6FF"/>
<path d="M222.35 185.633H221.375V187.763H222.35V185.633Z" fill="#33B6FF"/>
<path d="M223.649 185.633H222.675V187.763H223.649V185.633Z" fill="#33B6FF"/>
<path d="M224.949 185.633H223.975V187.763H224.949V185.633Z" fill="#33B6FF"/>
<path d="M226.249 185.633H225.274V187.763H226.249V185.633Z" fill="#33B6FF"/>
<path opacity="0.3" d="M227.512 185.633H226.537V187.763H227.512V185.633Z" fill="#33B6FF"/>
<path d="M228.812 185.633H227.837V187.763H228.812V185.633Z" fill="#33B6FF"/>
<path d="M230.11 185.633H229.136V187.763H230.11V185.633Z" fill="#33B6FF"/>
<path d="M231.41 185.633H230.436V187.763H231.41V185.633Z" fill="#33B6FF"/>
<path d="M232.673 185.633H231.698V187.763H232.673V185.633Z" fill="#33B6FF"/>
<path d="M233.973 185.633H232.999V187.763H233.973V185.633Z" fill="#33B6FF"/>
<path d="M235.272 185.633H234.297V187.763H235.272V185.633Z" fill="#33B6FF"/>
<path d="M236.572 185.633H235.598V187.763H236.572V185.633Z" fill="#33B6FF"/>
<path d="M237.835 185.633H236.861V187.763H237.835V185.633Z" fill="#33B6FF"/>
<path d="M239.135 185.633H238.161V187.763H239.135V185.633Z" fill="#33B6FF"/>
<path d="M240.434 185.633H239.459V187.763H240.434V185.633Z" fill="#33B6FF"/>
<path d="M241.734 185.633H240.759V187.763H241.734V185.633Z" fill="#33B6FF"/>
<path d="M242.997 185.633H242.022V187.763H242.997V185.633Z" fill="#33B6FF"/>
<path d="M244.297 185.633H243.322V187.763H244.297V185.633Z" fill="#33B6FF"/>
<path opacity="0.3" d="M245.596 185.633H244.621V187.763H245.596V185.633Z" fill="#33B6FF"/>
<path opacity="0.3" d="M246.895 185.633H245.921V187.763H246.895V185.633Z" fill="#33B6FF"/>
<path d="M248.195 185.633H247.22V187.763H248.195V185.633Z" fill="#33B6FF"/>
<path d="M249.458 185.633H248.483V187.763H249.458V185.633Z" fill="#33B6FF"/>
<path d="M250.794 185.633H249.819V187.763H250.794V185.633Z" fill="#33B6FF"/>
<path d="M252.093 185.633H251.118V187.763H252.093V185.633Z" fill="#33B6FF"/>
<path d="M253.393 185.633H252.418V187.763H253.393V185.633Z" fill="#33B6FF"/>
<path d="M254.656 185.633H253.682V187.763H254.656V185.633Z" fill="#33B6FF"/>
<path d="M255.956 185.633H254.981V187.763H255.956V185.633Z" fill="#33B6FF"/>
<path d="M213.867 189.062H211.557V191.192H213.867V189.062Z" fill="#33B6FF"/>
<path d="M215.889 189.062H214.915V191.192H215.889V189.062Z" fill="#33B6FF"/>
<path d="M217.188 189.062H216.213V191.192H217.188V189.062Z" fill="#33B6FF"/>
<path d="M218.488 189.062H217.513V191.192H218.488V189.062Z" fill="#33B6FF"/>
<path d="M219.787 189.062H218.812V191.192H219.787V189.062Z" fill="#33B6FF"/>
<path d="M221.086 189.062H220.112V191.192H221.086V189.062Z" fill="#33B6FF"/>
<path d="M222.35 189.062H221.375V191.192H222.35V189.062Z" fill="#33B6FF"/>
<path opacity="0.3" d="M223.649 189.062H222.675V191.192H223.649V189.062Z" fill="#33B6FF"/>
<path d="M224.949 189.062H223.975V191.192H224.949V189.062Z" fill="#33B6FF"/>
<path d="M226.249 189.062H225.274V191.192H226.249V189.062Z" fill="#33B6FF"/>
<path d="M227.512 189.062H226.537V191.192H227.512V189.062Z" fill="#33B6FF"/>
<path d="M228.812 189.062H227.837V191.192H228.812V189.062Z" fill="#33B6FF"/>
<path opacity="0.3" d="M230.11 189.062H229.136V191.192H230.11V189.062Z" fill="#33B6FF"/>
<path d="M231.41 189.062H230.436V191.192H231.41V189.062Z" fill="#33B6FF"/>
<path d="M232.673 189.062H231.698V191.192H232.673V189.062Z" fill="#33B6FF"/>
<path d="M233.973 189.062H232.999V191.192H233.973V189.062Z" fill="#33B6FF"/>
<path d="M273.751 158.561H272.668V206.569H273.751V158.561Z" fill="#2069D9"/>
<path d="M255.884 221.549H218.2V223.354H255.884V221.549Z" fill="#0B254D"/>
<path d="M272.777 107.413H103.306V155.385H272.777V107.413Z" fill="#0B254D"/>
<path d="M270.07 109.615H106.049V153.183H270.07V109.615Z" fill="#AAE0FF"/>
<path d="M169.651 112.647H145.972V114.488H169.651V112.647Z" fill="#33B6FF"/>
<path d="M164.092 115.787H145.972V117.628H164.092V115.787Z" fill="#33B6FF"/>
<path d="M167.629 118.964H145.972V120.804H167.629V118.964Z" fill="#33B6FF"/>
<path d="M163.478 122.14H145.972V123.981H163.478V122.14Z" fill="#33B6FF"/>
<path d="M171.383 125.316H151.603V127.157H171.383V125.316Z" fill="#33B6FF"/>
<path d="M169.615 129.106H151.603V130.947H169.615V129.106Z" fill="#33B6FF"/>
<path d="M164.092 132.283H145.972V134.124H164.092V132.283Z" fill="#33B6FF"/>
<path d="M167.629 135.459H145.972V137.3H167.629V135.459Z" fill="#33B6FF"/>
<path d="M163.478 138.636H145.972V140.477H163.478V138.636Z" fill="#33B6FF"/>
<path d="M171.419 141.812H145.972V143.653H171.419V141.812Z" fill="#33B6FF"/>
<path d="M175.39 145.422H153.732V147.263H175.39V145.422Z" fill="#33B6FF"/>
<path d="M171.419 149.068H145.972V150.908H171.419V149.068Z" fill="#33B6FF"/>
<path d="M137.633 112.646H113.954V114.487H137.633V112.646Z" fill="#33B6FF"/>
<path d="M132.074 115.787H113.954V117.628H132.074V115.787Z" fill="#33B6FF"/>
<path d="M135.612 118.963H113.954V120.804H135.612V118.963Z" fill="#33B6FF"/>
<path d="M131.461 122.14H113.954V123.981H131.461V122.14Z" fill="#33B6FF"/>
<path d="M139.366 125.316H119.585V127.157H139.366V125.316Z" fill="#33B6FF"/>
<path d="M137.597 129.106H119.585V130.947H137.597V129.106Z" fill="#33B6FF"/>
<path d="M132.074 132.283H113.954V134.124H132.074V132.283Z" fill="#33B6FF"/>
<path d="M135.612 135.459H113.954V137.3H135.612V135.459Z" fill="#33B6FF"/>
<path d="M131.461 138.636H113.954V140.477H131.461V138.636Z" fill="#33B6FF"/>
<path d="M139.402 141.812H113.954V143.653H139.402V141.812Z" fill="#33B6FF"/>
<path d="M143.373 145.422H121.715V147.263H143.373V145.422Z" fill="#33B6FF"/>
<path d="M139.402 149.068H113.954V150.908H139.402V149.068Z" fill="#33B6FF"/>
<path d="M205.205 112.647H181.526V114.488H205.205V112.647Z" fill="#33B6FF"/>
<path d="M199.646 115.787H181.526V117.628H199.646V115.787Z" fill="#33B6FF"/>
<path d="M203.184 118.964H181.526V120.804H203.184V118.964Z" fill="#33B6FF"/>
<path d="M199.033 122.14H181.526V123.981H199.033V122.14Z" fill="#33B6FF"/>
<path d="M206.974 125.316H187.193V127.157H206.974V125.316Z" fill="#33B6FF"/>
<path d="M205.205 129.106H187.193V130.947H205.205V129.106Z" fill="#33B6FF"/>
<path d="M199.646 132.283H181.526V134.124H199.646V132.283Z" fill="#33B6FF"/>
<path d="M203.184 135.459H181.526V137.3H203.184V135.459Z" fill="#33B6FF"/>
<path d="M199.033 138.636H181.526V140.477H199.033V138.636Z" fill="#33B6FF"/>
<path d="M206.974 141.812H181.526V143.653H206.974V141.812Z" fill="#33B6FF"/>
<path d="M210.944 145.422H189.287V147.263H210.944V145.422Z" fill="#33B6FF"/>
<path d="M206.974 149.068H181.526V150.909H206.974V149.068Z" fill="#33B6FF"/>
<path d="M273.86 107.377H272.777V155.384H273.86V107.377Z" fill="#2069D9"/>
<path d="M241.554 112.647H219.391V134.377H241.554V112.647Z" fill="#4DBEFF"/>
<path d="M263.681 112.647H244.947V150.187H263.681V112.647Z" fill="#4DBEFF"/>
<path d="M240.11 116.581H220.835V132.897H240.11V116.581Z" fill="#AAE0FF"/>
<path d="M262.237 116.148H246.391V148.635H262.237V116.148Z" fill="#AAE0FF"/>
<path d="M186.075 327.78C186.833 326.228 187.808 321.536 185.642 320.453C182.574 318.901 170.084 321.752 170.084 321.752C170.084 321.752 169.399 325.939 169.038 327.816H186.075V327.78Z" fill="#80B1FF"/>
<path d="M175.354 267.139C175.354 267.716 170.048 321.391 170.048 321.391C170.445 324.171 178.819 322.293 180.949 321.138L197.481 267.319L175.354 267.139Z" fill="#0D192B"/>
<path d="M163.37 186.103L171.059 172.53C172.575 167.405 185.858 171.411 184.342 176.537L182.357 191.806L163.37 186.103Z" fill="#F7B28A"/>
<path d="M205.422 327.888C205.639 326.625 205.711 323.16 203.545 321.319C200.549 318.792 196.145 320.705 196.145 320.705L184.342 320.597C184.342 320.597 183.079 325.325 183.404 327.888H205.422Z" fill="#B3D7FF"/>
<path d="M145.07 246.528C145.07 246.528 135.829 273.383 179 271.831C203.365 270.893 202.787 268.149 202.787 268.149L185.642 321.066C186.616 323.124 194.918 322.871 197.301 321.283C197.301 321.283 227.73 271.831 226.214 260.425C224.662 249.018 204.628 246.528 192.572 246.239C180.552 245.878 145.07 246.528 145.07 246.528Z" fill="#0D192B"/>
<path d="M194.16 246.889C179.072 265.586 137.67 263.529 138.211 247.935C138.211 247.935 139.078 209.926 151.711 190.218C156.187 183.215 161.71 180.147 169.615 180.255C177.737 180.363 186.183 187.402 188.602 192.78C189.215 194.152 189.865 198.267 190.515 203.645C191.814 214.727 193.041 231.187 193.691 240.247C193.98 244.29 194.16 246.889 194.16 246.889Z" fill="#007880"/>
<path d="M193.727 240.283C181.563 232.775 176.076 203.934 176.076 203.934L190.551 203.645C191.85 214.727 193.077 231.187 193.727 240.283Z" fill="#005359"/>
<path d="M189.901 156.143C192.897 162.965 191.381 173.216 186.4 175.743C179.361 178.847 168.208 175.923 164.454 167.333C160.7 158.742 163.335 149.284 170.373 146.216C177.376 143.112 186.111 147.552 189.901 156.143Z" fill="#F7B28A"/>
<path d="M215.963 218.445C215.963 218.445 218.707 215.99 223.002 215.629C227.334 215.268 231.124 223.534 231.124 223.534H216.144L215.963 218.445Z" fill="#F7B28A"/>
<path d="M224.157 215.738C224.157 215.738 230.979 217.651 231.918 217.903C232.351 219.708 227.694 218.914 225.529 218.12C223.11 217.254 224.157 215.738 224.157 215.738Z" fill="#F7B28A"/>
<path d="M173.73 197.473C173.73 197.473 182.971 226.458 194.522 226.458C206.072 226.458 219.32 223.607 219.32 223.607C222.243 223.282 221.088 215.304 218.923 214.98L198.6 212.705C198.6 212.705 194.305 194.549 183.296 187.077C175.427 185.561 171.24 191.842 173.73 197.473Z" fill="#007880"/>
<path d="M218.886 215.124L198.708 212.814L198.672 212.705C192.861 194.116 184.631 187.583 184.559 187.51L184.775 187.222C184.847 187.294 193.113 193.863 198.997 212.489L218.922 214.763L218.886 215.124Z" fill="white"/>
<path d="M172.105 177.801C170.084 177.512 166.835 173.83 163.478 166.033C159.58 157.009 162.179 149.248 170.517 144.592C178.747 140.008 188.204 146.902 188.529 154.988C187.591 168.163 178.928 178.775 172.105 177.801Z" fill="#854500"/>
<path d="M186.522 167.78C187.57 167.645 188.239 166.125 188.015 164.385C187.792 162.645 186.762 161.344 185.714 161.478C184.665 161.613 183.997 163.132 184.22 164.872C184.444 166.613 185.474 167.914 186.522 167.78Z" fill="#F7B28A"/>
<path d="M172.827 143.617C172.827 143.617 176.509 159.391 193.33 153.869C186.688 139.43 172.827 143.617 172.827 143.617Z" fill="#854500"/>
<path d="M163.262 182.168L165.897 177.656C166.619 175.093 185.172 180.363 184.45 182.89L184.667 189.387L163.262 182.168Z" fill="#007880"/>
<path d="M184.378 187.366H184.342C173.296 181.807 164.417 181.013 164.309 181.013C164.272 181.013 164.236 180.977 164.236 180.905C164.236 180.868 164.272 180.832 164.345 180.832C164.417 180.832 173.369 181.627 184.45 187.221C184.486 187.258 184.522 187.294 184.486 187.33C184.45 187.366 184.414 187.366 184.378 187.366Z" fill="#003C40"/>
<path d="M142.11 218.3L141.424 218.192C141.46 217.975 145.286 197.112 153.985 186.716C158.678 181.879 163.118 180.76 164.056 180.58L165.536 177.584C165.536 177.584 165.536 177.548 165.572 177.548C165.608 177.512 166.258 176.645 168.171 176.717C168.424 176.32 168.568 176.104 168.676 175.923C167.594 174.516 161.71 166.611 161.313 160.077C161.024 155.673 162.829 150.909 166.041 147.588C169.182 144.339 173.405 142.679 178.278 142.787V143.473C173.586 143.329 169.543 144.917 166.547 148.057C163.515 151.197 161.746 155.89 162.035 160.041C162.468 166.863 169.362 175.599 169.434 175.707C169.543 175.851 169.543 176.032 169.398 176.176C169.398 176.176 169.254 176.357 168.676 177.259C168.604 177.367 168.496 177.439 168.352 177.439C166.836 177.331 166.258 177.873 166.186 177.945L164.634 181.085C164.598 181.193 164.489 181.266 164.381 181.266C164.345 181.266 159.508 182.06 154.527 187.221C145.936 197.364 142.146 218.084 142.11 218.3Z" fill="white"/>
<path d="M202.787 268.149C198.131 268.113 180.913 272.625 178.35 268.149C175.823 263.673 170.192 208.302 170.192 208.302C169.795 205.197 167.124 202.887 163.984 202.887H107.746C103.523 202.887 100.238 206.605 100.816 210.792L108.829 269.412C109.804 276.668 116.012 282.082 123.34 282.082H144.636V282.118H210.259V275.621C210.259 271.47 207.444 268.149 202.787 268.149Z" fill="#D9790D"/>
<path d="M181.779 282.046H123.34C116.012 282.046 109.84 276.632 108.829 269.376L100.816 210.756C100.238 206.569 103.487 202.851 107.746 202.851H154.527C157.667 202.851 160.302 205.161 160.735 208.266C164.128 238.153 166.619 262.121 170.265 276.343C171.709 282.082 178.603 282.046 181.779 282.046Z" fill="#FF9117"/>
<path d="M122.978 282.046C122.978 282.082 122.942 282.118 122.942 282.19C122.942 285.042 140.846 287.352 162.901 287.352C184.992 287.352 202.859 285.042 202.859 282.19C202.859 282.154 202.823 282.118 202.823 282.046H122.978Z" fill="#0D192B"/>
<path d="M193.835 317.709C193.835 317.673 193.871 317.637 193.871 317.565C193.871 314.713 179.757 312.403 162.359 312.403C144.961 312.403 130.847 314.713 130.847 317.565C130.847 317.601 130.883 317.637 130.883 317.709H193.835Z" fill="#0D192B"/>
<path d="M166.619 285.944H159.652V315.399H166.619V285.944Z" fill="#0D192B"/>
<path d="M187.302 317.059H183.765V323.665H187.302V317.059Z" fill="#0D192B"/>
<path d="M164.706 317.059H161.168V323.665H164.706V317.059Z" fill="#0D192B"/>
<path d="M137.489 317.059H133.952V323.665H137.489V317.059Z" fill="#0D192B"/>
<path d="M136.622 327.96C138.117 327.96 139.329 326.037 139.329 323.665C139.329 321.292 138.117 319.369 136.622 319.369C135.127 319.369 133.915 321.292 133.915 323.665C133.915 326.037 135.127 327.96 136.622 327.96Z" fill="#0D192B"/>
<path d="M139.257 327.96C140.752 327.96 141.964 326.037 141.964 323.665C141.964 321.292 140.752 319.369 139.257 319.369C137.762 319.369 136.55 321.292 136.55 323.665C136.55 326.037 137.762 327.96 139.257 327.96Z" fill="#0D192B"/>
<path d="M140.303 327.599C139.184 328.465 136.008 328.068 135.575 327.635L135.539 319.73C136.369 318.972 139.365 319.008 140.267 319.694L140.303 327.599Z" fill="#0D192B"/>
<path d="M139.509 326.48C140.526 326.48 141.35 325.171 141.35 323.556C141.35 321.942 140.526 320.633 139.509 320.633C138.493 320.633 137.668 321.942 137.668 323.556C137.668 325.171 138.493 326.48 139.509 326.48Z" fill="#1E62CC"/>
<path d="M139.329 325.433C139.947 325.433 140.448 324.625 140.448 323.629C140.448 322.632 139.947 321.824 139.329 321.824C138.711 321.824 138.21 322.632 138.21 323.629C138.21 324.625 138.711 325.433 139.329 325.433Z" fill="#0D192B"/>
<path d="M162.396 327.96C163.891 327.96 165.103 326.037 165.103 323.665C165.103 321.293 163.891 319.37 162.396 319.37C160.901 319.37 159.688 321.293 159.688 323.665C159.688 326.037 160.901 327.96 162.396 327.96Z" fill="#0D192B"/>
<path d="M159.76 327.96C161.256 327.96 162.468 326.037 162.468 323.665C162.468 321.293 161.256 319.37 159.76 319.37C158.265 319.37 157.053 321.293 157.053 323.665C157.053 326.037 158.265 327.96 159.76 327.96Z" fill="#0D192B"/>
<path d="M158.75 327.599C159.868 328.466 163.045 328.069 163.478 327.635L163.514 319.73C162.684 318.972 159.688 319.008 158.786 319.694L158.75 327.599Z" fill="#0D192B"/>
<path d="M159.508 326.48C160.525 326.48 161.349 325.171 161.349 323.557C161.349 321.942 160.525 320.633 159.508 320.633C158.491 320.633 157.667 321.942 157.667 323.557C157.667 325.171 158.491 326.48 159.508 326.48Z" fill="#1E62CC"/>
<path d="M159.724 325.434C160.342 325.434 160.843 324.626 160.843 323.629C160.843 322.632 160.342 321.824 159.724 321.824C159.106 321.824 158.605 322.632 158.605 323.629C158.605 324.626 159.106 325.434 159.724 325.434Z" fill="#0D192B"/>
<path d="M185.425 327.96C186.92 327.96 188.132 326.037 188.132 323.665C188.132 321.293 186.92 319.369 185.425 319.369C183.93 319.369 182.718 321.293 182.718 323.665C182.718 326.037 183.93 327.96 185.425 327.96Z" fill="#0D192B"/>
<path d="M182.79 327.96C184.285 327.96 185.497 326.037 185.497 323.665C185.497 321.293 184.285 319.369 182.79 319.369C181.295 319.369 180.083 321.293 180.083 323.665C180.083 326.037 181.295 327.96 182.79 327.96Z" fill="#0D192B"/>
<path d="M181.743 327.599C182.862 328.466 186.038 328.068 186.471 327.635L186.507 319.73C185.677 318.972 182.681 319.008 181.779 319.694L181.743 327.599Z" fill="#0D192B"/>
<path d="M182.537 326.48C183.554 326.48 184.378 325.171 184.378 323.556C184.378 321.942 183.554 320.633 182.537 320.633C181.52 320.633 180.696 321.942 180.696 323.556C180.696 325.171 181.52 326.48 182.537 326.48Z" fill="#1E62CC"/>
<path d="M182.718 325.434C183.336 325.434 183.837 324.626 183.837 323.629C183.837 322.632 183.336 321.824 182.718 321.824C182.1 321.824 181.599 322.632 181.599 323.629C181.599 324.626 182.1 325.434 182.718 325.434Z" fill="#0D192B"/>
<path d="M76.4138 234.579C78.9044 237.142 75.2587 240.319 75.2948 244.434C75.3309 248.549 80.3122 250.065 76.2694 256.129C73.8149 259.847 70.5662 255.984 68.9419 261.327C67.3176 266.705 69.375 267.21 66.9205 269.448C62.6612 273.347 54.1786 267.68 55.839 262.301C57.4994 256.923 62.5529 256.562 59.5569 252.88C56.597 249.198 55.4419 247.574 59.0515 244.831C63.5275 241.438 68.2561 243.098 68.0395 239.236C67.8229 235.337 73.093 231.186 76.4138 234.579Z" fill="#FFCA59"/>
<path d="M61.5064 275.332L60.6401 275.296C61.2899 255.046 71.9021 239.236 72.0104 239.055L72.7324 239.525C72.6241 239.705 62.1562 255.335 61.5064 275.332Z" fill="#0E0E0E"/>
<path d="M23.786 225.519C21.1149 229.49 26.6737 232.775 27.6483 238.225C28.5868 243.64 22.27 244.686 29.02 251.689C33.171 256.021 34.4705 253.819 35.048 262.337C35.5895 269.809 42.0507 263.637 45.6242 268.438C50.2445 274.646 60.171 263.673 56.7057 256.995C53.2405 250.317 48.0427 251.256 51.0747 245.661C54.1068 240.066 52.0132 235.265 46.5627 232.522C39.8127 229.129 36.4919 234.724 35.8782 229.562C35.2285 224.473 27.2874 220.285 23.786 225.519Z" fill="#ED5A24"/>
<path d="M53.2409 275.621C47.5738 249.451 29.995 231.403 29.8506 231.223L30.6808 230.428C30.8613 230.609 48.6567 248.91 54.396 275.368L53.2409 275.621Z" fill="#0E0E0E"/>
<path d="M39.4517 274.935V297.964C39.4517 307.277 46.9958 314.857 56.3447 314.857C65.6575 314.857 73.2377 307.313 73.2377 297.964V282.226V274.935H39.4517Z" fill="#5896FA"/>
<path d="M39.4512 292.333H37.5742V328.069H39.4512V292.333Z" fill="#0E0E0E"/>
<path d="M75.1138 292.333H73.2368V328.069H75.1138V292.333Z" fill="#0E0E0E"/>
<path d="M60.7847 292.333H58.9077V328.069H60.7847V292.333Z" fill="#0E0E0E"/>
<path d="M73.3094 314.858H37.5742V316.735H73.3094V314.858Z" fill="#0E0E0E"/>
<path d="M365.725 203.032L359.589 206.461L358.037 203.645L347.028 183.829L341.288 177.764L330.387 166.214C324.792 158.814 334.43 149.862 340.927 156.287C347.605 162.857 353.705 172.675 356.521 177.801C358.723 181.843 363.199 195.127 364.967 200.613L365.04 200.83C365.473 202.202 365.725 203.032 365.725 203.032Z" fill="#FFB900"/>
<path d="M367.458 208.121L364.787 200.144C363.632 202.31 359.228 203.826 358.037 203.645C358.037 203.645 361.25 209.782 362.08 210.864C362.874 211.911 367.061 210.792 367.458 208.121Z" fill="#F7A58E"/>
<path d="M361.286 209.457C361.286 209.529 361.25 209.601 361.286 209.637C361.106 212.417 363.055 213.969 363.596 214.33C363.632 214.366 363.668 214.402 363.741 214.402C361.828 213.752 360.889 216.315 361.828 217.073C364.499 219.419 368.975 217.217 369.552 215.629C370.13 214.005 367.495 208.049 367.495 208.049C365.942 206.497 361.575 206.172 361.286 209.457Z" fill="#F7A58E"/>
<path d="M361.285 209.637C360.997 212.741 363.632 214.366 363.704 214.402C365.328 214.546 365.942 214.546 367.494 214.727C366.555 214.113 364.606 212.525 365.761 210.07C364.281 208.663 361.755 209.421 361.285 209.637Z" fill="#E6856A"/>
<path d="M361.285 209.312C360.527 211.803 360.238 215.485 360.672 217.145C360.672 217.145 362.224 217.434 362.44 214.438C362.512 213.68 362.837 212.019 363.668 211.55C366.194 210.287 366.772 208.915 366.05 207.652C365.075 205.955 361.646 207.11 361.285 209.312Z" fill="#F7A58E"/>
<path d="M367.638 217.181C366.267 217.903 362.657 219.203 362.188 218.697C361.719 218.192 364.751 215.665 366.555 215.521C368.36 215.376 368.36 216.82 367.638 217.181Z" fill="#F7A58E"/>
<path d="M346.991 183.792L341.288 177.764L342.515 165.744C343.273 172.819 344.826 178.811 346.991 183.792Z" fill="#A85900"/>
<path d="M316.057 144.809L318.331 153.977L318.728 155.674C319.198 157.839 333.455 156.901 332.445 154.374L331.578 152.497L327.211 142.859L316.057 144.809Z" fill="#F7A58E"/>
<path d="M307.683 131.2C306.455 141.343 309.776 149.212 318.367 147.913C325.514 146.866 333.564 143.004 333.816 131.056C333.961 123.44 327.897 117.303 320.713 117.34C313.494 117.412 308.766 122.249 307.683 131.2Z" fill="#F7A58E"/>
<path d="M312.267 317.132C311.4 316.229 307.43 316.229 307.033 317.565C306.672 318.9 307.358 319.839 305.697 321.969C306.672 322.257 310.101 322.293 311.184 321.969C312.231 321.644 313.133 318.034 312.267 317.132Z" fill="#854500"/>
<path d="M317.861 323.015H310.137C309.415 290.276 309.559 254.613 309.812 227.758C309.92 218.156 310.173 213.283 311.905 207.508C315.443 195.849 331.975 199.422 333.166 209.998C333.671 215.846 337.028 227.361 326.163 266.236C326.019 292.009 319.666 303.812 317.861 323.015Z" fill="#0D192B"/>
<path d="M303.676 322.33C305.12 322.257 308.477 320.886 309.09 319.911C310.029 320.958 311.978 321.247 314.324 320.886C317.104 320.489 317.465 319.189 319.45 319.37C320.28 321.68 322.338 326.914 320.352 328.141C320.352 328.141 308.729 328.141 299.85 328.141C298.009 326.444 298.045 322.871 303.676 322.33Z" fill="#854500"/>
<path d="M350.637 317.42C349.879 316.59 346.233 316.59 345.908 317.781C345.584 318.972 346.233 319.839 344.681 321.752C345.547 322.004 348.688 322.041 349.662 321.752C350.637 321.463 351.395 318.214 350.637 317.42Z" fill="#854500"/>
<path d="M326.488 209.709C328.077 197.617 349.554 198.881 350.998 209.421C351.503 215.088 353.741 221.766 349.698 263.926C358.217 280.025 355.149 304.931 357.675 321.932C357.964 324.531 350.637 325.145 350.059 322.835C342.262 291.323 331.361 255.949 327.319 229.743C325.875 220.213 325.694 215.701 326.488 209.709Z" fill="#0D192B"/>
<path d="M342.804 321.174C344.356 321.102 346.63 319.081 347.316 318.034C348.326 319.153 350.239 320.669 352.766 320.308C355.762 319.875 356.159 318.467 358.289 318.648C359.191 321.174 361.393 326.805 359.263 328.105C359.263 328.105 347.316 328.105 337.714 328.105C335.765 326.3 336.739 321.788 342.804 321.174Z" fill="#854500"/>
<path d="M265.955 149.645L268.446 146.36C270.323 147.335 273.499 148.49 276.82 150.187L273.21 155.962C270.178 153.435 267.616 151.197 265.955 149.645Z" fill="#F7A58E"/>
<path d="M275.413 149.537L295.915 155.24L320.641 154.121C326.994 153.724 330.207 176.104 316.598 173.108L298.478 167.477C298.478 167.477 280.069 161.701 273.139 155.926L275.413 149.537Z" fill="#FFB900"/>
<path d="M261.624 149.645C260.432 147.046 262.815 143.689 262.995 143.437L268.301 146.288C270.973 147.588 269.529 150.981 266.569 151.306C266.533 151.27 262.887 151.991 261.624 149.645Z" fill="#F7A58E"/>
<path d="M262.671 145.458C257.293 141.523 258.664 140.621 258.664 140.621C258.664 140.621 260.686 141.776 264.115 144.014C266.028 145.422 264.115 146.288 262.671 145.458Z" fill="#F7A58E"/>
<path d="M309.957 173.721C308.585 167.116 307.863 160.582 314.686 156.504C316.635 150.187 334.141 146.505 337.787 154.338C343.887 157.081 342.588 168.993 343.707 187.799C347.93 197.184 349.735 200.288 350.998 209.421C350.998 209.421 348.76 216.315 332.878 216.315C325.659 216.315 315.047 215.665 310.21 211.983C310.679 205.739 313.314 199.747 314.397 190.903C314.361 190.903 310.065 174.48 309.957 173.721Z" fill="#FFB900"/>
<path d="M308.152 133.944C308.152 133.944 305.012 136.109 306.672 137.481C308.332 138.853 309.632 137.842 309.632 137.842L308.152 133.944Z" fill="#F7A58E"/>
<path d="M335.69 231.245L335.132 231.098L325.852 266.166L326.411 266.314L335.69 231.245Z" fill="white"/>
<path d="M308.441 126.219C308.441 126.219 312.664 146.577 328.402 145.747C336.487 137.12 338.797 119.974 326.308 116.329C312.519 112.286 308.332 123.476 308.441 126.219Z" fill="#0D192B"/>
<path d="M307.178 127.771L306.095 134.557L306.637 134.702L307.72 127.916L307.178 127.771Z" fill="#0D192B"/>
<path d="M314.649 138.672C314.541 138.672 314.469 138.6 314.469 138.492C314.469 138.383 314.541 138.275 314.613 138.275C315.335 138.167 315.985 137.409 316.165 136.47C316.31 135.676 316.165 134.593 315.191 134.052C314.072 133.402 307.033 131.706 306.961 131.706C306.853 131.669 306.78 131.561 306.817 131.489C306.853 131.381 306.961 131.308 307.033 131.345C307.322 131.417 314.216 133.041 315.371 133.727C316.49 134.377 316.707 135.64 316.526 136.579C316.31 137.661 315.552 138.528 314.649 138.672Z" fill="#0D192B"/>
<path d="M311.617 134.485C310.895 135.784 311.075 137.301 311.978 137.842C312.88 138.419 314.18 137.806 314.902 136.542C315.624 135.243 315.443 133.727 314.541 133.186C313.638 132.608 312.303 133.186 311.617 134.485Z" fill="#F7A58E"/>
<path d="M329.594 125.028C329.594 125.028 327.428 123.981 328.475 121.274C329.522 118.566 334.539 119 334.972 121.779C335.369 124.558 334.25 124.342 334.25 124.342L329.594 125.028Z" fill="#ED5A24"/>
<path d="M329.305 123.114C329.305 123.114 335.117 150.8 332.987 186.499C333.24 193.646 350.024 193.069 349.772 185.922C349.772 185.922 348.364 140.585 333.276 121.454C333.276 121.49 330.713 120.046 329.305 123.114Z" fill="#0D192B"/>
<path d="M158.388 89.87C157.955 89.87 157.594 89.5091 157.594 89.0759V88.8232C157.594 88.3901 157.955 88.0291 158.388 88.0291C158.822 88.0291 159.182 88.3901 159.182 88.8232V89.0759C159.219 89.5091 158.858 89.87 158.388 89.87ZM158.388 83.0479C157.955 83.0479 157.594 82.6869 157.594 82.2537V82.0011C157.594 81.5679 157.955 81.207 158.388 81.207C158.822 81.207 159.182 81.5679 159.182 82.0011V82.2537C159.219 82.6869 158.858 83.0479 158.388 83.0479ZM158.388 76.2257C157.955 76.2257 157.594 75.8647 157.594 75.4316V75.1789C157.594 74.7457 157.955 74.3848 158.388 74.3848C158.822 74.3848 159.182 74.7457 159.182 75.1789V75.4316C159.219 75.8647 158.858 76.2257 158.388 76.2257ZM158.388 69.4396C157.955 69.4396 157.594 69.0786 157.594 68.6455V68.3928C157.594 67.9597 157.955 67.5987 158.388 67.5987C158.822 67.5987 159.182 67.9597 159.182 68.3928V68.6455C159.219 69.0786 158.858 69.4396 158.388 69.4396ZM158.388 62.6174C157.955 62.6174 157.594 62.2565 157.594 61.8233V61.5706C157.594 61.1375 157.955 60.7765 158.388 60.7765C158.822 60.7765 159.182 61.1375 159.182 61.5706V61.8233C159.219 62.2565 158.858 62.6174 158.388 62.6174ZM158.388 55.8313C157.955 55.8313 157.594 55.4704 157.594 55.0372V54.7846C157.594 54.3514 157.955 53.9904 158.388 53.9904C158.822 53.9904 159.182 54.3514 159.182 54.7846V55.0372C159.219 55.4704 158.858 55.8313 158.388 55.8313ZM158.388 49.0092C157.955 49.0092 157.594 48.6482 157.594 48.2151V47.9624C157.594 47.5292 157.955 47.1683 158.388 47.1683C158.822 47.1683 159.182 47.5292 159.182 47.9624V48.2151C159.219 48.6482 158.858 49.0092 158.388 49.0092ZM158.388 42.187C157.955 42.187 157.594 41.826 157.594 41.3929V41.1402C157.594 40.707 157.955 40.3461 158.388 40.3461C158.822 40.3461 159.182 40.707 159.182 41.1402V41.3929C159.219 41.826 158.858 42.187 158.388 42.187ZM158.388 35.4009C157.955 35.4009 157.594 35.0399 157.594 34.6068V34.3541C157.594 33.921 157.955 33.56 158.388 33.56C158.822 33.56 159.182 33.921 159.182 34.3541V34.6068C159.219 35.0399 158.858 35.4009 158.388 35.4009ZM158.388 28.5787C157.955 28.5787 157.594 28.2178 157.594 27.7846V27.5319C157.594 27.0988 157.955 26.7378 158.388 26.7378C158.822 26.7378 159.182 27.0988 159.182 27.5319V27.7846C159.219 28.2178 158.858 28.5787 158.388 28.5787ZM158.388 21.7566C157.955 21.7566 157.594 21.3956 157.594 20.9624V20.7098C157.594 20.2766 157.955 19.9156 158.388 19.9156C158.822 19.9156 159.182 20.2766 159.182 20.7098V20.9624C159.219 21.3956 158.858 21.7566 158.388 21.7566Z" fill="#2E97E6"/>
<path d="M158.388 96.5476C157.955 96.5476 157.594 96.1867 157.594 95.7535C157.594 95.3204 157.955 94.8872 158.388 94.8872C158.822 94.8872 159.182 95.176 159.182 95.6091V95.7535C159.219 96.1867 158.858 96.5476 158.388 96.5476Z" fill="#2E97E6"/>
<path d="M234.083 14.9705C233.65 14.9705 233.289 14.6095 233.289 14.1764C233.289 13.7432 233.65 13.3101 234.083 13.3101C234.516 13.3101 234.877 13.5988 234.877 14.032V14.1764C234.877 14.6095 234.516 14.9705 234.083 14.9705Z" fill="#2E97E6"/>
<path d="M234.083 89.8702C233.65 89.8702 233.289 89.5092 233.289 89.076V88.8234C233.289 88.3902 233.65 88.0293 234.083 88.0293C234.516 88.0293 234.877 88.3902 234.877 88.8234V89.076C234.877 89.5092 234.516 89.8702 234.083 89.8702ZM234.083 83.048C233.65 83.048 233.289 82.687 233.289 82.2539V82.0012C233.289 81.568 233.65 81.2071 234.083 81.2071C234.516 81.2071 234.877 81.568 234.877 82.0012V82.2539C234.877 82.687 234.516 83.048 234.083 83.048ZM234.083 76.2258C233.65 76.2258 233.289 75.8648 233.289 75.4317V75.179C233.289 74.7459 233.65 74.3849 234.083 74.3849C234.516 74.3849 234.877 74.7459 234.877 75.179V75.4317C234.877 75.8648 234.516 76.2258 234.083 76.2258ZM234.083 69.4397C233.65 69.4397 233.289 69.0788 233.289 68.6456V68.3929C233.289 67.9598 233.65 67.5988 234.083 67.5988C234.516 67.5988 234.877 67.9598 234.877 68.3929V68.6456C234.877 69.0788 234.516 69.4397 234.083 69.4397ZM234.083 62.6175C233.65 62.6175 233.289 62.2566 233.289 61.8234V61.5708C233.289 61.1376 233.65 60.7766 234.083 60.7766C234.516 60.7766 234.877 61.1376 234.877 61.5708V61.8234C234.877 62.2566 234.516 62.6175 234.083 62.6175ZM234.083 55.8315C233.65 55.8315 233.289 55.4705 233.289 55.0373V54.7847C233.289 54.3515 233.65 53.9906 234.083 53.9906C234.516 53.9906 234.877 54.3515 234.877 54.7847V55.0373C234.877 55.4344 234.516 55.8315 234.083 55.8315ZM234.083 49.0093C233.65 49.0093 233.289 48.6483 233.289 48.2152V47.9625C233.289 47.5293 233.65 47.1684 234.083 47.1684C234.516 47.1684 234.877 47.5293 234.877 47.9625V48.2152C234.877 48.6483 234.516 49.0093 234.083 49.0093ZM234.083 42.1871C233.65 42.1871 233.289 41.8262 233.289 41.393V41.1403C233.289 40.7072 233.65 40.3462 234.083 40.3462C234.516 40.3462 234.877 40.7072 234.877 41.1403V41.393C234.877 41.8262 234.516 42.1871 234.083 42.1871ZM234.083 35.401C233.65 35.401 233.289 35.0401 233.289 34.6069V34.3542C233.289 33.9211 233.65 33.5601 234.083 33.5601C234.516 33.5601 234.877 33.9211 234.877 34.3542V34.6069C234.877 35.0401 234.516 35.401 234.083 35.401ZM234.083 21.7567C233.65 21.7567 233.289 21.3957 233.289 20.9626V20.7099C233.289 20.2767 233.65 19.9158 234.083 19.9158C234.516 19.9158 234.877 20.2767 234.877 20.7099V20.9626C234.877 21.3957 234.516 21.7567 234.083 21.7567Z" fill="#2E97E6"/>
<path d="M234.083 96.5478C233.65 96.5478 233.289 96.1868 233.289 95.7536C233.289 95.3205 233.65 94.8873 234.083 94.8873C234.516 94.8873 234.877 95.1761 234.877 95.6454V95.7536C234.877 96.1868 234.516 96.5478 234.083 96.5478Z" fill="#2E97E6"/>
<path d="M183.621 14.9705C183.188 14.9705 182.827 14.6095 182.827 14.1764C182.827 13.7432 183.188 13.3101 183.621 13.3101C184.054 13.3101 184.415 13.5988 184.415 14.032V14.1764C184.415 14.6095 184.054 14.9705 183.621 14.9705Z" fill="#2E97E6"/>
<path d="M183.621 89.87C183.188 89.87 182.827 89.5091 182.827 89.0759V88.8232C182.827 88.3901 183.188 88.0291 183.621 88.0291C184.054 88.0291 184.415 88.3901 184.415 88.8232V89.0759C184.415 89.5091 184.054 89.87 183.621 89.87ZM183.621 83.0479C183.188 83.0479 182.827 82.6869 182.827 82.2537V82.0011C182.827 81.5679 183.188 81.207 183.621 81.207C184.054 81.207 184.415 81.5679 184.415 82.0011V82.2537C184.415 82.6869 184.054 83.0479 183.621 83.0479ZM183.621 69.4396C183.188 69.4396 182.827 69.0786 182.827 68.6455V68.3928C182.827 67.9597 183.188 67.5987 183.621 67.5987C184.054 67.5987 184.415 67.9597 184.415 68.3928V68.6455C184.415 69.0786 184.054 69.4396 183.621 69.4396ZM183.621 62.6174C183.188 62.6174 182.827 62.2565 182.827 61.8233V61.5706C182.827 61.1375 183.188 60.7765 183.621 60.7765C184.054 60.7765 184.415 61.1375 184.415 61.5706V61.8233C184.415 62.2565 184.054 62.6174 183.621 62.6174ZM183.621 55.7952C183.188 55.7952 182.827 55.4343 182.827 55.0011V54.7485C182.827 54.3153 183.188 53.9543 183.621 53.9543C184.054 53.9543 184.415 54.3153 184.415 54.7485V55.0011C184.415 55.4343 184.054 55.7952 183.621 55.7952ZM183.621 49.0092C183.188 49.0092 182.827 48.6482 182.827 48.2151V47.9624C182.827 47.5292 183.188 47.1683 183.621 47.1683C184.054 47.1683 184.415 47.5292 184.415 47.9624V48.2151C184.415 48.6482 184.054 49.0092 183.621 49.0092ZM183.621 42.187C183.188 42.187 182.827 41.826 182.827 41.3929V41.1402C182.827 40.707 183.188 40.3461 183.621 40.3461C184.054 40.3461 184.415 40.707 184.415 41.1402V41.3929C184.415 41.826 184.054 42.187 183.621 42.187ZM183.621 35.4009C183.188 35.4009 182.827 35.0399 182.827 34.6068V34.3541C182.827 33.921 183.188 33.56 183.621 33.56C184.054 33.56 184.415 33.921 184.415 34.3541V34.6068C184.415 35.0399 184.054 35.4009 183.621 35.4009ZM183.621 28.5787C183.188 28.5787 182.827 28.2178 182.827 27.7846V27.5319C182.827 27.0988 183.188 26.7378 183.621 26.7378C184.054 26.7378 184.415 27.0988 184.415 27.5319V27.7846C184.415 28.2178 184.054 28.5787 183.621 28.5787ZM183.621 21.7566C183.188 21.7566 182.827 21.3956 182.827 20.9624V20.7098C182.827 20.2766 183.188 19.9156 183.621 19.9156C184.054 19.9156 184.415 20.2766 184.415 20.7098V20.9624C184.415 21.3956 184.054 21.7566 183.621 21.7566Z" fill="#2E97E6"/>
<path d="M183.621 96.5479C183.188 96.5479 182.827 96.1869 182.827 95.7538C182.827 95.3206 183.188 94.8875 183.621 94.8875C184.054 94.8875 184.415 95.1762 184.415 95.6094V95.7538C184.415 96.1869 184.054 96.5479 183.621 96.5479Z" fill="#2E97E6"/>
<path d="M208.851 14.9705C208.418 14.9705 208.057 14.6095 208.057 14.1764C208.057 13.7432 208.418 13.3101 208.851 13.3101C209.284 13.3101 209.645 13.5988 209.645 14.0681V14.2125C209.645 14.6095 209.284 14.9705 208.851 14.9705Z" fill="#2E97E6"/>
<path d="M208.851 89.87C208.418 89.87 208.057 89.5091 208.057 89.0759V88.8232C208.057 88.3901 208.418 88.0291 208.851 88.0291C209.284 88.0291 209.645 88.3901 209.645 88.8232V89.0759C209.645 89.5091 209.284 89.87 208.851 89.87ZM208.851 83.0479C208.418 83.0479 208.057 82.6869 208.057 82.2537V82.0011C208.057 81.5679 208.418 81.207 208.851 81.207C209.284 81.207 209.645 81.5679 209.645 82.0011V82.2537C209.645 82.6869 209.284 83.0479 208.851 83.0479ZM208.851 76.2257C208.418 76.2257 208.057 75.8647 208.057 75.4316V75.1789C208.057 74.7457 208.418 74.3848 208.851 74.3848C209.284 74.3848 209.645 74.7457 209.645 75.1789V75.4316C209.645 75.8647 209.284 76.2257 208.851 76.2257ZM208.851 69.4396C208.418 69.4396 208.057 69.0786 208.057 68.6455V68.3928C208.057 67.9597 208.418 67.5987 208.851 67.5987C209.284 67.5987 209.645 67.9597 209.645 68.3928V68.6455C209.645 69.0786 209.284 69.4396 208.851 69.4396ZM208.851 62.6174C208.418 62.6174 208.057 62.2565 208.057 61.8233V61.5706C208.057 61.1375 208.418 60.7765 208.851 60.7765C209.284 60.7765 209.645 61.1375 209.645 61.5706V61.8233C209.645 62.2565 209.284 62.6174 208.851 62.6174ZM208.851 55.8313C208.418 55.8313 208.057 55.4704 208.057 55.0372V54.7846C208.057 54.3514 208.418 53.9904 208.851 53.9904C209.284 53.9904 209.645 54.3514 209.645 54.7846V55.0372C209.645 55.4343 209.284 55.8313 208.851 55.8313ZM208.851 49.0092C208.418 49.0092 208.057 48.6482 208.057 48.2151V47.9624C208.057 47.5292 208.418 47.1683 208.851 47.1683C209.284 47.1683 209.645 47.5292 209.645 47.9624V48.2151C209.645 48.6482 209.284 49.0092 208.851 49.0092ZM208.851 42.187C208.418 42.187 208.057 41.826 208.057 41.3929V41.1402C208.057 40.707 208.418 40.3461 208.851 40.3461C209.284 40.3461 209.645 40.707 209.645 41.1402V41.3929C209.645 41.826 209.284 42.187 208.851 42.187ZM208.851 35.4009C208.418 35.4009 208.057 35.0399 208.057 34.6068V34.3541C208.057 33.921 208.418 33.56 208.851 33.56C209.284 33.56 209.645 33.921 209.645 34.3541V34.6068C209.645 35.0399 209.284 35.4009 208.851 35.4009ZM208.851 28.5787C208.418 28.5787 208.057 28.2178 208.057 27.7846V27.5319C208.057 27.0988 208.418 26.7378 208.851 26.7378C209.284 26.7378 209.645 27.0988 209.645 27.5319V27.7846C209.645 28.2178 209.284 28.5787 208.851 28.5787ZM208.851 21.7566C208.418 21.7566 208.057 21.3956 208.057 20.9624V20.7098C208.057 20.2766 208.418 19.9156 208.851 19.9156C209.284 19.9156 209.645 20.2766 209.645 20.7098V20.9624C209.645 21.3956 209.284 21.7566 208.851 21.7566Z" fill="#2E97E6"/>
<path d="M208.851 96.5479C208.418 96.5479 208.057 96.1869 208.057 95.7538C208.057 95.3206 208.418 94.8875 208.851 94.8875C209.284 94.8875 209.645 95.1762 209.645 95.6455V95.7899C209.645 96.1869 209.284 96.5479 208.851 96.5479Z" fill="#2E97E6"/>
<path d="M161.457 13.7794L158.642 12.0106L155.862 13.7794V12.8409L158.642 11.0721L161.457 12.8409V13.7794Z" fill="#3397FF"/>
<path d="M161.457 15.9089L158.642 14.1402L155.862 15.9089V14.9704L158.642 13.2017L161.457 14.9704V15.9089Z" fill="#3397FF"/>
<path d="M181.094 74.8901L183.909 76.6589L186.689 74.8901V75.8286L183.909 77.5973L181.094 75.8286V74.8901Z" fill="#3397FF"/>
<path d="M181.094 72.7606L183.909 74.5293L186.689 72.7606V73.6991L183.909 75.4678L181.094 73.6991V72.7606Z" fill="#3397FF"/>
<path d="M236.754 28.5066L233.939 26.7379L231.195 28.5066V27.5681L233.975 25.7633L236.754 27.5681V28.5066Z" fill="#3397FF"/>
<path d="M236.754 30.6362L233.939 28.8675L231.195 30.6362V29.6977L233.975 27.929L236.754 29.6977V30.6362Z" fill="#3397FF"/>
</svg>
