<svg width="359" height="296" viewBox="0 0 359 296" fill="none" xmlns="http://www.w3.org/2000/svg">
<path d="M52.0006 275.923V277.617C52.0006 277.871 51.831 278.041 51.5765 278.041C51.322 278.041 51.1523 277.871 51.1523 277.617V275.923C51.1523 275.669 51.322 275.499 51.5765 275.499C51.831 275.499 52.0006 275.669 52.0006 275.923ZM51.5765 193.073C51.322 193.073 51.1523 193.242 51.1523 193.497V196.97C51.1523 197.224 51.322 197.393 51.5765 197.393C51.831 197.393 52.0006 197.224 52.0006 196.97V193.497C52.0006 193.242 51.831 193.073 51.5765 193.073ZM51.5765 199.935C51.322 199.935 51.1523 200.104 51.1523 200.358V203.832C51.1523 204.086 51.322 204.255 51.5765 204.255C51.831 204.255 52.0006 204.086 52.0006 203.832V200.358C52.0006 200.104 51.831 199.935 51.5765 199.935ZM51.5765 206.797C51.322 206.797 51.1523 206.966 51.1523 207.22V210.693C51.1523 210.948 51.322 211.117 51.5765 211.117C51.831 211.117 52.0006 210.948 52.0006 210.693V207.22C52.0006 206.966 51.831 206.797 51.5765 206.797ZM51.5765 186.211C51.322 186.211 51.1523 186.381 51.1523 186.635V190.108C51.1523 190.362 51.322 190.532 51.5765 190.532C51.831 190.532 52.0006 190.362 52.0006 190.108V186.635C52.0006 186.381 51.831 186.211 51.5765 186.211ZM51.5765 213.658C51.322 213.658 51.1523 213.828 51.1523 214.082V217.555C51.1523 217.809 51.322 217.979 51.5765 217.979C51.831 217.979 52.0006 217.809 52.0006 217.555V214.082C52.0006 213.913 51.831 213.658 51.5765 213.658ZM51.5765 165.626C51.322 165.626 51.1523 165.795 51.1523 166.049V169.523C51.1523 169.777 51.322 169.946 51.5765 169.946C51.831 169.946 52.0006 169.777 52.0006 169.523V166.049C52.0006 165.795 51.831 165.626 51.5765 165.626ZM51.5765 172.488C51.322 172.488 51.1523 172.657 51.1523 172.911V176.384C51.1523 176.639 51.322 176.808 51.5765 176.808C51.831 176.808 52.0006 176.639 52.0006 176.384V172.911C52.0006 172.657 51.831 172.488 51.5765 172.488ZM51.5765 179.349C51.322 179.349 51.1523 179.519 51.1523 179.773V183.246C51.1523 183.5 51.322 183.67 51.5765 183.67C51.831 183.67 52.0006 183.5 52.0006 183.246V179.773C52.0006 179.519 51.831 179.349 51.5765 179.349ZM51.5765 268.638C51.322 268.638 51.1523 268.807 51.1523 269.061V272.534C51.1523 272.788 51.322 272.958 51.5765 272.958C51.831 272.958 52.0006 272.788 52.0006 272.534V269.061C52.0006 268.807 51.831 268.638 51.5765 268.638ZM51.5765 254.914C51.322 254.914 51.1523 255.083 51.1523 255.337V258.811C51.1523 259.065 51.322 259.234 51.5765 259.234C51.831 259.234 52.0006 259.065 52.0006 258.811V255.337C52.0006 255.083 51.831 254.914 51.5765 254.914ZM51.5765 261.776C51.322 261.776 51.1523 261.945 51.1523 262.199V265.673C51.1523 265.927 51.322 266.096 51.5765 266.096C51.831 266.096 52.0006 265.927 52.0006 265.673V262.199C52.0006 261.945 51.831 261.776 51.5765 261.776ZM51.5765 248.052C51.322 248.052 51.1523 248.222 51.1523 248.476V251.949C51.1523 252.203 51.322 252.372 51.5765 252.372C51.831 252.372 52.0006 252.203 52.0006 251.949V248.476C52.0006 248.222 51.831 248.052 51.5765 248.052ZM51.5765 241.19C51.322 241.19 51.1523 241.36 51.1523 241.614V245.087C51.1523 245.341 51.322 245.511 51.5765 245.511C51.831 245.511 52.0006 245.341 52.0006 245.087V241.614C52.0006 241.36 51.831 241.19 51.5765 241.19ZM51.5765 227.382C51.322 227.382 51.1523 227.551 51.1523 227.806V231.279C51.1523 231.533 51.322 231.702 51.5765 231.702C51.831 231.702 52.0006 231.533 52.0006 231.279V227.806C52.0006 227.636 51.831 227.382 51.5765 227.382ZM51.5765 234.244C51.322 234.244 51.1523 234.413 51.1523 234.667V238.141C51.1523 238.395 51.322 238.564 51.5765 238.564C51.831 238.564 52.0006 238.395 52.0006 238.141V234.667C52.0006 234.498 51.831 234.244 51.5765 234.244ZM51.5765 220.52C51.322 220.52 51.1523 220.69 51.1523 220.944V224.417C51.1523 224.671 51.322 224.841 51.5765 224.841C51.831 224.841 52.0006 224.671 52.0006 224.417V220.944C52.0006 220.774 51.831 220.52 51.5765 220.52ZM53.2731 160.458H51.5765C51.322 160.458 51.1523 160.628 51.1523 160.882V162.576C51.1523 162.83 51.322 163 51.5765 163C51.831 163 52.0006 162.83 52.0006 162.576V161.305H53.2731C53.5276 161.305 53.6972 161.136 53.6972 160.882C53.6972 160.712 53.5276 160.458 53.2731 160.458ZM141.326 160.458H137.933C137.679 160.458 137.509 160.628 137.509 160.882C137.509 161.136 137.679 161.305 137.933 161.305H141.326C141.581 161.305 141.751 161.136 141.751 160.882C141.751 160.712 141.581 160.458 141.326 160.458ZM127.839 160.458H124.445C124.191 160.458 124.021 160.628 124.021 160.882C124.021 161.136 124.191 161.305 124.445 161.305H127.839C128.093 161.305 128.263 161.136 128.263 160.882C128.263 160.712 128.008 160.458 127.839 160.458ZM134.625 160.458H131.232C130.977 160.458 130.808 160.628 130.808 160.882C130.808 161.136 130.977 161.305 131.232 161.305H134.625C134.879 161.305 135.049 161.136 135.049 160.882C135.049 160.712 134.795 160.458 134.625 160.458ZM148.113 160.458H144.72C144.465 160.458 144.296 160.628 144.296 160.882C144.296 161.136 144.465 161.305 144.72 161.305H148.113C148.367 161.305 148.537 161.136 148.537 160.882C148.537 160.712 148.367 160.458 148.113 160.458ZM161.686 160.458H158.292C158.038 160.458 157.868 160.628 157.868 160.882C157.868 161.136 158.038 161.305 158.292 161.305H161.686C161.94 161.305 162.11 161.136 162.11 160.882C162.11 160.712 161.94 160.458 161.686 160.458ZM168.472 160.458H165.079C164.824 160.458 164.655 160.628 164.655 160.882C164.655 161.136 164.824 161.305 165.079 161.305H168.472C168.727 161.305 168.896 161.136 168.896 160.882C168.896 160.712 168.727 160.458 168.472 160.458ZM154.899 160.458H151.506C151.252 160.458 151.082 160.628 151.082 160.882C151.082 161.136 151.252 161.305 151.506 161.305H154.899C155.154 161.305 155.323 161.136 155.323 160.882C155.323 160.712 155.154 160.458 154.899 160.458ZM121.052 160.458H117.659C117.404 160.458 117.235 160.628 117.235 160.882C117.235 161.136 117.404 161.305 117.659 161.305H121.052C121.307 161.305 121.476 161.136 121.476 160.882C121.476 160.712 121.307 160.458 121.052 160.458ZM175.258 160.458H171.865C171.611 160.458 171.441 160.628 171.441 160.882C171.441 161.136 171.611 161.305 171.865 161.305H175.258C175.513 161.305 175.683 161.136 175.683 160.882C175.683 160.712 175.513 160.458 175.258 160.458ZM87.1202 160.458H83.727C83.4725 160.458 83.3029 160.628 83.3029 160.882C83.3029 161.136 83.4725 161.305 83.727 161.305H87.1202C87.3747 161.305 87.5443 161.136 87.5443 160.882C87.5443 160.712 87.3747 160.458 87.1202 160.458ZM66.8459 160.458H63.4527C63.1982 160.458 63.0285 160.628 63.0285 160.882C63.0285 161.136 63.1982 161.305 63.4527 161.305H66.8459C67.1004 161.305 67.27 161.136 67.27 160.882C67.27 160.712 67.0155 160.458 66.8459 160.458ZM73.6323 160.458H70.2391C69.9846 160.458 69.8149 160.628 69.8149 160.882C69.8149 161.136 69.9846 161.305 70.2391 161.305H73.6323C73.8867 161.305 74.0564 161.136 74.0564 160.882C74.0564 160.712 73.8019 160.458 73.6323 160.458ZM60.0595 160.458H56.6663C56.4118 160.458 56.2421 160.628 56.2421 160.882C56.2421 161.136 56.4118 161.305 56.6663 161.305H60.0595C60.314 161.305 60.4836 161.136 60.4836 160.882C60.4836 160.712 60.314 160.458 60.0595 160.458ZM93.9066 160.458H90.5134C90.2589 160.458 90.0892 160.628 90.0892 160.882C90.0892 161.136 90.2589 161.305 90.5134 161.305H93.9066C94.1611 161.305 94.3307 161.136 94.3307 160.882C94.3307 160.712 94.1611 160.458 93.9066 160.458ZM114.266 160.458H110.873C110.618 160.458 110.448 160.628 110.448 160.882C110.448 161.136 110.618 161.305 110.873 161.305H114.266C114.52 161.305 114.69 161.136 114.69 160.882C114.69 160.712 114.52 160.458 114.266 160.458ZM107.479 160.458H104.086C103.832 160.458 103.662 160.628 103.662 160.882C103.662 161.136 103.832 161.305 104.086 161.305H107.479C107.734 161.305 107.904 161.136 107.904 160.882C107.904 160.712 107.734 160.458 107.479 160.458ZM100.693 160.458H97.2998C97.0453 160.458 96.8756 160.628 96.8756 160.882C96.8756 161.136 97.0453 161.305 97.2998 161.305H100.693C100.947 161.305 101.117 161.136 101.117 160.882C101.117 160.712 100.947 160.458 100.693 160.458ZM80.3338 160.458H76.9406C76.6861 160.458 76.5165 160.628 76.5165 160.882C76.5165 161.136 76.6861 161.305 76.9406 161.305H80.3338C80.5883 161.305 80.758 161.136 80.758 160.882C80.758 160.712 80.5883 160.458 80.3338 160.458ZM202.319 160.458H198.926C198.671 160.458 198.502 160.628 198.502 160.882C198.502 161.136 198.671 161.305 198.926 161.305H202.319C202.574 161.305 202.743 161.136 202.743 160.882C202.743 160.712 202.574 160.458 202.319 160.458ZM229.465 160.458H226.072C225.817 160.458 225.647 160.628 225.647 160.882C225.647 161.136 225.817 161.305 226.072 161.305H229.465C229.719 161.305 229.889 161.136 229.889 160.882C229.889 160.712 229.719 160.458 229.465 160.458ZM236.251 160.458H232.858C232.603 160.458 232.434 160.628 232.434 160.882C232.434 161.136 232.603 161.305 232.858 161.305H236.251C236.506 161.305 236.675 161.136 236.675 160.882C236.675 160.712 236.506 160.458 236.251 160.458ZM215.892 160.458H212.499C212.244 160.458 212.075 160.628 212.075 160.882C212.075 161.136 212.244 161.305 212.499 161.305H215.892C216.146 161.305 216.316 161.136 216.316 160.882C216.316 160.712 216.146 160.458 215.892 160.458ZM209.106 160.458H205.712C205.458 160.458 205.288 160.628 205.288 160.882C205.288 161.136 205.458 161.305 205.712 161.305H209.106C209.36 161.305 209.53 161.136 209.53 160.882C209.53 160.712 209.36 160.458 209.106 160.458ZM243.037 160.458H239.644C239.39 160.458 239.22 160.628 239.22 160.882C239.22 161.136 239.39 161.305 239.644 161.305H243.037C243.292 161.305 243.462 161.136 243.462 160.882C243.462 160.712 243.207 160.458 243.037 160.458ZM222.678 160.458H219.285C219.031 160.458 218.861 160.628 218.861 160.882C218.861 161.136 219.031 161.305 219.285 161.305H222.678C222.933 161.305 223.102 161.136 223.102 160.882C223.102 160.712 222.933 160.458 222.678 160.458ZM276.885 160.458H273.491C273.237 160.458 273.067 160.628 273.067 160.882C273.067 161.136 273.237 161.305 273.491 161.305H276.885C277.139 161.305 277.309 161.136 277.309 160.882C277.309 160.712 277.139 160.458 276.885 160.458ZM270.098 160.458H266.705C266.451 160.458 266.281 160.628 266.281 160.882C266.281 161.136 266.451 161.305 266.705 161.305H270.098C270.353 161.305 270.522 161.136 270.522 160.882C270.522 160.712 270.353 160.458 270.098 160.458ZM290.457 160.458H287.064C286.81 160.458 286.64 160.628 286.64 160.882C286.64 161.136 286.81 161.305 287.064 161.305H290.457C290.712 161.305 290.882 161.136 290.882 160.882C290.882 160.712 290.712 160.458 290.457 160.458ZM249.824 160.458H246.431C246.176 160.458 246.007 160.628 246.007 160.882C246.007 161.136 246.176 161.305 246.431 161.305H249.824C250.078 161.305 250.248 161.136 250.248 160.882C250.248 160.712 249.994 160.458 249.824 160.458ZM256.525 160.458H253.132C252.878 160.458 252.708 160.628 252.708 160.882C252.708 161.136 252.878 161.305 253.132 161.305H256.525C256.78 161.305 256.95 161.136 256.95 160.882C256.95 160.712 256.78 160.458 256.525 160.458ZM263.312 160.458H259.919C259.664 160.458 259.494 160.628 259.494 160.882C259.494 161.136 259.664 161.305 259.919 161.305H263.312C263.566 161.305 263.736 161.136 263.736 160.882C263.736 160.712 263.566 160.458 263.312 160.458ZM283.671 160.458H280.278C280.023 160.458 279.854 160.628 279.854 160.882C279.854 161.136 280.023 161.305 280.278 161.305H283.671C283.925 161.305 284.095 161.136 284.095 160.882C284.095 160.712 283.925 160.458 283.671 160.458ZM195.533 160.458H192.14C191.885 160.458 191.715 160.628 191.715 160.882C191.715 161.136 191.885 161.305 192.14 161.305H195.533C195.787 161.305 195.957 161.136 195.957 160.882C195.957 160.712 195.787 160.458 195.533 160.458ZM182.045 160.458H178.652C178.397 160.458 178.227 160.628 178.227 160.882C178.227 161.136 178.397 161.305 178.652 161.305H182.045C182.299 161.305 182.469 161.136 182.469 160.882C182.469 160.712 182.214 160.458 182.045 160.458ZM188.831 160.458H185.438C185.184 160.458 185.014 160.628 185.014 160.882C185.014 161.136 185.184 161.305 185.438 161.305H188.831C189.086 161.305 189.255 161.136 189.255 160.882C189.255 160.712 189.001 160.458 188.831 160.458ZM295.547 160.458H293.851C293.596 160.458 293.426 160.628 293.426 160.882C293.426 161.136 293.596 161.305 293.851 161.305H295.123V162.576C295.123 162.83 295.293 163 295.547 163C295.802 163 295.971 162.83 295.971 162.576V160.882C295.971 160.712 295.802 160.458 295.547 160.458ZM295.547 248.052C295.293 248.052 295.123 248.222 295.123 248.476V251.949C295.123 252.203 295.293 252.372 295.547 252.372C295.802 252.372 295.971 252.203 295.971 251.949V248.476C295.971 248.222 295.802 248.052 295.547 248.052ZM295.547 165.626C295.293 165.626 295.123 165.795 295.123 166.049V169.523C295.123 169.777 295.293 169.946 295.547 169.946C295.802 169.946 295.971 169.777 295.971 169.523V166.049C295.971 165.795 295.802 165.626 295.547 165.626ZM295.547 227.382C295.293 227.382 295.123 227.551 295.123 227.806V231.279C295.123 231.533 295.293 231.702 295.547 231.702C295.802 231.702 295.971 231.533 295.971 231.279V227.806C295.971 227.636 295.802 227.382 295.547 227.382ZM295.547 234.244C295.293 234.244 295.123 234.413 295.123 234.667V238.141C295.123 238.395 295.293 238.564 295.547 238.564C295.802 238.564 295.971 238.395 295.971 238.141V234.667C295.971 234.498 295.802 234.244 295.547 234.244ZM295.547 179.349C295.293 179.349 295.123 179.519 295.123 179.773V183.246C295.123 183.5 295.293 183.67 295.547 183.67C295.802 183.67 295.971 183.5 295.971 183.246V179.773C295.971 179.519 295.802 179.349 295.547 179.349ZM295.547 241.19C295.293 241.19 295.123 241.36 295.123 241.614V245.087C295.123 245.341 295.293 245.511 295.547 245.511C295.802 245.511 295.971 245.341 295.971 245.087V241.614C295.971 241.36 295.802 241.19 295.547 241.19ZM295.547 206.797C295.293 206.797 295.123 206.966 295.123 207.22V210.693C295.123 210.948 295.293 211.117 295.547 211.117C295.802 211.117 295.971 210.948 295.971 210.693V207.22C295.971 206.966 295.802 206.797 295.547 206.797ZM295.547 186.211C295.293 186.211 295.123 186.381 295.123 186.635V190.108C295.123 190.362 295.293 190.532 295.547 190.532C295.802 190.532 295.971 190.362 295.971 190.108V186.635C295.971 186.381 295.802 186.211 295.547 186.211ZM295.547 220.52C295.293 220.52 295.123 220.69 295.123 220.944V224.417C295.123 224.671 295.293 224.841 295.547 224.841C295.802 224.841 295.971 224.671 295.971 224.417V220.944C295.971 220.774 295.802 220.52 295.547 220.52ZM295.547 213.658C295.293 213.658 295.123 213.828 295.123 214.082V217.555C295.123 217.809 295.293 217.979 295.547 217.979C295.802 217.979 295.971 217.809 295.971 217.555V214.082C295.971 213.913 295.802 213.658 295.547 213.658ZM295.547 199.935C295.293 199.935 295.123 200.104 295.123 200.358V203.832C295.123 204.086 295.293 204.255 295.547 204.255C295.802 204.255 295.971 204.086 295.971 203.832V200.358C295.971 200.104 295.802 199.935 295.547 199.935ZM295.547 193.073C295.293 193.073 295.123 193.242 295.123 193.497V196.97C295.123 197.224 295.293 197.393 295.547 197.393C295.802 197.393 295.971 197.224 295.971 196.97V193.497C295.971 193.242 295.802 193.073 295.547 193.073ZM295.547 172.488C295.293 172.488 295.123 172.657 295.123 172.911V176.384C295.123 176.639 295.293 176.808 295.547 176.808C295.802 176.808 295.971 176.639 295.971 176.384V172.911C295.971 172.657 295.802 172.488 295.547 172.488ZM295.547 254.914C295.293 254.914 295.123 255.083 295.123 255.337V258.811C295.123 259.065 295.293 259.234 295.547 259.234C295.802 259.234 295.971 259.065 295.971 258.811V255.337C295.971 255.083 295.802 254.914 295.547 254.914ZM295.547 268.638C295.293 268.638 295.123 268.807 295.123 269.061V272.534C295.123 272.788 295.293 272.958 295.547 272.958C295.802 272.958 295.971 272.788 295.971 272.534V269.061C295.971 268.807 295.802 268.638 295.547 268.638ZM295.547 261.776C295.293 261.776 295.123 261.945 295.123 262.199V265.673C295.123 265.927 295.293 266.096 295.547 266.096C295.802 266.096 295.971 265.927 295.971 265.673V262.199C295.971 261.945 295.802 261.776 295.547 261.776ZM295.547 275.499C295.293 275.499 295.123 275.669 295.123 275.923V277.617C295.123 277.871 295.293 278.041 295.547 278.041C295.802 278.041 295.971 277.871 295.971 277.617V275.923C295.971 275.669 295.802 275.499 295.547 275.499ZM173.901 220.266C174.156 220.266 174.325 220.097 174.325 219.842V216.454C174.325 216.2 174.156 216.03 173.901 216.03C173.647 216.03 173.477 216.2 173.477 216.454V219.842C173.477 220.097 173.647 220.266 173.901 220.266ZM173.138 114.374C172.883 114.374 172.714 114.544 172.714 114.798V118.186C172.714 118.44 172.883 118.61 173.138 118.61C173.392 118.61 173.562 118.44 173.562 118.186V114.798C173.562 114.628 173.392 114.374 173.138 114.374ZM173.138 111.833C173.392 111.833 173.562 111.663 173.562 111.409V111.155C173.562 110.901 173.392 110.731 173.138 110.731C172.883 110.731 172.714 110.901 172.714 111.155V111.409C172.714 111.663 172.883 111.833 173.138 111.833ZM173.223 127.928C172.968 127.928 172.798 128.098 172.798 128.352V131.74C172.798 131.995 172.968 132.164 173.223 132.164C173.477 132.164 173.647 131.995 173.647 131.74V128.352C173.647 128.182 173.477 128.013 173.223 127.928ZM173.223 121.151C172.968 121.151 172.798 121.321 172.798 121.575V124.963C172.798 125.217 172.968 125.387 173.223 125.387C173.477 125.387 173.647 125.217 173.647 124.963V121.575C173.647 121.405 173.477 121.151 173.223 121.151ZM173.392 148.26C173.138 148.26 172.968 148.429 172.968 148.683V152.072C172.968 152.326 173.138 152.495 173.392 152.495C173.647 152.495 173.816 152.326 173.816 152.072V148.683C173.816 148.514 173.647 148.26 173.392 148.26ZM173.392 141.482C173.138 141.482 172.968 141.652 172.968 141.906V145.295C172.968 145.549 173.138 145.718 173.392 145.718C173.647 145.718 173.816 145.549 173.816 145.295V141.906C173.816 141.737 173.647 141.482 173.392 141.482ZM173.307 134.705C173.053 134.705 172.883 134.875 172.883 135.129V138.517C172.883 138.772 173.053 138.941 173.307 138.941C173.562 138.941 173.731 138.772 173.731 138.517V135.129C173.731 134.96 173.562 134.705 173.307 134.705ZM173.477 155.037C173.223 155.037 173.053 155.206 173.053 155.46V158.849C173.053 159.103 173.223 159.272 173.477 159.272C173.731 159.272 173.901 159.103 173.901 158.849V155.46C173.901 155.291 173.647 155.037 173.477 155.037ZM173.647 186.381C173.901 186.381 174.071 186.211 174.071 185.957V182.569C174.071 182.314 173.901 182.145 173.647 182.145C173.392 182.145 173.223 182.314 173.223 182.569V185.957C173.223 186.211 173.477 186.381 173.647 186.381ZM173.562 172.826C173.816 172.826 173.986 172.657 173.986 172.403V169.014C173.986 168.76 173.816 168.591 173.562 168.591C173.307 168.591 173.138 168.76 173.138 169.014V172.403C173.138 172.657 173.307 172.826 173.562 172.826ZM173.647 179.604C173.901 179.604 174.071 179.434 174.071 179.18V175.791C174.071 175.537 173.901 175.368 173.647 175.368C173.392 175.368 173.223 175.537 173.223 175.791V179.18C173.223 179.434 173.392 179.604 173.647 179.604ZM173.562 166.049C173.816 166.049 173.986 165.88 173.986 165.626V162.237C173.986 161.983 173.816 161.814 173.562 161.814C173.307 161.814 173.138 161.983 173.138 162.237V165.626C173.138 165.88 173.307 166.049 173.562 166.049ZM173.816 206.712C174.071 206.712 174.24 206.542 174.24 206.288V202.9C174.24 202.646 174.071 202.476 173.816 202.476C173.562 202.476 173.392 202.646 173.392 202.9V206.288C173.392 206.542 173.562 206.712 173.816 206.712ZM173.901 222.807C173.647 222.807 173.477 222.977 173.477 223.231V226.62C173.477 226.874 173.647 227.043 173.901 227.043C174.156 227.043 174.325 226.874 174.325 226.62V223.231C174.325 223.062 174.156 222.807 173.901 222.807ZM173.901 213.489C174.156 213.489 174.325 213.32 174.325 213.065V209.677C174.325 209.423 174.156 209.253 173.901 209.253C173.647 209.253 173.477 209.423 173.477 209.677V213.065C173.477 213.32 173.647 213.489 173.901 213.489ZM173.731 193.158C173.986 193.158 174.156 192.988 174.156 192.734V189.346C174.156 189.091 173.986 188.922 173.731 188.922C173.477 188.922 173.307 189.091 173.307 189.346V192.734C173.307 192.988 173.477 193.158 173.731 193.158ZM173.731 199.935C173.986 199.935 174.156 199.765 174.156 199.511V196.123C174.156 195.869 173.986 195.699 173.731 195.699C173.477 195.699 173.307 195.869 173.307 196.123V199.511C173.307 199.765 173.562 199.935 173.731 199.935Z" fill="white"/>
<path d="M236.93 106.835H110.194C109.345 106.835 108.497 106.411 107.988 105.818C107.564 105.31 107.31 104.632 107.31 103.954V89.9767C107.31 89.3837 107.479 88.7907 107.819 88.2824C108.328 87.52 109.176 87.0964 110.194 87.0964H236.845C237.608 87.0964 238.372 87.4353 238.881 87.9436C239.39 88.4519 239.729 89.2143 239.729 89.9767V103.954C239.729 104.971 239.22 105.818 238.457 106.326C238.032 106.665 237.523 106.835 236.93 106.835Z" fill="#1D4D59"/>
<path d="M238.541 103.785C238.117 104.039 237.523 104.124 236.93 104.124H110.194C109.345 104.124 108.497 103.87 107.988 103.361C107.564 103.023 107.31 102.514 107.31 102.006V103.87C107.31 104.547 107.564 105.225 107.988 105.733C108.497 106.326 109.261 106.75 110.194 106.75H236.845C237.439 106.75 238.032 106.581 238.457 106.242C239.22 105.733 239.729 104.886 239.729 103.87V102.006C239.814 102.768 239.305 103.446 238.541 103.785Z" fill="#072A38"/>
<path d="M238.966 88.0283C238.457 87.52 237.693 87.1812 236.93 87.1812H110.194C109.261 87.1812 108.328 87.6894 107.819 88.3671C107.479 88.8754 107.31 89.3837 107.31 90.0614V91.9251C107.31 91.5015 107.479 91.078 107.819 90.7391C108.328 90.2308 109.176 89.892 110.194 89.892H236.845C237.608 89.892 238.372 90.1461 238.881 90.485C239.39 90.8238 239.729 91.4168 239.729 91.9251V90.0614C239.814 89.2143 239.474 88.5366 238.966 88.0283Z" fill="#276472"/>
<path d="M226.92 100.735C228.888 100.735 230.483 99.1424 230.483 97.1774C230.483 95.2123 228.888 93.6194 226.92 93.6194C224.952 93.6194 223.357 95.2123 223.357 97.1774C223.357 99.1424 224.952 100.735 226.92 100.735Z" fill="#072A38"/>
<path d="M226.92 99.7188C228.325 99.7188 229.465 98.581 229.465 97.1774C229.465 95.7738 228.325 94.636 226.92 94.636C225.514 94.636 224.375 95.7738 224.375 97.1774C224.375 98.581 225.514 99.7188 226.92 99.7188Z" fill="#52E813"/>
<path d="M217.588 95.7372H215.043V98.2786H217.588V95.7372Z" fill="#276472"/>
<path d="M210.208 95.7372H207.664V98.2786H210.208V95.7372Z" fill="#276472"/>
<path d="M202.828 95.7372H200.283V98.2786H202.828V95.7372Z" fill="#276472"/>
<path d="M195.448 95.7372H192.903V98.2786H195.448V95.7372Z" fill="#276472"/>
<path d="M188.068 95.7372H185.523V98.2786H188.068V95.7372Z" fill="#276472"/>
<path d="M180.772 95.7372H178.228V98.2786H180.772V95.7372Z" fill="#276472"/>
<path d="M173.392 95.7372H170.847V98.2786H173.392V95.7372Z" fill="#276472"/>
<path d="M166.012 95.7372H163.467V98.2786H166.012V95.7372Z" fill="#276472"/>
<path d="M158.632 95.7372H156.087V98.2786H158.632V95.7372Z" fill="#276472"/>
<path d="M151.251 95.7372H148.707V98.2786H151.251V95.7372Z" fill="#276472"/>
<path d="M143.872 95.7372H141.327V98.2786H143.872V95.7372Z" fill="#276472"/>
<path d="M136.491 95.7372H133.946V98.2786H136.491V95.7372Z" fill="#276472"/>
<path d="M129.111 95.7372H126.566V98.2786H129.111V95.7372Z" fill="#276472"/>
<path d="M121.731 95.7372H119.186V98.2786H121.731V95.7372Z" fill="#276472"/>
<path d="M114.351 95.7372H111.806V98.2786H114.351V95.7372Z" fill="#276472"/>
<path d="M236.93 85.3175H110.194C109.345 85.3175 108.497 84.8939 107.988 84.3009C107.564 83.7926 107.31 83.1149 107.31 82.4372V68.4595C107.31 67.8665 107.479 67.2735 107.819 66.7652C108.328 66.0028 109.176 65.5792 110.194 65.5792H236.845C237.608 65.5792 238.372 65.9181 238.881 66.4264C239.39 66.9346 239.729 67.6971 239.729 68.4595V82.4372C239.729 83.4538 239.22 84.3009 238.457 84.8092C238.032 85.1481 237.523 85.3175 236.93 85.3175Z" fill="#1D4D59"/>
<path d="M238.541 82.2677C238.117 82.5219 237.523 82.6066 236.93 82.6066H110.194C109.345 82.6066 108.497 82.3525 107.988 81.8442C107.564 81.5053 107.31 80.9971 107.31 80.4888V82.3525C107.31 83.0302 107.564 83.7079 107.988 84.2162C108.497 84.8092 109.261 85.2327 110.194 85.2327H236.845C237.439 85.2327 238.032 85.0633 238.457 84.7244C239.22 84.2162 239.729 83.369 239.729 82.3525V80.4888C239.814 81.2512 239.305 81.8442 238.541 82.2677Z" fill="#072A38"/>
<path d="M238.966 66.4264C238.457 65.9181 237.693 65.5792 236.93 65.5792H110.194C109.261 65.5792 108.328 66.0875 107.819 66.7652C107.479 67.2735 107.31 67.7818 107.31 68.4595V70.4079C107.31 69.9843 107.479 69.5608 107.819 69.2219C108.328 68.7136 109.176 68.3748 110.194 68.3748H236.845C237.608 68.3748 238.372 68.6289 238.881 68.9678C239.39 69.3066 239.729 69.8996 239.729 70.4079V68.5442C239.814 67.6971 239.474 66.9346 238.966 66.4264Z" fill="#276472"/>
<path d="M226.92 79.2181C228.888 79.2181 230.483 77.6251 230.483 75.6601C230.483 73.6951 228.888 72.1022 226.92 72.1022C224.952 72.1022 223.357 73.6951 223.357 75.6601C223.357 77.6251 224.952 79.2181 226.92 79.2181Z" fill="#072A38"/>
<path d="M226.92 78.2016C228.325 78.2016 229.465 77.0638 229.465 75.6602C229.465 74.2566 228.325 73.1188 226.92 73.1188C225.514 73.1188 224.375 74.2566 224.375 75.6602C224.375 77.0638 225.514 78.2016 226.92 78.2016Z" fill="#52E813"/>
<path d="M217.588 74.22H215.043V76.7614H217.588V74.22Z" fill="#276472"/>
<path d="M210.208 74.22H207.664V76.7614H210.208V74.22Z" fill="#276472"/>
<path d="M202.828 74.22H200.283V76.7614H202.828V74.22Z" fill="#276472"/>
<path d="M195.448 74.22H192.903V76.7614H195.448V74.22Z" fill="#276472"/>
<path d="M188.068 74.22H185.523V76.7614H188.068V74.22Z" fill="#276472"/>
<path d="M180.772 74.22H178.228V76.7614H180.772V74.22Z" fill="#276472"/>
<path d="M173.392 74.22H170.847V76.7614H173.392V74.22Z" fill="#276472"/>
<path d="M166.012 74.22H163.467V76.7614H166.012V74.22Z" fill="#276472"/>
<path d="M158.632 74.22H156.087V76.7614H158.632V74.22Z" fill="#276472"/>
<path d="M151.251 74.22H148.707V76.7614H151.251V74.22Z" fill="#276472"/>
<path d="M143.872 74.22H141.327V76.7614H143.872V74.22Z" fill="#276472"/>
<path d="M136.491 74.22H133.946V76.7614H136.491V74.22Z" fill="#276472"/>
<path d="M129.111 74.22H126.566V76.7614H129.111V74.22Z" fill="#276472"/>
<path d="M121.731 74.22H119.186V76.7614H121.731V74.22Z" fill="#276472"/>
<path d="M114.351 74.22H111.806V76.7614H114.351V74.22Z" fill="#276472"/>
<path d="M236.93 63.7155H110.194C109.345 63.7155 108.497 63.292 107.988 62.699C107.564 62.1907 107.31 61.513 107.31 60.8353V46.9423C107.31 46.3493 107.479 45.7563 107.819 45.248C108.328 44.4856 109.176 44.062 110.194 44.062H236.845C237.608 44.062 238.372 44.4009 238.881 44.9091C239.39 45.4174 239.729 46.1798 239.729 46.9423V60.92C239.729 61.9366 239.22 62.7837 238.457 63.292C238.032 63.5461 237.523 63.7155 236.93 63.7155Z" fill="#1D4D59"/>
<path d="M238.541 60.6658C238.117 60.92 237.523 61.0047 236.93 61.0047H110.194C109.345 61.0047 108.497 60.7505 107.988 60.2423C107.564 59.9034 107.31 59.3951 107.31 58.8868V60.7505C107.31 61.4282 107.564 62.106 107.988 62.6142C108.497 63.2072 109.261 63.6308 110.194 63.6308H236.845C237.439 63.6308 238.032 63.4614 238.457 63.1225C239.22 62.6142 239.729 61.7671 239.729 60.7505V58.8868C239.814 59.6493 239.305 60.327 238.541 60.6658Z" fill="#072A38"/>
<path d="M238.966 44.9091C238.457 44.4009 237.693 44.062 236.93 44.062H110.194C109.261 44.062 108.328 44.5703 107.819 45.248C107.479 45.7563 107.31 46.2646 107.31 46.9423V48.806C107.31 48.3824 107.479 47.9588 107.819 47.62C108.328 47.1117 109.176 46.7728 110.194 46.7728H236.845C237.608 46.7728 238.372 47.027 238.881 47.3658C239.39 47.7047 239.729 48.2977 239.729 48.806V46.9423C239.814 46.0951 239.474 45.4174 238.966 44.9091Z" fill="#276472"/>
<path d="M226.92 57.7009C228.888 57.7009 230.483 56.1079 230.483 54.1429C230.483 52.1779 228.888 50.585 226.92 50.585C224.952 50.585 223.357 52.1779 223.357 54.1429C223.357 56.1079 224.952 57.7009 226.92 57.7009Z" fill="#072A38"/>
<path d="M226.92 56.6843C228.325 56.6843 229.465 55.5464 229.465 54.1429C229.465 52.7393 228.325 51.6014 226.92 51.6014C225.514 51.6014 224.375 52.7393 224.375 54.1429C224.375 55.5464 225.514 56.6843 226.92 56.6843Z" fill="#52E813"/>
<path d="M217.588 52.618H215.043V55.1595H217.588V52.618Z" fill="#276472"/>
<path d="M210.208 52.618H207.664V55.1595H210.208V52.618Z" fill="#276472"/>
<path d="M202.828 52.618H200.283V55.1595H202.828V52.618Z" fill="#276472"/>
<path d="M195.448 52.618H192.903V55.1595H195.448V52.618Z" fill="#276472"/>
<path d="M188.068 52.618H185.523V55.1595H188.068V52.618Z" fill="#276472"/>
<path d="M180.772 52.618H178.228V55.1595H180.772V52.618Z" fill="#276472"/>
<path d="M173.392 52.618H170.847V55.1595H173.392V52.618Z" fill="#276472"/>
<path d="M166.012 52.618H163.467V55.1595H166.012V52.618Z" fill="#276472"/>
<path d="M158.632 52.618H156.087V55.1595H158.632V52.618Z" fill="#276472"/>
<path d="M151.251 52.618H148.707V55.1595H151.251V52.618Z" fill="#276472"/>
<path d="M143.872 52.618H141.327V55.1595H143.872V52.618Z" fill="#276472"/>
<path d="M136.491 52.618H133.946V55.1595H136.491V52.618Z" fill="#276472"/>
<path d="M129.111 52.618H126.566V55.1595H129.111V52.618Z" fill="#276472"/>
<path d="M121.731 52.618H119.186V55.1595H121.731V52.618Z" fill="#276472"/>
<path d="M114.351 52.618H111.806V55.1595H114.351V52.618Z" fill="#276472"/>
<path d="M236.93 42.1982H110.194C109.345 42.1982 108.497 41.7746 107.988 41.1816C107.564 40.6734 107.31 39.9957 107.31 39.318V25.3402C107.31 24.7472 107.479 24.1542 107.819 23.6459C108.328 22.8835 109.176 22.46 110.194 22.46H236.845C237.608 22.46 238.372 22.7988 238.881 23.3071C239.39 23.8154 239.729 24.5778 239.729 25.3402V39.318C239.729 40.3345 239.22 41.1816 238.457 41.6899C238.032 42.0288 237.523 42.1982 236.93 42.1982Z" fill="#1D4D59"/>
<path d="M238.541 39.1485C238.117 39.4026 237.523 39.4873 236.93 39.4873H110.194C109.345 39.4873 108.497 39.2332 107.988 38.7249C107.564 38.3861 107.31 37.8778 107.31 37.3695V39.2332C107.31 39.9109 107.564 40.5886 107.988 41.0969C108.497 41.6899 109.261 42.1135 110.194 42.1135H236.845C237.439 42.1135 238.032 41.944 238.457 41.6052C239.22 41.0969 239.729 40.2498 239.729 39.2332V37.3695C239.814 38.1319 239.305 38.7249 238.541 39.1485Z" fill="#072A38"/>
<path d="M238.966 23.3071C238.457 22.7988 237.693 22.46 236.93 22.46H110.194C109.261 22.46 108.328 22.9682 107.819 23.6459C107.479 24.1542 107.31 24.6625 107.31 25.3402V27.2039C107.31 26.7803 107.479 26.3568 107.819 26.0179C108.328 25.5096 109.176 25.1708 110.194 25.1708H236.845C237.608 25.1708 238.372 25.4249 238.881 25.7638C239.39 26.1026 239.729 26.6956 239.729 27.2039V25.3402C239.814 24.5778 239.474 23.9001 238.966 23.3071Z" fill="#276472"/>
<path d="M226.92 36.0989C228.888 36.0989 230.483 34.5059 230.483 32.5409C230.483 30.5759 228.888 28.9829 226.92 28.9829C224.952 28.9829 223.357 30.5759 223.357 32.5409C223.357 34.5059 224.952 36.0989 226.92 36.0989Z" fill="#072A38"/>
<path d="M226.92 35.0823C228.325 35.0823 229.465 33.9445 229.465 32.5409C229.465 31.1373 228.325 29.9995 226.92 29.9995C225.514 29.9995 224.375 31.1373 224.375 32.5409C224.375 33.9445 225.514 35.0823 226.92 35.0823Z" fill="#52E813"/>
<path d="M217.588 31.1007H215.043V33.6421H217.588V31.1007Z" fill="#276472"/>
<path d="M210.208 31.1007H207.664V33.6421H210.208V31.1007Z" fill="#276472"/>
<path d="M202.828 31.1007H200.283V33.6421H202.828V31.1007Z" fill="#276472"/>
<path d="M195.448 31.1007H192.903V33.6421H195.448V31.1007Z" fill="#276472"/>
<path d="M188.068 31.1007H185.523V33.6421H188.068V31.1007Z" fill="#276472"/>
<path d="M180.772 31.1007H178.228V33.6421H180.772V31.1007Z" fill="#276472"/>
<path d="M173.392 31.1007H170.847V33.6421H173.392V31.1007Z" fill="#276472"/>
<path d="M166.012 31.1007H163.467V33.6421H166.012V31.1007Z" fill="#276472"/>
<path d="M158.632 31.1007H156.087V33.6421H158.632V31.1007Z" fill="#276472"/>
<path d="M151.251 31.1007H148.707V33.6421H151.251V31.1007Z" fill="#276472"/>
<path d="M143.872 31.1007H141.327V33.6421H143.872V31.1007Z" fill="#276472"/>
<path d="M136.491 31.1007H133.946V33.6421H136.491V31.1007Z" fill="#276472"/>
<path d="M129.111 31.1007H126.566V33.6421H129.111V31.1007Z" fill="#276472"/>
<path d="M121.731 31.1007H119.186V33.6421H121.731V31.1007Z" fill="#276472"/>
<path d="M114.351 31.1007H111.806V33.6421H114.351V31.1007Z" fill="#276472"/>
<path d="M236.93 20.681H110.194C109.345 20.681 108.497 20.2574 107.988 19.6644C107.564 19.1562 107.31 18.4785 107.31 17.8007V3.82301C107.31 3.23002 107.479 2.63702 107.819 2.12874C108.328 1.36632 109.176 0.942749 110.194 0.942749H236.845C237.608 0.942749 238.372 1.2816 238.881 1.78988C239.39 2.29817 239.729 3.06059 239.729 3.82301V17.8007C239.729 18.8173 239.22 19.6644 238.457 20.1727C238.032 20.4269 237.523 20.681 236.93 20.681Z" fill="#1D4D59"/>
<path d="M238.541 17.5466C238.117 17.8007 237.523 17.8854 236.93 17.8854H110.194C109.345 17.8854 108.497 17.6313 107.988 17.123C107.564 16.7841 107.31 16.2759 107.31 15.7676V17.6313C107.31 18.309 107.564 18.9867 107.988 19.495C108.497 20.088 109.261 20.5115 110.194 20.5115H236.845C237.439 20.5115 238.032 20.3421 238.457 20.0033C239.22 19.495 239.729 18.6478 239.729 17.6313V15.7676C239.814 16.6147 239.305 17.2077 238.541 17.5466Z" fill="#072A38"/>
<path d="M238.966 1.78988C238.457 1.2816 237.693 0.942749 236.93 0.942749H110.194C109.261 0.942749 108.328 1.45103 107.819 2.12874C107.479 2.63702 107.31 3.1453 107.31 3.82301V5.68671C107.31 5.26314 107.479 4.83957 107.819 4.50072C108.328 3.99244 109.176 3.65358 110.194 3.65358H236.845C237.608 3.65358 238.372 3.90772 238.881 4.24658C239.39 4.58543 239.729 5.17843 239.729 5.68671V3.82301C239.814 3.06059 239.474 2.29817 238.966 1.78988Z" fill="#276472"/>
<path d="M226.92 14.5816C228.888 14.5816 230.483 12.9887 230.483 11.0237C230.483 9.05866 228.888 7.4657 226.92 7.4657C224.952 7.4657 223.357 9.05866 223.357 11.0237C223.357 12.9887 224.952 14.5816 226.92 14.5816Z" fill="#072A38"/>
<path d="M226.92 13.5651C228.325 13.5651 229.465 12.4273 229.465 11.0237C229.465 9.62013 228.325 8.4823 226.92 8.4823C225.514 8.4823 224.375 9.62013 224.375 11.0237C224.375 12.4273 225.514 13.5651 226.92 13.5651Z" fill="#52E813"/>
<path d="M217.588 9.49878H215.043V12.0402H217.588V9.49878Z" fill="#276472"/>
<path d="M210.208 9.49878H207.664V12.0402H210.208V9.49878Z" fill="#276472"/>
<path d="M202.828 9.49878H200.283V12.0402H202.828V9.49878Z" fill="#276472"/>
<path d="M195.448 9.49878H192.903V12.0402H195.448V9.49878Z" fill="#276472"/>
<path d="M188.068 9.49878H185.523V12.0402H188.068V9.49878Z" fill="#276472"/>
<path d="M180.772 9.49878H178.228V12.0402H180.772V9.49878Z" fill="#276472"/>
<path d="M173.392 9.49878H170.847V12.0402H173.392V9.49878Z" fill="#276472"/>
<path d="M166.012 9.49878H163.467V12.0402H166.012V9.49878Z" fill="#276472"/>
<path d="M158.632 9.49878H156.087V12.0402H158.632V9.49878Z" fill="#276472"/>
<path d="M151.251 9.49878H148.707V12.0402H151.251V9.49878Z" fill="#276472"/>
<path d="M143.872 9.49878H141.327V12.0402H143.872V9.49878Z" fill="#276472"/>
<path d="M136.491 9.49878H133.946V12.0402H136.491V9.49878Z" fill="#276472"/>
<path d="M129.111 9.49878H126.566V12.0402H129.111V9.49878Z" fill="#276472"/>
<path d="M121.731 9.49878H119.186V12.0402H121.731V9.49878Z" fill="#276472"/>
<path d="M114.351 9.49878H111.806V12.0402H114.351V9.49878Z" fill="#276472"/>
<path d="M204.1 95.7372H202.488C201.81 90.4003 197.229 86.1646 191.715 86.1646C191.461 86.1646 191.121 86.1646 190.867 86.2493C186.795 77.8627 178.227 72.1022 168.302 72.1022C154.899 72.1022 144.041 82.6067 143.277 95.7372H141.496C134.964 95.7372 129.62 101.074 129.62 107.597C129.62 114.12 134.964 119.457 141.496 119.457H204.1C210.632 119.457 215.976 114.12 215.976 107.597C215.976 101.074 210.632 95.7372 204.1 95.7372Z" fill="#DEF2FF"/>
<path d="M190.273 110.393C171.101 110.393 154.984 97.008 150.912 79.0487C146.501 83.2844 143.617 89.2143 143.277 95.7373H141.496C134.964 95.7373 129.62 101.074 129.62 107.597C129.62 114.12 134.964 119.457 141.496 119.457H204.1C210.632 119.457 215.976 114.12 215.976 107.597C215.976 105.649 215.467 103.87 214.704 102.26C207.918 107.343 199.435 110.393 190.273 110.393Z" fill="#AEDBF4"/>
<path d="M173.562 177.74C182.276 177.74 189.34 170.685 189.34 161.983C189.34 153.281 182.276 146.226 173.562 146.226C164.848 146.226 157.784 153.281 157.784 161.983C157.784 170.685 164.848 177.74 173.562 177.74Z" fill="#1D4D59"/>
<path d="M173.562 174.944C180.73 174.944 186.541 169.141 186.541 161.983C186.541 154.825 180.73 149.022 173.562 149.022C166.394 149.022 160.583 154.825 160.583 161.983C160.583 169.141 166.394 174.944 173.562 174.944Z" fill="#072A38"/>
<path d="M174.156 164.694L178.737 156.562L183.233 164.694H180.942V169.014H176.446V164.694H174.156Z" fill="#F47A14"/>
<path d="M172.629 160.882L168.133 169.014L163.637 160.882H165.927V156.562H170.338V160.882H172.629Z" fill="#52E813"/>
<path d="M344.579 281.345H245.837C245.328 281.345 244.819 281.175 244.395 280.921C243.716 280.498 243.292 279.735 243.292 278.803V218.064C243.292 217.386 243.547 216.708 244.055 216.285C244.48 215.861 245.158 215.522 245.837 215.522H344.579C344.918 215.522 345.257 215.607 345.597 215.692C346.53 216.115 347.124 216.962 347.124 218.064V278.803C347.124 279.481 346.869 280.074 346.445 280.498C345.936 281.006 345.257 281.345 344.579 281.345Z" fill="#1D4D59"/>
<path d="M323.456 257.964C290.627 257.964 261.446 250.678 243.292 239.496V278.803C243.292 279.65 243.716 280.413 244.395 280.921C244.819 281.175 245.328 281.345 245.837 281.345H344.579C345.342 281.345 346.021 281.006 346.445 280.498C346.869 280.074 347.124 279.481 347.124 278.803V256.608C339.489 257.455 331.6 257.964 323.456 257.964Z" fill="#072A38"/>
<path d="M343.73 218.995H246.685V277.871H343.73V218.995Z" fill="#6AD34C"/>
<path d="M323.456 257.964C292.578 257.964 265.008 251.525 246.685 241.445V277.871H343.73V257.032C337.199 257.625 330.412 257.964 323.456 257.964Z" fill="#51B730"/>
<path d="M359 285.665H231.331C231.331 286.766 231.755 287.783 232.519 288.545C233.282 289.308 234.3 289.731 235.403 289.731H355.013C355.946 289.731 356.794 289.392 357.473 288.884C358.406 288.122 359 286.936 359 285.665Z" fill="#072A38"/>
<path d="M231.331 285.665L245.837 281.345H343.731L359 285.665H231.331Z" fill="#1D4D59"/>
<path d="M346.615 284.394L340.677 282.615H248.891L243.292 284.394H346.615Z" fill="#072A38"/>
<path d="M308.441 236.616H281.89V259.573H308.441V236.616Z" fill="white"/>
<path d="M306.914 238.141H283.417V258.133H306.914V238.141Z" fill="#EFE40F"/>
<path d="M306.914 252.288L303.861 249.408L299.704 251.949L295.208 247.713L292.833 249.323L291.051 247.713L283.417 252.627V258.133H306.914V252.288Z" fill="#EDC211"/>
<path d="M300.043 245.85C301.542 245.85 302.758 244.636 302.758 243.139C302.758 241.642 301.542 240.428 300.043 240.428C298.544 240.428 297.329 241.642 297.329 243.139C297.329 244.636 298.544 245.85 300.043 245.85Z" fill="white"/>
<path d="M199.52 296H147.604C146.925 296 146.247 295.746 145.823 295.238C145.398 294.814 145.059 294.136 145.059 293.459V205.357C145.059 204.34 145.653 203.493 146.501 203.069C146.841 202.9 147.265 202.815 147.604 202.815H199.52C200.198 202.815 200.877 203.069 201.301 203.578C201.725 204.001 202.065 204.679 202.065 205.357V293.459C202.065 294.136 201.81 294.729 201.386 295.238C200.877 295.746 200.283 296 199.52 296Z" fill="#1D4D59"/>
<path d="M194.175 265.842C173.901 265.842 156.002 257.286 144.974 244.24V293.459C144.974 294.136 145.229 294.814 145.738 295.238C146.162 295.661 146.84 296 147.519 296H199.435C200.198 296 200.792 295.661 201.301 295.238C201.725 294.814 201.98 294.136 201.98 293.459V265.334C199.52 265.673 196.89 265.842 194.175 265.842Z" fill="#072A38"/>
<path d="M198.671 209.677H148.452V287.613H198.671V209.677Z" fill="#EFE40F"/>
<path d="M194.175 265.842C175.937 265.842 159.48 258.896 148.367 247.968V287.698H198.586V265.673C197.229 265.757 195.702 265.842 194.175 265.842Z" fill="#EDC811"/>
<path d="M174.41 293.459C175.3 293.459 176.022 292.738 176.022 291.849C176.022 290.96 175.3 290.24 174.41 290.24C173.52 290.24 172.798 290.96 172.798 291.849C172.798 292.738 173.52 293.459 174.41 293.459Z" fill="#1D4D59"/>
<path d="M182.554 236.616H164.57V259.573H182.554V236.616Z" fill="white"/>
<path d="M181.027 238.141H166.097V258.133H181.027V238.141Z" fill="#1DBDEF"/>
<path d="M181.027 248.137H166.097V258.133H181.027V248.137Z" fill="#0E96DB"/>
<path d="M178.397 242.715H172.968L174.071 249.238C173.562 249.069 173.053 249.069 172.459 249.069C170.423 249.069 168.727 250.085 168.727 251.271C168.727 252.457 170.423 253.474 172.459 253.474C174.495 253.474 176.192 252.457 176.192 251.271C176.192 251.187 176.192 251.187 176.192 251.102L174.919 244.24H176.785C177.719 244.24 178.397 243.562 178.397 242.715Z" fill="white"/>
<path d="M59.7203 268.214H56.2423H47.5897H44.1116L38.937 289.731H47.5897H56.2423H64.8101L59.7203 268.214Z" fill="#1D4D59"/>
<path d="M47.5897 268.214H44.1116L38.937 289.731H43.2633H47.5897H51.916L49.3711 268.214H47.5897Z" fill="#123B44"/>
<path d="M101.287 281.345H2.5449C2.03592 281.345 1.52694 281.175 1.10279 280.921C0.424149 280.413 0 279.65 0 278.803V218.064C0 217.386 0.25449 216.708 0.763469 216.285C1.18762 215.861 1.86626 215.522 2.5449 215.522H101.287C101.626 215.522 101.965 215.607 102.305 215.692C103.238 216.115 103.832 216.962 103.832 218.064V278.803C103.832 279.481 103.577 280.074 103.153 280.497C102.644 281.006 102.05 281.345 101.287 281.345Z" fill="#1D4D59"/>
<path d="M80.1642 257.964C47.3351 257.964 18.1536 250.678 0 239.496V278.803C0 279.65 0.424149 280.413 1.10279 280.921C1.52694 281.175 2.03592 281.345 2.5449 281.345H101.287C102.05 281.345 102.729 281.006 103.153 280.498C103.577 280.074 103.832 279.481 103.832 278.803V256.608C96.1971 257.455 88.3079 257.964 80.1642 257.964Z" fill="#072A38"/>
<path d="M100.438 218.995H3.39307V277.871H100.438V218.995Z" fill="#1DBDEF"/>
<path d="M80.1641 257.964C49.286 257.964 21.7163 251.525 3.39307 241.445V277.871H100.438V257.032C93.9065 257.625 87.1201 257.964 80.1641 257.964Z" fill="#0E96DB"/>
<path d="M60.9078 236.616H42.9238V259.573H60.9078V236.616Z" fill="white"/>
<path d="M59.3807 238.141H44.4507V258.133H59.3807V238.141Z" fill="#6AD34C"/>
<path d="M59.3807 247.713H44.4507V258.133H59.3807V247.713Z" fill="#51B730"/>
<path d="M57.26 241.529H46.6562V242.969H57.26V241.529Z" fill="white"/>
<path d="M57.26 246.951H46.6562V248.391H57.26V246.951Z" fill="white"/>
<path d="M57.26 252.457H46.6562V253.897H57.26V252.457Z" fill="white"/>
</svg>
