<svg width="126" height="126" viewBox="0 0 126 126" fill="none" xmlns="http://www.w3.org/2000/svg">
<path fill-rule="evenodd" clip-rule="evenodd" d="M0 63C0 97.9239 28.0761 126 63 126C97.9239 126 126 97.9239 126 63C126 28.0761 97.9239 0 63 0C28.0761 0 0 28.0761 0 63ZM63 118.379C93.585 118.379 118.379 93.585 118.379 63C118.379 32.415 93.585 7.62097 63 7.62097C32.415 7.62097 7.62097 32.415 7.62097 63C7.62097 93.585 32.415 118.379 63 118.379Z" fill="#2563EB"/>
<path fill-rule="evenodd" clip-rule="evenodd" d="M20 63C20 86.837 39.163 106 63 106C86.837 106 106 86.837 106 63C106 39.163 86.837 20 63 20C39.163 20 20 39.163 20 63ZM63 100.798C83.8755 100.798 100.798 83.8755 100.798 63C100.798 42.1245 83.8755 25.2016 63 25.2016C42.1245 25.2016 25.2016 42.1245 25.2016 63C25.2016 83.8755 42.1245 100.798 63 100.798Z" fill="#2563EB"/>
</svg>
