<svg width="84" height="68" viewBox="0 0 84 68" fill="none" xmlns="http://www.w3.org/2000/svg">
<path d="M10 7.5H74C75.933 7.5 77.5 9.067 77.5 11V58C77.5 59.933 75.933 61.5 74 61.5H10C8.067 61.5 6.5 59.933 6.5 58V11C6.5 9.067 8.067 7.5 10 7.5Z" fill="white" stroke="black"/>
<path fill-rule="evenodd" clip-rule="evenodd" d="M52 35.519C52 40.735 48.3607 45.0493 43.6021 45.8545L43.4503 45.8781C43.2003 45.9161 42.9484 45.9456 42.6928 45.964L42.0009 46L41.6728 45.983L41.371 45.981L41.1585 45.9554C40.9985 45.941 40.8403 45.9201 40.6822 45.8984C40.4685 45.8703 40.2554 45.8388 40.0472 45.7969L39.8404 45.7484C38.8354 45.5217 37.8929 45.1404 37.0161 44.5959C35.7961 43.8582 34.7424 42.8591 33.9174 41.6712L33.8624 41.6024L33.8281 41.5461C32.6806 39.84 32.0006 37.7637 32.0006 35.5177L32.1837 35.7372L32.2006 35.4476C32.2719 34.8147 32.4125 34.2179 32.6244 33.6551L32.0406 34.1582C32.0194 34.0797 32.0175 33.9919 32.0156 33.9049L32 33.9309L32.0087 33.832L32.0075 33.8195L32.01 33.8149C32.0369 33.4382 32.1287 33.0058 32.4019 32.4908C32.5919 32.1265 32.7425 31.8553 32.8518 31.6757L32.8618 31.6541L32.8662 31.6495L32.8768 31.6391L32.93 31.6011L33.1362 31.2741C33.1131 29.3472 33.4618 28.0126 34.1818 27.2651C34.3656 28.5446 34.7468 29.3276 35.3124 29.6001L35.3092 29.6035C36.2073 29.241 36.9875 29.1876 37.6461 29.4409C38.441 28.6331 39.3354 28.1659 40.3241 28.0369C39.7923 28.4142 39.4304 28.7674 39.2416 29.0963L39.1992 29.1363C39.011 29.4704 38.8792 29.8596 38.7992 30.3123L38.7523 30.347L38.7854 30.3831L38.7804 30.4073H38.7854V30.3883L38.9592 30.5318L39.5385 31.1293C39.7648 31.3586 39.9485 31.4943 40.0941 31.5388L40.0991 31.5237C40.4516 31.5978 40.8053 31.6233 41.1585 31.603C41.3272 31.7131 41.3603 31.8376 41.2616 31.9922L41.2428 32.0112L41.2378 32.0164L41.2241 32.0269C41.1916 32.2215 41.0928 32.3657 40.9235 32.4607C40.5416 32.6893 40.0947 33.0477 39.591 33.5404V33.5509C39.9154 34.1333 40.0335 34.7014 39.9435 35.2439C39.4073 35.0801 38.9317 34.9805 38.5173 34.9405L38.3604 34.9268L38.516 34.9405C38.1492 35.0008 37.9567 35.2694 37.9386 35.7569V35.7621C37.8679 36.3197 37.9473 37.0378 38.1873 37.9196L38.1923 37.9301L38.1873 37.9183C37.9479 37.0364 37.8679 36.3203 37.9386 35.7621L38.0886 35.9947C38.466 36.4874 38.8567 36.8818 39.261 37.1747C39.8785 37.5927 40.5129 37.6084 41.1722 37.2153C41.8647 36.7521 42.5284 36.6971 43.164 37.045C43.4553 37.2199 43.6821 37.4184 43.8321 37.6373C43.9359 37.9314 43.8271 38.1057 43.5171 38.1503C43.3659 38.0762 43.2109 38.071 43.0459 38.1365L43.0509 38.1404L41.7803 39.0131C41.0047 39.4279 40.1235 39.6035 39.1585 39.5189C39.7766 40.178 40.471 40.6426 41.2385 40.9145C41.7609 41.0953 42.3166 41.1883 42.9047 41.1936C44.3927 41.1346 45.7202 40.1787 46.887 38.3298C46.9295 38.774 46.8545 39.3368 46.6658 40.0241C47.6589 38.8978 48.022 37.1701 47.7526 34.8337C47.9458 34.9936 48.1626 35.447 48.3982 36.2031C48.7414 35.0676 48.6995 33.6282 48.2751 31.8854C48.6195 31.9955 48.8882 32.2143 49.0901 32.5484C49.1563 31.28 48.2876 30.2966 47.3514 29.6073C47.3208 29.5857 47.2907 29.5639 47.2605 29.5422C47.175 29.4806 47.0894 29.4189 46.9933 29.3584L46.9495 29.3302C46.4427 29.017 45.8471 28.7169 45.1602 28.43C45.7239 28.1437 46.4695 28.3304 46.4695 28.3304C45.7402 27.1727 44.1909 27.001 44.1909 27.001C48.5964 26.9421 50.3844 29.4573 51.1107 31.5002C51.0982 31.318 51.0732 31.1169 51.0307 30.8758C51.2044 31.4019 51.33 31.9712 51.4156 32.5766C51.5963 33.4067 51.6069 34.0016 51.6075 34.0462C51.6844 33.908 51.7606 33.5633 51.8306 32.9927C52.0262 33.7632 52.0512 34.6463 51.9088 35.6376L52 35.519ZM35.2529 29.6473L35.1899 29.6958L35.198 29.6912L35.2529 29.6473ZM49.9213 33.1702L49.9257 33.0844L49.9244 33.0837L49.9213 33.1702Z" fill="black"/>
<path d="M10 7.5H74C75.933 7.5 77.5 9.067 77.5 11V15.5H6.5V11C6.5 9.067 8.067 7.5 10 7.5Z" fill="white" stroke="black"/>
<path fill-rule="evenodd" clip-rule="evenodd" d="M11.5 13C12.3284 13 13 12.3284 13 11.5C13 10.6716 12.3284 10 11.5 10C10.6716 10 10 10.6716 10 11.5C10 12.3284 10.6716 13 11.5 13Z" fill="black"/>
<path fill-rule="evenodd" clip-rule="evenodd" d="M15.5 13C16.3284 13 17 12.3284 17 11.5C17 10.6716 16.3284 10 15.5 10C14.6716 10 14 10.6716 14 11.5C14 12.3284 14.6716 13 15.5 13Z" fill="black"/>
<path fill-rule="evenodd" clip-rule="evenodd" d="M19.5 13C20.3284 13 21 12.3284 21 11.5C21 10.6716 20.3284 10 19.5 10C18.6716 10 18 10.6716 18 11.5C18 12.3284 18.6716 13 19.5 13Z" fill="black"/>
</svg>
