<svg width="56" height="57" viewBox="0 0 56 57" fill="none" xmlns="http://www.w3.org/2000/svg">
<g filter="url(#filter0_d_767_1302)">
<circle cx="33" cy="20" r="20" fill="url(#paint0_linear_767_1302)"/>
</g>
<path fill-rule="evenodd" clip-rule="evenodd" d="M28.0446 22.0284L27.4093 24.3999L25.0875 24.449C24.3936 23.162 24 21.6895 24 20.1247C24 18.6116 24.368 17.1847 25.0203 15.9282H25.0208L27.0879 16.3072L27.9934 18.3619C27.8039 18.9144 27.7006 19.5075 27.7006 20.1247C27.7007 20.7946 27.822 21.4363 28.0446 22.0284Z" fill="white"/>
<path fill-rule="evenodd" clip-rule="evenodd" d="M42.0906 18.4204C42.1954 18.9724 42.2501 19.5425 42.2501 20.1251C42.2501 20.7784 42.1814 21.4156 42.0505 22.0303C41.6063 24.122 40.4456 25.9485 38.8378 27.2411L38.8373 27.2406L36.2336 27.1077L35.8651 24.8074C36.9321 24.1817 37.7659 23.2025 38.2051 22.0303H33.3257V18.4204H38.2762H42.0906Z" fill="white"/>
<path fill-rule="evenodd" clip-rule="evenodd" d="M38.8371 27.2406L38.8376 27.2411C37.2738 28.498 35.2873 29.2501 33.1249 29.2501C29.6499 29.2501 26.6286 27.3078 25.0874 24.4494L28.0445 22.0288C28.8151 24.0854 30.799 25.5495 33.1249 25.5495C34.1246 25.5495 35.0612 25.2792 35.8649 24.8074L38.8371 27.2406Z" fill="white"/>
<path fill-rule="evenodd" clip-rule="evenodd" d="M38.9497 13.1007L35.9936 15.5209C35.1618 15.001 34.1786 14.7006 33.1252 14.7006C30.7467 14.7006 28.7257 16.2318 27.9937 18.3622L25.021 15.9285H25.0205C26.5392 13.0005 29.5985 11 33.1252 11C35.3393 11 37.3693 11.7887 38.9497 13.1007Z" fill="white"/>
<defs>
<filter id="filter0_d_767_1302" x="0" y="0" width="56" height="57" filterUnits="userSpaceOnUse" color-interpolation-filters="sRGB">
<feFlood flood-opacity="0" result="BackgroundImageFix"/>
<feColorMatrix in="SourceAlpha" type="matrix" values="0 0 0 0 0 0 0 0 0 0 0 0 0 0 0 0 0 0 127 0" result="hardAlpha"/>
<feOffset dx="-5" dy="9"/>
<feGaussianBlur stdDeviation="4"/>
<feColorMatrix type="matrix" values="0 0 0 0 0 0 0 0 0 0 0 0 0 0 0 0 0 0 0.188235 0"/>
<feBlend mode="normal" in2="BackgroundImageFix" result="effect1_dropShadow_767_1302"/>
<feBlend mode="normal" in="SourceGraphic" in2="effect1_dropShadow_767_1302" result="shape"/>
</filter>
<linearGradient id="paint0_linear_767_1302" x1="-13.4198" y1="18.8835" x2="24.3473" y2="71.7231" gradientUnits="userSpaceOnUse">
<stop stop-color="#FFB6B6"/>
<stop offset="1" stop-color="#F62B19"/>
</linearGradient>
</defs>
</svg>
