<svg width="228" height="210" viewBox="0 0 228 210" fill="none" xmlns="http://www.w3.org/2000/svg">
<rect y="37.1413" width="198.79" height="175" rx="15" transform="rotate(-10.7683 0 37.1413)" fill="url(#paint0_linear_694_1182)"/>
<mask id="mask0_694_1182" style="mask-type:alpha" maskUnits="userSpaceOnUse" x="2" y="2" width="224" height="205">
<rect y="37.1413" width="198.79" height="175" rx="15" transform="rotate(-10.7683 0 37.1413)" fill="url(#paint1_linear_694_1182)"/>
</mask>
<g mask="url(#mask0_694_1182)">
<ellipse cx="161" cy="-11.5" rx="95" ry="94.5" fill="#EEA502"/>
<path d="M186 141C199.358 131.571 218 114 218 114L231 185.5L33.5 222L20 205C20 205 35.0942 192.491 45.5 185.5C93.2736 153.402 138.979 174.19 186 141Z" fill="#AF131C"/>
</g>
<path d="M110 181.378L94 182.878L91.3742 164.497C91.1865 163.184 89.7583 162.347 88.4439 162.53C85.4339 162.951 81.2728 162.734 77.8775 162.381C75.3086 162.114 72.8141 161.25 70.7969 159.637C63.2923 153.636 58.9633 144.529 56.7616 137.173C55.2057 131.974 56.4765 124.999 61.8292 124.107C70.1674 122.718 75.296 139.072 78.5 143.878C80.8403 147.388 83.4124 147.904 85.473 147.536C86.7323 147.311 87.4149 146.011 87.2779 144.739C84.2622 116.751 79.5971 114.111 83.5 103.378C85.4886 97.9095 89.0686 98.3664 92.3388 100.432C97.7768 103.867 98.9636 110.936 98.7407 117.364C98.4837 124.775 98.935 133.85 102.5 135.378C104.473 136.223 107.027 133.469 108.643 130.069C110.88 125.36 110.138 119.278 113.54 115.326C116.892 111.432 121.463 110.873 123.5 120.378C126.874 136.122 117.92 144.709 110.038 148.374C107.791 149.42 106.231 151.7 106.544 154.159L110 181.378Z" fill="white"/>
<path d="M112 181.378L96 182.878L93.3742 164.497C93.1865 163.184 91.7583 162.347 90.4439 162.53C87.4339 162.951 83.2728 162.734 79.8775 162.381C77.3086 162.114 74.8141 161.25 72.7969 159.637C65.2923 153.636 60.9633 144.529 58.7616 137.173C57.2057 131.974 58.4765 124.999 63.8292 124.107C72.1674 122.718 77.296 139.072 80.5 143.878C82.8403 147.388 85.4124 147.904 87.473 147.536C88.7323 147.311 89.4149 146.011 89.2779 144.739C86.2622 116.751 81.5971 114.111 85.5 103.378C87.4886 97.9095 91.0686 98.3664 94.3388 100.432C99.7768 103.867 100.964 110.936 100.741 117.364C100.484 124.775 100.935 133.85 104.5 135.378C106.473 136.223 109.027 133.469 110.643 130.069C112.88 125.36 112.138 119.278 115.54 115.326C118.892 111.432 123.463 110.873 125.5 120.378C128.874 136.122 119.92 144.709 112.038 148.374C109.791 149.42 108.231 151.7 108.544 154.159L112 181.378Z" fill="#F03410"/>
<path d="M142.688 165.241L135.043 165.568L134.373 158.069C134.255 156.743 132.84 155.74 131.509 155.705C131.003 155.691 130.473 155.655 129.943 155.604C127.355 155.355 124.835 154.343 123.141 152.371C121.704 150.699 120.62 148.775 119.819 146.864C117.734 141.893 121.613 134.336 124.798 138.684C126.575 141.11 127.737 144.949 128.639 146.481C129.307 147.614 130.052 148.141 130.764 148.336C131.993 148.673 132.807 147.28 132.726 146.008C131.934 133.531 129.957 132.089 132.02 127.178C132.053 127.098 132.087 127.022 132.121 126.948C134.818 121.159 138.292 133.026 138.83 139.39C138.979 141.148 139.389 142.561 140.261 142.993C140.298 143.011 140.336 143.027 140.374 143.04C145.276 144.685 146.215 129.195 149.489 133.197C149.976 133.793 150.376 134.795 150.617 136.313C151.623 142.64 148.727 146.401 145.521 148.394C143.421 149.7 141.701 151.857 141.883 154.323L142.688 165.241Z" fill="#AF131C"/>
<circle cx="55" cy="178" r="16" fill="white"/>
<circle cx="58" cy="175" r="6" fill="#EEA502"/>
<path d="M57.2974 188.313L53.586 188.638L52.992 184.485C52.9495 184.188 52.619 183.997 52.3141 184.038C51.6158 184.13 50.6511 184.078 49.864 183.995C49.2686 183.933 48.6908 183.736 48.2244 183.37C46.489 182.008 45.4926 179.947 44.988 178.284C44.6314 177.108 44.9317 175.534 46.1736 175.337C48.1082 175.03 49.2843 178.728 50.0233 179.816C50.5632 180.611 51.1592 180.73 51.6373 180.648C51.9295 180.599 52.0888 180.305 52.0581 180.018C51.3814 173.694 50.3018 173.094 51.2155 170.672C51.681 169.439 52.5108 169.545 53.2674 170.014C54.5257 170.795 54.7951 172.393 54.7383 173.844C54.6727 175.518 54.77 177.568 55.5954 177.916C56.0521 178.109 56.6467 177.489 57.0241 176.722C57.5468 175.66 57.3797 174.286 58.1716 173.396C58.9519 172.519 60.0125 172.397 60.4771 174.546C61.2467 178.105 59.1634 180.037 57.333 180.858C56.8108 181.092 56.4475 181.606 56.5179 182.162L57.2974 188.313Z" fill="#F03410"/>
<defs>
<linearGradient id="paint0_linear_694_1182" x1="191.379" y1="61.18" x2="-57.6727" y2="126.295" gradientUnits="userSpaceOnUse">
<stop stop-color="#F1340E"/>
<stop offset="1" stop-color="#EF9503"/>
</linearGradient>
<linearGradient id="paint1_linear_694_1182" x1="191.379" y1="61.18" x2="-57.6727" y2="126.295" gradientUnits="userSpaceOnUse">
<stop stop-color="#F1340E"/>
<stop offset="1" stop-color="#EF9503"/>
</linearGradient>
</defs>
</svg>
