<svg width="277" height="188" viewBox="0 0 277 188" fill="none" xmlns="http://www.w3.org/2000/svg">
<rect x="32.8301" width="252.186" height="126.846" rx="12" transform="rotate(15 32.8301 0)" fill="#201F36"/>
<mask id="mask0_694_717" style="mask-type:alpha" maskUnits="userSpaceOnUse" x="2" y="2" width="272" height="184">
<rect x="32.8301" width="252.186" height="126.846" rx="12" transform="rotate(15 32.8301 0)" fill="#201F36"/>
</mask>
<g mask="url(#mask0_694_717)">
<path d="M136.099 70.0717L135.557 70.4341L138.608 71.2833L139.031 68.1596L138.3 68.6302C136.279 66.3116 132.807 65.7302 130.176 67.4691C128.865 68.3237 128.017 69.5881 127.615 70.9718L130.109 71.6402C130.353 70.8487 130.834 70.1208 131.603 69.6286C132.997 68.701 134.88 68.9199 136.099 70.0717Z" fill="#F6F8FC"/>
<path d="M136.82 77.5958C138.131 76.7412 138.98 75.4768 139.382 74.0931L136.888 73.4247C136.644 74.2162 136.162 74.9441 135.394 75.4364C133.932 76.3776 132.049 76.1587 130.83 75.0069L131.373 74.6445L128.322 73.7953L127.899 76.919L128.629 76.4484C130.709 78.7829 134.16 79.3267 136.82 77.5958Z" fill="#F6F8FC"/>
<path d="M136.013 102.887C135.614 101.288 134.921 99.8331 134.009 98.6049L134.409 98.2995L135.202 97.7184C134.151 96.2944 132.821 95.0812 131.336 94.2073L130.585 95.4659C129.211 94.6535 127.707 94.0917 126.115 93.8556L126.347 92.3945C124.666 92.1346 122.869 92.1923 121.094 92.6372L121.444 94.0639C119.842 94.4597 118.384 95.1482 117.154 96.0563L116.264 94.8656C114.838 95.9116 113.653 97.2444 112.75 98.7161L114.013 99.467C113.2 100.836 112.639 102.336 112.405 103.924L110.94 103.69C110.681 105.366 110.742 107.159 111.19 108.93L112.62 108.583C113.019 110.182 113.712 111.636 114.624 112.865L113.786 113.497L113.432 113.751C114.482 115.175 115.82 116.359 117.297 117.262L118.048 116.004C119.422 116.816 120.926 117.378 122.518 117.614L122.286 119.075C123.967 119.335 125.765 119.277 127.501 118.854L127.151 117.427C128.753 117.032 130.211 116.343 131.449 115.405L132.128 116.317L132.31 116.588C133.736 115.542 134.921 114.209 135.824 112.738L134.561 111.987C135.374 110.618 135.935 109.118 136.169 107.53L137.634 107.764C137.892 106.088 137.824 104.324 137.375 102.553L136.013 102.887ZM125.881 112.073C122.37 112.941 118.811 110.781 117.965 107.286C117.089 103.782 119.249 100.236 122.752 99.3969C126.263 98.5288 129.822 100.688 130.668 104.184C131.544 107.687 129.384 111.234 125.881 112.073Z" fill="#2563EB"/>
<path d="M125.561 79.6483C125.176 79.0689 124.728 78.5999 124.19 78.2335L124.297 78.0718L124.511 77.7483C123.891 77.3284 123.21 77.019 122.49 76.8576L122.361 77.4578C121.699 77.3123 121.036 77.2933 120.363 77.4302L120.238 76.8256C119.535 76.9546 118.83 77.21 118.183 77.6077L118.517 78.1416C117.937 78.5256 117.467 78.9711 117.101 79.5076L116.63 79.1275C116.21 79.7449 115.9 80.4237 115.74 81.1423L116.342 81.2718C116.197 81.9312 116.179 82.5928 116.317 83.2645L115.711 83.3878C115.841 84.0892 116.098 84.7928 116.498 85.4394L117.033 85.1066C117.419 85.686 117.866 86.155 118.404 86.5214L118.153 86.8665L118.054 86.9987C118.673 87.4186 119.354 87.728 120.075 87.8893L120.204 87.2892C120.865 87.4346 121.528 87.4537 122.202 87.3167L122.326 87.9213C123.029 87.7923 123.734 87.5369 124.352 87.1313L124.018 86.5974C124.598 86.2134 125.067 85.7679 125.464 85.2394L125.869 85.5068L125.98 85.5682C126.4 84.9508 126.71 84.272 126.862 83.583L126.26 83.4535C126.405 82.7941 126.423 82.1325 126.285 81.4608L126.891 81.3375C126.761 80.6361 126.504 79.9325 126.096 79.3155L125.561 79.6483ZM122.781 84.6792C121.515 85.4826 119.799 85.1179 118.992 83.8543C118.184 82.5907 118.548 80.8791 119.843 80.0836C121.108 79.2803 122.825 79.645 123.632 80.9086C124.41 82.1642 124.047 83.8759 122.781 84.6792Z" stroke="#2563EB" stroke-width="0.8724" stroke-miterlimit="10" stroke-linejoin="round"/>
<path d="M248.297 189.273L125.59 156.393C112.286 152.829 104.321 139.079 107.875 125.814C111.43 112.549 125.202 104.624 138.507 108.189L261.213 141.068C274.517 144.632 282.482 158.382 278.928 171.647C275.381 184.883 261.571 192.829 248.297 189.273Z" fill="#F6F8FC"/>
<path d="M213.569 158.99C234.448 164.585 255.895 152.244 261.473 131.426C267.051 110.609 254.648 89.1977 233.769 83.6033C212.891 78.0089 191.443 90.3497 185.865 111.167C180.287 131.985 192.691 153.396 213.569 158.99Z" fill="#F6F8FC"/>
<path d="M164.635 134.929C178.707 138.7 193.162 130.382 196.922 116.351C200.681 102.32 192.321 87.8891 178.249 84.1185C164.177 80.3479 149.722 88.6655 145.962 102.697C142.203 116.727 150.563 131.158 164.635 134.929Z" fill="#F6F8FC"/>
<path d="M171.637 59.973L163.53 57.8007L146.877 119.952L154.984 122.124L171.637 59.973Z" fill="#1B57B3"/>
<path d="M163.552 57.8384L140.953 51.783L124.3 113.934L146.899 119.99L163.552 57.8384Z" fill="#408BFF"/>
<path d="M159.634 66.4043L140.093 61.1685L126.899 110.41L146.439 115.646L159.634 66.4043Z" fill="#265399"/>
<path d="M133.767 81.6886C133.589 81.6408 133.48 81.453 133.528 81.2753L134.996 75.7975C135.043 75.6199 135.231 75.5116 135.41 75.5593C135.588 75.6071 135.697 75.7949 135.649 75.9726L134.181 81.4504C134.163 81.636 133.975 81.7443 133.767 81.6886Z" fill="#265399"/>
<path d="M159.863 71.6069L159.15 71.416L158.111 75.2949L158.824 75.4858L159.863 71.6069Z" fill="#265399"/>
<path d="M150.707 105.777L149.995 105.586L148.955 109.465L149.668 109.656L150.707 105.777Z" fill="#265399"/>
<path d="M157.096 73.9756L138.803 69.074L137.2 75.0552L155.493 79.9568L157.096 73.9756Z" fill="#408BFF"/>
<path d="M155.223 80.9635L136.93 76.0619L135.328 82.0431L153.621 86.9447L155.223 80.9635Z" fill="#408BFF"/>
<path d="M153.359 87.9218L135.066 83.0202L133.463 89.0014L151.756 93.903L153.359 87.9218Z" fill="#408BFF"/>
<path d="M151.486 94.9097L133.193 90.0081L131.591 95.9893L149.884 100.891L151.486 94.9097Z" fill="#408BFF"/>
<path d="M149.622 101.868L131.329 96.9666L129.726 102.948L148.019 107.849L149.622 101.868Z" fill="#408BFF"/>
<path d="M147.757 108.826L129.464 103.925L127.862 109.906L146.155 114.808L147.757 108.826Z" fill="#408BFF"/>
<path d="M158.96 67.0173L140.667 62.1157L139.064 68.0969L157.357 72.9986L158.96 67.0173Z" fill="#408BFF"/>
<path d="M156.825 68.0954L141.739 64.0532L140.938 67.0438L156.024 71.086L156.825 68.0954Z" fill="#265399"/>
<path d="M152.95 67.9459L142.141 65.0494L141.776 66.4115L152.585 69.3079L152.95 67.9459Z" fill="#408BFF"/>
<path d="M153.415 69.1812C153.612 69.234 153.814 69.1177 153.867 68.9214C153.919 68.7252 153.802 68.5233 153.605 68.4706C153.409 68.4179 153.206 68.5342 153.154 68.7304C153.101 68.9267 153.218 69.1285 153.415 69.1812Z" fill="#246AD6"/>
<path d="M154.425 69.4518C154.622 69.5046 154.824 69.3882 154.876 69.192C154.929 68.9957 154.812 68.7939 154.615 68.7412C154.418 68.6884 154.216 68.8048 154.164 69.001C154.111 69.1973 154.228 69.3991 154.425 69.4518Z" fill="#408BFF"/>
<path d="M155.405 69.7144C155.602 69.7671 155.804 69.6508 155.856 69.4546C155.909 69.2583 155.792 69.0565 155.595 69.0038C155.398 68.951 155.196 69.0673 155.144 69.2636C155.091 69.4598 155.208 69.6617 155.405 69.7144Z" fill="#408BFF"/>
<path d="M154.936 75.1425L139.851 71.1002L139.049 74.0908L154.135 78.1331L154.936 75.1425Z" fill="#265399"/>
<path d="M151.062 74.9929L140.252 72.0965L139.887 73.4586L150.697 76.355L151.062 74.9929Z" fill="#408BFF"/>
<path d="M153.048 82.1896L137.962 78.1473L137.161 81.1379L152.247 85.1802L153.048 82.1896Z" fill="#265399"/>
<path d="M149.173 82.04L138.364 79.1436L137.999 80.5056L148.808 83.402L149.173 82.04Z" fill="#408BFF"/>
<path d="M151.152 89.2664L136.066 85.2242L135.265 88.2148L150.351 92.257L151.152 89.2664Z" fill="#265399"/>
<path d="M147.286 89.0873L136.476 86.1909L136.111 87.5529L146.921 90.4493L147.286 89.0873Z" fill="#408BFF"/>
<path d="M149.319 96.1063L134.233 92.064L133.432 95.0546L148.518 99.0969L149.319 96.1063Z" fill="#265399"/>
<path d="M145.444 95.9567L134.635 93.0602L134.27 94.4223L145.079 97.3187L145.444 95.9567Z" fill="#408BFF"/>
<path d="M145.901 97.2215C146.098 97.2742 146.3 97.1579 146.353 96.9616C146.405 96.7654 146.289 96.5636 146.092 96.5108C145.895 96.4581 145.693 96.5744 145.64 96.7707C145.588 96.9669 145.704 97.1687 145.901 97.2215Z" fill="#246AD6"/>
<path d="M146.911 97.4921C147.108 97.5448 147.31 97.4285 147.363 97.2323C147.415 97.036 147.298 96.8342 147.101 96.7815C146.905 96.7287 146.702 96.8451 146.65 97.0413C146.597 97.2375 146.714 97.4394 146.911 97.4921Z" fill="#408BFF"/>
<path d="M147.891 97.7547C148.088 97.8074 148.29 97.6911 148.343 97.4948C148.395 97.2986 148.278 97.0968 148.081 97.044C147.885 96.9913 147.682 97.1076 147.63 97.3039C147.577 97.5001 147.694 97.7019 147.891 97.7547Z" fill="#408BFF"/>
<path d="M147.423 103.183L132.337 99.1409L131.536 102.131L146.622 106.174L147.423 103.183Z" fill="#265399"/>
<path d="M143.548 103.034L132.739 100.137L132.374 101.499L143.183 104.396L143.548 103.034Z" fill="#408BFF"/>
<path d="M145.567 110.112L130.481 106.07L129.68 109.06L144.766 113.102L145.567 110.112Z" fill="#265399"/>
<path d="M141.692 109.962L130.882 107.066L130.517 108.428L141.327 111.324L141.692 109.962Z" fill="#408BFF"/>
<path d="M142.149 111.227C142.346 111.28 142.548 111.163 142.6 110.967C142.653 110.771 142.536 110.569 142.339 110.516C142.142 110.464 141.94 110.58 141.888 110.776C141.835 110.973 141.952 111.174 142.149 111.227Z" fill="#246AD6"/>
<path d="M143.159 111.498C143.355 111.55 143.558 111.434 143.61 111.238C143.663 111.042 143.546 110.84 143.349 110.787C143.152 110.734 142.95 110.851 142.897 111.047C142.845 111.243 142.962 111.445 143.159 111.498Z" fill="#408BFF"/>
<path d="M144.139 111.76C144.335 111.813 144.538 111.697 144.59 111.5C144.643 111.304 144.526 111.102 144.329 111.05C144.132 110.997 143.93 111.113 143.877 111.309C143.825 111.506 143.942 111.708 144.139 111.76Z" fill="#408BFF"/>
<path d="M151.511 76.2874C151.707 76.3401 151.91 76.2238 151.962 76.0276C152.015 75.8313 151.898 75.6295 151.701 75.5767C151.504 75.524 151.302 75.6403 151.25 75.8366C151.197 76.0328 151.314 76.2347 151.511 76.2874Z" fill="#246AD6"/>
<path d="M152.52 76.558C152.717 76.6108 152.919 76.4944 152.972 76.2982C153.025 76.1019 152.908 75.9001 152.711 75.8474C152.514 75.7946 152.312 75.911 152.259 76.1072C152.207 76.3034 152.324 76.5053 152.52 76.558Z" fill="#408BFF"/>
<path d="M153.5 76.8205C153.697 76.8733 153.899 76.7569 153.952 76.5607C154.005 76.3645 153.888 76.1626 153.691 76.1099C153.494 76.0572 153.292 76.1735 153.239 76.3697C153.187 76.566 153.304 76.7678 153.5 76.8205Z" fill="#408BFF"/>
<path d="M149.646 83.2458C149.843 83.2986 150.045 83.1822 150.098 82.986C150.151 82.7898 150.034 82.5879 149.837 82.5352C149.64 82.4824 149.438 82.5988 149.385 82.795C149.333 82.9913 149.45 83.1931 149.646 83.2458Z" fill="#246AD6"/>
<path d="M150.656 83.5164C150.853 83.5691 151.055 83.4528 151.108 83.2566C151.16 83.0603 151.043 82.8585 150.847 82.8058C150.65 82.753 150.448 82.8693 150.395 83.0656C150.342 83.2618 150.459 83.4637 150.656 83.5164Z" fill="#408BFF"/>
<path d="M151.636 83.7789C151.833 83.8316 152.035 83.7153 152.088 83.5191C152.14 83.3228 152.023 83.121 151.827 83.0683C151.63 83.0155 151.428 83.1319 151.375 83.3281C151.322 83.5243 151.439 83.7262 151.636 83.7789Z" fill="#408BFF"/>
<path d="M147.742 90.3521C147.939 90.4048 148.141 90.2885 148.194 90.0922C148.246 89.896 148.129 89.6942 147.933 89.6414C147.736 89.5887 147.534 89.705 147.481 89.9013C147.428 90.0975 147.545 90.2994 147.742 90.3521Z" fill="#246AD6"/>
<path d="M148.752 90.6227C148.949 90.6754 149.151 90.5591 149.203 90.3628C149.256 90.1666 149.139 89.9647 148.942 89.912C148.745 89.8593 148.543 89.9756 148.491 90.1718C148.438 90.3681 148.555 90.5699 148.752 90.6227Z" fill="#408BFF"/>
<path d="M149.732 90.8852C149.929 90.938 150.131 90.8216 150.183 90.6254C150.236 90.4292 150.119 90.2273 149.922 90.1746C149.725 90.1219 149.523 90.2382 149.471 90.4344C149.418 90.6307 149.535 90.8325 149.732 90.8852Z" fill="#408BFF"/>
<path d="M144.005 104.298C144.202 104.351 144.404 104.235 144.457 104.038C144.509 103.842 144.393 103.64 144.196 103.588C143.999 103.535 143.797 103.651 143.744 103.848C143.692 104.044 143.808 104.246 144.005 104.298Z" fill="#246AD6"/>
<path d="M145.015 104.569C145.212 104.622 145.414 104.505 145.467 104.309C145.519 104.113 145.402 103.911 145.205 103.858C145.009 103.806 144.806 103.922 144.754 104.118C144.701 104.314 144.818 104.516 145.015 104.569Z" fill="#408BFF"/>
<path d="M145.995 104.831C146.192 104.884 146.394 104.768 146.447 104.572C146.499 104.375 146.382 104.173 146.185 104.121C145.989 104.068 145.786 104.184 145.734 104.381C145.681 104.577 145.798 104.779 145.995 104.831Z" fill="#408BFF"/>
<path d="M164.124 57.9599L163.53 57.8007L146.877 119.952L147.471 120.111L164.124 57.9599Z" fill="#2D76E6"/>
<path d="M147.53 120.127L147.411 120.095L161.883 66.0867L138.809 59.904L138.833 59.8151L162.026 66.0297L147.53 120.127Z" fill="#0B254D"/>
<path d="M155.444 88.0997L154.731 87.9087L153.692 91.7876L154.404 91.9786L155.444 88.0997Z" fill="#265399"/>
<path d="M150.849 56.7828L142.534 54.5548L142.047 53.7579L151.015 56.161L150.849 56.7828Z" fill="#265399"/>
<path d="M150.595 57.7304L142.28 55.5024L141.793 54.7055L150.761 57.1086L150.595 57.7304Z" fill="#265399"/>
<path d="M150.349 58.6482L142.034 56.4202L141.539 55.653L150.507 58.056L150.349 58.6482Z" fill="#265399"/>
<path d="M150.095 59.5958L141.78 57.3678L141.293 56.5709L150.261 58.974L150.095 59.5958Z" fill="#265399"/>
<path d="M149.841 60.5433L141.526 58.3152L141.039 57.5184L150.007 59.9214L149.841 60.5433Z" fill="#265399"/>
<path d="M149.595 61.4612L141.28 59.2332L140.793 58.4363L149.762 60.8394L149.595 61.4612Z" fill="#265399"/>
<path d="M161.302 59.5841L153.016 57.364L152.53 56.5671L161.468 58.9623L161.302 59.5841Z" fill="#265399"/>
<path d="M161.048 60.5314L152.763 58.3113L152.276 57.5145L161.215 59.9096L161.048 60.5314Z" fill="#265399"/>
<path d="M160.802 61.4492L152.517 59.2291L152.022 58.4619L160.961 60.857L160.802 61.4492Z" fill="#265399"/>
<path d="M160.548 62.3968L152.263 60.1768L151.776 59.3799L160.715 61.775L160.548 62.3968Z" fill="#265399"/>
<path d="M160.295 63.3443L152.009 61.1243L151.522 60.3274L160.461 62.7225L160.295 63.3443Z" fill="#265399"/>
<path d="M160.048 64.2622L151.763 62.0421L151.276 61.2452L160.215 63.6404L160.048 64.2622Z" fill="#265399"/>
<path d="M167.341 72.5634L161.609 71.0276L162.625 67.2375L168.356 68.7733L167.341 72.5634ZM161.714 70.9923L167.297 72.4882L168.281 68.8166L162.698 67.3206L161.714 70.9923Z" fill="#408BFF"/>
<path d="M165.929 77.834L160.197 76.2983L161.221 72.4786L166.952 74.0143L165.929 77.834ZM160.31 76.2333L165.893 77.7292L166.869 74.0872L161.286 72.5913L160.31 76.2333Z" fill="#408BFF"/>
<path d="M164.453 83.3415L158.721 81.8058L159.737 78.0157L165.468 79.5514L164.453 83.3415ZM158.826 81.7704L164.409 83.2664L165.393 79.5947L159.81 78.0988L158.826 81.7704Z" fill="#408BFF"/>
<path d="M163.041 88.6119L157.309 87.0762L158.325 83.2861L164.056 84.8219L163.041 88.6119ZM157.414 87.0409L162.997 88.5368L163.981 84.8652L158.398 83.3692L157.414 87.0409Z" fill="#408BFF"/>
<path d="M155.202 117.867L149.47 116.331L156.77 89.0897L162.501 90.6255L155.202 117.867ZM149.575 116.296L155.158 117.791L162.426 90.6688L156.843 89.1728L149.575 116.296Z" fill="#408BFF"/>
<path d="M155.184 122.209L129.555 115.342C129.258 115.263 128.928 115.428 128.84 115.754L127.016 122.564C126.936 122.86 127.102 123.19 127.429 123.278L153.057 130.145C153.354 130.224 153.685 130.059 153.772 129.733L155.597 122.923C155.684 122.597 155.481 122.289 155.184 122.209Z" fill="#113873"/>
<path d="M147.827 120.207C143.343 119.005 127.655 114.833 123.676 113.767C123.26 113.656 122.846 113.894 122.743 114.279L121.006 120.763C120.902 121.148 121.142 121.561 121.558 121.673C125.567 122.747 141.052 126.96 145.685 128.201C146.101 128.313 146.515 128.074 146.618 127.689L148.379 121.116C148.453 120.723 148.213 120.31 147.827 120.207Z" fill="#1951A6"/>
<path d="M155.016 122.006L124.339 113.786L124.308 113.904L154.984 122.124L155.016 122.006Z" fill="#0B254D"/>
<path d="M130.412 117.73L123.997 116.011C123.7 115.932 123.556 115.639 123.627 115.373C123.707 115.076 124 114.933 124.267 115.004L130.682 116.723C130.978 116.803 131.123 117.095 131.051 117.362C130.98 117.628 130.679 117.802 130.412 117.73Z" fill="#408BFF"/>
<path d="M204.482 68.7738L196.375 66.6015L179.722 128.753L187.829 130.925L204.482 68.7738Z" fill="#1B57B3"/>
<path d="M196.397 66.6391L173.798 60.5837L157.144 122.735L179.744 128.79L196.397 66.6391Z" fill="#408BFF"/>
<path d="M192.478 75.2051L172.938 69.9693L159.744 119.211L179.284 124.446L192.478 75.2051Z" fill="#265399"/>
<path d="M166.642 90.4972C166.464 90.4495 166.355 90.2617 166.402 90.084L167.87 84.6062C167.918 84.4285 168.106 84.3202 168.284 84.368C168.462 84.4157 168.571 84.6036 168.524 84.7812L167.056 90.2591C167.008 90.4367 166.82 90.545 166.642 90.4972Z" fill="#265399"/>
<path d="M192.708 80.4076L191.995 80.2167L190.956 84.0956L191.668 84.2865L192.708 80.4076Z" fill="#265399"/>
<path d="M183.552 114.577L182.839 114.386L181.8 118.265L182.513 118.456L183.552 114.577Z" fill="#265399"/>
<path d="M189.971 82.7843L171.678 77.8827L170.075 83.8639L188.368 88.7655L189.971 82.7843Z" fill="#408BFF"/>
<path d="M188.098 89.7722L169.805 84.8705L168.203 90.8517L186.496 95.7534L188.098 89.7722Z" fill="#408BFF"/>
<path d="M186.234 96.7305L167.94 91.8289L166.338 97.8101L184.631 102.712L186.234 96.7305Z" fill="#408BFF"/>
<path d="M184.361 103.718L166.068 98.8168L164.466 104.798L182.759 109.7L184.361 103.718Z" fill="#408BFF"/>
<path d="M182.497 110.677L164.204 105.775L162.601 111.756L180.894 116.658L182.497 110.677Z" fill="#408BFF"/>
<path d="M180.632 117.635L162.339 112.734L160.737 118.715L179.03 123.616L180.632 117.635Z" fill="#408BFF"/>
<path d="M191.835 75.8259L173.542 70.9243L171.939 76.9055L190.232 81.8072L191.835 75.8259Z" fill="#408BFF"/>
<path d="M189.67 76.8961L174.584 72.8538L173.783 75.8444L188.869 79.8867L189.67 76.8961Z" fill="#265399"/>
<path d="M185.795 76.7463L174.986 73.8499L174.621 75.212L185.43 78.1084L185.795 76.7463Z" fill="#408BFF"/>
<path d="M186.26 77.9818C186.457 78.0345 186.659 77.9182 186.711 77.722C186.764 77.5257 186.647 77.3239 186.45 77.2711C186.253 77.2184 186.051 77.3347 185.999 77.531C185.946 77.7272 186.063 77.929 186.26 77.9818Z" fill="#246AD6"/>
<path d="M187.269 78.2523C187.466 78.305 187.668 78.1887 187.721 77.9925C187.774 77.7962 187.657 77.5944 187.46 77.5417C187.263 77.4889 187.061 77.6053 187.008 77.8015C186.956 77.9977 187.073 78.1996 187.269 78.2523Z" fill="#408BFF"/>
<path d="M188.279 78.5229C188.476 78.5757 188.678 78.4593 188.731 78.2631C188.783 78.0669 188.666 77.865 188.47 77.8123C188.273 77.7595 188.071 77.8759 188.018 78.0721C187.965 78.2684 188.082 78.4702 188.279 78.5229Z" fill="#408BFF"/>
<path d="M187.782 83.9433L172.696 79.901L171.895 82.8916L186.981 86.9339L187.782 83.9433Z" fill="#265399"/>
<path d="M183.907 83.7937L173.098 80.8973L172.733 82.2593L183.542 85.1557L183.907 83.7937Z" fill="#408BFF"/>
<path d="M185.894 90.9904L170.808 86.9482L170.007 89.9388L185.093 93.981L185.894 90.9904Z" fill="#265399"/>
<path d="M182.019 90.8408L171.209 87.9444L170.845 89.3065L181.654 92.2029L182.019 90.8408Z" fill="#408BFF"/>
<path d="M183.998 98.0672L168.912 94.025L168.11 97.0156L183.196 101.058L183.998 98.0672Z" fill="#265399"/>
<path d="M180.131 97.8881L169.321 94.9916L168.956 96.3537L179.766 99.2501L180.131 97.8881Z" fill="#408BFF"/>
<path d="M182.165 104.907L167.079 100.865L166.278 103.855L181.364 107.898L182.165 104.907Z" fill="#265399"/>
<path d="M178.29 104.758L167.48 101.861L167.116 103.223L177.925 106.12L178.29 104.758Z" fill="#408BFF"/>
<path d="M178.747 106.022C178.944 106.075 179.146 105.959 179.199 105.763C179.251 105.566 179.134 105.364 178.937 105.312C178.741 105.259 178.538 105.375 178.486 105.572C178.433 105.768 178.55 105.97 178.747 106.022Z" fill="#246AD6"/>
<path d="M179.757 106.293C179.954 106.346 180.156 106.229 180.208 106.033C180.261 105.837 180.144 105.635 179.947 105.582C179.75 105.53 179.548 105.646 179.496 105.842C179.443 106.038 179.56 106.24 179.757 106.293Z" fill="#408BFF"/>
<path d="M180.767 106.564C180.963 106.616 181.166 106.5 181.218 106.304C181.271 106.107 181.154 105.906 180.957 105.853C180.76 105.8 180.558 105.916 180.505 106.113C180.453 106.309 180.57 106.511 180.767 106.564Z" fill="#408BFF"/>
<path d="M180.268 111.984L165.183 107.942L164.381 110.932L179.467 114.974L180.268 111.984Z" fill="#265399"/>
<path d="M176.394 111.834L165.584 108.938L165.219 110.3L176.029 113.196L176.394 111.834Z" fill="#408BFF"/>
<path d="M178.412 118.913L163.326 114.87L162.525 117.861L177.611 121.903L178.412 118.913Z" fill="#265399"/>
<path d="M174.537 118.763L163.728 115.867L163.363 117.229L174.172 120.125L174.537 118.763Z" fill="#408BFF"/>
<path d="M174.994 120.028C175.191 120.081 175.393 119.964 175.446 119.768C175.498 119.572 175.381 119.37 175.184 119.317C174.988 119.264 174.785 119.381 174.733 119.577C174.68 119.773 174.797 119.975 174.994 120.028Z" fill="#246AD6"/>
<path d="M176.004 120.298C176.201 120.351 176.403 120.235 176.455 120.039C176.508 119.842 176.391 119.641 176.194 119.588C175.997 119.535 175.795 119.651 175.743 119.848C175.69 120.044 175.807 120.246 176.004 120.298Z" fill="#408BFF"/>
<path d="M177.014 120.569C177.21 120.622 177.413 120.505 177.465 120.309C177.518 120.113 177.401 119.911 177.204 119.858C177.007 119.806 176.805 119.922 176.752 120.118C176.7 120.314 176.817 120.516 177.014 120.569Z" fill="#408BFF"/>
<path d="M184.356 85.0881C184.553 85.1408 184.755 85.0245 184.807 84.8283C184.86 84.632 184.743 84.4302 184.546 84.3775C184.349 84.3247 184.147 84.4411 184.095 84.6373C184.042 84.8335 184.159 85.0354 184.356 85.0881Z" fill="#246AD6"/>
<path d="M185.366 85.3586C185.562 85.4113 185.765 85.295 185.817 85.0988C185.87 84.9025 185.753 84.7007 185.556 84.648C185.359 84.5952 185.157 84.7116 185.104 84.9078C185.052 85.104 185.169 85.3059 185.366 85.3586Z" fill="#408BFF"/>
<path d="M186.375 85.6292C186.572 85.682 186.774 85.5657 186.827 85.3694C186.88 85.1732 186.763 84.9713 186.566 84.9186C186.369 84.8659 186.167 84.9822 186.114 85.1784C186.062 85.3747 186.179 85.5765 186.375 85.6292Z" fill="#408BFF"/>
<path d="M182.492 92.0464C182.688 92.0991 182.891 91.9828 182.943 91.7865C182.996 91.5903 182.879 91.3885 182.682 91.3357C182.485 91.283 182.283 91.3993 182.23 91.5956C182.178 91.7918 182.295 91.9936 182.492 92.0464Z" fill="#246AD6"/>
<path d="M183.501 92.3169C183.698 92.3696 183.9 92.2533 183.953 92.057C184.006 91.8608 183.889 91.659 183.692 91.6062C183.495 91.5535 183.293 91.6698 183.24 91.8661C183.188 92.0623 183.305 92.2641 183.501 92.3169Z" fill="#408BFF"/>
<path d="M184.511 92.5874C184.708 92.6402 184.91 92.5238 184.963 92.3276C185.015 92.1314 184.898 91.9295 184.702 91.8768C184.505 91.8241 184.303 91.9404 184.25 92.1366C184.197 92.3329 184.314 92.5347 184.511 92.5874Z" fill="#408BFF"/>
<path d="M180.587 99.1529C180.784 99.2057 180.986 99.0893 181.039 98.8931C181.091 98.6969 180.975 98.495 180.778 98.4423C180.581 98.3896 180.379 98.5059 180.326 98.7021C180.274 98.8984 180.391 99.1002 180.587 99.1529Z" fill="#246AD6"/>
<path d="M181.597 99.4234C181.794 99.4762 181.996 99.3598 182.049 99.1636C182.101 98.9674 181.984 98.7655 181.788 98.7128C181.591 98.6601 181.389 98.7764 181.336 98.9726C181.283 99.1689 181.4 99.3707 181.597 99.4234Z" fill="#408BFF"/>
<path d="M182.607 99.694C182.804 99.7467 183.006 99.6304 183.058 99.4342C183.111 99.2379 182.994 99.0361 182.797 98.9834C182.6 98.9306 182.398 99.047 182.346 99.2432C182.293 99.4394 182.41 99.6413 182.607 99.694Z" fill="#408BFF"/>
<path d="M176.851 113.099C177.047 113.152 177.249 113.036 177.302 112.839C177.355 112.643 177.238 112.441 177.041 112.389C176.844 112.336 176.642 112.452 176.589 112.648C176.537 112.845 176.654 113.046 176.851 113.099Z" fill="#246AD6"/>
<path d="M177.86 113.37C178.057 113.422 178.259 113.306 178.312 113.11C178.364 112.914 178.248 112.712 178.051 112.659C177.854 112.606 177.652 112.723 177.599 112.919C177.547 113.115 177.663 113.317 177.86 113.37Z" fill="#408BFF"/>
<path d="M178.87 113.64C179.067 113.693 179.269 113.577 179.322 113.38C179.374 113.184 179.257 112.982 179.06 112.93C178.864 112.877 178.661 112.993 178.609 113.189C178.556 113.386 178.673 113.587 178.87 113.64Z" fill="#408BFF"/>
<path d="M196.969 66.7606L196.375 66.6015L179.722 128.753L180.316 128.912L196.969 66.7606Z" fill="#2D76E6"/>
<path d="M180.375 128.928L180.286 128.904L194.757 74.8954L171.653 68.7047L171.677 68.6158L194.87 74.8304L180.375 128.928Z" fill="#0B254D"/>
<path d="M188.288 96.9004L187.576 96.7094L186.536 100.588L187.249 100.779L188.288 96.9004Z" fill="#265399"/>
<path d="M183.693 65.5837L175.378 63.3557L174.921 62.5668L183.86 64.9619L183.693 65.5837Z" fill="#265399"/>
<path d="M183.44 66.5311L175.124 64.3031L174.667 63.5142L183.606 65.9093L183.44 66.5311Z" fill="#265399"/>
<path d="M183.194 67.449L174.879 65.221L174.414 64.4617L183.352 66.8568L183.194 67.449Z" fill="#265399"/>
<path d="M182.94 68.3966L174.624 66.1686L174.167 65.3797L183.106 67.7748L182.94 68.3966Z" fill="#265399"/>
<path d="M182.686 69.3441L174.371 67.1161L173.914 66.3271L182.852 68.7223L182.686 69.3441Z" fill="#265399"/>
<path d="M182.44 70.262L174.124 68.034L173.667 67.2451L182.606 69.6402L182.44 70.262Z" fill="#265399"/>
<path d="M194.177 68.3926L185.862 66.1645L185.375 65.3677L194.343 67.7707L194.177 68.3926Z" fill="#265399"/>
<path d="M193.923 69.3401L185.608 67.1121L185.121 66.3152L194.089 68.7183L193.923 69.3401Z" fill="#265399"/>
<path d="M193.677 70.258L185.362 68.03L184.867 67.2627L193.836 69.6658L193.677 70.258Z" fill="#265399"/>
<path d="M193.423 71.2055L185.108 68.9775L184.621 68.1807L193.589 70.5837L193.423 71.2055Z" fill="#265399"/>
<path d="M193.169 72.1531L184.854 69.925L184.367 69.1282L193.336 71.5312L193.169 72.1531Z" fill="#265399"/>
<path d="M192.923 73.071L184.608 70.8429L184.122 70.0461L193.09 72.4492L192.923 73.071Z" fill="#265399"/>
<path d="M200.186 81.3642L194.454 79.8285L195.47 76.0384L201.201 77.5741L200.186 81.3642ZM194.559 79.7931L200.142 81.2891L201.126 77.6174L195.543 76.1215L194.559 79.7931Z" fill="#408BFF"/>
<path d="M198.773 86.6348L193.042 85.0991L194.065 81.2794L199.797 82.8152L198.773 86.6348ZM193.155 85.0341L198.738 86.5301L199.714 82.8881L194.131 81.3921L193.155 85.0341Z" fill="#408BFF"/>
<path d="M197.298 92.1424L191.566 90.6067L192.582 86.8166L198.313 88.3523L197.298 92.1424ZM191.671 90.5713L197.254 92.0673L198.238 88.3956L192.655 86.8997L191.671 90.5713Z" fill="#408BFF"/>
<path d="M195.886 97.4129L190.154 95.8772L191.17 92.0871L196.901 93.6228L195.886 97.4129ZM190.259 95.8418L195.842 97.3378L196.826 93.6661L191.243 92.1702L190.259 95.8418Z" fill="#408BFF"/>
<path d="M188.047 126.667L182.316 125.132L189.615 97.8906L195.346 99.4264L188.047 126.667ZM182.42 125.096L188.003 126.592L195.271 99.4697L189.688 97.9737L182.42 125.096Z" fill="#408BFF"/>
<path d="M188.029 131.01L162.401 124.143C162.104 124.064 161.773 124.229 161.686 124.555L159.861 131.365C159.782 131.661 159.948 131.991 160.274 132.079L185.903 138.946C186.2 139.025 186.53 138.86 186.618 138.534L188.442 131.724C188.53 131.398 188.356 131.098 188.029 131.01Z" fill="#113873"/>
<path d="M180.672 129.007C176.188 127.806 160.5 123.634 156.521 122.568C156.105 122.456 155.691 122.694 155.588 123.079L153.85 129.564C153.747 129.949 153.986 130.362 154.402 130.474C158.411 131.548 173.897 135.761 178.53 137.002C178.945 137.113 179.359 136.875 179.463 136.49L181.224 129.917C181.327 129.532 181.088 129.119 180.672 129.007Z" fill="#1951A6"/>
<path d="M187.861 130.807L157.184 122.587L157.152 122.705L187.829 130.925L187.861 130.807Z" fill="#0B254D"/>
<path d="M163.257 126.531L156.843 124.812C156.546 124.732 156.401 124.44 156.473 124.173C156.552 123.877 156.845 123.734 157.112 123.805L163.527 125.524C163.824 125.604 163.968 125.896 163.897 126.163C163.855 126.437 163.554 126.61 163.257 126.531Z" fill="#408BFF"/>
<path d="M238.039 77.7654L229.932 75.5931L213.278 137.744L221.385 139.917L238.039 77.7654Z" fill="#1B57B3"/>
<path d="M229.954 75.6307L207.354 69.5753L190.701 131.727L213.3 137.782L229.954 75.6307Z" fill="#408BFF"/>
<path d="M226.035 84.1968L206.495 78.9609L193.3 128.202L212.841 133.438L226.035 84.1968Z" fill="#265399"/>
<path d="M200.198 99.4889C200.02 99.4411 199.912 99.2533 199.959 99.0756L201.427 93.5978C201.474 93.4201 201.663 93.3119 201.841 93.3596C202.019 93.4074 202.128 93.5952 202.08 93.7729L200.612 99.2507C200.565 99.4283 200.377 99.5366 200.198 99.4889Z" fill="#265399"/>
<path d="M226.264 89.3992L225.552 89.2083L224.512 93.0872L225.225 93.2781L226.264 89.3992Z" fill="#265399"/>
<path d="M217.109 123.569L216.396 123.378L215.357 127.257L216.069 127.448L217.109 123.569Z" fill="#265399"/>
<path d="M223.527 91.7758L205.233 86.8742L203.631 92.8554L221.924 97.757L223.527 91.7758Z" fill="#408BFF"/>
<path d="M221.654 98.7637L203.361 93.8621L201.759 99.8433L220.052 104.745L221.654 98.7637Z" fill="#408BFF"/>
<path d="M219.79 105.722L201.497 100.82L199.894 106.802L218.187 111.703L219.79 105.722Z" fill="#408BFF"/>
<path d="M217.918 112.71L199.625 107.808L198.022 113.79L216.315 118.691L217.918 112.71Z" fill="#408BFF"/>
<path d="M216.053 119.668L197.76 114.767L196.157 120.748L214.45 125.65L216.053 119.668Z" fill="#408BFF"/>
<path d="M214.189 126.627L195.896 121.725L194.293 127.706L212.586 132.608L214.189 126.627Z" fill="#408BFF"/>
<path d="M225.391 84.8176L207.098 79.916L205.495 85.8972L223.789 90.7988L225.391 84.8176Z" fill="#408BFF"/>
<path d="M223.227 85.8876L208.141 81.8454L207.339 84.836L222.425 88.8782L223.227 85.8876Z" fill="#265399"/>
<path d="M219.352 85.7382L208.542 82.8417L208.177 84.2038L218.987 87.1002L219.352 85.7382Z" fill="#408BFF"/>
<path d="M219.816 86.9734C220.013 87.0262 220.215 86.9098 220.268 86.7136C220.32 86.5174 220.204 86.3155 220.007 86.2628C219.81 86.21 219.608 86.3264 219.555 86.5226C219.503 86.7189 219.62 86.9207 219.816 86.9734Z" fill="#246AD6"/>
<path d="M220.826 87.244C221.023 87.2967 221.225 87.1804 221.278 86.9842C221.33 86.7879 221.213 86.5861 221.017 86.5334C220.82 86.4806 220.618 86.5969 220.565 86.7932C220.512 86.9894 220.629 87.1913 220.826 87.244Z" fill="#408BFF"/>
<path d="M221.836 87.5145C222.033 87.5672 222.235 87.4509 222.287 87.2547C222.34 87.0584 222.223 86.8566 222.026 86.8039C221.829 86.7511 221.627 86.8675 221.575 87.0637C221.522 87.2599 221.639 87.4618 221.836 87.5145Z" fill="#408BFF"/>
<path d="M221.338 92.9348L206.252 88.8926L205.451 91.8832L220.537 95.9254L221.338 92.9348Z" fill="#265399"/>
<path d="M217.463 92.7853L206.654 89.8889L206.289 91.2509L217.098 94.1473L217.463 92.7853Z" fill="#408BFF"/>
<path d="M219.45 99.9821L204.364 95.9398L203.562 98.9304L218.648 102.973L219.45 99.9821Z" fill="#265399"/>
<path d="M215.575 99.8324L204.766 96.936L204.401 98.2981L215.21 101.195L215.575 99.8324Z" fill="#408BFF"/>
<path d="M217.554 107.059L202.468 103.017L201.666 106.007L216.752 110.049L217.554 107.059Z" fill="#265399"/>
<path d="M213.687 106.88L202.877 103.983L202.512 105.345L213.322 108.242L213.687 106.88Z" fill="#408BFF"/>
<path d="M215.721 113.899L200.635 109.856L199.834 112.847L214.92 116.889L215.721 113.899Z" fill="#265399"/>
<path d="M211.847 113.749L201.037 110.853L200.672 112.215L211.482 115.111L211.847 113.749Z" fill="#408BFF"/>
<path d="M212.303 115.014C212.5 115.067 212.702 114.95 212.755 114.754C212.807 114.558 212.69 114.356 212.494 114.303C212.297 114.25 212.095 114.367 212.042 114.563C211.989 114.759 212.106 114.961 212.303 115.014Z" fill="#246AD6"/>
<path d="M213.313 115.284C213.51 115.337 213.712 115.221 213.764 115.025C213.817 114.828 213.7 114.627 213.503 114.574C213.307 114.521 213.104 114.637 213.052 114.834C212.999 115.03 213.116 115.232 213.313 115.284Z" fill="#408BFF"/>
<path d="M214.323 115.555C214.519 115.608 214.722 115.491 214.774 115.295C214.827 115.099 214.71 114.897 214.513 114.844C214.316 114.792 214.114 114.908 214.062 115.104C214.009 115.3 214.126 115.502 214.323 115.555Z" fill="#408BFF"/>
<path d="M213.825 120.975L198.739 116.933L197.937 119.924L213.023 123.966L213.825 120.975Z" fill="#265399"/>
<path d="M209.95 120.826L199.14 117.929L198.775 119.291L209.585 122.188L209.95 120.826Z" fill="#408BFF"/>
<path d="M211.968 127.904L196.882 123.862L196.081 126.852L211.167 130.895L211.968 127.904Z" fill="#265399"/>
<path d="M208.094 127.754L197.284 124.858L196.919 126.22L207.729 129.117L208.094 127.754Z" fill="#408BFF"/>
<path d="M208.55 129.019C208.747 129.072 208.949 128.956 209.002 128.759C209.054 128.563 208.937 128.361 208.741 128.309C208.544 128.256 208.342 128.372 208.289 128.569C208.236 128.765 208.353 128.967 208.55 129.019Z" fill="#246AD6"/>
<path d="M209.56 129.29C209.757 129.343 209.959 129.226 210.012 129.03C210.064 128.834 209.947 128.632 209.75 128.579C209.554 128.526 209.351 128.643 209.299 128.839C209.246 129.035 209.363 129.237 209.56 129.29Z" fill="#408BFF"/>
<path d="M210.57 129.56C210.767 129.613 210.969 129.497 211.021 129.301C211.074 129.104 210.957 128.902 210.76 128.85C210.563 128.797 210.361 128.913 210.309 129.11C210.256 129.306 210.373 129.508 210.57 129.56Z" fill="#408BFF"/>
<path d="M217.912 94.0797C218.109 94.1324 218.311 94.0161 218.364 93.8199C218.416 93.6236 218.299 93.4218 218.102 93.369C217.906 93.3163 217.703 93.4326 217.651 93.6289C217.598 93.8251 217.715 94.0269 217.912 94.0797Z" fill="#246AD6"/>
<path d="M218.922 94.3503C219.119 94.403 219.321 94.2867 219.373 94.0904C219.426 93.8942 219.309 93.6924 219.112 93.6396C218.915 93.5869 218.713 93.7032 218.661 93.8994C218.608 94.0957 218.725 94.2975 218.922 94.3503Z" fill="#408BFF"/>
<path d="M219.932 94.6208C220.128 94.6735 220.331 94.5572 220.383 94.3609C220.436 94.1647 220.319 93.9629 220.122 93.9101C219.925 93.8574 219.723 93.9737 219.67 94.17C219.618 94.3662 219.735 94.568 219.932 94.6208Z" fill="#408BFF"/>
<path d="M216.048 101.038C216.245 101.091 216.447 100.974 216.499 100.778C216.552 100.582 216.435 100.38 216.238 100.327C216.041 100.275 215.839 100.391 215.787 100.587C215.734 100.783 215.851 100.985 216.048 101.038Z" fill="#246AD6"/>
<path d="M217.058 101.309C217.254 101.361 217.457 101.245 217.509 101.049C217.562 100.852 217.445 100.651 217.248 100.598C217.051 100.545 216.849 100.662 216.796 100.858C216.744 101.054 216.861 101.256 217.058 101.309Z" fill="#408BFF"/>
<path d="M218.067 101.579C218.264 101.632 218.466 101.515 218.519 101.319C218.571 101.123 218.455 100.921 218.258 100.868C218.061 100.816 217.859 100.932 217.806 101.128C217.754 101.325 217.871 101.526 218.067 101.579Z" fill="#408BFF"/>
<path d="M214.143 108.144C214.34 108.197 214.542 108.081 214.595 107.884C214.648 107.688 214.531 107.486 214.334 107.434C214.137 107.381 213.935 107.497 213.882 107.693C213.83 107.89 213.947 108.092 214.143 108.144Z" fill="#246AD6"/>
<path d="M215.153 108.415C215.35 108.468 215.552 108.351 215.605 108.155C215.657 107.959 215.54 107.757 215.344 107.704C215.147 107.651 214.945 107.768 214.892 107.964C214.84 108.16 214.956 108.362 215.153 108.415Z" fill="#408BFF"/>
<path d="M216.163 108.685C216.36 108.738 216.562 108.622 216.615 108.426C216.667 108.229 216.55 108.027 216.353 107.975C216.157 107.922 215.954 108.038 215.902 108.235C215.849 108.431 215.966 108.633 216.163 108.685Z" fill="#408BFF"/>
<path d="M210.407 122.091C210.603 122.143 210.806 122.027 210.858 121.831C210.911 121.635 210.794 121.433 210.597 121.38C210.4 121.327 210.198 121.444 210.146 121.64C210.093 121.836 210.21 122.038 210.407 122.091Z" fill="#246AD6"/>
<path d="M211.416 122.361C211.613 122.414 211.815 122.298 211.868 122.101C211.921 121.905 211.804 121.703 211.607 121.651C211.41 121.598 211.208 121.714 211.155 121.91C211.103 122.107 211.22 122.309 211.416 122.361Z" fill="#408BFF"/>
<path d="M212.426 122.632C212.623 122.684 212.825 122.568 212.878 122.372C212.93 122.176 212.813 121.974 212.617 121.921C212.42 121.868 212.218 121.985 212.165 122.181C212.112 122.377 212.229 122.579 212.426 122.632Z" fill="#408BFF"/>
<path d="M230.526 75.7522L229.932 75.5931L213.278 137.744L213.872 137.903L230.526 75.7522Z" fill="#2D76E6"/>
<path d="M213.932 137.919L213.843 137.896L228.314 83.887L205.21 77.6963L205.234 77.6075L228.427 83.8221L213.932 137.919Z" fill="#0B254D"/>
<path d="M221.845 105.892L221.132 105.701L220.093 109.58L220.806 109.771L221.845 105.892Z" fill="#265399"/>
<path d="M217.25 74.5752L208.935 72.3472L208.478 71.5583L217.417 73.9534L217.25 74.5752Z" fill="#265399"/>
<path d="M216.996 75.5228L208.681 73.2948L208.224 72.5059L217.163 74.901L216.996 75.5228Z" fill="#265399"/>
<path d="M216.75 76.4407L208.435 74.2127L207.97 73.4534L216.909 75.8485L216.75 76.4407Z" fill="#265399"/>
<path d="M216.496 77.3882L208.181 75.1602L207.724 74.3713L216.663 76.7664L216.496 77.3882Z" fill="#265399"/>
<path d="M216.242 78.3357L207.927 76.1077L207.47 75.3188L216.409 77.7139L216.242 78.3357Z" fill="#265399"/>
<path d="M215.997 79.2536L207.682 77.0256L207.225 76.2367L216.163 78.6318L215.997 79.2536Z" fill="#265399"/>
<path d="M227.733 77.3841L219.418 75.1561L218.931 74.3593L227.9 76.7623L227.733 77.3841Z" fill="#265399"/>
<path d="M227.479 78.3317L219.164 76.1037L218.677 75.3068L227.646 77.7099L227.479 78.3317Z" fill="#265399"/>
<path d="M227.233 79.2496L218.918 77.0216L218.423 76.2543L227.392 78.6574L227.233 79.2496Z" fill="#265399"/>
<path d="M226.979 80.1971L218.664 77.9691L218.177 77.1722L227.146 79.5753L226.979 80.1971Z" fill="#265399"/>
<path d="M226.725 81.1446L218.41 78.9166L217.923 78.1198L226.892 80.5228L226.725 81.1446Z" fill="#265399"/>
<path d="M226.479 82.0625L218.164 79.8345L217.678 79.0377L226.646 81.4407L226.479 82.0625Z" fill="#265399"/>
<path d="M233.742 90.3557L228.011 88.82L229.026 85.0299L234.758 86.5656L233.742 90.3557ZM228.116 88.7846L233.699 90.2806L234.683 86.6089L229.1 85.113L228.116 88.7846Z" fill="#408BFF"/>
<path d="M232.33 95.6263L226.599 94.0906L227.622 90.2709L233.354 91.8066L232.33 95.6263ZM226.711 94.0256L232.294 95.5215L233.27 91.8795L227.687 90.3836L226.711 94.0256Z" fill="#408BFF"/>
<path d="M230.854 101.134L225.123 99.5981L226.138 95.808L231.87 97.3438L230.854 101.134ZM225.228 99.5628L230.811 101.059L231.794 97.3871L226.211 95.8911L225.228 99.5628Z" fill="#408BFF"/>
<path d="M229.442 106.404L223.711 104.869L224.726 101.078L230.458 102.614L229.442 106.404ZM223.815 104.833L229.398 106.329L230.382 102.658L224.799 101.162L223.815 104.833Z" fill="#408BFF"/>
<path d="M221.603 135.659L215.872 134.123L223.171 106.882L228.902 108.418L221.603 135.659ZM215.977 134.088L221.56 135.584L228.827 108.461L223.244 106.965L215.977 134.088Z" fill="#408BFF"/>
<path d="M221.586 140.002L195.958 133.135C195.661 133.055 195.33 133.221 195.243 133.546L193.418 140.357C193.339 140.653 193.505 140.983 193.831 141.07L219.46 147.937C219.757 148.017 220.087 147.852 220.175 147.526L221.999 140.716C222.087 140.39 221.913 140.089 221.586 140.002Z" fill="#113873"/>
<path d="M214.229 137.999C209.745 136.797 194.057 132.626 190.078 131.559C189.662 131.448 189.248 131.686 189.145 132.071L187.407 138.556C187.304 138.941 187.544 139.354 187.959 139.465C191.968 140.539 207.454 144.752 212.087 145.994C212.503 146.105 212.917 145.867 213.02 145.482L214.781 138.909C214.884 138.524 214.645 138.11 214.229 137.999Z" fill="#1951A6"/>
<path d="M221.417 139.798L190.741 131.578L190.709 131.697L221.386 139.917L221.417 139.798Z" fill="#0B254D"/>
<path d="M196.814 135.522L190.399 133.804C190.102 133.724 189.958 133.431 190.029 133.165C190.109 132.869 190.402 132.725 190.669 132.797L197.083 134.516C197.38 134.595 197.525 134.888 197.453 135.154C197.412 135.429 197.111 135.602 196.814 135.522Z" fill="#408BFF"/>
<path d="M210.914 167.831C228.84 172.634 247.255 162.038 252.044 144.165C256.834 126.291 246.184 107.907 228.258 103.104C210.331 98.3004 191.917 108.896 187.128 126.77C182.338 144.644 192.988 163.028 210.914 167.831Z" fill="#F6F8FC"/>
<path d="M164.742 163.393C178.831 167.168 193.303 158.841 197.067 144.793C200.831 130.746 192.461 116.298 178.373 112.523C164.284 108.748 149.812 117.076 146.048 131.123C142.284 145.17 150.654 159.618 164.742 163.393Z" fill="#F6F8FC"/>
<path d="M120.976 154.49C133.49 157.843 146.344 150.447 149.688 137.969C153.031 125.492 145.597 112.659 133.083 109.306C120.569 105.953 107.714 113.349 104.371 125.827C101.027 138.304 108.462 151.137 120.976 154.49Z" fill="#F6F8FC"/>
<path d="M42.6392 65.7802C49.3076 67.5669 56.1618 63.6097 57.9485 56.9413C59.7353 50.273 55.778 43.4188 49.1097 41.632C42.4414 39.8453 35.5872 43.8025 33.8004 50.4709C32.0136 57.1392 35.9709 63.9934 42.6392 65.7802Z" fill="#F6F8FC"/>
<path d="M230.308 113.745C230.286 113.707 230.286 113.707 230.265 113.67C222.168 118.704 210.617 121.544 199.24 121.003C199.05 121.713 197.957 125.673 192.994 143.956C186.338 168.323 206.452 186.502 209.583 189.309C210.44 143.585 225.706 119.874 230.308 113.745Z" fill="#EF4E22"/>
<path d="M230.308 113.745C225.706 119.874 210.441 143.585 209.554 189.301C213.487 188.641 240.255 183.055 246.919 158.659C251.912 140.384 252.975 136.416 253.165 135.706C243.155 130.421 234.736 122.167 230.308 113.745Z" fill="#EF4E22"/>
<path d="M209.324 190.159L209.045 189.894C202.907 184.41 199.082 178.847 196.928 175.127C190.951 164.767 189.384 154.223 192.222 143.749L198.664 120.182L199.29 120.223C210.325 120.736 221.768 118.058 229.835 113.015L230.566 112.545L231.015 113.363C235.443 121.785 243.872 129.883 253.571 135.021L254.126 135.328L253.959 135.95C253.769 136.661 252.676 140.621 247.713 158.904C240.827 184.129 212.882 189.59 209.72 190.107L209.324 190.159ZM199.875 121.839L193.796 144.171C187.971 165.555 202.833 182.073 209.843 188.458C214.301 187.621 239.788 181.947 246.177 158.46C250.37 143.049 251.804 137.816 252.256 136.129C242.81 130.995 234.549 123.101 229.993 114.803C221.833 119.599 210.688 122.23 199.875 121.839Z" fill="white"/>
<path d="M211.154 184.874L210.419 184.645C208.244 182.666 204.062 178.435 200.594 172.492C195.276 163.355 193.875 154.094 196.364 144.922L201.864 124.752L202.594 124.758C211.899 124.839 220.952 122.885 228.058 119.172L228.87 118.755L229.327 119.544L228.551 120.066L229.349 119.581C233.609 126.372 240.368 132.626 248.42 137.259L249.056 137.619L243.556 157.79C241.066 166.961 235.111 174.219 225.931 179.376C220.122 182.643 214.528 184.159 211.684 184.794L211.154 184.874ZM203.302 126.629L198.175 145.408C195.821 154.076 197.163 162.845 202.22 171.531C205.384 176.949 209.168 180.882 211.327 182.921C214.065 182.322 219.398 180.831 224.944 177.715C233.702 172.826 239.338 165.926 241.685 157.288L246.812 138.51C239.064 133.927 232.481 127.847 228.144 121.226C221.102 124.702 212.347 126.609 203.302 126.629Z" fill="white"/>
<path d="M210.157 145L205.864 161.019C205.388 162.796 227.245 168.652 227.721 166.876L232.013 150.857L210.157 145ZM219.907 156.721L218.693 161.251C218.534 161.843 217.895 162.211 217.301 162.052C216.677 161.885 216.337 161.255 216.495 160.662L217.717 156.102C216.878 155.433 216.479 154.311 216.772 153.215C217.169 151.735 218.712 150.847 220.196 151.245C221.681 151.643 222.582 153.153 222.177 154.663C221.875 155.789 220.968 156.561 219.907 156.721Z" fill="white"/>
<path d="M230.385 149.214L228.187 148.625L228.473 147.559C229.472 143.829 227.231 139.959 223.489 138.957C219.747 137.954 215.871 140.184 214.872 143.915L214.586 144.981L212.389 144.392L212.674 143.326C213.999 138.381 219.117 135.437 224.076 136.765C229.036 138.094 231.995 143.203 230.67 148.148L230.385 149.214Z" fill="white"/>
<path d="M258.668 176.818C260.39 177.28 262.159 176.262 262.62 174.545C263.08 172.828 262.057 171.062 260.334 170.6C258.612 170.139 256.843 171.157 256.383 172.874C255.923 174.591 256.946 176.357 258.668 176.818Z" fill="white"/>
<path d="M172.934 52.6404C173.918 52.904 174.929 52.3224 175.192 51.3412C175.454 50.36 174.87 49.3508 173.886 49.0872C172.902 48.8235 171.891 49.4051 171.628 50.3863C171.365 51.3675 171.95 52.3767 172.934 52.6404Z" fill="#F6F8FC"/>
<path d="M173.652 155.562C173.177 155.434 172.924 154.954 173.043 154.51L175.455 145.508C175.582 145.035 176.063 144.783 176.508 144.902C176.983 145.029 177.237 145.51 177.118 145.954L174.706 154.955C174.616 155.407 174.127 155.689 173.652 155.562Z" fill="#2563EB"/>
<path d="M169.734 148.8C169.861 148.326 170.343 148.074 170.788 148.193L179.816 150.612C180.291 150.74 180.544 151.22 180.425 151.664C180.298 152.138 179.817 152.39 179.372 152.27L170.344 149.851C169.898 149.732 169.615 149.244 169.734 148.8Z" fill="#2563EB"/>
<path d="M248.328 80.9192C247.912 80.8078 247.643 80.3866 247.762 79.9425L249.936 71.8294C250.047 71.4148 250.469 71.147 250.914 71.2664C251.33 71.3778 251.599 71.799 251.48 72.2431L249.306 80.3563C249.195 80.7708 248.743 81.0306 248.328 80.9192Z" fill="#2563EB"/>
<path d="M244.81 74.8036C244.921 74.389 245.343 74.1212 245.789 74.2406L253.926 76.4208C254.341 76.5322 254.61 76.9534 254.491 77.3976C254.38 77.8121 253.958 78.0799 253.513 77.9606L245.376 75.7803C244.931 75.6609 244.699 75.2181 244.81 74.8036Z" fill="#2563EB"/>
</g>
</svg>
