<svg width="48" height="86" viewBox="0 0 48 86" fill="none" xmlns="http://www.w3.org/2000/svg">
<path d="M35.3683 6.95581H12.6315C8.79452 6.95581 5.68408 10.0701 5.68408 13.9117V73.3529C5.68408 77.1945 8.79452 80.3088 12.6315 80.3088H35.3683C39.2052 80.3088 42.3157 77.1945 42.3157 73.3529V13.9117C42.3157 10.0701 39.2052 6.95581 35.3683 6.95581Z" fill="white" stroke="black"/>
<path fill-rule="evenodd" clip-rule="evenodd" d="M27.7059 34.147C27.8253 35.2576 27.3878 36.374 26.7377 37.1759C26.0876 37.9783 25.0206 38.6015 23.9761 38.5192C23.8339 37.4304 24.3614 36.2944 24.9636 35.5847C25.6358 34.7832 26.7689 34.1853 27.7059 34.147ZM31.5749 48.0623C31.4633 48.0162 29.106 47.0439 29.0803 44.2254C29.0595 41.875 30.9242 40.7199 31.0843 40.6208C31.0877 40.6186 31.0921 40.6158 31.0921 40.6158C29.9981 38.984 28.2943 38.7599 27.6874 38.7341C26.8005 38.6425 25.9402 38.9884 25.2376 39.2708C24.7915 39.4501 24.409 39.6038 24.1236 39.6038C23.8054 39.6038 23.4121 39.445 22.9709 39.2665C22.3931 39.033 21.7331 38.7663 21.0512 38.7795C19.4705 38.8029 18.0142 39.7157 17.1994 41.1572C15.5589 44.0599 16.7806 48.36 18.3793 50.7153C19.1616 51.8666 20.094 53.1636 21.3185 53.1163C21.8665 53.0944 22.256 52.9253 22.6587 52.7505C23.1232 52.549 23.6054 52.3396 24.3684 52.3396C25.0974 52.3396 25.5583 52.5429 26.0016 52.7383C26.4248 52.9248 26.832 53.1043 27.4408 53.0929C28.7094 53.069 29.5145 51.9176 30.2905 50.7619C31.159 49.4684 31.5337 48.2148 31.5756 48.0742C31.5771 48.0695 31.5788 48.0638 31.5788 48.0638L31.5749 48.0623Z" fill="black"/>
<path fill-rule="evenodd" clip-rule="evenodd" d="M15.1577 6.32349V8.67378C15.1577 9.46951 15.7493 10.1176 16.4791 10.1176H32.7821C33.5119 10.1176 34.1051 9.4713 34.1051 8.67378V6.32349H15.1577Z" fill="black"/>
</svg>
