<svg width="84" height="68" viewBox="0 0 84 68" fill="none" xmlns="http://www.w3.org/2000/svg">
<path d="M10 8.5H74C75.933 8.5 77.5 10.067 77.5 12V51C77.5 52.933 75.933 54.5 74 54.5H10C8.067 54.5 6.5 52.933 6.5 51V12C6.5 10.067 8.067 8.5 10 8.5Z" fill="white" stroke="black"/>
<path fill-rule="evenodd" clip-rule="evenodd" d="M34.0432 37.2932C34.5794 37.1181 34.8474 36.4937 34.6511 35.9374C34.5383 36.5502 34.1482 36.9495 33.5701 37.0502C33.4187 37.0765 33.2651 37.0899 33.1114 37.1033C32.9626 37.1163 32.8137 37.1293 32.6668 37.154C32.2529 37.2237 32.1085 37.4117 32.1517 37.833C32.1767 38.0776 32.2379 38.32 32.3005 38.5586C32.4275 39.0427 32.4225 39.5021 32.2148 39.9766C31.7826 40.9639 31.9776 41.3276 33.029 41.5707C33.3718 41.65 33.7159 41.7244 34.0599 41.7988C34.6627 41.9292 35.2654 42.0596 35.8615 42.2159C36.2631 42.3212 36.6554 42.4624 37.0477 42.6037C37.2735 42.6849 37.4994 42.7662 37.7271 42.8407C38.2772 43.0208 38.7899 42.9319 39.2579 42.5844C39.3533 42.5136 39.4508 42.4457 39.5484 42.3778C39.5961 42.3446 39.6438 42.3113 39.6913 42.2777C40.1879 41.9269 40.74 41.7549 41.3447 41.7453C41.443 41.7438 41.5412 41.7379 41.6395 41.7321C41.7566 41.7251 41.8737 41.7181 41.9908 41.7185L42.2744 41.7193C43.2178 41.722 44.1612 41.7248 45.1045 41.7408C45.4085 41.7459 45.6437 41.9119 45.7888 42.1866C46.0417 42.6656 46.4487 42.9089 46.9677 42.9627C47.5467 43.0227 48.1379 43.0649 48.6136 42.6357C49.4959 41.8395 50.4307 41.132 51.528 40.659C51.8355 40.5264 52.1223 40.339 52.4047 40.1544L52.4192 40.1449C52.5729 40.0445 52.7129 39.9108 52.8308 39.7683C53.0603 39.4907 53.0595 39.1954 52.8091 38.9404C52.6394 38.7675 52.4393 38.6095 52.2252 38.4996C51.561 38.1585 51.1853 37.6184 51.0588 36.8873C51.0382 36.7687 51.0199 36.6497 50.998 36.5082L50.9978 36.5069L50.9976 36.5055C50.9865 36.4334 50.9745 36.3555 50.9608 36.2688C50.7325 36.7314 50.7571 37.1314 50.8446 37.5318C50.9642 38.0789 51.2397 38.4914 51.8045 38.664C51.9986 38.7234 52.1858 38.8224 52.3593 38.9309C52.8342 39.228 52.8518 39.5682 52.3799 39.8595C52.0575 40.0584 51.7027 40.2207 51.3427 40.3369C50.4045 40.6396 49.5569 41.0914 48.8279 41.7648C48.7486 41.8381 48.6639 41.9078 48.5736 41.9663C48.0326 42.316 47.4554 42.5039 46.8642 42.1366C46.2959 41.7834 46.2211 41.1941 46.3059 40.5862C46.4546 39.5197 46.521 38.4679 46.232 37.4033C46.1314 37.0331 46.2029 36.5984 46.2689 36.2059C46.299 36.027 46.4786 35.7911 46.641 35.7372C46.8588 35.6648 46.9792 35.8632 47.0867 36.0405C47.1027 36.0669 47.1185 36.0928 47.1342 36.1173C47.1728 36.1773 47.2032 36.2427 47.2337 36.3081C47.2451 36.3326 47.2565 36.3571 47.2683 36.3812C47.5973 37.0543 48.0804 37.2832 48.8085 37.1251C49.2914 37.0202 49.6134 36.7032 49.905 36.3298C50.0085 36.1971 50.1233 36.0733 50.2381 35.9494C50.2962 35.8868 50.3542 35.8241 50.4109 35.7603C50.4482 35.7182 50.4904 35.6777 50.5326 35.6371C50.6312 35.5424 50.73 35.4474 50.7683 35.3322C50.857 35.0652 50.9134 34.7677 50.8977 34.4879C50.7712 32.2354 50.0697 30.176 48.57 28.4972C47.0651 26.8125 46.3395 24.8718 46.4042 22.6455C46.476 20.1747 45.0357 18.3629 42.6235 18.0374C40.435 17.7421 38.8492 19.2335 38.8473 21.1511C38.8459 22.4837 38.9094 23.8168 38.9728 25.149C38.9833 25.3702 38.9939 25.5919 39.0041 25.8131C39.0179 26.1122 39.0149 26.3896 38.8537 26.638C38.7326 26.8246 38.6145 27.0137 38.4962 27.2029C38.1743 27.7182 37.852 28.2339 37.4705 28.6995C36.8372 29.4725 36.419 30.3385 36.0921 31.2662L36.0201 31.4712C35.7631 32.2048 35.5064 32.9375 35.0911 33.6035C34.9842 33.775 34.914 33.9841 34.8806 34.1851C34.8169 34.5679 34.7592 34.9602 34.9424 35.3344C35.6953 35.0844 35.9203 35.1404 36.4878 35.7265C36.6588 35.9031 36.8315 36.0843 36.9682 36.2877C37.1169 36.5088 37.2665 36.7294 37.4162 36.95C37.9757 37.7749 38.5354 38.6002 39.0483 39.4539C39.315 39.8978 39.4653 40.4354 39.5705 40.9509C39.7064 41.6167 39.3483 42.0957 38.6963 42.2883C38.1918 42.4373 37.7079 42.3261 37.2221 42.1961L36.6782 42.0502C35.8862 41.8376 35.0941 41.6249 34.2995 41.4228C34.0785 41.3666 33.8545 41.3226 33.6304 41.2785C33.4028 41.2338 33.175 41.189 32.9505 41.1315C32.3951 40.9891 32.3019 40.7699 32.5374 40.2453C32.5941 40.1191 32.654 39.9943 32.7161 39.8708C32.9029 39.4992 32.8914 39.1284 32.7201 38.7552C32.7015 38.7146 32.6825 38.674 32.6635 38.6335C32.5944 38.486 32.5252 38.3382 32.4723 38.1848C32.2767 37.6181 32.4674 37.4013 33.0652 37.4188C33.391 37.4282 33.7349 37.3938 34.0432 37.2932ZM47.2038 29.455C47.1338 29.3371 47.0637 29.2192 46.9956 29.1003C48.4482 30.5508 48.8851 32.2963 48.4867 34.2963L48.6166 34.3847C48.7727 34.4907 48.9362 34.6018 49.0975 34.7154C49.1137 34.7268 49.1238 34.7473 49.1411 34.7826C49.1518 34.8043 49.1653 34.8318 49.1847 34.8663C48.6947 34.6087 48.231 34.5276 47.7487 34.6103C47.3379 34.6808 47.0097 34.8622 46.8982 35.3162C46.8833 35.3771 46.7934 35.4467 46.7266 35.4627C46.223 35.5836 45.9689 35.8281 45.9144 36.3695C45.8752 36.76 45.845 37.1733 45.9271 37.5506C46.175 38.6897 46.0215 39.7952 45.7656 40.9021C45.74 41.013 45.7181 41.1248 45.6962 41.2372C45.686 41.289 45.6759 41.341 45.6653 41.3931C45.3878 41.3934 45.3164 41.2342 45.361 41.0219C45.3873 40.8971 45.4251 40.7746 45.4629 40.6521C45.5068 40.5098 45.5508 40.3675 45.5764 40.2219C45.6479 39.8162 45.6971 39.4051 45.7277 38.9941C45.7332 38.9201 45.6902 38.8423 45.6472 38.7645C45.6274 38.7288 45.6076 38.693 45.5926 38.6577C45.5605 38.6785 45.5249 38.6969 45.4893 38.7154C45.4129 38.7551 45.3363 38.7948 45.294 38.858C44.3187 40.312 42.8656 40.4109 41.346 40.2588C41.0479 40.229 40.7428 40.0346 40.4901 39.8481C40.2642 39.6815 40.1307 39.7249 39.9624 39.8951C40.0133 39.9854 40.0705 40.0746 40.1276 40.1637C40.4093 40.6033 40.689 41.0398 40.2096 41.5962C40.2591 40.6962 39.7858 40.0131 39.2808 39.3166C39.3137 39.3047 39.3413 39.2945 39.3656 39.2855C39.4101 39.2691 39.4432 39.2568 39.4768 39.2458C40.1535 39.0231 40.3291 38.2338 39.7907 37.7636C39.5305 37.5365 39.2611 37.3201 38.9917 37.1037C38.7623 36.9194 38.5328 36.7351 38.3089 36.544L38.296 36.533C37.7466 36.0642 37.1962 35.5945 36.6751 35.0944C36.2927 34.7275 36.2146 34.2049 36.1581 33.7048C36.13 33.4562 36.166 33.1981 36.2014 32.9445C36.2071 32.9037 36.2128 32.8629 36.2181 32.8224C36.2284 32.7451 36.2686 32.6718 36.3126 32.5915C36.3338 32.5528 36.3559 32.5125 36.376 32.4693C36.376 32.6072 36.3705 32.742 36.3652 32.874C36.3533 33.1672 36.342 33.4463 36.3924 33.7133C36.4515 34.026 36.601 34.3239 36.7478 34.6162C36.7728 34.6661 36.7979 34.716 36.8223 34.7656C36.8603 34.8429 37.0235 34.9044 37.1169 34.8904C37.1813 34.8807 37.2625 34.7319 37.2707 34.6392C37.3005 34.305 37.3156 33.9681 37.313 33.6324C37.302 32.2641 37.866 31.1016 38.5746 29.9902C38.6165 29.9244 38.6695 29.8658 38.7293 29.7998C38.7593 29.7667 38.7911 29.7316 38.824 29.6928C38.5244 29.1072 38.7364 28.5406 39.0323 27.985C39.0711 27.9123 39.1108 27.84 39.1507 27.7676C39.3916 27.3293 39.6345 26.8873 39.6665 26.3331C39.6908 26.3612 39.7157 26.3889 39.7405 26.4167C39.7951 26.4776 39.8496 26.5385 39.8991 26.6034C39.9744 26.7023 40.047 26.8035 40.1196 26.9047C40.26 27.1004 40.4004 27.2961 40.5599 27.4742C40.8592 27.8086 41.1389 27.8486 41.5389 27.6455C41.6809 27.5735 41.8142 27.4837 41.9476 27.3939C42.0101 27.3518 42.0727 27.3097 42.1362 27.2694C42.6491 26.9436 43.1622 26.6181 43.6755 26.2927C43.7021 26.2759 43.7297 26.2602 43.7574 26.2446C43.8157 26.2115 43.8739 26.1785 43.9223 26.1343C43.9649 26.0954 44.0109 25.996 43.9915 25.9658C43.9564 25.9114 43.8649 25.8484 43.8122 25.86C43.6618 25.8928 43.513 25.9488 43.3745 26.0181C43.2293 26.0908 43.0862 26.1687 42.9432 26.2467C42.6808 26.3897 42.4185 26.5327 42.1433 26.6428C41.8604 26.7559 41.5377 26.7914 41.2298 26.8107C40.8212 26.8363 40.5437 26.5918 40.2927 26.2353C40.3316 26.2353 40.3658 26.2338 40.3969 26.2325C40.4555 26.2301 40.5028 26.2281 40.548 26.2371C41.1356 26.3535 41.6957 26.2597 42.2429 26.0313C42.5262 25.913 42.8106 25.7976 43.0951 25.6822C43.3641 25.5731 43.6331 25.4639 43.9011 25.3524C43.9793 25.3198 44.0734 25.2708 44.1076 25.2025C44.1378 25.1423 44.1212 25.0163 44.0754 24.9718C44.0363 24.9337 43.899 24.9377 43.8519 24.9784C42.9555 25.7531 41.8717 25.8944 40.7562 25.921C40.4792 25.9277 40.2508 25.8001 40.0678 25.5799C39.9492 25.4371 39.82 25.2912 39.6667 25.1927C39.416 25.0317 39.4408 24.8487 39.5725 24.6406C39.6189 24.5673 39.6859 24.5044 39.7524 24.4473C39.8749 24.342 39.9983 24.2378 40.1218 24.1336C40.311 23.9739 40.5003 23.814 40.6862 23.6505C40.7381 23.6049 40.7923 23.5153 40.7842 23.4544C40.7506 23.2025 40.7157 22.9465 40.6382 22.7064C40.5746 22.5095 40.3862 22.3966 40.1912 22.4595C40.0316 22.5109 39.8423 22.624 39.7695 22.7646C39.5691 23.1514 39.7586 23.6646 40.1767 23.9061C40.1468 23.9311 40.1185 23.9596 40.091 23.9872C40.0297 24.0489 39.9725 24.1064 39.9105 24.1122C39.8448 24.1184 39.7384 23.9957 39.6976 23.9079C39.4355 23.3437 39.3808 22.7677 39.6556 22.1888C39.779 21.929 39.9426 21.7049 40.2637 21.7031C40.5938 21.7013 40.7871 21.916 40.9004 22.1933C40.9889 22.41 41.0395 22.6453 41.084 22.8767C41.1081 23.0023 41.1158 23.131 41.124 23.2669C41.1277 23.3293 41.1315 23.3932 41.1371 23.4589L42.2027 23.5366L42.1655 23.0938C42.1013 22.3198 42.4135 21.8081 43.0638 21.6215C43.5834 21.4723 44.0726 21.6749 44.3425 22.151C44.6241 22.6478 44.645 23.1912 44.5808 23.7361C44.5677 23.8472 44.4057 23.9943 44.2859 24.0278C44.004 24.1066 43.8959 23.9646 44.0078 23.6884C44.1326 23.3807 44.1017 23.0864 43.965 22.7983C43.8269 22.5073 43.5858 22.3788 43.2724 22.4043C42.9727 22.4287 42.8209 22.6256 42.7419 22.8862C42.6968 23.0352 42.6826 23.1969 42.6752 23.3539C42.6619 23.6304 42.7296 23.8409 43.0425 23.9386C43.2701 24.0097 43.4904 24.104 43.7109 24.1984C43.8588 24.2617 44.0068 24.325 44.1571 24.3814C44.5077 24.513 44.6181 24.6891 44.5426 25.0653C44.5166 25.1946 44.4829 25.3223 44.4492 25.45L44.4293 25.5261C44.3135 25.9689 44.3976 26.3834 44.6668 26.7363C45.2123 27.4516 45.5075 28.2708 45.7204 29.1329C45.7431 29.2248 45.7974 29.3092 45.8513 29.3929C45.871 29.4237 45.8908 29.4544 45.9089 29.4853C45.9652 29.5818 46.0262 29.6763 46.0872 29.7708C46.2136 29.9666 46.3399 30.1623 46.4248 30.3749C46.7757 31.2541 46.9592 32.1738 46.9668 33.1264C46.9689 33.3936 46.9786 33.6616 47.0035 33.9274C47.0281 34.1891 47.0729 34.4512 47.4038 34.5002C47.7762 34.5554 48.0998 34.4032 48.2226 34.0729C48.3042 33.8537 48.3549 33.6154 48.376 33.3817C48.4775 32.2558 48.1346 31.2288 47.6458 30.2436C47.512 29.9739 47.3579 29.7144 47.2038 29.455ZM40.4512 23.4018L40.5836 23.3589C40.5701 23.3142 40.5568 23.2694 40.5436 23.2245C40.5009 23.08 40.4582 22.9355 40.4053 22.795C40.3988 22.7778 40.3459 22.7786 40.3031 22.7792C40.2861 22.7794 40.2707 22.7796 40.2604 22.7787L40.4512 23.4018ZM43.7821 23.1965C43.9101 22.9007 43.7476 22.6694 43.4421 22.6889L43.7821 23.1965Z" fill="black"/>
<path d="M54 59H33V60H54V59Z" fill="black"/>
<path d="M46.5 54.5H40.5V59.5H46.5V54.5Z" fill="white" stroke="black"/>
</svg>
