<svg width="50" height="54" viewBox="0 0 50 54" fill="none" xmlns="http://www.w3.org/2000/svg">
<path d="M49.0002 6.50001V27.1C49.0002 35.7 44.2002 43.5 36.7002 48.4C34.9002 49.6 33.0002 50.6 30.9002 51.4C29.5002 52 28.0002 52.4 26.4002 52.8C25.9002 52.9 25.4002 53 24.8002 53.1C11.0002 50.4 0.700195 39.7 0.700195 27.1V6.50001C0.700195 6.50001 9.00019 2.60001 24.9002 0.700012C40.7002 2.60001 49.0002 6.50001 49.0002 6.50001Z" fill="#CC2529"/>
<path d="M49.0002 6.50001V23.5C47.4002 25.6 45.6002 27.5 43.9002 28.5C38.5002 31.6 38.9002 34 38.4002 37.9C38.1002 40.4 38.5002 44.5 36.8002 48.4C35.0002 49.6 33.1002 50.6 31.0002 51.4C29.6002 52 28.1002 52.4 26.5002 52.8C26.0002 52.9 25.5002 53 24.9002 53.1C11.0002 50.4 0.700195 39.7 0.700195 27.1V6.50001C0.700195 6.50001 9.00019 2.60001 24.9002 0.700012C40.7002 2.60001 49.0002 6.50001 49.0002 6.50001Z" fill="#EF4E22"/>
<path d="M49.0002 6.50001C48.8002 6.90001 44.5002 16 36.0002 18.5C27.3002 21.1 21.5002 26.8 24.8002 33.9C27.7002 40.3 34.9002 40.8 30.8002 51.4C29.4002 52 27.9002 52.4 26.3002 52.8C25.8002 52.9 25.3002 53 24.7002 53.1C11.0002 50.4 0.700195 39.7 0.700195 27.1V6.50001C0.700195 6.50001 9.00019 2.60001 24.9002 0.700012C40.7002 2.60001 49.0002 6.50001 49.0002 6.50001Z" fill="#FABA25"/>
<path d="M24.9002 0.700012C40.7002 2.60001 49.0002 6.50001 49.0002 6.50001C48.7002 6.70001 43.4002 10 30.2002 10.9C16.5002 11.8 9.5002 17.7 10.6002 24.6C12.7002 38.1 25.7002 39.8 26.4002 52.9C25.9002 53 25.4002 53.1 24.8002 53.2C11.0002 50.4 0.700195 39.7 0.700195 27.1V6.50001C0.700195 6.50001 9.00019 2.60001 24.9002 0.700012Z" fill="#FFDC8C"/>
<path d="M28.5001 24.7C28.5001 22.7 26.9001 21 24.8001 21C22.8001 21 21.1001 22.6 21.1001 24.7C21.1001 25.7 21.5001 26.7 22.2001 27.4V32.9H27.3001V27.4C28.1001 26.7 28.5001 25.8 28.5001 24.7Z" fill="#1F2B38"/>
<path d="M24.8 53.9H24.7C10.4 51 0 39.8 0 27.1V6.5C0 6.2 0.2 6 0.4 5.9C0.7 5.7 9 1.9 24.8 0C24.9 0 24.9 0 25 0C40.8 1.9 49 5.7 49.4 5.9C49.6 6 49.8 6.3 49.8 6.5V27.1C49.8 35.7 45.2 43.7 37.2 49C35.4 50.2 33.4 51.2 31.3 52.1C29.9 52.7 28.4 53.2 26.7 53.6C26.2 53.7 25.7 53.8 25.1 53.9C25 53.9 24.9 53.9 24.8 53.9ZM1.4 7V27.1C1.4 39.1 11.3 49.7 24.9 52.5C25.4 52.4 25.8 52.3 26.3 52.2C27.9 51.8 29.3 51.3 30.7 50.8C32.7 50 34.6 49 36.4 47.9C44 42.9 48.4 35.4 48.4 27.2V7C46.6 6.2 38.5 3.1 24.9 1.4C11.3 3.1 3.2 6.2 1.4 7Z" fill="#1F2B38"/>
</svg>
