<svg width="50" height="54" viewBox="0 0 50 54" fill="none" xmlns="http://www.w3.org/2000/svg">
<path d="M30.5002 27.2H29.3002V24C29.3002 21.7 27.4002 19.9 25.1002 19.9C22.8002 19.9 21.0002 21.7 20.9002 24V27.2H19.7002C19.4002 27.2 19.2002 27.4 19.2002 27.7V34.2C19.2002 34.5 19.4002 34.7 19.7002 34.7H30.5002C30.8002 34.7 31.0002 34.5 31.0002 34.2V27.7C30.9002 27.4 30.7002 27.2 30.5002 27.2ZM22.6002 24C22.6002 22.6 23.8002 21.5 25.1002 21.5C26.5002 21.5 27.6002 22.6 27.6002 24V27.2H22.5002V24H22.6002ZM26.0002 32.1H24.3002L24.9002 30.5C24.5002 30.4 24.3002 30 24.3002 29.6C24.3002 29.1 24.7002 28.7 25.2002 28.7C25.7002 28.7 26.1002 29.1 26.1002 29.6C26.1002 30 25.8002 30.3 25.5002 30.5L26.0002 32.1Z" fill="#EF4E22"/>
<path d="M16.3 18V27.4C16.3 31.6 20 35.7 25.2 37.7V53.5C11.3 50.7 1 40 1 27.4V6.8C1 6.8 9.3 2.9 25.2 1V16.4C21.7 16.9 18.7 17.5 16.3 18Z" fill="#2563EB"/>
<path d="M49.3001 6.8V27.4C49.3001 40 39.0001 50.7 25.1001 53.5V45C34.4001 42.5 40.9001 35.4 40.9001 27.5V12.7C37.4001 11.6 32.1001 10.3 25.1001 9.4V1C41.0001 2.9 49.3001 6.8 49.3001 6.8Z" fill="#6991E9"/>
<path d="M49.3 6.8V27.4C49.3 40 39 50.7 25.1 53.5C11.3 50.7 1 40 1 27.4V6.8C1 6.8 9.3 2.9 25.2 1C41 2.9 49.3 6.8 49.3 6.8Z" stroke="#1F2B38" stroke-miterlimit="10" stroke-linecap="round" stroke-linejoin="round"/>
<path d="M25.2002 9.39999C32.2002 10.3 37.6002 11.6 41.0002 12.7V27.4C41.0002 35.3 34.4002 42.5 25.2002 44.9" stroke="#1F2B38" stroke-miterlimit="10" stroke-linecap="round" stroke-linejoin="round"/>
<path d="M25.1998 37.7C19.8998 35.7 16.2998 31.6 16.2998 27.4V18C18.7998 17.4 21.6998 16.9 25.1998 16.4" stroke="#1F2B38" stroke-miterlimit="10" stroke-linecap="round" stroke-linejoin="round"/>
<path d="M25.2002 53.5V37.7" stroke="#1F2B38" stroke-miterlimit="10" stroke-linecap="round" stroke-linejoin="round"/>
<path d="M25.2002 16.4V1" stroke="#1F2B38" stroke-miterlimit="10" stroke-linecap="round" stroke-linejoin="round"/>
</svg>
