<svg width="84" height="68" viewBox="0 0 84 68" fill="none" xmlns="http://www.w3.org/2000/svg">
<path d="M37.5474 62.5L38.4565 52.5H46.5433L47.4524 62.5H37.5474Z" fill="white" stroke="black"/>
<path d="M53 62H32V63H53V62Z" fill="black"/>
<path d="M10 6.5H74C75.933 6.5 77.5 8.067 77.5 10V54C77.5 55.933 75.933 57.5 74 57.5H10C8.06701 57.5 6.5 55.933 6.5 54V10C6.5 8.067 8.067 6.5 10 6.5Z" fill="white" stroke="black"/>
<path d="M10 6.5H74C75.933 6.5 77.5 8.067 77.5 10V50.5H6.5V10C6.5 8.067 8.067 6.5 10 6.5Z" fill="white" stroke="black"/>
<path fill-rule="evenodd" clip-rule="evenodd" d="M45.6565 17C45.7904 18.2881 45.2997 19.5827 44.5706 20.5126C43.8414 21.4432 42.6448 22.1659 41.4734 22.0704C41.3138 20.8078 41.9054 19.4904 42.581 18.6674C43.3348 17.7379 44.6056 17.0445 45.6565 17ZM49.9957 33.1374C49.8705 33.084 47.2267 31.9565 47.1979 28.6879C47.1747 25.9621 49.2659 24.6225 49.4454 24.5076C49.4492 24.5051 49.4521 24.5033 49.4542 24.5019C48.2272 22.6094 46.3164 22.3495 45.6356 22.3197C44.641 22.2135 43.6761 22.6145 42.8881 22.942C42.3878 23.15 41.9589 23.3283 41.6389 23.3283C41.2819 23.3283 40.8408 23.144 40.346 22.9371C39.698 22.6663 38.9577 22.3569 38.1931 22.3723C36.4203 22.3994 34.787 23.458 33.8731 25.1297C32.0333 28.4959 33.4034 33.4827 35.1963 36.214C36.0737 37.5493 37.1195 39.0533 38.4928 38.9985C39.1074 38.9731 39.5442 38.777 39.9959 38.5743C40.5169 38.3405 41.0576 38.0979 41.9134 38.0979C42.7309 38.0979 43.2479 38.3335 43.745 38.5601C44.2197 38.7765 44.6762 38.9846 45.3591 38.9714C46.7818 38.9437 47.6849 37.6085 48.5552 36.2682C49.5293 34.7681 49.9494 33.3143 49.9965 33.1512C49.9981 33.1458 49.9993 33.1418 50 33.1393C50 33.1393 49.998 33.1384 49.9957 33.1374Z" fill="black"/>
</svg>
