<svg width="50" height="62" viewBox="0 0 50 62" fill="none" xmlns="http://www.w3.org/2000/svg">
<path d="M49.3 12.6V33.2C49.3 45.8 39 56.5 25.1 59.3C11.3 56.5 1 45.8 1 33.1V12.6C1 12.6 9.3 8.69999 25.2 6.79999C41 8.69999 49.3 12.6 49.3 12.6Z" fill="#A7CE38"/>
<path d="M24.5 6.79999C9.1 8.79999 1 12.5 1 12.5V33.1C1 45.5 11 56.1 24.5 59V6.79999Z" fill="#7EB342"/>
<path d="M49.3 12.6V33.2C49.3 45.8 39 56.5 25.1 59.3C11.3 56.5 1 45.8 1 33.1V12.6C1 12.6 9.3 8.69999 25.2 6.79999C41 8.69999 49.3 12.6 49.3 12.6Z" stroke="#1F2B38" stroke-miterlimit="10" stroke-linecap="round" stroke-linejoin="round"/>
<path d="M36.0998 26.9H41.0998L24.5998 45.1L9.7998 61.5L25.1998 29.9H20.1998L25.8998 18.3H16.9998L25.4998 1H41.8998L35.1998 14.5H42.1998L36.0998 26.9Z" fill="#F89D3E"/>
<path d="M36.0999 26.9H41.0999L24.5999 45.1L32.0999 29.9H27.0999L32.7999 18.3H23.8999L32.3999 1H41.8999L35.1999 14.5H42.1999L36.0999 26.9Z" fill="#EF4E22"/>
<path d="M42.1998 14.5H35.1998L41.8998 1H25.4998L16.9998 18.3H25.8998L20.1998 29.9H25.1998L9.7998 61.5L41.0998 26.9H36.1998L42.1998 14.5Z" stroke="#1F2B38" stroke-miterlimit="10" stroke-linecap="round" stroke-linejoin="round"/>
</svg>
