<svg width="56" height="57" viewBox="0 0 56 57" fill="none" xmlns="http://www.w3.org/2000/svg">
<g filter="url(#filter0_d_767_1309)">
<circle cx="33" cy="20" r="20" fill="url(#paint0_linear_767_1309)"/>
</g>
<path fill-rule="evenodd" clip-rule="evenodd" d="M42.7396 15.2039C42.2848 15.9068 41.7094 16.4976 41.0435 17C40.9115 17.0996 40.8692 17.1984 40.8736 17.3662C40.9197 19.1528 40.5308 20.8487 39.7596 22.4556C38.8374 24.3771 37.4949 25.9327 35.6759 27.0599C34.3853 27.8598 32.9796 28.3356 31.476 28.5368C30.4165 28.6787 29.3574 28.6816 28.3013 28.5297C26.7706 28.3098 25.346 27.7902 24.0375 26.9608C24.0283 26.9551 24.0226 26.944 24 26.9175C26.0817 27.1077 27.9521 26.5977 29.645 25.3254C27.8814 25.1694 26.7057 24.2804 26.0435 22.632C26.6342 22.6967 27.1843 22.7152 27.7528 22.5539C25.5218 22.0002 24.6279 20.0242 24.7234 18.7483C24.991 18.8502 25.253 18.9723 25.5278 19.0483C25.8023 19.1243 26.0895 19.1541 26.3836 19.1809C25.5848 18.5678 25.0465 17.796 24.8289 16.817C24.6122 15.8423 24.7673 14.9224 25.2563 14.0341C27.3485 16.4965 29.985 17.8529 33.2115 18.0729C33.1899 17.8224 33.1598 17.5884 33.1511 17.3535C33.081 15.4455 34.3382 13.7944 36.1998 13.408C37.5122 13.1356 38.6798 13.4767 39.6653 14.394C39.7814 14.5021 39.8771 14.5363 40.034 14.4982C40.7468 14.3248 41.4294 14.0772 42.071 13.72C42.1235 13.6908 42.1781 13.6652 42.2695 13.6188C41.9727 14.521 41.4296 15.1814 40.6889 15.7267C40.9149 15.6849 41.1425 15.6506 41.3663 15.5994C41.5929 15.5475 41.8178 15.4854 42.0396 15.4155C42.2671 15.3438 42.4901 15.2571 42.7151 15.1771C42.7225 15.1866 42.7307 15.1955 42.7396 15.2039Z" fill="white"/>
<path fill-rule="evenodd" clip-rule="evenodd" d="M30.8862 13.01C30.9038 13.0067 30.9215 13.0033 30.939 13C30.9316 13.0176 30.924 13.0351 30.9165 13.0528C30.9056 13.0395 30.8955 13.0253 30.8862 13.01Z" fill="#04A9F3"/>
<defs>
<filter id="filter0_d_767_1309" x="0" y="0" width="56" height="57" filterUnits="userSpaceOnUse" color-interpolation-filters="sRGB">
<feFlood flood-opacity="0" result="BackgroundImageFix"/>
<feColorMatrix in="SourceAlpha" type="matrix" values="0 0 0 0 0 0 0 0 0 0 0 0 0 0 0 0 0 0 127 0" result="hardAlpha"/>
<feOffset dx="-5" dy="9"/>
<feGaussianBlur stdDeviation="4"/>
<feColorMatrix type="matrix" values="0 0 0 0 0 0 0 0 0 0 0 0 0 0 0 0 0 0 0.188235 0"/>
<feBlend mode="normal" in2="BackgroundImageFix" result="effect1_dropShadow_767_1309"/>
<feBlend mode="normal" in="SourceGraphic" in2="effect1_dropShadow_767_1309" result="shape"/>
</filter>
<linearGradient id="paint0_linear_767_1309" x1="-12.6375" y1="22.3679" x2="32.0983" y2="73.643" gradientUnits="userSpaceOnUse">
<stop stop-color="white"/>
<stop offset="1" stop-color="#00B99E"/>
</linearGradient>
</defs>
</svg>
