<svg width="243" height="95" viewBox="0 0 243 95" fill="none" xmlns="http://www.w3.org/2000/svg">
<path d="M97.4703 64.6145C94.9788 64.6145 93.3397 65.2198 92.553 66.4303C91.8318 67.5602 91.4712 69.2954 91.4712 71.6358V72.8464C91.34 77.7694 90.0287 81.9661 87.5373 85.4364C83.079 91.8121 76.6865 94.9999 68.3599 94.9999C61.869 94.9999 56.2961 92.3367 51.6411 87.0101C50.2642 88.7049 48.4612 90.198 46.232 91.4893C44.0029 92.8612 41.9704 93.5472 40.1346 93.5472L35.2173 86.2838L33.5454 83.1363C34.66 82.2485 35.2173 80.4327 35.2173 77.6887V55.6562H44.5602L39.7412 47.3033V1.54351H82.62L88.5208 8.80696V25.8761H62.9508V31.5658C68.8516 31.8886 73.9656 33.5834 78.2928 36.6502C82.62 39.717 85.931 43.7119 88.2257 48.6349C89.0781 48.5542 90.5205 48.5138 92.553 48.5138L97.4703 55.7773V64.6145ZM70.3268 52.5087C70.9824 52.0245 71.7692 51.056 72.6871 49.6033H74.2606L75.8342 51.7824L77.506 49.6033H79.1779C80.0958 51.056 80.8826 52.0245 81.5382 52.5087L82.4233 51.2982C82.6856 50.9753 82.8823 50.7736 83.0134 50.6929C82.0299 46.4962 79.7024 42.8645 76.0308 39.7977C72.3593 36.6502 67.3764 35.0764 61.0823 35.0764C59.8366 35.0764 58.2302 35.3589 56.2633 35.9238L55.2799 36.287V15.223H80.8498V4.93312H42.4949V45.1242H48.494C51.2477 43.5908 54.0014 42.8241 56.755 42.8241C62.328 42.8241 65.8029 45.0839 67.1797 49.6033C68.4254 50.249 69.4745 51.2174 70.3268 52.5087ZM61.6723 51.6613V54.5667C63.836 54.5667 65.4095 55.4545 66.3929 57.23C67.442 58.9248 67.9665 60.6196 67.9665 62.3144V63.1618C67.9665 66.2286 67.0486 68.9322 65.2128 71.2726C63.377 73.6131 60.6561 74.7833 57.0501 74.7833C53.5096 74.7833 50.4937 73.492 48.0023 70.9095C45.5764 68.3269 44.1996 64.3724 43.8717 59.0458H38.0693V76.3571C38.0693 79.9081 37.7415 81.9661 37.0859 82.531C38.266 82.3696 39.9051 81.4818 42.0032 79.8677C44.1668 78.1729 45.6092 76.7202 46.3304 75.5097C49.6086 78.8186 52.395 81.159 54.6898 82.531C57.0501 83.903 59.9677 84.589 63.4426 84.589C68.8188 84.589 73.4739 83.0556 77.4077 79.9888C81.4071 76.8413 83.5051 72.2411 83.7018 66.1882V64.6145C83.7018 57.916 85.8327 54.5667 90.0943 54.5667V51.6613C87.2751 51.6613 85.2098 52.5894 83.8985 54.4456C83.374 55.2527 82.8823 56.1404 82.4233 57.1089C80.8498 56.6247 79.3418 55.4141 77.8994 53.4772L75.8342 56.0194L73.8672 53.4772C72.556 55.2527 71.0808 56.4633 69.4417 57.1089C68.6549 55.6562 68.0976 54.7281 67.7698 54.3246C66.4585 52.5491 64.426 51.6613 61.6723 51.6613ZM59.2137 53.8404C57.6402 54.1632 56.0666 54.8088 54.4931 55.7773H46.7238L51.5427 62.9197V66.6725L51.8378 70.0621C53.149 70.8691 54.952 71.2726 57.2468 71.2726C61.7707 71.2726 64.3605 69.0532 65.0161 64.6145H64.131L59.2137 57.351V53.8404Z" fill="#F2A700"/>
<path d="M169.91 29.2657V48.5138H170.992L175.909 55.7773V64.6145C173.418 64.6145 171.811 65.1794 171.09 66.3093C170.369 67.4392 170.008 69.2147 170.008 71.6358V73.2096C170.008 77.4062 169.156 80.9976 167.451 83.9837C165.812 86.9698 163.583 89.2295 160.764 90.7629C155.453 93.5876 149.421 94.9999 142.668 94.9999C133.227 94.9999 125.49 92.2156 119.458 86.6469C113.427 81.159 110.411 74.2587 110.411 65.9461V64.6145H109.427L104.51 57.351V48.5138C107.395 48.5138 109.394 48.6349 110.509 48.877V22.0022C110.509 17.8056 111.329 14.2142 112.968 11.2281C114.672 8.16132 116.934 5.86122 119.754 4.32783C124.933 1.50316 130.932 0.0908203 137.751 0.0908203C147.323 0.0908203 155.06 2.79444 160.96 8.20167C166.927 13.5282 169.91 20.5495 169.91 29.2657ZM115.623 52.5087C116.41 51.9438 117.229 50.9753 118.082 49.6033H120.54C121.393 51.056 122.179 52.0245 122.901 52.5087C124.081 50.8139 125.425 49.7244 126.933 49.2402V25.3918C126.933 21.2759 127.949 18.088 129.982 15.8283C132.014 13.4879 134.637 12.3176 137.849 12.3176C141.062 12.3176 143.652 13.4475 145.618 15.7072C147.585 17.967 148.569 21.1952 148.569 25.3918V49.2402C150.077 49.7244 151.421 50.8139 152.601 52.5087C153.257 52.0245 154.043 51.056 154.961 49.6033H157.42C158.272 51.056 159.092 52.0245 159.879 52.5087C160.534 51.4596 161.288 50.6525 162.141 50.0876V22.2443C162.141 18.8547 161.419 15.909 159.977 13.4071C158.535 10.9053 156.6 8.96837 154.175 7.59638C151.749 6.2244 149.159 5.21558 146.405 4.56995C143.652 3.92431 140.767 3.60149 137.751 3.60149C134.735 3.60149 131.85 3.92431 129.096 4.56995C126.408 5.21558 123.818 6.2244 121.327 7.59638C118.901 8.96837 116.967 10.9053 115.525 13.4071C114.082 15.909 113.361 18.8547 113.361 22.2443V50.0876C114.279 50.8139 115.033 51.621 115.623 52.5087ZM126.343 82.531C129.818 83.5802 133.62 84.1047 137.751 84.1047C141.881 84.1047 145.684 83.5802 149.159 82.531C152.634 81.4818 155.65 79.5449 158.207 76.7202C160.829 73.8148 162.141 70.1831 162.141 65.8251V64.6145C162.141 57.916 164.271 54.5667 168.533 54.5667V51.6613C167.353 51.6613 166.435 51.742 165.779 51.9034C165.189 51.9841 164.37 52.4684 163.321 53.3561C162.337 54.1632 161.419 55.4141 160.567 57.1089C159.125 56.7054 157.682 55.3334 156.24 52.993C155.06 55.0913 153.552 56.4633 151.716 57.1089C150.929 55.4141 150.044 54.1632 149.061 53.3561C148.077 52.4684 147.258 51.9841 146.602 51.9034C145.946 51.742 145.028 51.6613 143.848 51.6613V54.5667C146.012 54.5667 147.553 55.3334 148.471 56.8668C149.388 58.4002 149.847 59.9336 149.847 61.467C149.847 65.8251 148.7 69.255 146.405 71.7569C144.111 74.178 141.226 75.3886 137.751 75.3886C134.276 75.3886 131.391 74.178 129.096 71.7569C126.802 69.255 125.654 65.8251 125.654 61.467C125.654 59.9336 126.113 58.4002 127.031 56.8668C127.949 55.3334 129.49 54.5667 131.653 54.5667V51.6613C130.473 51.6613 129.555 51.742 128.9 51.9034C128.244 51.9841 127.425 52.4684 126.441 53.3561C125.458 54.1632 124.572 55.4141 123.786 57.1089C122.081 56.7054 120.573 55.3334 119.262 52.993C117.951 55.0913 116.508 56.4633 114.935 57.1089C114.082 55.4141 113.132 54.1632 112.083 53.3561C111.099 52.4684 110.28 51.9841 109.624 51.9034C109.034 51.742 108.149 51.6613 106.969 51.6613V54.5667C111.23 54.5667 113.361 57.916 113.361 64.6145V65.8251C113.361 70.1831 114.64 73.8148 117.197 76.7202C119.819 79.5449 122.868 81.4818 126.343 82.531ZM134.702 32.7763V49.1191L139.226 55.7773V64.6145C138.111 64.6952 137.226 64.8162 136.571 64.9776C135.915 65.0583 135.194 65.4619 134.407 66.1882C133.686 66.9146 133.325 67.9637 133.325 69.3357C133.325 71.0305 134.637 71.8779 137.259 71.8779C139.882 71.8779 141.98 71.2323 143.553 69.941C145.192 68.569 146.274 66.7935 146.799 64.6145H146.11L141.193 57.351V48.5138C143.291 48.5138 144.799 48.5542 145.717 48.6349V25.5129C145.717 24.8673 145.356 24.3427 144.635 23.9391C143.914 23.4549 143.258 23.2128 142.668 23.2128C140.242 23.2128 138.308 24.0602 136.866 25.755C135.423 27.3691 134.702 29.7096 134.702 32.7763Z" fill="#F2A700"/>
<path d="M218.08 34.832C218.08 32.624 217.776 30.976 217.168 29.888C216.56 28.768 215.712 28.208 214.624 28.208C213.6 28.208 212.768 28.768 212.128 29.888C211.52 30.976 211.216 32.624 211.216 34.832C211.216 37.104 211.52 38.784 212.128 39.872C212.768 40.96 213.6 41.504 214.624 41.504C215.712 41.504 216.56 40.96 217.168 39.872C217.776 38.784 218.08 37.104 218.08 34.832ZM222.544 34.832C222.544 37.936 221.808 40.352 220.336 42.08C218.864 43.776 216.96 44.624 214.624 44.624C212.256 44.624 210.352 43.776 208.912 42.08C207.472 40.384 206.752 37.968 206.752 34.832C206.752 31.728 207.472 29.328 208.912 27.632C210.352 25.936 212.256 25.088 214.624 25.088C216.96 25.088 218.864 25.936 220.336 27.632C221.808 29.328 222.544 31.728 222.544 34.832ZM196.384 19.376C196.384 17.136 196.08 15.472 195.472 14.384C194.864 13.296 194.032 12.752 192.976 12.752C191.92 12.752 191.072 13.296 190.432 14.384C189.824 15.472 189.52 17.136 189.52 19.376C189.52 21.616 189.824 23.28 190.432 24.368C191.072 25.456 191.92 26 192.976 26C194.032 26 194.864 25.456 195.472 24.368C196.08 23.28 196.384 21.616 196.384 19.376ZM200.848 19.376C200.848 20.912 200.656 22.288 200.272 23.504C199.888 24.72 199.344 25.76 198.64 26.624C197.936 27.456 197.104 28.096 196.144 28.544C195.184 28.96 194.128 29.168 192.976 29.168C190.576 29.168 188.656 28.32 187.216 26.624C185.776 24.928 185.056 22.512 185.056 19.376C185.056 16.272 185.776 13.872 187.216 12.176C188.656 10.448 190.576 9.584 192.976 9.584C194.128 9.584 195.184 9.808 196.144 10.256C197.104 10.672 197.936 11.312 198.64 12.176C199.344 13.008 199.888 14.032 200.272 15.248C200.656 16.464 200.848 17.84 200.848 19.376ZM191.296 44L212.32 10.304H216.256L195.232 44H191.296Z" fill="#EF3401"/>
<path d="M195.275 84.36C193.195 84.36 191.375 83.9 189.815 82.98C188.255 82.06 187.035 80.79 186.155 79.17C185.275 77.53 184.835 75.64 184.835 73.5C184.835 71.36 185.275 69.48 186.155 67.86C187.035 66.22 188.255 64.94 189.815 64.02C191.375 63.1 193.195 62.64 195.275 62.64C197.355 62.64 199.175 63.1 200.735 64.02C202.295 64.94 203.505 66.22 204.365 67.86C205.245 69.48 205.685 71.36 205.685 73.5C205.685 75.64 205.245 77.53 204.365 79.17C203.505 80.79 202.295 82.06 200.735 82.98C199.175 83.9 197.355 84.36 195.275 84.36ZM195.275 81.51C196.715 81.51 197.965 81.19 199.025 80.55C200.105 79.91 200.945 78.99 201.545 77.79C202.145 76.59 202.445 75.16 202.445 73.5C202.445 71.84 202.145 70.41 201.545 69.21C200.945 68.01 200.105 67.09 199.025 66.45C197.965 65.81 196.715 65.49 195.275 65.49C193.835 65.49 192.575 65.81 191.495 66.45C190.415 67.09 189.575 68.01 188.975 69.21C188.395 70.41 188.105 71.84 188.105 73.5C188.105 75.16 188.395 76.59 188.975 77.79C189.575 78.99 190.415 79.91 191.495 80.55C192.575 81.19 193.835 81.51 195.275 81.51ZM210.128 84V63H223.298V65.58H213.308V72.21H221.588V74.76H213.308V84H210.128ZM227.317 84V63H240.487V65.58H230.497V72.21H238.777V74.76H230.497V84H227.317Z" fill="#EF3401"/>
<path d="M24.36 83.01C24.36 84.51 24.07 85.87 23.49 87.09C22.89 88.29 21.98 89.25 20.76 89.97C19.54 90.67 17.99 91.02 16.11 91.02L3 91.02L3 87.84L16.14 87.84C17.98 87.84 19.33 87.4 20.19 86.52C21.05 85.64 21.48 84.45 21.48 82.95C21.48 81.47 21.05 80.29 20.19 79.41C19.33 78.53 17.98 78.09 16.14 78.09L3 78.09L3 74.91L16.11 74.91C17.99 74.91 19.54 75.28 20.76 76.02C21.98 76.74 22.89 77.72 23.49 78.96C24.07 80.18 24.36 81.53 24.36 83.01ZM24 69.9309L3 69.9309L3 62.5809C3 60.9409 3.28 59.5809 3.84 58.5009C4.38 57.4209 5.13 56.6209 6.09 56.1009C7.03 55.5609 8.1 55.2909 9.3 55.2909C10.44 55.2909 11.49 55.5509 12.45 56.0709C13.39 56.5709 14.14 57.3609 14.7 58.4409C15.26 59.5209 15.54 60.9009 15.54 62.5809L15.54 66.7509L24 66.7509L24 69.9309ZM12.93 66.7509L12.93 62.7309C12.93 61.2309 12.61 60.1609 11.97 59.5209C11.31 58.8609 10.42 58.5309 9.3 58.5309C8.14 58.5309 7.24 58.8609 6.6 59.5209C5.94 60.1609 5.61 61.2309 5.61 62.7309L5.61 66.7509L12.93 66.7509ZM24 37.8691L5.58 37.8691L5.58 44.0791L3 44.0791L3 28.5091L5.58 28.5091L5.58 34.6891L24 34.6891L24 37.8691ZM24.36 15.8808C24.36 17.9608 23.9 19.7808 22.98 21.3408C22.06 22.9008 20.79 24.1208 19.17 25.0008C17.53 25.8808 15.64 26.3208 13.5 26.3208C11.36 26.3208 9.48 25.8808 7.86 25.0008C6.22 24.1208 4.94 22.9008 4.02 21.3408C3.1 19.7808 2.64 17.9608 2.64 15.8808C2.64 13.8008 3.1 11.9808 4.02 10.4208C4.94 8.86078 6.22 7.65078 7.85999 6.79078C9.48 5.91078 11.36 5.47078 13.5 5.47078C15.64 5.47078 17.53 5.91078 19.17 6.79078C20.79 7.65078 22.06 8.86078 22.98 10.4208C23.9 11.9808 24.36 13.8008 24.36 15.8808ZM21.51 15.8808C21.51 14.4408 21.19 13.1908 20.55 12.1308C19.91 11.0508 18.99 10.2108 17.79 9.61078C16.59 9.01078 15.16 8.71078 13.5 8.71078C11.84 8.71078 10.41 9.01078 9.21 9.61078C8.01 10.2108 7.09 11.0508 6.45 12.1308C5.81 13.1908 5.49 14.4408 5.49 15.8808C5.49 17.3208 5.81 18.5808 6.45 19.6608C7.09 20.7408 8.01 21.5808 9.21 22.1808C10.41 22.7608 11.84 23.0508 13.5 23.0508C15.16 23.0508 16.59 22.7608 17.79 22.1808C18.99 21.5808 19.91 20.7408 20.55 19.6608C21.19 18.5808 21.51 17.3208 21.51 15.8808Z" fill="#EF3401"/>
</svg>
