<svg width="327" height="174" viewBox="0 0 327 174" fill="none" xmlns="http://www.w3.org/2000/svg">
<path d="M85.8418 155.458H90.9173C94.301 155.458 95.4289 156.585 95.4289 159.401V166.725C95.4289 168.978 93.737 170.668 90.9173 170.668H85.8418V155.458ZM89.2255 157.711V168.415H90.9173C92.0452 168.415 92.6091 167.851 92.6091 166.725V158.838C92.6091 157.711 92.0452 157.148 90.9173 157.148H89.2255V157.711Z" fill="white"/>
<path d="M121.37 170.104H117.987L117.423 167.288H113.475V170.104H110.655L114.039 154.895H118.551L121.37 170.104ZM114.603 165.598H117.423L115.731 158.275L114.603 165.598Z" fill="white"/>
<path d="M139.981 165.598L136.033 155.458H139.417L141.673 162.218L143.928 155.458H147.312L143.364 165.598V170.668H140.545V165.598H139.981Z" fill="white"/>
<path d="M150.696 61.3823V67.5789H147.312V61.9457H145.62V75.4655H147.312V69.8322H150.696V75.4655H152.387V61.3823H150.696Z" fill="white"/>
<path d="M165.358 61.3823H163.102L160.283 74.9022H161.975L162.539 72.0856H165.922L166.486 74.9022H168.178L165.358 61.3823C165.922 61.3823 165.922 61.3823 165.358 61.3823ZM165.922 70.3956H163.102L164.794 63.6356L165.922 70.3956Z" fill="white"/>
<path d="M179.457 61.3823H176.073V74.9022H177.765V69.8323H178.893C181.149 69.8323 182.841 68.7056 182.841 66.4523V64.7623C183.405 62.509 181.713 61.3823 179.457 61.3823ZM181.149 66.4523C181.149 67.5789 180.585 68.1423 179.457 68.1423H178.329V63.0723H180.021C181.149 63.0723 181.713 63.6356 181.713 64.7623V66.4523H181.149Z" fill="white"/>
<path d="M194.12 61.3823H190.736V74.9022H192.428V69.8323H193.556C195.811 69.8323 197.503 68.7056 197.503 66.4523V64.7623C198.067 62.509 196.375 61.3823 194.12 61.3823ZM195.811 64.7623V66.4523C195.811 67.5789 195.247 68.1423 194.12 68.1423H192.992V63.0723H194.683C195.247 63.0723 195.811 63.6356 195.811 64.7623Z" fill="white"/>
<path d="M213.294 61.3823H211.602L209.346 67.5789L207.09 61.3823H205.398L208.782 69.8323V74.3389H210.474V69.8323L213.294 61.3823Z" fill="white"/>
<path d="M47.4935 149.261C46.9296 149.261 46.3656 149.261 45.8017 149.261C42.9819 148.698 41.8541 146.445 41.8541 141.938C41.8541 135.178 45.2377 123.348 52.0051 107.012C54.8248 100.815 56.5166 94.6185 58.2085 88.9852C58.7724 86.7319 58.7724 85.0419 58.7724 83.3519C58.7724 82.2252 58.7724 81.0986 58.7724 79.9719C58.2085 77.7186 57.6445 76.0286 55.9527 74.902C53.133 73.212 50.3132 72.6486 46.3656 72.6486C42.9819 72.6486 39.0343 73.7753 35.0867 75.4653C31.1391 77.1553 27.1915 79.4086 23.8078 82.2252C20.4241 85.0419 17.0405 87.8585 14.2207 91.2385C11.401 94.6185 9.14522 98.5618 7.45338 102.505C6.32549 106.448 5.1976 109.828 5.1976 113.208C5.1976 114.335 5.1976 115.462 5.76154 116.588C6.88943 120.532 8.58127 123.348 10.8371 125.038C13.0928 126.728 15.9126 127.855 19.2962 127.855C23.8078 127.855 28.3194 125.602 32.267 121.658C36.2146 117.715 38.4704 113.208 38.4704 108.702C38.4704 106.448 37.9064 104.195 36.7785 103.068C35.6507 101.942 34.5228 101.378 33.9588 101.378C32.8309 101.378 31.703 101.378 30.5751 101.942C29.4473 102.505 28.8833 102.505 28.8833 101.942C28.8833 101.378 29.4473 101.378 31.1391 100.815C32.267 100.252 33.9588 99.6884 35.0867 99.6884C36.7785 99.6884 37.9064 100.252 39.0343 100.815C41.2901 102.505 42.418 104.758 42.418 108.702C42.418 112.082 41.2901 115.462 38.4704 118.842C35.6507 122.222 32.8309 125.038 28.8833 127.292C24.9357 129.545 21.552 130.671 17.6044 130.671C14.2207 130.671 10.2731 129.545 7.45338 126.728C4.06971 123.912 2.37787 120.532 1.24998 116.025C0.686035 113.772 0.686035 112.082 0.686035 110.392C0.686035 107.012 1.81393 103.068 3.50576 99.1251C5.1976 95.1818 8.01733 91.2385 10.8371 87.8585C14.2207 83.9152 17.6044 81.0986 21.552 78.8453C25.4996 76.5919 29.4473 74.3386 33.3949 72.6486C37.9064 70.9587 41.8541 70.3953 45.2377 70.3953C49.1853 70.3953 52.569 70.9587 55.3887 72.0853C60.4643 74.3386 63.284 79.4086 63.284 86.7319C63.284 92.3651 61.0282 99.1251 57.0806 107.575C54.2609 112.645 52.569 118.278 50.3132 123.912C47.4935 132.925 45.8017 138.558 45.8017 141.938C45.8017 144.755 46.9296 145.881 48.6214 145.881C52.0051 145.881 58.2085 141.375 66.6677 132.361C80.7663 117.715 98.2486 78.2819 105.58 59.6921C69.4874 11.8092 110.655 -10.724 118.551 5.61253C125.318 19.1324 121.37 39.4122 112.911 60.2554C121.37 71.522 133.213 82.2252 151.259 90.1118C164.23 96.3084 175.509 99.1251 185.66 99.1251L186.788 95.1818C189.608 86.7319 196.939 71.522 199.759 71.522C200.887 71.522 201.451 72.0853 201.451 73.212C200.323 76.0286 195.247 90.6752 193.555 94.6185L192.427 97.9984V98.5618C211.602 95.7451 224.008 80.5352 228.52 52.9321C229.648 47.2989 229.648 48.9888 229.648 52.9321C227.392 86.1685 211.602 100.815 191.3 103.632C187.352 117.152 185.096 128.418 185.096 137.431C185.096 147.571 187.352 152.641 191.3 152.641C192.991 152.641 194.683 152.078 195.811 150.388C197.503 149.261 198.067 147.571 198.631 146.445C199.195 145.881 199.759 145.318 200.323 145.881C200.887 145.881 200.887 146.445 200.887 146.445C200.323 147.571 199.759 148.135 199.195 149.261C198.631 150.388 197.503 151.515 195.811 153.205C194.119 154.895 192.427 155.458 190.736 155.458C182.84 155.458 178.893 148.698 178.893 135.741C178.893 125.602 180.585 115.462 183.968 104.195C161.41 104.758 136.033 92.9285 120.242 77.1553C116.859 73.7753 113.475 69.832 110.655 66.452C102.196 85.6052 89.7894 110.392 76.8187 126.728C71.7432 132.925 66.1037 139.121 59.3364 143.628C54.8248 147.571 50.8772 149.261 47.4935 149.261ZM248.822 127.292C248.258 127.292 247.694 127.292 247.694 127.292C247.13 127.292 247.13 127.292 247.13 127.292C246.566 127.292 246.566 127.292 246.002 127.292C244.874 127.292 243.183 126.728 242.055 126.165C241.491 127.855 241.491 130.108 241.491 131.798C241.491 136.305 242.619 139.121 245.438 139.685C246.002 139.685 246.566 140.248 247.13 140.248C247.694 140.248 248.822 140.248 249.386 139.685C250.514 139.121 251.078 139.121 251.642 138.558C252.77 137.431 253.898 136.305 254.461 135.178C254.461 134.615 255.025 134.615 255.589 134.615C256.153 134.615 256.717 134.615 256.717 135.178C256.717 135.741 256.153 136.305 255.025 137.431C254.461 138.558 253.334 139.685 252.77 140.248C252.206 140.811 251.078 141.375 249.95 141.938C248.822 142.501 247.694 143.065 246.566 143.065C242.055 143.065 238.671 140.811 237.543 136.305C236.979 134.615 236.979 133.488 236.979 131.798C236.979 129.545 237.543 126.728 238.107 123.912C231.34 117.152 226.828 103.068 235.851 84.4785C247.13 60.2554 265.74 65.8887 267.432 82.7886C308.6 43.3555 366.687 137.431 284.351 149.261C262.357 152.641 273.636 169.541 281.531 163.345C283.787 161.655 283.787 163.345 282.659 164.471C273.072 174.611 255.025 150.951 283.787 145.318C348.076 132.925 317.623 52.9321 267.432 91.2385C262.921 94.6185 261.229 89.5485 261.793 85.6052C261.793 80.5352 260.101 74.3386 255.589 73.212C237.543 68.7053 231.904 107.012 239.235 121.095C241.491 116.025 244.31 112.645 248.258 110.392C250.514 109.265 252.206 108.702 254.461 108.702C257.845 108.702 259.537 110.955 259.537 114.898C259.537 117.152 258.973 119.405 257.281 122.222C255.025 125.038 252.206 126.728 248.822 127.292ZM242.055 125.038C243.183 125.602 243.747 126.165 244.874 126.165C247.694 125.602 249.95 123.912 252.77 120.532C255.025 117.715 256.153 114.898 256.153 112.645C256.153 110.955 255.589 109.828 253.898 109.828C251.078 109.828 248.258 112.082 245.438 116.588C243.747 119.405 243.183 122.222 242.055 125.038ZM208.782 128.418C214.421 114.335 220.061 107.012 225.7 107.012C227.956 107.012 229.084 108.138 229.084 110.392C228.52 111.518 228.52 112.645 227.956 114.335C209.91 176.301 283.787 177.991 259.537 148.135C259.537 148.135 259.537 148.135 259.537 147.571C260.665 145.318 265.74 149.825 266.304 152.641C266.868 154.895 267.432 157.148 267.432 158.838C268.56 185.878 205.962 178.554 223.444 110.392C223.444 109.828 223.444 109.265 222.881 109.265C222.317 109.265 222.317 109.265 221.753 109.828C219.497 111.518 217.241 114.898 214.985 118.842C212.73 123.348 210.474 127.292 209.346 130.671C208.218 134.051 207.09 136.305 207.09 136.868C207.09 137.431 206.526 137.431 205.962 137.431C204.834 137.431 203.706 135.741 203.706 132.361C203.706 125.602 204.27 119.405 205.962 114.335C207.09 108.702 208.782 106.448 211.038 106.448C211.602 106.448 212.166 107.012 212.166 108.138C209.91 114.898 208.782 121.658 207.654 128.418H208.782V128.418ZM90.3534 139.685C86.9697 139.685 84.7139 136.868 84.7139 131.235C84.7139 127.855 85.2779 123.912 86.9697 119.968C89.2255 114.335 92.6091 110.392 96.5568 108.138C98.2486 107.012 99.9404 107.012 101.068 107.012C102.76 107.012 103.888 107.575 104.452 108.138C105.016 108.702 105.58 109.265 106.144 109.828L106.708 110.955C106.708 111.518 106.144 112.082 105.58 112.082C105.016 112.082 104.452 112.082 104.452 111.518C104.452 110.955 104.452 110.955 103.888 110.392C103.888 109.828 103.324 109.828 102.76 109.265C102.196 108.702 101.632 108.702 101.068 108.702C98.2486 108.702 95.4289 111.518 93.1731 116.588C90.3534 122.785 89.2255 128.418 89.2255 133.488C89.2255 136.305 89.7894 137.431 90.9173 137.431C92.0452 137.431 93.1731 136.305 94.301 134.615C95.9928 132.925 97.6847 130.108 99.3765 127.292C102.196 122.222 104.452 118.278 106.708 114.335C108.4 110.955 109.528 109.265 111.219 109.265C112.347 109.265 112.347 109.828 112.347 110.955C111.783 111.518 111.219 113.208 110.655 114.335C110.091 116.025 109.528 118.842 108.4 123.912C107.272 128.418 106.708 132.925 106.708 137.995C106.708 142.501 107.272 144.755 108.964 144.755C109.528 144.755 110.091 144.755 110.655 144.191C111.219 143.628 111.219 143.065 111.783 141.938C111.783 141.375 112.347 141.375 112.911 141.375H113.475V141.938C113.475 142.501 113.475 142.501 112.911 143.065C112.911 143.628 112.347 144.191 111.219 145.318C110.655 146.445 109.528 147.008 108.964 147.008C107.272 147.008 105.58 145.881 104.452 143.065C103.324 140.811 102.76 137.995 102.76 134.615C102.76 131.235 102.76 127.855 103.324 125.038H102.76C97.6847 134.615 93.1731 139.685 90.3534 139.685ZM123.062 149.261C120.242 149.261 118.551 148.135 117.423 145.318C116.295 142.501 115.731 138.558 115.731 132.925C115.731 127.292 116.859 121.095 117.987 113.772C119.679 106.448 121.37 100.252 123.626 95.1818C125.882 90.1118 127.574 87.8585 129.266 87.8585C129.83 87.8585 130.393 88.4218 130.393 88.9852C129.266 91.2385 128.138 94.0551 127.01 98.5618C125.318 103.068 124.19 107.012 123.626 110.392C122.498 113.772 121.934 118.278 120.806 123.348C120.242 128.418 119.679 132.361 119.679 135.741C119.679 139.121 120.242 141.938 120.806 143.628C121.37 145.318 122.498 146.445 123.626 146.445C124.754 146.445 125.882 145.881 126.446 145.318C127.574 144.191 128.138 143.065 128.702 142.501C128.702 141.938 129.266 141.938 129.83 141.938C129.83 141.938 130.393 141.938 129.83 142.501C129.83 143.065 129.266 143.065 129.266 143.628C129.266 144.191 128.702 144.755 128.138 145.881C126.446 148.135 124.754 149.261 123.062 149.261ZM145.62 107.012C149.004 107.012 150.696 109.265 150.696 113.208C150.696 115.462 150.132 117.715 148.44 120.532C145.62 124.475 142.236 126.728 138.289 126.728C137.725 126.728 137.161 126.728 136.597 126.165C136.033 126.165 136.033 125.602 135.469 125.038C138.853 125.038 141.672 123.348 143.928 119.405C146.184 116.588 147.312 113.772 147.312 111.518C147.312 109.828 146.748 108.702 145.056 108.702C142.236 108.702 139.417 110.955 136.597 115.462C133.777 120.532 132.649 125.602 132.649 130.671C132.649 135.178 133.777 137.995 136.597 138.558C137.161 138.558 137.725 139.121 138.289 139.121C138.853 139.121 139.981 139.121 140.544 138.558C141.672 137.995 142.236 137.431 142.8 137.431C143.928 136.305 145.056 135.178 145.62 134.051C145.62 133.488 146.184 133.488 146.748 133.488C147.312 133.488 147.876 133.488 147.876 134.051C147.876 134.615 147.312 135.178 146.184 136.305C145.62 137.431 144.492 138.558 143.928 139.121C143.364 139.685 142.236 140.248 141.108 140.811C139.981 141.375 138.853 141.375 137.725 141.375C133.213 141.375 129.83 139.121 128.702 134.615C128.138 132.925 128.138 131.235 128.138 130.108C128.138 127.292 128.702 123.912 130.393 120.532C132.649 115.462 135.469 111.518 139.417 108.702C141.108 107.575 143.364 107.012 145.62 107.012ZM156.899 128.418C162.538 114.335 168.178 107.012 173.817 107.012C176.073 107.012 177.201 108.138 177.201 110.392C176.637 111.518 176.637 112.645 176.073 114.335C158.027 176.301 231.904 177.991 207.654 148.135C207.654 148.135 207.654 148.135 207.654 147.571C208.782 145.318 213.857 149.825 214.421 152.641C214.985 154.895 215.549 157.148 215.549 158.838C216.677 185.878 154.079 178.554 171.561 110.392C171.561 109.828 171.562 109.265 170.998 109.265C170.434 109.265 170.434 109.265 169.87 109.828C167.614 111.518 165.358 114.898 163.102 118.842C160.847 123.348 158.591 127.292 157.463 130.671C156.335 134.051 155.207 136.305 155.207 136.868C155.207 137.431 154.643 137.431 154.079 137.431C152.387 137.431 151.823 135.741 151.823 132.361C151.823 125.602 152.387 119.405 154.079 114.335C155.207 108.702 156.899 106.448 159.155 106.448C159.719 106.448 160.283 107.012 160.283 108.138C158.027 114.898 156.899 121.658 155.771 128.418H156.899V128.418ZM193.555 137.995C193.555 131.235 194.119 125.602 195.811 120.532C196.939 115.462 199.195 112.645 200.887 112.645C202.015 112.645 202.578 113.208 202.578 114.335C202.015 115.462 201.451 117.152 200.887 118.842C200.323 120.532 199.195 124.475 198.067 128.982C196.939 134.051 196.375 138.558 196.375 142.501C196.375 143.065 195.811 143.628 195.247 143.628C194.119 143.628 193.555 141.375 193.555 137.995ZM202.015 109.828C200.887 109.828 200.323 108.702 200.323 107.012C200.323 105.885 200.887 104.758 201.451 103.632C202.015 102.505 202.579 101.942 203.706 101.942C204.834 101.942 204.834 102.505 204.834 103.632C204.834 104.758 203.706 106.448 202.578 108.702L202.015 109.828ZM263.485 105.885C264.049 105.885 264.613 105.322 265.176 103.632C265.74 101.942 265.74 100.815 265.74 99.1251C265.74 97.4351 266.304 96.8718 267.432 96.8718C268.56 96.8718 269.124 97.4351 269.124 99.1251C269.124 101.378 267.996 103.632 266.304 105.322C265.74 106.448 264.613 106.448 264.049 106.448C264.049 106.448 263.485 106.448 263.485 105.885ZM275.327 143.065C277.019 143.065 278.711 141.375 280.403 138.558C282.095 135.178 282.659 131.798 282.659 126.728C282.659 124.475 282.095 121.095 281.531 117.152C280.967 113.208 280.403 110.392 280.403 109.265C280.403 108.138 280.403 107.012 280.403 106.448C279.839 107.575 278.147 110.392 275.327 116.025C272.508 121.095 270.252 125.602 267.996 128.418H267.432C266.868 128.418 266.868 128.418 266.868 127.855C266.868 127.292 266.304 127.292 266.304 127.292C268.56 124.475 270.816 119.968 273.636 114.898C276.455 109.828 278.711 105.885 280.403 103.068C282.095 100.252 284.351 99.1251 286.042 99.1251C287.17 99.1251 287.734 99.6884 287.734 100.252C287.734 100.815 287.17 101.378 286.606 102.505C284.351 105.322 283.223 108.138 283.223 110.955C283.223 112.645 283.787 116.025 284.915 120.532C286.042 125.602 287.17 128.982 287.17 131.235C287.17 135.178 286.042 138.558 283.787 141.375C281.531 144.191 279.275 145.318 276.455 145.318C263.485 145.318 276.455 123.348 279.839 118.278L279.275 118.842C277.583 121.658 268.56 143.065 275.327 143.065ZM108.964 52.9321C116.859 31.5257 120.242 12.9358 112.911 7.30252C101.632 -0.0207532 93.737 25.8924 108.964 52.9321Z" fill="white"/>
</svg>
