<svg width="84" height="68" viewBox="0 0 84 68" fill="none" xmlns="http://www.w3.org/2000/svg">
<path d="M53 59H32V60H53V59Z" fill="black"/>
<path d="M10 8.5H74C75.933 8.5 77.5 10.067 77.5 12V51C77.5 52.933 75.933 54.5 74 54.5H10C8.067 54.5 6.5 52.933 6.5 51V12C6.5 10.067 8.067 8.5 10 8.5Z" fill="white" stroke="black"/>
<path fill-rule="evenodd" clip-rule="evenodd" d="M40 39L33 37.9399V32H40V39Z" fill="black"/>
<path fill-rule="evenodd" clip-rule="evenodd" d="M40 32H33V26.06L40 25V32Z" fill="black"/>
<path fill-rule="evenodd" clip-rule="evenodd" d="M51 40L42 38.6726V32H51V40Z" fill="black"/>
<path fill-rule="evenodd" clip-rule="evenodd" d="M51 31H42V24.3267L51 23V31Z" fill="black"/>
<path d="M45.5 54.5H39.5V59.5H45.5V54.5Z" fill="white" stroke="black"/>
</svg>
